<?xml version="1.0" encoding="UTF-8" standalone="no"?>
<!-- Created with Inkscape (http://www.inkscape.org/) -->

<svg
   width="53.186634mm"
   height="60.135647mm"
   viewBox="0 0 53.186634 60.135647"
   version="1.1"
   id="svg1"
   xml:space="preserve"
   inkscape:version="1.4.3 (0d15f75, 2025-12-25)"
   sodipodi:docname="рисунок1.svg"
   xmlns:inkscape="http://www.inkscape.org/namespaces/inkscape"
   xmlns:sodipodi="http://sodipodi.sourceforge.net/DTD/sodipodi-0.dtd"
   xmlns="http://www.w3.org/2000/svg"
   xmlns:svg="http://www.w3.org/2000/svg"
   xmlns:rdf="http://www.w3.org/1999/02/22-rdf-syntax-ns#"
   xmlns:cc="http://creativecommons.org/ns#"
   xmlns:dc="http://purl.org/dc/elements/1.1/"><defs
     id="defs1" /><sodipodi:namedview
     id="base"
     pagecolor="#ffffff"
     bordercolor="#000000"
     borderopacity="0.3"
     inkscape:pageopacity="0.0"
     inkscape:pageshadow="2"
     inkscape:zoom="0.35"
     inkscape:cx="537.14285"
     inkscape:cy="-195.71428"
     inkscape:document-units="mm"
     inkscape:showpageshadow="2"
     inkscape:pagecheckerboard="0"
     inkscape:deskcolor="#d1d1d1"
     inkscape:window-width="1920"
     inkscape:window-height="1009"
     inkscape:window-x="-8"
     inkscape:window-y="-8"
     inkscape:window-maximized="1"
     inkscape:current-layer="svg1"><inkscape:page
       x="0"
       y="0"
       width="53.186634"
       height="60.135647"
       id="page21"
       margin="0"
       bleed="0" /></sodipodi:namedview><metadata
     id="metadata1"><rdf:RDF><cc:Work
         rdf:about=""><dc:format>image/svg+xml</dc:format><dc:type
           rdf:resource="http://purl.org/dc/dcmitype/StillImage" /></cc:Work></rdf:RDF></metadata><g
     id="g11"
     transform="translate(-104.67919,-64.946498)"><path
       style="fill:#ffffff;fill-opacity:0.027523;stroke:#000000;stroke-width:0.264999"
       d="m 128.22149,85.251362 c -0.59878,0.480918 -0.66103,1.437011 -0.66817,2.204974 -0.0107,1.145683 0.24088,2.39626 0.93544,3.30746 0.67846,0.890081 1.79254,1.445971 2.87315,1.737253 1.24747,0.33626 2.67128,0.201043 3.87541,-0.06682 0.8856,-0.197004 1.63307,-0.992173 2.03794,-1.80407 0.69294,-1.389583 0.88155,-3.178595 0.36749,-4.643807 -0.24779,-0.706246 -0.82398,-1.408859 -1.53681,-1.637027 -0.43264,-0.138486 -0.88964,0.18469 -1.33634,0.26727 -1.17739,0.217659 -2.34647,0.524175 -3.54132,0.601357 -0.5672,0.03664 -1.13556,-0.0775 -1.70385,-0.06682 -0.43552,0.0082 -0.96332,-0.172542 -1.30294,0.100228 z"
       id="path1-3"
       sodipodi:nodetypes="aaaasaaaaaaaa" /><path
       style="fill:#ffffff;fill-opacity:0.027523;stroke:#000000;stroke-width:0.264999"
       d="m 130.05897,74.861259 -0.23386,-3.107008 1.97111,-0.300678 0.40091,3.207234 2.47224,-0.26727 0.30068,2.372018 -2.3052,0.167043 0.46772,4.677217 -1.97111,0.200452 -0.56795,-4.576991 -2.90655,0.167044 -0.0668,-2.271792 z"
       id="path2-1"
       sodipodi:nodetypes="ccccccccccccc" /><path
       style="fill:#ffffff;fill-opacity:0.027523;stroke:#000000;stroke-width:0.264999"
       d="m 135.80526,84.249101 c 0.13364,-0.133634 3.522,-2.661152 4.10927,-4.643808 0.66268,-2.237266 0.57683,-5.388566 -0.73499,-7.550364 -1.16495,-1.919764 -3.48538,-3.298446 -5.64607,-3.674956 -2.26024,-0.393858 -4.43857,-0.164186 -6.68173,0.50113 -2.19267,0.65034 -4.21483,2.459142 -5.17835,4.543582 -0.91127,1.971396 -0.72973,4.436105 -0.10023,6.514695 0.4038,1.333338 1.15113,2.619677 2.37202,3.441095 1.70224,1.145262 4.71063,1.737252 4.71063,1.737252"
       id="path16-2"
       sodipodi:nodetypes="csassaasc" /><path
       style="fill:#ffffff;fill-opacity:0.027523;stroke:#000000;stroke-width:0.264999"
       d="m 128.48876,68.421734 c -0.22034,0.0235 -0.1361,-1.24976 0.26728,-1.678787 0.41364,-0.439942 1.29206,-0.677506 2.06298,-0.350791 0.53334,0.226027 0.92959,0.495154 0.95214,1.07743 0.0333,0.860116 -0.21764,0.697898 -0.47605,0.709935 -2.07618,0.09671 -2.44488,0.20366 -2.80635,0.242213 z"
       id="path17-3"
       sodipodi:nodetypes="ssssss" /><path
       style="fill:#ffffff;fill-opacity:0.027523;stroke:#000000;stroke-width:0.264999"
       d="m 122.43774,81.877084 c 0,0 -0.95501,2.039609 -2.8259,2.206652 -1.87089,0.167043 -2.81612,-0.268948 -2.81612,-0.268948 0,0 -0.26727,-0.09617 -0.60135,-0.02935 -0.33409,0.06682 -1.28338,0.562216 -1.55064,1.230389 -0.26727,0.668174 -0.5207,1.972792 -0.15321,2.774601 0.3675,0.801807 0.96886,1.870887 1.83748,2.438834 0.86863,0.567947 2.50565,0.835218 3.47451,0.835218 0.96885,0 3.50791,-0.100227 4.47676,-0.367496 0.96885,-0.267271 3.30746,-2.004523 3.30746,-2.004523"
       id="path18-3"
       sodipodi:nodetypes="cscssssssc" /><path
       style="fill:#ffffff;fill-opacity:0.027523;stroke:#000000;stroke-width:0.264999"
       d="m 139.74749,79.905971 c 0,0 1.20272,0.734992 3.64155,0.634766 2.43884,-0.100227 2.50565,0.434312 2.60588,1.035669 0.10022,0.601356 -0.54981,2.675606 -1.10249,3.424391 -0.51784,0.701583 -1.00622,1.144697 -2.48894,1.637026 -0.83344,0.27674 -2.18827,0.451017 -3.30746,0.467721 -0.77483,0.01156 -1.25283,0.05011 -1.25283,0.05011"
       id="path19-4"
       sodipodi:nodetypes="csssssc" /><path
       style="fill:#ffffff;fill-opacity:0.027523;stroke:#000000;stroke-width:0.264999"
       d="m 115.46314,89.606404 c 0,0 -0.73467,0.502062 -0.8032,0.897694 -0.0784,0.452421 0.16419,0.985099 0.51972,1.275669 0.6577,0.537543 1.69997,0.198768 2.50409,0.47247 3.32715,1.132474 6.37276,2.990033 9.40215,4.771948 1.96534,1.156034 3.4295,3.401895 5.66965,3.827015 0.85592,0.16242 1.78765,-0.14774 2.55134,-0.56697 1.1324,-0.621627 1.92133,-1.741322 2.74032,-2.740326 1.04401,-1.273488 1.64058,-2.884813 2.74033,-4.11049 0.91842,-1.02359 2.03538,-1.862282 3.16555,-2.645833 0.55063,-0.381757 1.3946,-0.423023 1.74814,-0.992188 0.29132,-0.469002 0.47247,-1.181177 0.0945,-1.653646 -0.37798,-0.472471 -0.94495,-0.944941 -1.74815,-1.27567 -0.80319,-0.33073 -1.13392,-0.472471 -1.13392,-0.472471"
       id="path20-1"
       sodipodi:nodetypes="caaaaaaaaaassc" /><path
       style="fill:#ffffff;fill-opacity:0.027523;stroke:#000000;stroke-width:0.264999"
       d="m 115.84111,92.110497 c 0,0 -0.0614,0.988212 0.14174,1.41741 1.0238,2.163533 4.14962,3.698492 6.00038,5.764136 0.68947,0.769517 1.88841,1.423637 1.88988,2.456847 4.8e-4,0.33705 -0.38185,0.55906 -0.61422,0.8032 -0.1849,0.19427 -0.49333,0.28031 -0.61421,0.51972 -0.21342,0.42269 0.0296,0.96043 -0.0945,1.41741 -0.47981,1.76725 -1.50151,3.35141 -2.45685,4.91369 -1.04021,1.70107 -2.70248,3.01134 -3.54352,4.81919 -0.19818,0.426 -0.48619,0.92679 -0.33073,1.37017 0.58683,1.67366 2.5777,2.55472 4.20498,3.26004 3.57057,1.5476 7.63829,1.9525 11.52828,1.84264 3.69001,-0.10422 7.4661,-0.81919 10.81956,-2.36236 1.39923,-0.64388 2.99926,-1.40851 3.68527,-2.78757 0.17536,-0.35252 0.12076,-0.80643 0,-1.18117 -0.86869,-2.69573 -3.73348,-4.34563 -4.96093,-6.89807 -0.35439,-0.73695 -0.52387,-1.55627 -0.66146,-2.36235 -0.12216,-0.71564 -0.19468,-1.4493 -0.14174,-2.17337 0.0329,-0.44978 0.11845,-0.90321 0.28348,-1.32291 1.31549,-3.34562 4.21241,-5.914802 5.5279,-9.260419 0.16503,-0.419704 0.47247,-0.944941 0.28348,-1.322917 -0.18899,-0.377976 -1.41741,-0.992188 -1.41741,-0.992188"
       id="path22-1"
       sodipodi:nodetypes="csaaaaaaaaaaaaaaaaaasc" /><path
       style="fill:#ffffff;fill-opacity:0.027523;stroke:#000000;stroke-width:0.264999"
       d="m 129.92073,99.33929 c 0,0 3.18133,2.5823 3.54352,4.44122 0.20108,1.03201 -0.23619,2.4096 -0.89769,3.02381 -0.66146,0.61421 -3.02381,1.70089 -3.82701,2.22061 -0.8032,0.51972 -6.14212,5.19717 -7.08705,6.61459 -0.66817,1.00226 -1.37017,2.36235 -1.37017,2.64583 0,0.28348 -0.0473,0.51971 -0.0473,0.51971"
       id="path29-3"
       sodipodi:nodetypes="cacsssc" /><path
       style="fill:#ffffff;fill-opacity:0.027523;stroke:#000000;stroke-width:0.264999"
       d="m 122.83367,119.56102 c 0,0 1.55915,-3.68527 2.36235,-4.53572 0.8032,-0.85044 2.32659,-3.18915 3.82701,-4.44122 1.36044,-1.13525 3.26175,-1.51241 4.58296,-2.69308 0.58716,-0.5247 1.27567,-0.85044 1.41741,-1.88988 0.14174,-1.03943 -0.18899,-2.22061 -0.33073,-2.69308 -0.14174,-0.47247 -1.5119,-2.45684 -1.5119,-2.45684"
       id="path40-8"
       sodipodi:nodetypes="csaassc" /><path
       style="fill:#ffffff;fill-opacity:0.027523;stroke:#000000;stroke-width:0.264999"
       d="m 137.33851,98.347102 c 0,0 -1.46466,4.960938 -0.75595,6.520088 0.7087,1.55916 2.59858,2.97657 3.0238,3.44904 0.42523,0.47247 3.16555,3.77976 4.016,5.29166 0.85045,1.51191 1.74814,3.2128 1.74814,3.2128"
       id="path41-7"
       sodipodi:nodetypes="csssc" /><path
       style="fill:#ffffff;fill-opacity:0.027523;stroke:#000000;stroke-width:0.264999"
       d="m 139.70085,94.992564 c 0,0 -2.26785,6.850816 -1.65364,8.787946 0.61421,1.93713 2.17337,3.16555 2.55134,3.59078 0.37798,0.42522 4.29948,5.62239 4.67746,6.18935 0.37797,0.56697 1.13392,2.03163 1.13392,2.03163"
       id="path42-4"
       sodipodi:nodetypes="csssc" /><path
       style="fill:#ffffff;fill-opacity:0.027523;stroke:#000000;stroke-width:0.264999"
       d="m 116.07735,115.1198 c 0,0 -0.7,0.26127 -0.85045,0.56696 -0.30671,0.62318 -0.21637,1.48374 0.14174,2.07887 0.83145,1.38177 2.58612,2.02513 4.11049,2.55134 4.77745,1.64915 10.02427,1.91082 15.0718,1.65365 3.37799,-0.17211 6.89932,-0.60804 9.92188,-2.12612 1.3663,-0.68623 2.97124,-1.57143 3.44903,-3.02381 0.16121,-0.49005 0.0199,-1.13351 -0.33073,-1.5119 -0.22352,-0.24121 -0.94494,-0.28349 -0.94494,-0.28349"
       id="path43-2"
       sodipodi:nodetypes="caaaaaaac" /><path
       style="fill:#ffffff;fill-opacity:0.027523;stroke:#000000;stroke-width:0.264999"
       d="m 115.55763,117.95462 c 0,0 0.15623,1.46505 0.61421,1.98437 1.5897,1.80264 3.1183,2.22061 6.56734,2.97657 3.44903,0.75595 8.78794,1.08668 11.859,0.94494 3.07106,-0.14175 5.79351,-0.53937 8.45722,-1.6064 1.48013,-0.59291 2.95261,-1.41051 4.01599,-2.59859 0.18789,-0.20992 0.32047,-0.48015 0.37798,-0.75595 0.0612,-0.29334 -0.0472,-0.89769 -0.0472,-0.89769 l 0.0945,-0.37798 -0.14174,0.42522"
       id="path44-7"
       sodipodi:nodetypes="cassaaaccc" /><path
       style="fill:#c399a3;fill-opacity:1;stroke:#000000;stroke-width:0.715411"
       d="m 481.51478,320.14202 c -14.34823,-2.4685 -20.48616,-9.24344 -23.15449,-22.41219 -1.61308,-7.96087 -1.42964,-14.52496 1.81322,-21.00704 5.88613,-11.76568 19.53789,-19.71757 36.71218,-19.66796 13.76945,0.0398 25.69805,7.57457 30.52954,18.12793 3.84355,8.39542 4.51394,21.45227 0.61918,28.09825 -0.94322,1.60948 -4.63357,6.14502 -7.98252,9.31508 -5.74452,5.43767 -7.27582,6.37009 -12.17758,7.5478 -7.9649,1.91367 -11.84581,2.49511 -18.05592,1.42671 z m 21.9442,-11.22733 c 0.33101,-0.30082 0.22006,-4.15966 -0.24656,-8.57521 -0.97448,-9.2213 -3.81363,-7.52919 4.50992,-9.25712 l 2.94555,-0.45732 -0.4022,-2.94644 c -0.31375,-2.2985 -0.34137,-3.75117 -0.46856,-4.87104 l -0.91455,-2.28175 -3.87472,0.21402 -4.49974,0.48189 -0.4135,-2.75371 c -0.22742,-1.51453 -0.62076,-4.2901 -0.87407,-6.16793 -0.36313,-2.69191 -0.70718,-3.34685 -1.62626,-3.09576 -0.64113,0.17517 -2.67562,0.52338 -4.52109,0.77381 l -3.35539,0.45534 0.42577,6.03328 0.42578,6.03328 h -2.15967 c -1.18781,0 -3.16413,0.20089 -4.39181,0.44643 l -1.83035,0.3125 0.0893,4.19842 0.0893,5.53771 5.75893,-0.16459 5.40178,-0.52173 1.09764,9.11692 0.91906,8.13478 3.36665,-0.0271 c 2.20549,-0.0177 4.21784,-0.31785 4.54885,-0.61866 z"
       id="path146"
       transform="scale(0.26458333)"
       sodipodi:nodetypes="ssssssssssssscsscccsssscccsscccccccsss" /><path
       style="fill:#92636e;fill-opacity:1;stroke:#000000;stroke-width:0.715411"
       d="m 445.62499,343.93645 c -6.80866,-1.75789 -9.75646,-4.41046 -12.35654,-9.54147 -3.01665,-5.95306 -1.52961,-15.20969 3.75528,-17.22539 1.86111,-0.70985 2.88394,-0.61683 6.31635,0.0725 8.06156,1.61899 11.93595,0.0289 16.90316,-3.72593 l 2.39081,-3.37295 2.52226,2.45125 c 2.50548,2.43494 8.6439,6.05754 14.16502,7.66257 3.82039,1.11062 5.62529,0.47233 4.85521,1.91123 -0.451,0.84271 -1.97821,5.47655 -2.37426,8.16528 l 0.14216,4.75808 -2.98355,3.47241 c -3.45743,4.02393 -10.71727,6.15853 -20.97705,6.4077 -5.12772,0.12453 -11.57313,-0.83246 -12.35885,-1.03528 z"
       id="path147"
       transform="scale(0.26458333)"
       sodipodi:nodetypes="csssscsssscssc" /><path
       style="fill:#92636e;fill-opacity:1;stroke:#000000;stroke-width:0.715411"
       d="m 520.86332,324.73027 c -0.44332,-1.59013 -2.89597,-4.41152 -4.22011,-4.99512 l -3.02985,-1.33537 6.24621,-5.94676 c 2.53042,-2.40911 5.52006,-6.13162 7.04528,-7.40713 l 2.04907,-2.62106 3.66977,1.24293 c 2.02302,0.68519 6.88919,0.70724 10.2784,0.70724 5.06271,0 7.1767,0.6795 8.14791,1.75267 1.56566,1.73004 1.0525,4.72033 -0.99216,10.3533 -3.16872,8.72972 -9.67488,12.09617 -21.66498,11.97317 l -6.16072,1.18588 z"
       id="path148"
       transform="scale(0.26458333)"
       sodipodi:nodetypes="sscsscssssscs" /><path
       style="fill:#8c3f57;fill-opacity:1;stroke:#000000;stroke-width:0.715411"
       d="m 447.65757,445.44643 c -5.02394,-2.96275 -8.28257,-7.216 -8.28257,-9.88009 0,-2.37572 2.55769,-6.88135 8.56994,-14.33392 8.47517,-10.50554 15.98363,-22.50609 15.98363,-27.83186 0,-2.22019 -0.40159,-3.77505 1.60714,-5.72199 2.72901,-2.64506 2.94069,-2.8998 1.39905,-5.83904 -0.98302,-1.87418 -10.88195,-10.90412 -20.0067,-18.36254 -5.52281,-4.51426 -9.07092,-10.20086 -9.07092,-13.05625 0,-2.11046 1.10443,-1.68183 4.22239,-1.25446 6.2492,0.85655 24.57238,9.91341 38.12668,18.84543 3.25627,2.14582 10.21833,6.81031 14.27084,10.80203 8.47105,8.34398 10.93847,13.48787 10.16886,18.04319 -0.82467,4.88114 -4.53379,7.62537 -12.77439,12.25021 -15.36744,8.62461 -34.15822,27.30364 -36.35554,36.07143 -0.27076,1.08036 -1.95582,2.32143 -2.21681,2.32143 -0.26099,0 -3.14346,-0.58036 -5.6416,-2.05357 z"
       id="path149"
       transform="scale(0.26458333)"
       sodipodi:nodetypes="ssssssssssssssss" /><path
       style="fill:#8c3f57;fill-opacity:1;stroke:#000000;stroke-width:0.715411"
       d="m 527.82417,402.92875 c -2.12833,-2.35189 -2.46066,-2.88837 -4.91522,-6.6389 -1.80525,-2.75841 -1.98159,-5.72764 -1.63819,-10.84415 0.45874,-6.83507 1.93923,-18.34684 4.49639,-23.62041 2.20851,-4.55457 14.90629,-16.63344 20.50736,-19.56597 3.82876,-2.00462 3.40246,-2.03392 5.31657,-0.87623 1.08919,0.65875 3.33623,2.42635 3.46565,3.05496 0.42193,2.04944 -2.84159,9.66742 -9.83654,19.86443 -3.77116,5.49748 -8.17584,10.79008 -9.56993,13.72564 -2.48584,5.23446 -3.9563,7.25676 -3.6014,14.05641 0.19903,3.81333 -1.45147,9.26006 19.97308,35.56615 1.17414,1.44165 4.47009,10.26837 0.62373,9.13817 -3.38365,-0.99423 -22.69316,-31.5082 -24.8215,-33.8601 z"
       id="path150"
       transform="scale(0.26458333)"
       sodipodi:nodetypes="sssssssssssss" /><path
       style="fill:#672d3f;fill-opacity:1;stroke:#000000;stroke-width:0.715411"
       d="m 478.83929,455.8639 c -4.61135,-0.0922 -13.23844,-3.34164 -14.15243,-3.90652 -1.62954,-1.00711 6.1457,-16.02352 13.78403,-24.34889 8.41707,-9.17417 9.96802,-11.48233 17.58525,-15.2385 6.78514,-3.34586 12.56415,-5.77336 13.99589,-8.54204 1.17495,-2.2721 1.33209,-8.38799 0.31005,-12.0669 -0.38576,-1.38856 -1.66968,-4.05151 -2.85316,-5.91766 -1.18348,-1.86615 -2.15178,-3.50678 -2.15178,-3.64585 0,-0.13906 1.11766,-0.46251 2.48368,-0.71878 1.36602,-0.25627 3.93745,-1.57563 5.71428,-2.93192 1.77684,-1.35629 3.22429,-2.38774 3.21656,-2.29212 -0.008,0.0956 -0.47866,2.74528 -1.04651,5.88813 -1.32991,7.3606 -1.34163,11.92522 -0.0386,15.04377 0.57402,1.37384 4.19009,5.78331 8.03571,9.79883 8.66063,9.04326 16.0868,18.83026 20.85166,27.48053 2.00221,3.63487 3.64037,6.76557 3.64037,6.95712 0,0.19155 -2.8125,1.75252 -6.25,3.46881 -10.26326,5.1243 -19.14761,7.77997 -31.55255,9.43154 -6.80763,0.90635 -16.12536,1.84939 -22.64387,1.71902 z"
       id="path151"
       transform="scale(0.26458333)"
       sodipodi:nodetypes="sssssssssscsssssssss" /><path
       style="fill:#ef0034;fill-opacity:1;stroke:#000000;stroke-width:0.715411"
       d="m 457.71595,450.04535 c -1.74192,-0.4584 -3.88162,-1.44301 -4.08819,-1.98132 -0.48847,-1.27294 6.55669,-10.24 9.62044,-14.63644 11.23324,-16.11955 21.84248,-20.40082 28.12015,-23.78484 8.54992,-4.60888 10.66413,-6.67772 12.18134,-10.01851 2.4338,-5.35909 1.627,-9.36244 -2.37002,-14.10235 -2.24411,-2.66121 -4.381,-4.62904 -2.62966,-4.62904 1.66617,0 6.04405,-1.15655 8.99319,4.12129 2.0074,3.5925 4.76528,9.99996 3.65478,14.10321 l -0.84086,3.10694 -1.25,2.70129 c -1.09959,2.37622 -11.46428,7.49426 -15,9.31465 -8.96666,4.61654 -12.0256,8.78703 -18.12319,15.92478 -5.09535,5.96454 -5.28272,7.78151 -7.58508,12.80071 -1.70711,3.72153 -4.14566,8.61605 -4.54599,8.58504 -0.40033,-0.031 0.51411,0.24487 -2.74407,-0.61255 z"
       id="path152"
       transform="scale(0.26458333)"
       sodipodi:nodetypes="ssssssssscsssssss" /><path
       style="fill:#ef0034;fill-opacity:1;stroke:#000000;stroke-width:0.715411"
       d="m 547.38879,439.25656 c -0.56458,-0.917 -3.65662,-6.7217 -5.12517,-9.40727 -3.78479,-6.9213 -11.90386,-14.51343 -19.99688,-23.03549 -8.14449,-8.57625 -8.29418,-15.63632 -7.16732,-23.58171 1.17405,-8.27816 3.14408,-9.70063 5.52289,-13.01306 1.21409,-1.69059 3.6278,-3.34987 3.7269,-3.25077 0.0991,0.0991 -0.57926,3.32153 -1.50746,7.16096 -0.92819,3.83943 -1.90652,9.20227 -2.17407,11.91742 -0.44856,4.55218 -0.31783,5.28774 1.67866,9.445 1.1908,2.4796 4.2036,6.77002 6.69509,9.53426 5.64204,6.25969 19.92582,25.38908 21.91817,29.35366 1.45026,2.88587 1.82019,3.81165 0.40685,4.88157 -2.70306,2.04625 -3.00423,1.5765 -3.97766,-0.005 z"
       id="path153"
       transform="scale(0.26458333)"
       sodipodi:nodetypes="sssssssssssss" /><path
       style="fill:#e7c9d2;fill-opacity:1;stroke:#000000;stroke-width:0.715411"
       d="m 478.8332,460.6017 c -19.79664,-2.25098 -38.15187,-8.51137 -42.68906,-14.70239 -1.59699,-2.17911 -1.21385,-8.45368 0.12752,-9.73985 0.74782,-0.71704 1.98305,-0.53181 2.6416,0.57936 4.52383,7.63299 15.54591,13.383 32.60459,16.9807 9.48357,2.00011 37.80636,1.71608 47.58929,-0.42036 9.42428,-2.05811 14.2617,-4.29196 22.06611,-7.96569 7.02168,-3.30528 10.30105,-5.29783 11.90548,-8.61061 0.97571,-2.01463 2.90362,-2.42872 4.37858,-1.39562 2.98778,2.09273 2.37942,8.1894 -2.34653,11.91512 -6.47673,5.10597 -15.92597,9.32185 -28.32507,11.62886 -15.47725,2.87973 -39.2649,2.71831 -47.95251,1.73048 z"
       id="path154"
       transform="scale(0.26458333)"
       sodipodi:nodetypes="ssssssssssss" /><path
       style="fill:#e7c9d2;fill-opacity:1;stroke:#000000;stroke-width:0.715411"
       d="m 494.82142,467.97348 c -1.57143,-0.15513 -10.58928,-0.53542 -14.91071,-0.95421 -9.04306,-0.87638 -26.70971,-4.77997 -32.14015,-6.81176 -5.02949,-1.88177 -10.15793,-6.86277 -10.68739,-10.8345 -0.43081,-3.23171 0.86675,-1.51999 3.59361,0.42171 4.98773,3.55158 19.96176,9.06653 33.60893,10.9523 11.16661,1.543 42.29352,0.23569 51.97087,-1.58485 11.45345,-2.15466 22.2038,-7.04588 28.5137,-11.77454 2.81672,-2.11086 3.12417,-0.069 2.18228,2.40836 -2.29195,6.02828 -14.16209,13.59451 -29.72042,16.30406 -6.18223,1.07665 -26.49412,2.45751 -32.41072,1.87343 z"
       id="path155"
       transform="scale(0.26458333)"
       sodipodi:nodetypes="sssssssssss" /><path
       style="fill:#e7c9d2;fill-opacity:1;stroke:#000000;stroke-width:0.715411"
       d="m 496.14962,350.24836 c -6.6176,-1.66586 -13.35602,-8.45009 -14.76739,-13.53241 -1.17989,-4.24873 1.54819,-12.37029 2.91678,-14.32422 1.09329,-1.56089 2.4159,-0.93625 7.14286,-0.58927 4.97593,0.36524 14.64273,-0.94858 20.04361,-2.55929 3.41081,-1.01721 7.09382,0.97791 9.00511,5.18751 3.51903,7.75059 -0.57278,21.8696 -7.23633,24.6538 -3.08898,1.29067 -13.69746,2.02157 -17.10464,1.16388 z"
       id="path156"
       transform="scale(0.26458333)"
       sodipodi:nodetypes="ssssssss" /><path
       style="fill:#ef0034;fill-opacity:1;stroke:#000000;stroke-width:0.715411"
       d="m 496.03076,309.19643 c -0.33861,0.006 -1.08851,-4.71098 -1.35413,-9.2048 l -0.73806,-7.73158 -4.5809,0.29851 -6.90232,0.11994 v -4.20651 l 0.0893,-5.01007 4.94096,-0.5451 3.33382,-0.0986 -0.47692,-7.21708 -0.29835,-4.94028 3.97346,-0.55362 c 1.28974,-0.1797 3.28071,-0.82147 4.16021,0.0714 0.20993,0.21312 0.88365,2.64285 1.13519,4.50892 0.25155,1.86608 0.58381,3.96887 0.7097,5.40496 l 0.20769,1.6103 3.72905,-0.36026 c 4.2526,-0.41084 5.09153,-0.80929 5.52237,0.80042 0.24972,0.933 0.94949,5.12494 0.95486,6.2053 0.01,1.92693 -0.29356,2.03373 -4.47914,2.63394 l -3.90853,0.84821 0.0958,0.71428 c 0.10552,0.7864 2.34177,15.64427 0.79453,16.05989 -2.07092,0.55628 -3.50914,0.53521 -4.23,0.54721 z"
       id="path157"
       transform="scale(0.26458333)"
       sodipodi:nodetypes="sscccccccccsssscsscscssss" /><path
       style="fill:#ef0034;fill-opacity:1;stroke:#000000;stroke-width:0.715411"
       d="m 485.22322,256.92785 c -1.5625,-6.42148 6.90391,-7.87301 10.66487,-5.92815 2.20439,1.13994 2.81487,5.25174 1.85854,6.14589 -0.30752,0.28753 -3.44044,-0.0485 -6.27342,0.35483 -5.12635,0.72991 -5.95776,0.62843 -6.24999,-0.57257 z"
       id="path158"
       transform="scale(0.26458333)"
       sodipodi:nodetypes="sssss" /><path
       style="fill:#e9e1e3;fill-opacity:1;stroke:#000000;stroke-width:0.715411"
       d="m 497.37238,380.5268 c -1.9432,-0.98704 -7.12354,-3.9424 -10.52972,-6.78571 -11.53557,-9.62933 -38.72778,-24.37703 -45.77124,-24.8983 -6.8154,-0.5044 -9.99056,-5.04005 -7.12884,-7.79136 l 2.04979,-1.9707 2.3234,2.06296 c 3.40257,3.02117 8.24441,3.5868 17.04137,3.55814 12.84196,-0.0418 16.36575,-0.93952 23.57143,-6.00475 l 2.5,-1.75738 1.83287,3.67263 c 4.22524,8.46638 15.96642,12.56261 27.60702,9.63148 6.22819,-1.56828 10.56777,-8.01449 11.0736,-16.44922 l 0.20079,-3.34827 4.64286,-1.79574 c 2.75801,-1.06672 7.83929,-0.26516 10,-0.79526 3.78269,-0.92802 5.85763,-0.71426 9.57459,1.12615 7.73833,3.83155 6.90211,9.12702 1.27722,12.53639 -7.97597,4.83441 -15.01815,11.24634 -20.37433,19.91071 -11.28127,18.24904 -20.5025,23.86699 -29.89081,19.09823 z"
       id="path159"
       transform="scale(0.26458333)"
       sodipodi:nodetypes="sssscssscssscssssss" /></g></svg>
