<?xml version="1.0" encoding="UTF-8" standalone="no"?>
<!-- Created with Inkscape (http://www.inkscape.org/) -->

<svg
   width="53.186634mm"
   height="60.135647mm"
   viewBox="0 0 53.186634 60.135647"
   version="1.1"
   id="svg1"
   xml:space="preserve"
   inkscape:version="1.4.3 (0d15f75, 2025-12-25)"
   sodipodi:docname="рисунок1.svg"
   xmlns:inkscape="http://www.inkscape.org/namespaces/inkscape"
   xmlns:sodipodi="http://sodipodi.sourceforge.net/DTD/sodipodi-0.dtd"
   xmlns="http://www.w3.org/2000/svg"
   xmlns:svg="http://www.w3.org/2000/svg"
   xmlns:rdf="http://www.w3.org/1999/02/22-rdf-syntax-ns#"
   xmlns:cc="http://creativecommons.org/ns#"
   xmlns:dc="http://purl.org/dc/elements/1.1/"><defs
     id="defs1" /><sodipodi:namedview
     id="base"
     pagecolor="#ffffff"
     bordercolor="#000000"
     borderopacity="0.3"
     inkscape:pageopacity="0.0"
     inkscape:pageshadow="2"
     inkscape:zoom="0.35"
     inkscape:cx="537.14285"
     inkscape:cy="-195.71428"
     inkscape:document-units="mm"
     inkscape:showpageshadow="2"
     inkscape:pagecheckerboard="0"
     inkscape:deskcolor="#d1d1d1"
     inkscape:window-width="1920"
     inkscape:window-height="1009"
     inkscape:window-x="-8"
     inkscape:window-y="-8"
     inkscape:window-maximized="1"
     inkscape:current-layer="svg1"><inkscape:page
       x="0"
       y="0"
       width="53.186634"
       height="60.135647"
       id="page22"
       margin="0"
       bleed="0" /></sodipodi:namedview><metadata
     id="metadata1"><rdf:RDF><cc:Work
         rdf:about=""><dc:format>image/svg+xml</dc:format><dc:type
           rdf:resource="http://purl.org/dc/dcmitype/StillImage" /></cc:Work></rdf:RDF></metadata><g
     id="g15"
     transform="translate(-47.327274,-134.43656)"><path
       style="opacity:1;fill:#cc9eb1;fill-opacity:0;stroke:#000000;stroke-width:0.264999"
       id="path99"
       sodipodi:type="arc"
       sodipodi:cx="73.933434"
       sodipodi:cy="152.97839"
       sodipodi:rx="4.8108511"
       sodipodi:ry="4.6772165"
       sodipodi:start="0"
       sodipodi:end="6.2812028"
       sodipodi:open="true"
       sodipodi:arc-type="arc"
       d="m 78.744285,152.97839 a 4.8108511,4.6772165 0 0 1 -4.808467,4.67722 4.8108511,4.6772165 0 0 1 -4.813233,-4.67258 4.8108511,4.6772165 0 0 1 4.803695,-4.68185 4.8108511,4.6772165 0 0 1 4.817995,4.66794" /><path
       style="opacity:1;fill:#cc9eb1;fill-opacity:0;stroke:#000000;stroke-width:0.264999"
       d="m 76.990328,149.37025 c 0,0 0.776294,0.0505 1.11919,-0.10022 0.620636,-0.27279 1.167746,-0.78074 1.503392,-1.36976 0.326556,-0.57307 0.419563,-1.27838 0.400904,-1.9377 -0.01956,-0.69125 -0.169062,-1.41747 -0.53454,-2.00452 -0.246108,-0.39531 -0.615584,-0.75732 -1.052373,-0.91874 -0.498993,-0.18441 -1.084494,0.16215 -1.59586,0.0155 -0.607655,-0.17426 -0.971571,-0.66025 -1.598376,-1.02064 -1.285637,-0.7392 -2.934199,-0.79508 -4.406242,-0.61519 -1.453295,0.17759 -2.90002,0.76466 -4.075859,1.63702 -1.014748,0.75284 -1.835444,1.81274 -2.372018,2.95667 -0.378871,0.80773 -0.43022,1.73653 -0.534538,2.62258 -0.03909,0.33198 0.05118,0.67887 -0.03341,1.00227 -0.08571,0.32767 -0.408524,0.56855 -0.467724,0.90203 -0.09223,0.51953 -0.04194,1.10153 0.200454,1.57021 0.257065,0.49705 0.732721,0.8915 1.23612,1.13589 0.751019,0.36461 1.637875,0.42918 2.472243,0.40091 0.491355,-0.0166 1.027209,-0.0618 1.436574,-0.33409 0.205887,-0.13693 0.434313,-0.60136 0.434313,-0.60136"
       id="path100"
       sodipodi:nodetypes="caaaaaasaaaaaaaaaac" /><path
       style="opacity:1;fill:#cc9eb1;fill-opacity:0;stroke:#000000;stroke-width:0.264999"
       d="m 64.563058,153.05673 c 0,0 -0.890066,-0.0875 -1.27567,0.0945 -0.669892,0.31615 -1.263614,0.91736 -1.535528,1.60639 -0.260169,0.65927 -0.225568,1.46263 0.02362,2.12613 0.5027,1.33849 1.702557,2.32891 2.787575,3.26004 1.258623,1.08012 2.833653,1.72505 4.228608,2.6222 1.050701,0.67575 2.123388,1.32339 3.118302,2.07887 0.595879,0.45248 1.058786,1.0806 1.700895,1.46466 0.470634,0.2815 0.993483,0.50737 1.535528,0.59059 0.249553,0.0383 0.520143,0.0429 0.755952,-0.0473 0.534113,-0.20433 0.907963,-0.69607 1.346541,-1.06306 0.710159,-0.59424 1.3277,-1.30116 2.078868,-1.84263 0.663972,-0.47862 1.405394,-0.84049 2.126115,-1.22842 0.434129,-0.23367 0.937813,-0.35362 1.322917,-0.66146 0.437099,-0.3494 0.899378,-0.76418 1.063059,-1.29929 0.150352,-0.49154 0.04385,-1.05619 -0.141742,-1.53554 -0.349141,-0.90176 -1.096722,-1.60044 -1.748139,-2.31509 -0.732218,-0.8033 -1.52905,-1.55975 -2.409598,-2.19699 -0.285647,-0.20672 -0.921317,-0.51972 -0.921317,-0.51972"
       id="path101"
       sodipodi:nodetypes="caaaaaaaaaaaaaaaaac" /><path
       style="opacity:1;fill:#cc9eb1;fill-opacity:0;stroke:#000000;stroke-width:0.264999"
       d="m 65.153645,160.59263 c 0,0 1.360199,1.18257 1.700892,1.98438 0.389765,0.9173 0.431137,1.99088 0.283483,2.97656 -0.219677,1.46647 -0.938026,2.83894 -1.700892,4.11049 -1.479355,2.46579 -3.897283,4.26151 -5.480656,6.66183 -0.546887,0.82906 -1.247029,1.66031 -1.370164,2.64583 -0.120301,0.96284 0.07928,2.05856 0.661459,2.83483 0.770037,1.02675 2.179141,1.3745 3.354538,1.88988 1.637487,0.71799 3.349862,1.30079 5.102679,1.65365 1.657835,0.33373 3.365299,0.48225 5.055431,0.42522 2.818217,-0.0951 5.675183,-0.42215 8.362725,-1.27567 1.174735,-0.37308 2.341074,-0.88839 3.30729,-1.65365 0.482121,-0.38185 0.980459,-0.83607 1.181176,-1.41741 0.344522,-0.99785 0.133894,-2.1349 -0.09449,-3.16555 -0.318987,-1.43953 -1.119654,-2.72945 -1.748142,-4.06324 -0.837656,-1.77769 -1.860318,-3.46443 -2.69308,-5.24442 -0.427648,-0.91408 -0.848562,-1.8348 -1.181174,-2.78758 -0.193941,-0.55555 -0.431783,-1.11387 -0.472471,-1.70089 -0.01648,-0.23776 0.09449,-0.70871 0.09449,-0.70871"
       id="path102"
       sodipodi:nodetypes="caaaaaaaaaaaaaaaaac" /><path
       style="opacity:1;fill:#cc9eb1;fill-opacity:0;stroke:#000000;stroke-width:0.264999"
       d="m 75.467333,166.89606 c 0,0 -2.573282,2.75179 -3.045751,3.50774 -0.472472,0.75595 -2.533162,3.22606 -3.960645,5.96934 -0.518399,0.99624 -1.554491,3.62622 -1.76771,4.48273 -0.336462,1.35158 -0.169419,0.80893 -0.263912,1.18691 -0.09449,0.37798 -0.183623,0.86186 0.04725,1.18118 0.23652,0.32713 0.850447,0.42522 1.133927,0.42522 0.283483,0 0.472472,-0.0944 0.472472,-0.0944 0,0 0.14174,-1.93712 0.661458,-3.59077 0.519716,-1.65364 2.099098,-4.60139 2.832448,-5.85863 0.883854,-1.51526 2.419176,-3.41631 3.131157,-4.34337 0.845934,-1.10148 3.107822,-2.79093 3.391305,-3.07441 0.283483,-0.28348 1.606399,-1.13393 1.606399,-1.13393"
       id="path103"
       sodipodi:nodetypes="cssssascssssc" /><path
       style="opacity:1;fill:#cc9eb1;fill-opacity:0;stroke:#000000;stroke-width:0.264999"
       d="m 67.919869,183.58075 c 0,0 3.890835,0.53548 5.846519,0.50114 2.590899,-0.0455 5.258376,-0.11815 7.717409,-0.93545 1.316022,-0.4374 2.563811,-1.15886 3.608139,-2.07134 0.275083,-0.24035 0.668173,-0.86862 0.668173,-0.86862"
       id="path104"
       sodipodi:nodetypes="caaac" /><path
       style="opacity:1;fill:#cc9eb1;fill-opacity:0;stroke:#000000;stroke-width:0.264999"
       d="m 59.162738,181.67408 c 0,0 -0.03376,1.22407 0.216663,1.7592 0.134721,0.28789 0.395387,0.50824 0.651959,0.69586 1.056793,0.77276 2.315087,1.24238 3.545377,1.69 1.253891,0.45621 2.556007,0.80339 3.875408,1.00226 2.149597,0.324 4.343732,0.41319 6.514695,0.30068 1.920435,-0.0995 3.838938,-0.39388 5.704533,-0.86028 1.060132,-0.26504 2.100916,-0.6302 3.090304,-1.09414 0.803643,-0.37683 1.592,-0.81118 2.288496,-1.3614 0.203932,-0.1611 0.426477,-0.32723 0.542889,-0.55959 0.126293,-0.25208 0.133636,-0.56795 0.133636,-0.83522 0,-0.26727 -0.110012,-0.96144 -0.110012,-0.96144"
       id="path105"
       sodipodi:nodetypes="caaaaaaaaasc" /><path
       style="opacity:1;fill:#cc9eb1;fill-opacity:0;stroke:#000000;stroke-width:0.264999"
       d="m 59.602121,183.6728 c 0,0 -0.15185,1.10278 0.141741,1.65365 0.353845,0.66392 0.991053,1.00271 1.606397,1.32292 2.174438,1.13152 3.240074,1.38559 5.008184,1.74813 2.371417,0.48625 4.93889,0.63422 7.417785,0.56697 2.056237,-0.0558 4.132414,-0.26773 6.118487,-0.8032 1.26093,-0.33997 2.522283,-0.79579 3.614399,-1.5119 0.44711,-0.29317 0.883722,-0.6511 1.157552,-1.11031 0.121326,-0.20346 0.164113,-0.4495 0.188989,-0.68508 0.02816,-0.26671 -0.04725,-0.8032 -0.04725,-0.8032"
       id="path106"
       sodipodi:nodetypes="csssaaaaac" /><path
       style="opacity:1;fill:#cc9eb1;fill-opacity:0;stroke:#000000;stroke-width:0.264999"
       d="m 76.422061,156.97823 c 0,0 -0.706265,0.54418 -0.968565,0.89769 -0.203556,0.27435 -0.344881,0.59591 -0.448847,0.92132 -0.02916,0.0913 -0.04725,0.28349 -0.04725,0.28349"
       id="path107"
       sodipodi:nodetypes="caac" /><path
       style="opacity:1;fill:#cc9eb1;fill-opacity:0;stroke:#000000;stroke-width:0.264999"
       d="m 71.201263,156.83649 c 0,0 0.843313,0.63487 1.252048,0.96857 0.289789,0.23659 0.585723,0.46799 0.850444,0.73233 0.161976,0.16174 0.448848,0.51971 0.448848,0.51971"
       id="path108"
       sodipodi:nodetypes="caac" /><path
       style="fill:#8c3f57;fill-opacity:1;stroke:#000000;stroke-width:0.505872"
       d="m 248.09443,580.12184 c -3.60227,-0.75839 -6.753,-2.78493 -7.97715,-5.15218 -1.04794,-2.02649 -1.03549,-5.41671 0.16378,-7.76901 0.67584,-1.32562 0.92334,-3.08003 0.92834,-5.12057 0.0256,-10.45517 5.29462,-19.55347 15.77423,-24.75295 4.15651,-2.06226 9.51938,-3.07547 15.18248,-3.08421 6.08404,-0.009 9.70507,0.59567 14.09528,3.65683 3.3208,2.3155 3.41932,2.55664 6.70728,2.44276 2.99717,-0.10381 5.07665,0.74648 6.46049,1.91086 4.33493,3.64761 4.96667,13.035 1.59998,18.04946 -1.60214,2.38626 -6.59206,4.39435 -8.3716,4.41009 -0.51684,0.005 -2.93339,-1.64758 -5.04273,-2.6893 -3.66191,-1.80847 -4.24295,-1.89403 -9.08785,-1.89403 -4.45193,0 -4.62577,0.16648 -7.16756,1.35773 -3.08789,1.44719 -7.33503,5.30845 -8.66247,7.87542 -0.44306,0.8568 -1.20541,3.08292 -1.69411,4.94695 -1.15928,4.4218 -0.71621,5.42894 -5.86883,6.9712 -1.82238,0.54547 -2.9553,-0.29918 -3.64671,-0.44474 z"
       id="path1"
       transform="scale(0.26458333)"
       sodipodi:nodetypes="ssssscsssscssssssss" /><path
       style="fill:#8c3f57;fill-opacity:1;stroke:#000000;stroke-width:0.505872"
       d="m 273.75134,696.19282 c -4.27923,0.13641 -15.02463,-1.1401 -16.16245,-1.41832 -1.45178,-0.35498 -0.33325,-4.32988 1.02869,-10.61601 1.46688,-6.7705 5.23889,-15.6287 11.52626,-26.54919 2.66675,-4.63187 10.97003,-13.39653 14.40845,-17.08209 2.66954,-2.86141 9.66745,-8.88151 13.56715,-11.67142 2.38931,-1.70935 2.76113,-5.01033 3.3795,-3.05711 1.28204,4.04956 6.1894,14.31806 12.33485,26.31343 7.92279,15.46456 9.19639,19.77701 10.16097,25.24055 0.63905,3.61968 -1.48345,4.71812 -2.83915,6.49554 -2.84871,3.73485 -10.43442,7.50985 -20.1703,10.25948 -6.60666,1.86587 -19.02253,1.82337 -27.23397,2.08514 z"
       id="path2"
       transform="scale(0.26458333)"
       sodipodi:nodetypes="ssssssssssss" /><path
       style="fill:#ef0034;fill-opacity:1;stroke:#000000;stroke-width:0.505872"
       d="m 251.14918,693.15405 c -1.24845,-1.24844 -1.44884,-3.74917 0.0277,-9.57005 2.2424,-8.83979 7.32359,-18.61913 12.71024,-26.79545 7.42356,-11.26812 18.13901,-25.60754 19.90256,-25.73844 1.38151,-0.10255 4.71257,-1.88579 9.62479,-6.4207 3.76644,-3.47714 6.29222,-5.21459 6.64052,-4.66442 0.24743,0.39084 0.29552,0.84986 0.50496,2.23188 0.14605,1.6977 0.33671,1.95435 0.36174,2.90107 0.0129,0.48736 -0.13796,2.24929 -1.51523,3.15766 -4.77982,3.15251 -10.68688,8.08794 -14.34934,11.80112 -8.95173,9.07568 -15.39352,17.3772 -20.64887,27.83467 -4.20823,8.37385 -6.32237,14.47376 -7.16776,20.68105 l -0.44317,5.78116 -1.78238,0.12627 c -0.98021,0.0694 -3.26643,-0.72643 -3.86581,-1.32582 z"
       id="path3"
       transform="scale(0.26458333)"
       sodipodi:nodetypes="sssssscssssscsss" /><path
       style="fill:#672d3f;fill-opacity:1;stroke:#000000;stroke-width:0.505872"
       d="m 259.55476,701.81647 c -10.14432,-0.49486 -23.94667,-6.82972 -32.295,-11.09871 -5.36293,-2.74239 -7.38198,-10.05105 -5.84431,-15.7615 1.13478,-4.21426 6.44863,-11.64867 14.9607,-20.77582 2.56955,-2.75522 6.32877,-6.67875 7.97188,-8.88264 3.67218,-4.92547 7.61434,-12.7621 8.71621,-17.48799 1.04122,-4.46575 0.7788,-10.29716 -0.67004,-13.57252 -0.56867,-1.28556 -2.28436,-3.76596 -2.12118,-3.76596 0.47588,0 10.96876,6.38273 15.75768,9.59219 2.42065,1.62228 5.82953,4.22409 7.57528,5.78179 3.16559,2.82461 7.20888,5.24749 8.75696,5.24749 1.22061,0 0.86705,0.54585 -3.837,5.92388 -4.23988,4.84735 -12.61097,16.13834 -16.39066,22.10785 -4.73492,7.47817 -10.01193,20.07755 -11.56984,27.62413 -1.30993,6.34539 -0.18406,7.69986 6.77092,8.14575 2.36123,0.15139 6.79328,0.54319 9.84899,0.8707 7.39912,0.793 25.80377,-0.0789 31.88294,-1.17938 9.32047,-1.68725 19.58995,-8.54381 24.37638,-13.0824 1.30989,-2.5544 1.2304,3.66303 -0.0973,5.81131 -4.00437,6.47921 -17.79623,12.5017 -35.76724,14.25045 -6.49124,0.63166 -11.71793,1.0469 -17.04323,0.78712 z"
       id="path4"
       transform="scale(0.26458333)"
       sodipodi:nodetypes="ssssssssssssssssscssss" /><path
       style="fill:#e9e1e3;fill-opacity:1;stroke:#000000;stroke-width:0.505872"
       d="m 278.17339,629.25347 c -1.49547,-0.69616 -4.60225,-3.18293 -6.2492,-4.70772 -3.43635,-3.18146 -9.60261,-7.33509 -18.73436,-12.59925 -7.39162,-4.26103 -10.09813,-6.08856 -14.69787,-10.76604 -7.07612,-7.19571 -8.03388,-15.83047 -2.60931,-20.72537 2.5002,-2.25607 6.05609,-2.65707 8.15192,-1.78987 2.32044,0.96014 6.31517,2.10408 8.62305,2.11601 1.12008,0.006 4.62894,0.0634 5.73529,-0.93886 2.69541,-2.44193 2.21405,-0.55861 2.65795,0.93662 0.35736,1.20373 0.92388,2.86237 1.7252,4.52913 1.46472,3.04664 4.95279,6.85572 9.26879,10.05764 1.25006,0.92739 2.96283,2.24075 4.35179,3.57334 1.84457,1.76971 2.00844,2.38992 2.45385,2.28185 0.66905,-0.16232 0.45997,-0.80468 -1.33666,-2.5606 l -5.05976,-3.62491 7.23192,1.15271 c 2.43067,-0.004 6.6962,-1.12881 6.6962,-1.08061 0,0.0482 -2.74398,2.77412 -3.16067,3.7714 -0.94407,2.25948 -1.03814,2.37779 -0.80718,2.28537 0.21385,-0.0856 0.1736,0.14194 0.48595,-0.8045 0.53706,-1.6273 2.77301,-4.27069 8.01665,-8.61281 1.37766,-1.14081 3.70412,-3.70886 4.83771,-5.34249 0.61137,-0.88107 0.8258,-2.87337 1.61092,-3.58071 l 3.11625,1.72834 c 5.29045,2.9342 14.03569,12.50535 15.76518,16.21939 2.56072,5.49905 1.21913,9.97771 -6.71255,14.03778 -6.86137,3.5122 -10.39324,4.97794 -15.58009,9.81325 -2.36124,2.20119 -5.61273,4.13437 -6.29957,4.60462 -1.73457,1.18757 -3.61925,2.71317 -6.80286,1.23117 z"
       id="path5"
       transform="scale(0.26458333)"
       sodipodi:nodetypes="cssssscsssssssccsssssscssssscc" /><path
       style="fill:#e7c9d2;fill-opacity:1;stroke:#000000;stroke-width:0.505872"
       d="m 274.87773,595.62468 c -1.46392,-0.4106 -4.90465,-2.3956 -5.66307,-2.79292 -4.54594,-2.38152 -7.78357,-8.00846 -8.43992,-13.26165 -0.80116,-6.41231 3.4212,-14.64455 9.77353,-17.76399 2.53386,-1.2443 5.406,-1.5006 9.63645,-1.5006 4.50723,0 5.97413,0.99792 8.97548,2.62519 3.50724,1.90156 5.50156,4.61529 7.25217,8.16778 0.92775,1.88267 1.22725,4.13569 1.22346,7.83884 -0.004,3.9445 -0.89639,5.05825 -2.06072,7.24964 -3.84734,7.24109 -13.22953,11.53231 -20.69738,9.43771 z"
       id="path6"
       transform="scale(0.26458333)"
       sodipodi:nodetypes="ssssssssss" /><path
       style="fill:#e7c9d2;fill-opacity:1;stroke:#000000;stroke-width:0.505872"
       d="m 259.08268,713.66129 c -11.68453,-1.41377 -19.9777,-4.06879 -28.07072,-8.41511 -4.38782,-2.35647 -5.81108,-5.46139 -5.81108,-8.01509 0,-1.40685 0.0652,-2.02954 0.88389,-1.30722 3.21055,2.83251 18.86678,9.22176 27.21098,10.62799 22.46764,3.7864 50.28198,-0.73706 64.31752,-8.74536 l 2.60509,-1.48639 0.62934,1.51057 c 2.46871,5.92544 -15.14863,14.55671 -33.56578,16.51906 -6.55446,0.69838 -20.63261,0.0647 -27.3786,-0.75158 z"
       id="path7"
       transform="scale(0.26458333)"
       sodipodi:nodetypes="cssssscsscc" /><path
       style="fill:#e7c9d2;fill-opacity:1;stroke:#000000;stroke-width:0.505872"
       d="m 263.59449,707.89563 c -11.58935,-0.93924 -23.55723,-4.30951 -32.40144,-8.73814 -5.15802,-2.58282 -7.79866,-5.76646 -7.66483,-8.44387 l 0.13302,-2.66124 3.57372,2.56179 c 4.74111,3.39863 19.45129,7.99635 28.31265,9.79316 4.86521,0.98652 8.11335,2.15173 17.69865,2.13897 14.0718,-0.0187 21.79118,-1.14631 32.51429,-4.41228 6.17825,-1.88172 11.29506,-4.24437 14.43068,-7.3811 l 3.68893,-3.69026 0.12627,3.53002 c 0.073,2.04111 -0.56451,3.21639 -5.18548,6.55519 -12.03012,8.69215 -36.36973,12.27597 -55.22646,10.74776 z"
       id="path8"
       transform="scale(0.26458333)"
       sodipodi:nodetypes="ssscssssscsss" /></g></svg>
