<?xml version="1.0" encoding="UTF-8" standalone="no"?>
<!-- Created with Inkscape (http://www.inkscape.org/) -->

<svg
   width="53.186634mm"
   height="60.135647mm"
   viewBox="0 0 53.186634 60.135647"
   version="1.1"
   id="svg1"
   xml:space="preserve"
   inkscape:version="1.4.3 (0d15f75, 2025-12-25)"
   sodipodi:docname="рисунок1.svg"
   xmlns:inkscape="http://www.inkscape.org/namespaces/inkscape"
   xmlns:sodipodi="http://sodipodi.sourceforge.net/DTD/sodipodi-0.dtd"
   xmlns="http://www.w3.org/2000/svg"
   xmlns:svg="http://www.w3.org/2000/svg"
   xmlns:rdf="http://www.w3.org/1999/02/22-rdf-syntax-ns#"
   xmlns:cc="http://creativecommons.org/ns#"
   xmlns:dc="http://purl.org/dc/elements/1.1/"><defs
     id="defs1" /><sodipodi:namedview
     id="base"
     pagecolor="#ffffff"
     bordercolor="#000000"
     borderopacity="0.3"
     inkscape:pageopacity="0.0"
     inkscape:pageshadow="2"
     inkscape:zoom="0.35"
     inkscape:cx="537.14285"
     inkscape:cy="-195.71428"
     inkscape:document-units="mm"
     inkscape:showpageshadow="2"
     inkscape:pagecheckerboard="0"
     inkscape:deskcolor="#d1d1d1"
     inkscape:window-width="1920"
     inkscape:window-height="1009"
     inkscape:window-x="-8"
     inkscape:window-y="-8"
     inkscape:window-maximized="1"
     inkscape:current-layer="svg1"><inkscape:page
       x="0"
       y="0"
       width="53.186634"
       height="60.135647"
       id="page18"
       margin="0"
       bleed="0" /></sodipodi:namedview><metadata
     id="metadata1"><rdf:RDF><cc:Work
         rdf:about=""><dc:format>image/svg+xml</dc:format><dc:type
           rdf:resource="http://purl.org/dc/dcmitype/StillImage" /></cc:Work></rdf:RDF></metadata><g
     id="g9"
     transform="translate(-107.28608,67.084648)"><g
       id="g18"
       transform="translate(105.83873,-131.76388)"><path
         style="fill:#f00033;fill-opacity:0;stroke:#000000;stroke-width:0.264999"
         id="path56-5-4"
         sodipodi:type="arc"
         sodipodi:cx="20.295889"
         sodipodi:cy="69.619949"
         sodipodi:rx="1.9794649"
         sodipodi:ry="1.9627606"
         sodipodi:start="0"
         sodipodi:end="6.2812028"
         sodipodi:open="true"
         sodipodi:arc-type="arc"
         d="m 22.275354,69.619949 a 1.9794649,1.9627606 0 0 1 -1.978484,1.962761 1.9794649,1.9627606 0 0 1 -1.980445,-1.960815 1.9794649,1.9627606 0 0 1 1.976521,-1.964704 1.9794649,1.9627606 0 0 1 1.982404,1.958867" /><path
         style="fill:#f00033;fill-opacity:0;stroke:#000000;stroke-width:0.264999"
         id="path56-1-2"
         sodipodi:type="arc"
         sodipodi:cx="14.458349"
         sodipodi:cy="71.641182"
         sodipodi:rx="2.0462823"
         sodipodi:ry="1.9627606"
         sodipodi:start="0"
         sodipodi:end="6.2812028"
         sodipodi:open="true"
         sodipodi:arc-type="arc"
         d="m 16.504632,71.641182 a 2.0462823,1.9627606 0 0 1 -2.045269,1.96276 2.0462823,1.9627606 0 0 1 -2.047295,-1.960814 2.0462823,1.9627606 0 0 1 2.043239,-1.964704 2.0462823,1.9627606 0 0 1 2.04932,1.958867" /><path
         style="fill:#b27c89;fill-opacity:1;stroke:#000000;stroke-width:0.264999;stroke-opacity:1"
         d="M 5.7452415,88.391779 Z"
         id="path5-3" /><path
         style="fill:#f00033;fill-opacity:0;stroke:#000000;stroke-width:0.264999"
         id="path56-6"
         sodipodi:type="arc"
         sodipodi:cx="39.479656"
         sodipodi:cy="68.755821"
         sodipodi:rx="2.0462823"
         sodipodi:ry="1.9627606"
         sodipodi:start="0"
         sodipodi:end="6.2812028"
         sodipodi:open="true"
         sodipodi:arc-type="arc"
         d="m 41.525939,68.755821 a 2.0462823,1.9627606 0 0 1 -2.045269,1.962761 2.0462823,1.9627606 0 0 1 -2.047295,-1.960815 2.0462823,1.9627606 0 0 1 2.043239,-1.964704 2.0462823,1.9627606 0 0 1 2.04932,1.958867" /><path
         style="fill:#f00033;fill-opacity:0;stroke:#000000;stroke-width:0.264999"
         id="path56-4-0"
         sodipodi:type="arc"
         sodipodi:cx="33.352642"
         sodipodi:cy="68.115387"
         sodipodi:rx="2.0462823"
         sodipodi:ry="1.9126475"
         sodipodi:start="0"
         sodipodi:end="6.2812028"
         sodipodi:open="true"
         sodipodi:arc-type="arc"
         d="m 35.398924,68.115387 a 2.0462823,1.9126475 0 0 1 -2.045268,1.912647 2.0462823,1.9126475 0 0 1 -2.047295,-1.910751 2.0462823,1.9126475 0 0 1 2.043238,-1.914541 2.0462823,1.9126475 0 0 1 2.049321,1.908853" /><path
         style="fill:#f00033;fill-opacity:0;stroke:#000000;stroke-width:0.264999"
         id="path56-2-2"
         sodipodi:type="arc"
         sodipodi:cx="26.724623"
         sodipodi:cy="68.706589"
         sodipodi:rx="2.0462823"
         sodipodi:ry="1.9627606"
         sodipodi:start="0"
         sodipodi:end="6.2812028"
         sodipodi:open="true"
         sodipodi:arc-type="arc"
         d="m 28.770905,68.706589 a 2.0462823,1.9627606 0 0 1 -2.045268,1.96276 2.0462823,1.9627606 0 0 1 -2.047296,-1.960815 2.0462823,1.9627606 0 0 1 2.043239,-1.964704 2.0462823,1.9627606 0 0 1 2.049321,1.958868" /><path
         style="fill:#f00033;fill-opacity:0;stroke:#000000;stroke-width:0.264999"
         id="path57-4"
         sodipodi:type="arc"
         sodipodi:cx="8.927412"
         sodipodi:cy="74.351776"
         sodipodi:rx="1.8625345"
         sodipodi:ry="1.8458302"
         sodipodi:start="0"
         sodipodi:end="6.2812028"
         sodipodi:open="true"
         sodipodi:arc-type="arc"
         d="m 10.789947,74.351776 a 1.8625345,1.8458302 0 0 1 -1.8616118,1.84583 1.8625345,1.8458302 0 0 1 -1.8634568,-1.844 1.8625345,1.8458302 0 0 1 1.8597643,-1.847658 1.8625345,1.8458302 0 0 1 1.8653003,1.842169" /><path
         style="fill:#f00033;fill-opacity:0;stroke:#000000;stroke-width:0.264999"
         d="m 38.096132,70.187877 c 0,0 -0.0945,1.299294 -0.35435,2.244234 -0.25986,0.944941 -0.94494,4.015997 -1.13392,4.323103 -0.18899,0.307105 -0.25229,0.508336 -0.4961,0.354352 -0.44885,-0.283482 -0.83364,-2.86207 -0.94494,-3.590773 -0.11766,-0.770284 -0.42522,-3.945127 -0.42522,-3.945127"
         id="path58-8"
         sodipodi:nodetypes="cssssc" /><path
         style="fill:#f00033;fill-opacity:0;stroke:#000000;stroke-width:0.264999"
         d="m 40.718352,70.282372 c 0,0 -0.23624,11.859002 -0.23624,12.024367 0,0.165365 0.27577,0.590812 0.23623,0.897694 -0.0451,0.349707 -0.19293,0.788886 -0.51971,0.921316 -1.13383,0.459483 -2.31482,-0.828605 -3.51991,-1.039434 -1.83379,-0.320822 -4.6302,-0.425223 -5.57515,-0.330729 -0.94494,0.09449 -5.22079,0.09449 -8.15011,1.771763 -2.92931,1.677269 -6.26023,4.937315 -6.42559,5.05543 -0.16537,0.118118 -0.97822,0.331076 -1.37016,0.0945 -0.56746,-0.342517 -0.7336,-1.159859 -0.8032,-1.81901 -0.0203,-0.191979 0.11811,-0.566965 0.11811,-0.566965 0,0 -2.29148,-2.976563 -3.40178,-5.598772 C 9.9605315,79.070318 8.9211015,76.25912 8.9211015,76.25912"
         id="path59-6"
         sodipodi:nodetypes="csaaasssaacsc" /><path
         style="fill:#f00033;fill-opacity:0;stroke:#000000;stroke-width:0.264999"
         d="m 10.763732,74.865333 c 0,0 2.78758,3.472656 3.5199,4.464843 0.73233,0.992188 1.51191,1.771764 1.72452,1.960752 0.21261,0.188988 0.47247,0.212611 0.54334,0.04725 0.0709,-0.165365 -1.9135,-7.677641 -1.9135,-7.677641"
         id="path60-5" /><path
         style="fill:#f00033;fill-opacity:0;stroke:#000000;stroke-width:0.264999"
         d="m 16.244392,72.644723 c 0,0 3.73251,6.142113 4.20498,6.283854 0.47247,0.141741 0.37798,-0.897694 0.37798,-0.897694 l -0.51972,-6.354724"
         id="path61-0"
         sodipodi:nodetypes="cscc" /><path
         style="fill:#f00033;fill-opacity:0;stroke:#000000;stroke-width:0.264999"
         d="m 21.890412,70.802089 c 0,0 2.78757,6.023995 3.23642,6.472842 0.44884,0.448847 0.54334,-0.307109 0.56696,-0.448847 0.0236,-0.141741 0.16537,-6.378348 0.16537,-6.378348"
         id="path62-9"
         sodipodi:nodetypes="cssc" /><path
         style="fill:#f00033;fill-opacity:0;stroke:#000000;stroke-width:0.264999"
         d="m 28.197882,70.235124 c 0,0 1.84264,6.543713 2.19699,6.709078 0.35435,0.165364 0.44885,-0.377972 0.49609,-0.496094 0.0472,-0.118117 1.37017,-6.685454 1.37017,-6.685454"
         id="path63-0"
         sodipodi:nodetypes="cssc" /><path
         style="fill:#f00033;fill-opacity:0;stroke:#000000;stroke-width:0.264999"
         d="m 14.472622,87.36217 c 0.16537,-0.259858 3.40375,-2.488876 4.77195,-3.260044 1.2993,-0.732329 4.11601,-2.503547 8.66983,-3.189174 4.06802,-0.612484 6.44922,-0.4016 8.90607,3e-6 2.4564,0.401531 3.66164,1.464657 3.66164,1.464657"
         id="path64-0"
         sodipodi:nodetypes="csssc" /><path
         style="fill:#f00033;fill-opacity:0;stroke:#000000;stroke-width:0.264999"
         d="m 20.402132,86.346359 c 0,0 0.28348,2.031622 0.94494,2.882069 0.66145,0.850445 1.18117,0.803198 1.18117,0.803198 0,0 2.08652,-1.404032 3.2128,-1.889879 1.2048,-0.519717 2.8997,-1.130855 5.62239,-1.819011 2.14974,-0.543341 2.26079,-0.40575 2.17337,-1.204799 -0.0648,-0.592001 -0.28349,-1.181176 -0.66146,-1.653646 -0.37798,-0.47247 -0.75595,-0.708705 -0.75595,-0.708705"
         id="path65-6"
         sodipodi:nodetypes="cscssssc" /><path
         style="fill:#f00033;fill-opacity:0;stroke:#000000;stroke-width:0.264999"
         d="m 22.504622,90.031626 c 0,0 -2.26786,1.441035 -2.71671,2.126118 l -0.42522,0.496094"
         id="path66-1"
         sodipodi:nodetypes="ccc" /><path
         style="fill:#f00033;fill-opacity:0;stroke:#000000;stroke-width:0.264999"
         d="m 33.324182,85.850266 c 0.0433,-0.183688 0.0727,-0.01812 2.43323,-0.87407 0.42924,-0.155652 0.82682,-0.188992 0.82682,-0.188992"
         id="path67-3"
         sodipodi:nodetypes="csc" /><path
         style="fill:#f00033;fill-opacity:0;stroke:#000000;stroke-width:0.264999"
         d="m 13.645802,86.01563 c 0,0 -0.91527,1.494888 -0.99219,2.456846 -0.17621,2.203944 0.53812,3.207813 0.75596,4.819197 0.0934,0.691129 -0.0204,1.430395 0.23623,2.078867 0.39759,1.004567 1.01209,2.040433 1.93713,2.598586 0.69612,0.420026 1.65365,0.66146 2.4096,0.377978 0.75595,-0.283483 2.97577,-1.574156 4.58296,-2.031623 1.88083,-0.535357 3.86739,-0.59099 5.81138,-0.803199 2.15178,-0.23489 4.38209,0.04069 6.47284,-0.519718 1.7011,-0.455964 3.42707,-1.130793 4.77196,-2.267858 1.46803,-1.241184 2.57856,-2.945763 3.30729,-4.724701 0.57513,-1.403994 0.66146,-3.779762 0.75595,-4.488467 0.0945,-0.708705 -0.23624,-3.827009 -1.18118,-5.008185 -0.94494,-1.181175 -1.70089,-1.795386 -1.70089,-1.795386 l -0.28348,-0.09449"
         id="path68-8"
         sodipodi:nodetypes="csaaasaaaaasscc" /><path
         style="fill:#f00033;fill-opacity:0;stroke:#000000;stroke-width:0.264999"
         d="m 42.560982,88.897699 c 0,0 -0.58366,5.773141 -0.33073,8.646205 0.27984,3.178696 1.04968,6.318756 2.03162,9.354906 0.83555,2.58353 2.45023,4.87333 3.26004,7.46504 0.26807,0.85789 0.70498,1.76633 0.51972,2.64583 -0.17019,0.808 -0.81125,1.47089 -1.41741,2.03162 -0.71953,0.66561 -1.64355,1.0827 -2.53512,1.48996 -1.22989,0.5618 -2.53499,0.95591 -3.84323,1.29761 -1.48832,0.38874 -3.0124,0.63653 -4.53571,0.85045 -2.33404,0.32777 -4.6834,0.61166 -7.03981,0.66146 -2.14422,0.0453 -4.3044,-0.014 -6.42559,-0.33073 -2.31203,-0.34518 -4.67239,-0.74034 -6.80357,-1.70089 -2.00324,-0.90289 -4.23454,-1.89108 -5.43341,-3.73252 -0.2797605,-0.4297 -0.3229105,-1.00067 -0.2834805,-1.5119 0.0437,-0.56616 0.26117,-1.12793 0.5669605,-1.6064 0.47381,-0.74136 1.41326,-1.10309 1.88988,-1.84263 1.17937,-1.82995 1.67612,-4.03424 2.22061,-6.14212 0.49862,-1.9303 0.88297,-3.91317 0.94494,-5.90588 0.0305,-0.980523 -0.28348,-2.929313 -0.28348,-2.929313"
         id="path69-9"
         sodipodi:nodetypes="caaaaaaaaaaaaaaaaac" /><path
         style="fill:#f00033;fill-opacity:0;stroke:#000000;stroke-width:0.264999"
         d="m 17.756292,98.441598 c 0,0 0.18899,2.409602 -0.23623,4.441222 -0.42523,2.03162 -1.88988,6.23661 -2.45685,7.41778 -0.56696,1.18118 -2.22061,4.58296 -2.4096,4.77195 -0.18898,0.18899 -0.7373,-0.0689 -0.94494,0.8032 -0.11811,0.49609 -0.0914,0.75123 0.14174,1.2048 0.2641,0.51387 0.47247,0.54334 1.06306,0.99219 0.27385,0.20812 1.98438,1.22842 4.44122,2.36235 2.37496,1.09613 7.55953,1.86625 11.43378,1.63002 3.87426,-0.23624 10.60696,-1.32292 12.92206,-2.4096 2.31511,-1.08668 3.68527,-2.29148 3.77976,-2.66946 0.0945,-0.37797 0.23624,-1.03943 -0.0945,-1.27567 -0.33073,-0.23623 -0.51804,-0.73568 -0.75428,-0.3577 -0.23624,0.37797 -0.44636,1.16037 -0.923,1.63338 -1.26745,1.25781 -2.05524,1.29929 -3.33091,1.81901 -1.27567,0.51971 -2.74033,0.85045 -5.05543,1.27567 -2.31511,0.42522 -8.40984,1.22755 -11.00856,0.85045 -2.5963,-0.37675 -5.50158,-0.79023 -8.6462,-2.55134 -0.59452,-0.33296 -2.91311,-1.8541 -3.0076,-2.37382 -0.0945,-0.51972 -0.11071,-0.98072 -0.11071,-0.98072"
         id="path70-3"
         sodipodi:nodetypes="cssssssssssssssssssc" /><path
         style="fill:#f00033;fill-opacity:0;stroke:#000000;stroke-width:0.264999"
         d="m 11.959252,117.42393 c 0,0 -0.20045,0.66817 -0.16704,1.16931 0.0334,0.50112 0.70158,1.1693 0.80181,1.30293"
         id="path71-4"
         sodipodi:nodetypes="csc" /><path
         style="fill:#f00033;fill-opacity:0;stroke:#000000;stroke-width:0.264999"
         d="m 45.501582,116.98962 c 0,0 0.0334,0.73499 -0.26727,1.67043 -0.30068,0.93545 -0.60136,1.43658 -0.73499,1.57021 -0.13364,0.13364 -0.53454,0.33409 -0.53454,0.33409"
         id="path72-4"
         sodipodi:nodetypes="cssc" /><path
         style="fill:#f00033;fill-opacity:0;stroke:#000000;stroke-width:0.264999"
         d="m 30.267212,95.441011 c 0,0 0.16705,2.171565 0.56795,3.942226 0.40091,1.770663 2.73951,6.481283 4.10927,7.917863 1.36976,1.43657 3.64155,3.14042 5.21176,4.40994 0.6654,0.53799 3.04019,1.97112 3.87541,2.63929 0.83521,0.66818 1.36975,1.33635 1.36975,1.33635"
         id="path73-6"
         sodipodi:nodetypes="cssssc" /><path
         style="fill:#f00033;fill-opacity:0;stroke:#000000;stroke-width:0.264999"
         d="m 16.536242,106.39906 c 0,0 2.23083,-3.15944 3.47451,-4.6104 1.40316,-1.63702 6.28083,-6.147195 6.28083,-6.147195"
         id="path74-0"
         sodipodi:nodetypes="csc" /><path
         style="fill:#f00033;fill-opacity:0;stroke:#000000;stroke-width:0.264999"
         d="m 15.634212,109.03835 c 0,0 4.81085,-5.34539 5.74629,-6.34765 0.93545,-1.00226 5.47903,-4.777445 6.5147,-5.445618 0.49027,-0.316308 2.40542,-1.202712 2.40542,-1.202712"
         id="path75-6"
         sodipodi:nodetypes="cssc" /><path
         style="fill:#f00033;fill-opacity:0;stroke:#000000;stroke-width:0.264999"
         d="m 15.866412,89.795394 c 0,0 1.13393,0.02362 1.58278,-0.04725 0.44884,-0.07087 1.39441,-0.43351 1.84263,-0.732326 0.63783,-0.425223 1.44103,-0.92132 1.44103,-0.92132"
         id="path76-6"
         sodipodi:nodetypes="cssc" /><path
         style="fill:#f00033;fill-opacity:0;stroke:#000000;stroke-width:0.264999"
         d="m 33.418682,84.361984 c 0.56696,-0.02362 1.27567,-0.212611 2.43322,-0.212611 1.15755,0 2.36235,-0.09449 2.69308,-0.04725 0.33073,0.04725 1.13393,0.141744 1.13393,0.141744"
         id="path77-1"
         sodipodi:nodetypes="cssc" /><path
         style="fill:#e7c9d2;fill-opacity:1;stroke:#000000;stroke-width:0.126468"
         d="m 95.964491,465.48246 c -5.890059,-0.3001 -9.885411,-0.76291 -17.361996,-2.01116 -6.614818,-1.10438 -11.366691,-2.26145 -15.895224,-3.87043 -4.691404,-1.66685 -14.004314,-6.15463 -15.011553,-7.23389 -0.792918,-0.84961 -1.712893,-1.55506 -2.088783,-2.34962 -0.299799,-0.63372 -0.465564,-1.68 -0.465644,-2.348 -8.9e-5,-0.75152 0.05148,-3.58281 0.185224,-3.7171 0.02909,-0.0292 0.448372,0.77449 0.604356,0.91303 0.558454,0.49594 2.956408,2.17173 4.091294,2.85917 4.51103,2.73249 13.297589,7.21088 17.089844,8.71048 6.636425,2.62427 16.696683,4.50881 28.915617,5.4166 2.720858,0.20215 11.369484,0.20295 13.889594,10e-4 17.30745,-1.38494 37.14541,-4.93689 45.77254,-8.19547 4.78505,-1.80737 11.85653,-6.34656 15.2767,-9.4076 1.08535,-0.97138 0.45023,-0.27047 0.0631,1.62399 -0.50017,2.44778 -1.62925,5.53683 -2.65645,7.26779 -0.44885,0.75638 -1.06971,1.45654 -2.09724,2.09215 -2.35285,1.45542 -7.44671,2.87157 -14.24794,4.64117 -4.38398,1.14066 -8.66925,1.97554 -14.83662,2.89053 -9.84221,1.46021 -18.5409,2.39265 -25.38594,2.72121 -3.0498,0.14639 -12.937209,0.14381 -15.840909,-0.004 z"
         id="path11"
         transform="scale(0.26458333)"
         sodipodi:nodetypes="csssssssssscsssssssscc" /><path
         style="fill:#e7c9d2;fill-opacity:1;stroke:#000000;stroke-width:0.126468"
         d="m 98.931814,460.86094 c -12.179041,-0.5287 -24.502248,-2.71237 -31.75667,-5.62726 -1.737111,-0.69799 -9.128928,-3.53143 -12.018639,-5.10999 -4.61953,-2.52352 -7.86292,-5.08502 -8.992843,-6.31085 -0.62812,-0.68143 -1.345132,-2.47737 -1.520556,-3.40839 -0.123765,-0.65685 -0.04677,-1.46592 0.245662,-2.58157 0.219029,-0.8356 0.700911,-1.48667 1.302495,-1.75979 0.767476,-0.34845 0.843333,-0.32241 0.84837,0.29124 0.006,0.7291 0.311153,2.39151 0.506854,2.76109 0.693314,1.30935 3.883577,3.93642 8.327575,6.85747 2.533251,1.66512 3.307059,2.11254 5.884725,3.4026 5.899807,2.95273 11.567895,4.86543 18.915024,6.3829 5.272207,1.08892 11.536885,1.99587 14.908258,2.1583 11.248231,0.54192 35.850291,-2.41966 49.943031,-6.01211 3.65278,-0.93115 11.91756,-3.88226 14.45781,-5.16245 1.76055,-0.88726 3.42685,-2.0789 5.00578,-3.57986 1.40178,-1.33256 2.01179,-2.1372 3.07317,-4.41424 0.93771,-2.01173 1.24656,-2.68431 1.3539,-2.6463 0.0491,0.0174 1.01437,0.85874 1.59936,1.43316 1.33524,1.31111 1.07364,1.75905 0.66353,3.921 -0.24777,1.30609 -0.73469,1.44024 -2.33953,2.83913 -2.52165,2.19803 -6.32044,4.62292 -10.4295,6.65749 -3.39585,1.68142 -5.44467,2.40601 -10.4172,3.68412 -10.98413,2.82332 -28.41317,5.49232 -40.34296,6.17794 -1.98315,0.11397 -7.07082,0.13957 -9.217646,0.0464 z"
         id="path12"
         transform="scale(0.26458333)"
         sodipodi:nodetypes="ssssssssssssssssssssssssss" /><path
         style="fill:#672d3f;fill-opacity:1;stroke:#000000;stroke-width:0.178853"
         d="m 94.999999,457.05407 c -2.422571,-0.20982 -10.218642,-1.65383 -13.928571,-2.40954 -7.376227,-1.50252 -13.124059,-2.86094 -19.017857,-5.92426 -3.950904,-2.05349 -10.113843,-6.1687 -12.456716,-8.42364 -1.259981,-1.21269 -1.773334,-1.97842 -2.010409,-3.82581 -0.10838,-0.84454 0.55828,-0.9364 1.035713,-1.69642 1.383187,-2.20191 8.621281,-16.88117 9.938415,-20.15566 l 1.888702,-5.29198 7.677149,-8.63579 c 10.887507,-12.24702 12.442829,-12.67551 19.463121,-18.70658 6.253363,-5.3722 15.253254,-11.93115 17.767594,-13.63735 0.58929,-0.39988 4.41801,-3.54089 6.42858,-4.7684 l 2.23213,-1.36277 0.66739,2.46349 c 1.37498,5.0754 1.1656,11.04985 2.15822,13.98135 2.66202,7.86172 9.49929,20.83408 13.76565,26.11757 2.09843,2.59871 6.53764,6.53566 14.9266,13.23778 7.00881,5.59948 7.32067,5.39392 13.64048,9.55988 5.71604,3.76797 6.49747,4.38182 8.23453,5.95627 0.93169,0.84447 2.12764,1.26447 1.84684,1.58078 -0.16281,0.18339 -1.26397,2.04552 -1.9014,3.37419 -1.30261,2.71518 -2.20666,3.72514 -4.47147,5.53721 -2.36717,1.89398 -5.55677,3.30864 -13.33112,5.98456 -7.26934,2.50208 -21.15791,4.44301 -36.07143,5.96168 -6.71135,0.68343 -15.002283,1.38484 -18.482141,1.08344 z"
         id="path13"
         sodipodi:nodetypes="ssssssscsssscssssssssssss"
         transform="scale(0.26458333)" /><path
         style="fill:#c399a3;fill-opacity:1;stroke:#000000;stroke-width:0.505872"
         d="M 48.910046,320.84954 C 43.615013,312.90696 43.57701,312.88633 38.8971,300.79017 l -4.8053,-12.42025 2.51484,-0.717 c 1.09151,-0.3112 1.843298,-1.88164 2.756179,-2.31921 l 1.125222,-1.98102 8.099553,10.13065 c 8.868606,11.09254 11.514849,14.86572 13.124445,14.86572 0.660913,0 0.688278,-0.55994 0.832455,-0.93566 0.144177,-0.37572 -1.782246,-7.74508 -3.74079,-15.45038 -1.958543,-7.7053 -3.371583,-13.0295 -3.371583,-13.14334 0,-0.11384 1.193093,-0.27012 1.571016,-0.27012 0.377922,0 1.503142,-0.55376 2.500488,-1.23057 l 1.876491,-1.98819 3.402844,4.95551 c 5.710786,8.31653 11.233087,18.35902 11.993181,18.6507 1.146047,0.43978 1.550747,-0.16917 1.864039,-1.41742 0.154827,-0.61688 0.0098,-6.65027 -0.553719,-13.40754 -0.563545,-6.75727 -1.221727,-12.79347 -1.076805,-13.02796 0.144922,-0.23449 0.926552,-0.49193 1.680801,-0.67888 0.7303,-0.18101 1.482667,-0.45349 2.185012,-1.00117 l 2.09353,-1.63252 3.065441,6.43074 c 4.803784,10.07748 7.923368,18.1354 8.797569,18.68683 0.638937,0.40303 1.122027,0.40321 1.763828,6.6e-4 1.128244,-0.70768 0.433885,-4.92521 1.13682,-16.81751 l -3.94e-4,-8.72763 2.417177,0.44586 c 1.15842,0.21368 2.67283,-0.0614 3.86562,-0.55976 1.07444,-0.44893 2.67999,-1.0721 2.71908,-0.99901 0.0391,0.0731 1.51724,4.99575 3.13044,10.39908 3.57512,11.97462 4.4037,14.79823 5.81546,14.79823 0.5611,0 0.16447,0.16166 0.74607,-1.09283 0.23704,-0.5113 1.20791,-6.3242 2.47911,-12.56377 1.2712,-6.23957 2.42846,-11.97756 2.57169,-12.59675 0.23506,-1.01622 1.36099,-0.65416 3.37055,-0.37872 1.22444,0.16783 3.02593,0.11153 3.92614,-0.2023 0.9002,-0.31382 1.86103,-0.91452 1.9808,-0.79474 0.11978,0.11978 1.14716,4.44553 1.66574,8.84112 1.64853,13.97304 2.31289,19.04052 4.51927,19.04052 0.78807,0 1.04704,-0.99399 1.56463,-1.99491 0.86974,-1.68188 5.06389,-19.39351 5.06389,-21.15116 0,-2.15993 0.22085,-2.53673 1.59109,-2.01577 1.63428,0.62135 5.99125,1.11491 7.17001,0.48408 0.88773,-0.4751 1.61438,-0.77437 1.41613,6.81852 -0.11413,4.37093 0.1516,14.68775 -0.44791,22.02736 l -0.17729,14.39591 -4.3025,-2.24353 c -5.16722,-2.69443 -11.95445,-3.71055 -22.80092,-4.03787 -25.2859,-0.76307 -43.038568,4.94961 -66.066017,21.25957 -2.584585,1.83061 -4.794293,4.08593 -4.987628,4.08584 -0.193335,-9e-5 -1.663247,-1.87562 -3.653732,-4.86135 z"
         id="path14"
         transform="scale(0.26458333)"
         sodipodi:nodetypes="sscsscssssssscssssssscsssscssssssssssssssssssscssssss" /><path
         style="fill:#ef0034;fill-opacity:1;stroke:#000000;stroke-width:0.505872"
         d="m 74.39904,270.21776 c -2.021331,-0.5917 -4.784601,-3.89043 -5.213274,-6.17545 -0.934596,-4.98182 6.273524,-10.11985 10.80792,-7.86645 2.619918,1.30199 4.152576,4.54812 4.152576,7.19598 0,4.5789 -5.336068,8.13721 -9.747222,6.84592 z"
         id="path15"
         transform="scale(0.26458333)"
         sodipodi:nodetypes="sssss" /><path
         style="fill:#ef0034;fill-opacity:1;stroke:#000000;stroke-width:0.505872"
         d="m 50.959636,277.15982 c -2.30414,-0.81325 -4.051286,-4.50524 -4.048789,-6.57676 0.0023,-1.90851 1.846266,-5.29145 3.738756,-6.29551 1.764081,-0.93593 3.119698,-0.9955 4.399733,-0.9955 7.118146,0 9.712486,11.18273 3.316613,14.08656 -2.633054,1.19544 -3.961833,0.99694 -5.259739,0.53884 z"
         id="path28"
         transform="scale(0.26458333)"
         sodipodi:nodetypes="sssssss" /><path
         style="fill:#ef0034;fill-opacity:1;stroke:#000000;stroke-width:0.505872"
         d="m 30.809653,287.60102 c -3.546045,-1.36796 -5.304003,-7.14558 -3.652826,-9.9408 2.820168,-4.77417 11.200116,-5.59993 13.542082,1.58219 1.513889,4.64266 -3.621292,10.77661 -9.889256,8.35861 z"
         id="path78"
         transform="scale(0.26458333)"
         sodipodi:nodetypes="ssss" /><path
         style="fill:#ef0034;fill-opacity:1;stroke:#000000;stroke-width:0.505872"
         d="m 96.579381,266.11321 c -3.345659,-2.34128 -4.834572,-8.51125 -1.705174,-11.46702 5.629023,-5.3167 13.887063,-1.53261 13.780263,4.331 -0.0389,2.13841 -0.0119,3.86373 -1.24785,5.33246 -1.42548,1.69409 -1.38822,2.69237 -5.9332,3.00156 -2.918884,0.19857 -2.92335,0.18108 -4.894039,-1.198 z"
         id="path109"
         transform="scale(0.26458333)"
         sodipodi:nodetypes="ssssss" /><path
         style="fill:#ef0034;fill-opacity:1;stroke:#000000;stroke-width:0.505872"
         d="m 122.94323,264.38399 c -2.01606,-0.44824 -3.66394,-3.23676 -4.50851,-5.8739 -1.34673,-4.20514 3.29426,-8.47613 7.26614,-8.57195 7.85167,-0.1894 10.12286,8.34031 6.58599,12.12746 -2.42709,2.59884 -5.11441,3.25869 -9.34362,2.31839 z"
         id="path110"
         transform="scale(0.26458333)"
         sodipodi:nodetypes="sssss" /><path
         style="fill:#ef0034;fill-opacity:1;stroke:#000000;stroke-width:0.505872"
         d="m 145.96243,266.61987 c -1.94459,-1.18563 -4.24478,-2.99276 -4.47416,-7.26321 -0.18109,-3.37143 2.20901,-5.65991 4.34789,-6.44245 6.13148,-2.24328 11.34587,2.17337 11.34587,7.13693 0,4.96356 -6.91902,9.19082 -11.2196,6.56873 z"
         id="path111"
         transform="scale(0.26458333)"
         sodipodi:nodetypes="sssss" /><path
         style="fill:#ef0034;fill-opacity:1;stroke:#000000;stroke-width:0.505872"
         d="m 57.132656,338.06884 c -2.22056,-1.76764 -3.348529,-6.72476 -2.15233,-8.1661 0.996814,-1.20108 15.886458,-11.84341 20.907383,-14.64527 14.677834,-8.19076 29.450501,-11.39096 47.713841,-11.39096 11.54792,0 21.86269,2.33758 27.76862,5.53819 2.81404,1.52502 2.79544,5.16521 1.7871,7.28001 -0.99933,2.09591 -4.36252,1.42475 -9.55171,-0.96562 -6.68564,-3.07971 -17.18082,-4.45352 -30.56858,-3.38529 -19.4675,1.55333 -27.442842,5.02961 -43.581455,18.99623 -7.698519,6.66243 -7.087089,7.30487 -8.825305,7.58694 -1.235236,0.20045 -2.537492,-0.0839 -3.497564,-0.84813 z"
         id="path112"
         transform="scale(0.26458333)"
         sodipodi:nodetypes="sssssssssss" /><path
         style="fill:#ef0034;fill-opacity:1;stroke:#000000;stroke-width:0.505872"
         d="m 60.63423,408.73298 c 0.865712,-3.13697 1.891905,-6.9952 7.516013,-15.4502 4.676249,-7.03005 7.788067,-11.50912 18.313113,-20.19364 l 12.707122,-11.27297 3.775582,-0.4896 c 8.88528,-1.1522 11.39507,-0.43607 11.39507,0.12621 0,0.3152 -1.99274,1.75845 -4.43474,3.55983 -10.141367,7.48092 -24.423205,16.79026 -36.076794,29.54732 -11.571063,12.66673 -13.611429,15.68068 -13.195366,14.17305 z"
         id="path113"
         transform="scale(0.26458333)"
         sodipodi:nodetypes="ssscsssss" /><path
         style="fill:#000000;fill-opacity:0;stroke:#000000;stroke-width:0.505872"
         d="m 61.497673,370.64556 c -2.708804,-0.95896 -6.01973,-4.18319 -7.904973,-7.69799 -1.116067,-2.08076 -1.568884,-3.8078 -1.919596,-7.32134 -0.252441,-2.52902 -1.033635,-6.8694 -1.735988,-9.64528 -1.979404,-7.82312 -1.608704,-14.05063 1.074381,-18.04888 0.535446,-0.79791 0.672542,-0.75468 1.60188,0.50507 0.644591,0.87377 1.028547,2.20898 1.049752,3.65051 0.04701,3.19608 1.461417,6.44629 3.195474,7.34301 2.122093,1.09737 8.445264,0.96098 11.910401,-0.25692 1.557223,-0.54732 4.307298,-1.92056 6.111277,-3.05166 1.80398,-1.13109 3.326038,-1.99016 3.382351,-1.90906 0.05631,0.0811 0.396905,0.88719 0.756873,1.79129 0.359966,0.9041 1.413801,2.31051 2.341853,3.12535 l 1.687368,1.48153 -3.138566,2.25796 c -4.518625,3.25081 -7.796995,6.73292 -7.046016,7.48389 0.452501,0.45251 1.220286,-0.0557 3.259834,-2.15769 2.897703,-2.98643 12.3454,-9.45276 18.815606,-12.87806 4.875225,-2.58092 13.459166,-5.58677 23.455086,-8.2133 9.75033,-2.56199 19.91379,-5.88073 20.14639,-6.57851 0.31666,-0.94999 -2.04108,-0.62471 -6.57127,0.90659 l -4.33775,1.46626 -0.24282,-1.59253 c -0.13354,-0.87589 -0.17961,-1.66372 -0.10236,-1.75074 0.39833,-0.44874 15.80176,-1.04891 19.98744,-0.77878 4.54921,0.29359 4.90558,0.24514 5.87851,-0.79917 1.29564,-1.39071 1.7789,-3.67548 1.13541,-5.368 -0.55983,-1.47245 -0.65585,-11.77157 -0.16401,-17.59009 l 0.32849,-3.88601 1.48327,1.41069 c 5.94065,5.64995 8.1854,11.66423 8.1613,21.86628 -0.0343,14.53445 -3.62911,23.98651 -12.59541,33.1183 -3.48616,3.5505 -4.81173,4.50297 -9.35577,6.72242 -8.11382,3.96304 -13.16444,5.04585 -26.23109,5.62371 -24.098259,1.06571 -30.287778,2.31717 -43.38502,8.772 -6.127427,3.01983 -7.464697,3.26215 -11.032307,1.99915 z"
         id="path114"
         transform="scale(0.26458333)" /><path
         style="fill:#7e1334;fill-opacity:1;stroke:#000000;stroke-width:0.505872"
         d="m 168.63234,454.58127 c 0,-0.16336 1.75925,-3.61705 2.28899,-5.20559 0.52974,-1.58854 1.52571,-4.14134 1.55713,-6.56312 l 0.0564,-4.34583 -2.5633,-3.03322 c -1.39585,-1.65174 -5.83607,-4.62429 -10.03247,-7.44598 -7.88693,-5.30325 -14.39834,-10.55714 -22.81821,-17.82855 -5.6932,-4.91666 -9.60523,-10.44753 -14.38518,-19.98294 -5.33454,-10.64173 -7.06088,-15.67343 -7.65806,-25.0327 l -0.2837,-4.44622 7.6316,-1.03042 c 4.79489,-0.6474 12.11633,-1.73075 18.93269,-5.04589 6.95204,-3.38112 12.85882,-7.44072 17.06259,-13.88373 1.3502,-2.06942 1.89682,-3.33678 1.61146,-1.95717 -0.17238,0.83338 -0.82657,9.68484 -0.99077,17.04632 -0.34607,15.51485 0.30261,21.56021 3.79372,35.35534 2.8905,11.42185 5.28498,15.8385 10.52885,26.83218 4.70406,9.86199 7.42828,16.77373 8.05766,20.74099 0.45646,2.87717 -0.71198,7.04928 -4.16711,10.17789 -2.59607,2.35073 -8.62228,6.24745 -8.62228,5.64864 z"
         id="path115"
         transform="scale(0.26458333)"
         sodipodi:nodetypes="ssscssssscssssssssss" /><path
         style="fill:#7e1334;fill-opacity:1;stroke:#000000;stroke-width:0.505872"
         d="m 40.884175,448.27948 c -3.262551,-3.35768 -4.14885,-4.96417 -4.14885,-8.22402 0,-3.75198 1.473019,-6.95769 5.524701,-10.54978 5.277113,-4.67851 7.582186,-9.2931 11.496849,-24.729 1.081853,-4.26586 2.27602,-10.29679 2.762832,-13.07471 0.932717,-5.3224 1.337741,-16.11724 0.962035,-19.28719 l -0.303534,-2.56102 3.040725,1.31563 c 1.065208,0.46088 2.962412,0.70413 4.217876,1.19117 l 2.516434,0.0541 0.267857,5.90169 c 0.283355,6.24314 -1.060363,11.64989 -3.573929,19.60977 -3.798092,12.02768 -5.540578,16.04806 -10.650574,26.41195 -4.421717,8.96796 -5.856711,11.08467 -7.016858,11.37585 -1.79681,0.45097 -1.525238,6.02052 -0.997126,8.51251 0.270706,1.27738 -0.06844,5.78687 0.370669,6.97255 0.527283,1.42378 -3.052018,-1.4611 -4.469107,-2.91951 z"
         id="path116"
         transform="scale(0.26458333)"
         sodipodi:nodetypes="sssssscsscsssssss" /><path
         style="fill:#92636e;fill-opacity:1;stroke:#000000;stroke-width:0.505872"
         d="m 63.415081,401.10756 c 0,-0.31576 0.558292,-2.93837 2.592454,-10.10955 0.772783,-2.72434 1.591166,-6.57923 1.777018,-11.25561 l -0.347343,-7.14602 6.371824,-3.69741 c 1.613817,-0.93645 7.827554,-3.90202 9.45245,-4.46078 2.815507,-0.96818 12.685299,-2.04597 14.362106,-2.04597 0.434442,0 -6.125986,5.33487 -12.109468,11.23795 -7.066268,6.97131 -12.348482,12.68003 -15.071771,16.28871 -5.044345,6.68436 -7.02727,11.92059 -7.02727,11.18868 z"
         id="path117"
         transform="scale(0.26458333)"
         sodipodi:nodetypes="ssscssssss" /><path
         style="fill:#e9e1e3;fill-opacity:1;stroke:#000000;stroke-width:0.505872"
         d="m 62.447147,371.75664 c -7.382786,-1.85181 -10.481596,-7.69782 -11.52949,-14.98463 -0.319488,-2.22166 -0.977489,-7.92903 -1.693718,-11.37126 -1.513828,-7.27553 -2.089091,-14.81999 0.891789,-16.65924 l 1.219158,-2.58851 2.774665,3.07737 c 0.754295,0.83658 0.569947,3.44454 0.576048,4.35629 0.01872,2.79706 3.157428,5.73648 5.322937,5.90674 4.919619,0.38679 8.224401,-0.63043 14.048272,-3.98719 3.218698,-1.85519 4.149007,-2.46406 4.608821,-1.66333 0.277792,0.48375 2.164977,3.42545 2.649001,4.70277 l 3.02781,1.99232 -4.803714,3.34758 c -4.039533,2.81505 -6.807743,4.86743 -6.807743,6.2734 0,1.46074 1.243139,-1.49251 4.085937,-4.16107 8.120843,-7.6231 27.71203,-14.85755 40.86585,-19.15039 14.95327,-4.8801 21.23181,-5.40693 21.14305,-6.51272 -0.0804,-1.0025 0.68941,-0.22846 7.96687,-1.85518 3.7086,-0.82898 4.73492,-0.009 5.72256,-0.80894 1.42526,-1.1541 1.40607,-3.82728 0.88859,-6.54367 -0.46616,-2.44701 -0.0912,-14.31369 0.37281,-17.76933 l 0.20828,-2.86959 4.50537,3.70011 c 3.20112,2.62898 4.3613,6.24451 5.50741,10.73272 1.08802,4.26072 0.96136,18.35152 -0.34226,23.31555 -1.4048,5.34925 -5.44734,12.47967 -9.0724,16.72205 -4.02908,4.71518 -7.94977,6.65928 -12.20825,8.79313 -8.58596,4.30228 -12.70239,5.42726 -30.2732,6.49344 -22.0959,1.34075 -25.296155,2.90461 -39.035202,9.06277 -6.645206,2.97853 -8.644983,3.10923 -10.74571,2.44881 z"
         id="path118"
         sodipodi:nodetypes="cssscsssssscsssssscsccssssssscc"
         transform="scale(0.26458333)" /><path
         style="fill:#e7c9d2;fill-opacity:1;stroke:#000000;stroke-width:0.505872"
         d="m 81.612719,338.93856 c -1.177077,-1.01989 -4.159974,-6.14477 -4.892398,-10.61283 -0.314339,-1.91758 1.162304,-2.90318 4.198992,-5.06543 9.321458,-6.63726 17.445552,-9.28932 33.606737,-10.33305 4.74915,-0.30671 7.22092,0.18435 8.58644,1.26448 1.67152,1.32218 3.58634,5.82476 3.59359,7.84342 0.005,1.53106 0.0446,2.478 -11.54881,5.51153 -11.68983,3.05877 -17.699282,6.56 -26.241389,10.23317 l -5.168705,3.00811 z"
         id="path121"
         transform="scale(0.26458333)"
         sodipodi:nodetypes="ssssscsscs" /><path
         style="fill:#5a0417;fill-opacity:1;stroke:#000000;stroke-width:0.178853"
         d="m 64.664879,336.69565 c 2.863423,-2.63118 6.77985,-6.4312 9.5577,-8.32689 l 2.384564,-1.6273 0.237333,1.58238 c 0.09503,0.6336 0.415354,1.82998 0.632933,2.67275 l 0.395599,1.5323 -2.51242,1.94719 c -3.187028,2.47004 -5.817781,3.18542 -7.983149,3.94915 -1.32768,0.46828 -4.32339,0.72972 -5.45144,0.72972 -0.197046,0 1.549326,-1.36623 2.73888,-2.4593 z"
         id="path122"
         transform="scale(0.26458333)"
         sodipodi:nodetypes="sscsscssss" /><path
         style="fill:#5a0417;fill-opacity:1;stroke:#000000;stroke-width:0.178853"
         d="m 125.66865,317.34101 c -0.36993,-0.71862 -0.91703,-2.22775 -1.52444,-2.89062 l -2.6196,-1.71031 3.95342,0.12583 c 6.16246,0.19614 12.34132,0.8466 15.36664,1.85764 1.2816,0.4283 4.86741,2.55462 4.99629,2.62822 1.16536,0.66555 -4.25871,0.26917 -7.69009,0.36767 -5.32528,0.15292 -7.54522,-0.011 -11.01469,0.4736 -0.51528,0.072 -0.82854,0.38931 -1.46753,-0.85203 z"
         id="path123"
         transform="scale(0.26458333)"
         sodipodi:nodetypes="sscssssss" /><path
         style="fill:#e9e1e3;fill-opacity:1;stroke:#000000;stroke-width:0.0882058"
         d="m 33.756348,85.726606 c -0.09738,-2.9e-5 -0.134907,-0.409345 -0.164697,-0.699936 l -0.10425,-0.645273 1.031768,-0.128058 c 1.038217,-0.128857 2.908252,-0.06191 3.709064,-0.06278 0.701364,-5.27e-4 1.279799,0.330133 1.1356,0.454797 -0.09492,0.08206 -0.914588,0.156161 -1.187416,0.157943 -0.608833,0.0042 -2.259714,0.42739 -4.039188,0.834121 -0.105143,0.02403 -0.17919,0.08925 -0.297366,0.08921 z"
         id="path124"
         sodipodi:nodetypes="sccscscsss" /></g></g></svg>
