<?xml version="1.0" encoding="UTF-8" standalone="no"?>
<!-- Created with Inkscape (http://www.inkscape.org/) -->

<svg
   width="53.186634mm"
   height="60.135647mm"
   viewBox="0 0 53.186634 60.135647"
   version="1.1"
   id="svg1"
   xml:space="preserve"
   inkscape:version="1.4.3 (0d15f75, 2025-12-25)"
   sodipodi:docname="рисунок1.svg"
   xmlns:inkscape="http://www.inkscape.org/namespaces/inkscape"
   xmlns:sodipodi="http://sodipodi.sourceforge.net/DTD/sodipodi-0.dtd"
   xmlns="http://www.w3.org/2000/svg"
   xmlns:svg="http://www.w3.org/2000/svg"
   xmlns:rdf="http://www.w3.org/1999/02/22-rdf-syntax-ns#"
   xmlns:cc="http://creativecommons.org/ns#"
   xmlns:dc="http://purl.org/dc/elements/1.1/"><defs
     id="defs1" /><sodipodi:namedview
     id="base"
     pagecolor="#ffffff"
     bordercolor="#000000"
     borderopacity="0.3"
     inkscape:pageopacity="0.0"
     inkscape:pageshadow="2"
     inkscape:zoom="0.35"
     inkscape:cx="537.14285"
     inkscape:cy="-195.71428"
     inkscape:document-units="mm"
     inkscape:showpageshadow="2"
     inkscape:pagecheckerboard="0"
     inkscape:deskcolor="#d1d1d1"
     inkscape:window-width="1920"
     inkscape:window-height="1009"
     inkscape:window-x="-8"
     inkscape:window-y="-8"
     inkscape:window-maximized="1"
     inkscape:current-layer="svg1"><inkscape:page
       x="0"
       y="0"
       width="53.186634"
       height="60.135647"
       id="page25"
       margin="0"
       bleed="0"
       inkscape:export-filename="Страница 11.svg"
       inkscape:export-xdpi="96"
       inkscape:export-ydpi="96" /></sodipodi:namedview><metadata
     id="metadata1"><rdf:RDF><cc:Work
         rdf:about=""><dc:format>image/svg+xml</dc:format><dc:type
           rdf:resource="http://purl.org/dc/dcmitype/StillImage" /></cc:Work></rdf:RDF></metadata><g
     id="g16"
     transform="translate(4.522997,-130.6948)"><path
       style="opacity:1;fill:#cc9eb1;fill-opacity:0;stroke:#000000;stroke-width:0.264999"
       d="m 8.9201203,137.10926 c 0,0 -0.434313,-0.13363 -0.634765,0.40091 -0.2004523,0.53454 0.066817,11.62622 0.2672694,12.62848 0.2004523,1.00226 2.0713393,2.40543 3.1404173,2.53907 1.069078,0.13363 21.114291,0.20045 21.114291,0.20045 0,0 1.937705,-0.20045 2.806332,-0.73499 0.868624,-0.53454 1.336347,-1.26953 1.469983,-2.00453 0.133633,-0.73499 0.534537,-11.82667 0.467719,-12.36121 -0.06682,-0.53454 -0.334086,-0.80181 -0.801809,-0.80181 -0.46772,0 -5.412205,0.13364 -5.412205,0.13364 0,0 -0.334087,0.33408 -0.334087,0.8018 0,0.46773 0.0063,6.84703 -0.09044,10.86257 -0.0082,0.33987 -0.295438,0.39955 -0.510915,0.39616 -0.266812,-0.004 -0.604438,-0.11387 -0.616872,-0.51022 -0.133026,-4.24032 -0.0513,-11.01578 -0.0513,-11.01578 0,0 0,-0.53453 -0.467722,-0.60135 -0.46772,-0.0668 -5.545842,0 -5.545842,0 0,0 -0.133635,-0.13364 -0.200452,0.73499 -0.06682,0.86862 0.08335,7.49172 0.07307,11.46763 -7.39e-4,0.28551 -0.682927,0.35422 -1.145045,0.32059 -0.619572,-0.0451 -0.434064,-1.50498 -0.443577,-3.27289 -0.02318,-4.30829 0.312838,-8.31488 0.179202,-8.64897 -0.133634,-0.33408 -0.267269,-0.53453 -0.668173,-0.53453 -0.400905,0 -4.409947,-0.0668 -4.744034,-0.0668 -0.334087,0 -0.835217,-0.0334 -0.902034,0.3675 -0.06682,0.4009 -0.01933,5.25637 -7e-6,7.88444 0.0056,0.75733 0.07105,1.32124 0.03341,2.27179 -0.0184,0.4647 0.06407,1.32713 -0.400905,1.33635 -0.753505,0.0149 -0.780325,-0.11659 -0.73499,-2.13816 0.08782,-3.91596 0.06682,-8.78648 -0.133636,-9.05375 -0.200452,-0.26727 0.06682,-0.46772 -0.668173,-0.60135 -0.734992,-0.13364 -4.1092689,-2e-5 -4.1092689,-2e-5 z"
       id="path79"
       sodipodi:nodetypes="cssscsssscssascscssssssssasassscc" /><path
       style="opacity:1;fill:#cc9eb1;fill-opacity:0;stroke:#000000;stroke-width:0.264999"
       d="m 8.1183119,138.81311 c 0.1670434,0.0334 6.6149211,0.0334 6.6149211,0.0334"
       id="path80" /><path
       style="opacity:1;fill:#cc9eb1;fill-opacity:0;stroke:#000000;stroke-width:0.264999"
       d="m 15.835719,138.81311 6.447877,0.0668"
       id="path81" /><path
       style="opacity:1;fill:#cc9eb1;fill-opacity:0;stroke:#000000;stroke-width:0.264999"
       d="m 23.519718,138.7797 6.280834,0.10023"
       id="path82" /><path
       style="opacity:1;fill:#cc9eb1;fill-opacity:0;stroke:#000000;stroke-width:0.264999"
       d="m 31.003266,138.87993 6.548101,-0.0668"
       id="path83" /><path
       style="opacity:1;fill:#cc9eb1;fill-opacity:0;stroke:#000000;stroke-width:0.264999"
       d="m 15.835719,144.9269 c -0.167043,-0.23386 -0.530509,-2.2727 -0.50113,-3.70837 0.02806,-1.37109 0.50113,-2.93995 0.50113,-2.93995"
       id="path84"
       sodipodi:nodetypes="csc" /><path
       style="opacity:1;fill:#cc9eb1;fill-opacity:0;stroke:#000000;stroke-width:0.264999"
       d="m 22.116553,147.69982 c 0,0 0.467722,0.23386 0.801809,0.23386 0.334086,0 0.50113,-0.13363 0.50113,-0.13363"
       id="path85" /><path
       style="opacity:1;fill:#cc9eb1;fill-opacity:0;stroke:#000000;stroke-width:0.264999"
       d="m 29.719896,145.80937 c 0,0 0.495953,-2.05501 0.615195,-3.22108 0.153542,-1.50149 0.03472,-2.54873 -0.06682,-3.24064 -0.11781,-0.80277 -0.50113,-1.46998 -0.50113,-1.46998"
       id="path86"
       sodipodi:nodetypes="cssc" /><path
       style="opacity:1;fill:#cc9eb1;fill-opacity:0;stroke:#000000;stroke-width:0.264999"
       d="m 29.110782,137.00128 c 0,0 -1.105729,-1.47804 -2.751326,-2.03017 -1.37515,-0.4614 -2.862523,-0.69907 -4.30972,-0.60136 -0.946258,0.0639 -1.875969,0.37626 -2.739513,0.7684 -0.629968,0.28608 -1.21077,0.68699 -1.737251,1.13589 -0.251954,0.21483 -0.668174,0.735 -0.668174,0.735"
       id="path87"
       sodipodi:nodetypes="csaaac" /><path
       style="opacity:1;fill:#cc9eb1;fill-opacity:0;stroke:#000000;stroke-width:0.264999"
       d="m 21.047475,134.50339 c 0,0 -0.03459,-0.34815 0.03341,-0.50113 0.207936,-0.46777 0.613471,-0.86911 1.069078,-1.10249 0.340616,-0.17448 0.756493,-0.2172 1.135895,-0.16704 0.360964,0.0477 0.708844,0.21872 1.002261,0.43431 0.260871,0.19168 0.46788,0.45761 0.634765,0.73499 0.110878,0.18429 0.194204,0.38997 0.233861,0.60136 0.01027,0.0547 0,0.16704 0,0.16704"
       id="path88"
       sodipodi:nodetypes="caaaaaac" /><path
       style="opacity:1;fill:#cc9eb1;fill-opacity:0;stroke:#000000;stroke-width:0.264999"
       d="m 12.803943,152.70238 c 0,0 -0.255386,0.68484 -0.507905,0.93313 -0.466818,0.45899 -0.864196,0.5509 -0.980376,1.004 -0.09846,0.38401 0.07824,0.83072 0.318918,1.14573 0.275481,0.36057 0.612861,0.71545 1.169363,0.6969 7.447072,-0.24826 12.571846,-0.1142 19.843751,0 0.3381,0.005 0.721838,-0.0938 0.997917,-0.30543 0.420884,-0.32265 0.870751,-0.81853 0.844715,-1.34822 -0.02381,-0.48435 -0.594554,-0.76626 -0.889586,-1.15112 -0.224329,-0.29263 -0.669564,-0.8805 -0.669564,-0.8805"
       id="path89"
       sodipodi:nodetypes="csaassaaac" /><path
       style="opacity:1;fill:#cc9eb1;fill-opacity:0;stroke:#000000;stroke-width:0.264999"
       d="m 13.096207,156.51971 c 0,0 -0.03341,0.30068 0.167043,0.83522 0.200452,0.53454 0.26727,0.63477 0.634765,0.73499 0.367496,0.10023 11.417584,-0.0774 17.740016,0.0334 0.173084,0.003 0.268632,-0.0187 0.373574,-0.0925 0.210555,-0.14803 0.328008,-0.37525 0.428235,-0.64252 0.100224,-0.26727 0.167042,-0.86863 0.167042,-0.86863"
       id="path90"
       sodipodi:nodetypes="csssasc" /><path
       style="opacity:1;fill:#cc9eb1;fill-opacity:0;stroke:#000000;stroke-width:0.264999"
       d="m 32.033482,158.04129 c 0,0 0.374474,0.6178 0.09449,1.27567 -0.573334,1.34717 -0.708707,2.59859 -0.472471,4.53572 0.236236,1.93713 2.267859,8.26823 3.071057,9.87463 0.803198,1.6064 1.591712,3.27553 2.551341,4.81919 0.369236,0.59395 1.28428,1.00376 1.228422,1.70089 -0.04625,0.57724 -0.742246,0.91383 -1.228423,1.22843 -2.418836,1.5652 -5.238527,2.59048 -8.079242,3.07105 -3.966666,0.67106 -8.79941,0.67529 -10.578584,0.37797 -1.526486,-0.25509 -6.854262,-1.18593 -9.7376355,-2.97655 -0.6435868,-0.39968 -1.5062783,-0.89791 -1.5591519,-1.65365 -0.064654,-0.92413 0.6614584,-1.18117 1.6063989,-2.26786 0.4901878,-0.56372 3.0238095,-5.71689 3.2600445,-6.75632 0.236235,-1.03943 1.889881,-6.28385 1.937128,-7.46503 0.04725,-1.18118 -0.04725,-3.59078 -0.236235,-4.016 -0.188988,-0.42522 -0.377976,-0.47247 -0.425223,-0.89769 -0.04725,-0.42522 0,-0.89769 0,-0.89769 l 0.425223,0.0472"
       id="path91"
       sodipodi:nodetypes="csssaaassaassssscc" /><path
       style="opacity:1;fill:#cc9eb1;fill-opacity:0;stroke:#000000;stroke-width:0.264999"
       d="m 7.5595238,179.44419 c 0,0 -0.7697957,0.63976 -0.9449406,1.08669 -0.1839708,0.46945 -0.205149,1.03305 -0.047247,1.5119 0.2387846,0.72413 0.7998945,1.34811 1.4174105,1.79539 1.7794929,1.28893 4.0585543,1.73158 6.1893603,2.26786 1.619917,0.4077 4.110491,0.56696 4.960938,0.7087 0.850446,0.14174 6.261246,0.20728 9.35491,-0.18899 2.553749,-0.32711 5.131521,-0.81526 7.512277,-1.79538 0.748124,-0.30799 1.472191,-0.72021 2.07363,-1.26134 0.418659,-0.37668 0.832797,-0.81367 1.025102,-1.34299 0.175146,-0.48209 0.235248,-1.05189 0.06922,-1.5372 -0.135678,-0.39659 -0.814172,-0.95829 -0.814172,-0.95829"
       id="path92"
       sodipodi:nodetypes="caaaasaaaaac" /><path
       style="opacity:1;fill:#cc9eb1;fill-opacity:0;stroke:#000000;stroke-width:0.264999"
       d="m 6.6065684,182.08572 c 0,0 -0.112442,1.73561 0.1753958,2.5307 0.2525054,0.69749 0.7395406,1.32153 1.3029388,1.80407 1.0061896,0.86177 2.27694,1.40859 3.541321,1.80408 2.445576,0.76496 5.055739,0.96484 7.617182,1.03566 3.933858,0.10876 6.882567,0.2947 10.289876,-0.10023 2.018171,-0.23393 4.077843,-0.53953 5.946747,-1.33635 0.946114,-0.40339 1.854092,-0.96778 2.57247,-1.70384 0.394932,-0.40465 0.703255,-0.90724 0.902033,-1.43658 0.21803,-0.58061 0.334269,-1.14095 0.292328,-1.83748 -0.03533,-0.58676 -0.158691,-0.62641 -0.158691,-0.62641"
       id="path93"
       sodipodi:nodetypes="caaasaaaasc" /><path
       style="opacity:1;fill:#cc9eb1;fill-opacity:0;stroke:#000000;stroke-width:0.264999"
       d="m 12.638578,169.61681 c 0,0 0.712784,3.92343 1.535529,5.7169 1.20758,2.63234 2.901341,4.84237 4.890067,7.18154 0.86925,1.02243 3.236421,2.55134 3.236421,2.55134"
       id="path94"
       sodipodi:nodetypes="casc" /><path
       style="opacity:1;fill:#cc9eb1;fill-opacity:0;stroke:#000000;stroke-width:0.264999"
       d="m 13.18192,167.67968 c 0,0 0.894429,4.31508 1.748139,6.33111 0.726734,1.71618 1.740493,3.31059 2.834822,4.81919 0.94997,1.30959 2.001655,2.56536 3.212797,3.63802 1.144585,1.01372 3.779762,2.59859 3.779762,2.59859"
       id="path95"
       sodipodi:nodetypes="caaac" /><path
       style="opacity:1;fill:#cc9eb1;fill-opacity:0;stroke:#000000;stroke-width:0.264999"
       d="m 14.03165,160.66239 c 0,0 2.410203,4.89051 5.178347,7.3165 2.803747,2.4572 5.89359,4.66682 9.254208,6.28084 2.111546,1.01412 4.398859,1.72222 6.715146,2.07134 0.308332,0.0465 0.935443,0 0.935443,0"
       id="path96"
       sodipodi:nodetypes="csaac" /><path
       style="opacity:1;fill:#cc9eb1;fill-opacity:0;stroke:#000000;stroke-width:0.264999"
       d="m 19.610901,158.15674 c 0,0 2.952925,2.31654 4.34313,3.57473 2.037614,1.84413 3.916786,3.85638 5.846521,5.81311 0.989884,1.00373 1.993639,1.99529 2.939966,3.04019 0.450831,0.49779 1.302938,1.5368 1.302938,1.5368"
       id="path97"
       sodipodi:nodetypes="caaac" /><path
       style="opacity:1;fill:#cc9eb1;fill-opacity:0;stroke:#000000;stroke-width:0.264999"
       d="m 22.684501,158.05651 c 0,0 1.819642,1.44927 2.672695,2.23839 1.670658,1.54545 3.256079,3.18505 4.777443,4.87767 0.877865,0.97668 1.70592,1.99856 2.505652,3.04019 0.05834,0.076 0.167042,0.23386 0.167042,0.23386"
       id="path98"
       sodipodi:nodetypes="caaac" /><path
       style="fill:#672d3f;fill-opacity:1;stroke:#000000;stroke-width:0.505872"
       d="m 87.400615,695.66966 c -9.529214,-6.3188 -15.257246,-11.79368 -23.104918,-23.46687 -6.42817,-9.56173 -11.098014,-17.16988 -12.954093,-31.16714 l -1.107202,-8.34975 1.534109,-5.46851 c 1.13699,-4.05293 1.264777,-8.14544 1.341568,-11.42335 l 0.164604,-7.02628 2.178945,4.72543 c 3.284123,7.12221 9.935801,14.98843 13.023009,18.29418 7.92229,8.48312 24.456018,20.35328 37.018223,26.57674 8.44803,4.18525 15.95798,6.72356 24.35067,8.23039 l 6.74554,1.09888 1.89606,2.9658 c 1.08472,1.6967 2.19645,3.86098 3.65486,5.50072 1.45841,1.63974 3.81236,3.4964 3.5445,5.44536 -0.17785,1.29407 -2.12098,3.13443 -7.88035,6.35934 -9.54679,5.34563 -19.56712,9.01833 -31.64821,10.46582 -11.702502,1.40213 -12.119895,1.6405 -18.757315,-2.76076 z"
       id="path336"
       transform="scale(0.26458333)"
       sodipodi:nodetypes="ssscsscsssscssssss" /><path
       style="fill:#672d3f;fill-opacity:1;stroke:#000000;stroke-width:0.505872"
       d="m 117.82692,628.29999 c -6.55975,-7.92298 -19.165154,-20.9714 -26.654308,-27.29393 -1.736199,-1.46574 -4.320413,-2.59282 -3.781726,-3.0166 1.019347,-0.80191 8.971821,-0.28572 17.858874,-0.0838 l 15.1803,-0.35715 1.69642,2.56719 c 0.42647,0.64537 -1.12716,3.38729 -1.74091,5.04442 -0.94468,2.55062 -0.9344,2.77048 -0.91822,8.32894 0.016,5.4821 0.24569,7.25139 1.39164,11.62117 0.75488,2.87857 2.01622,8.8383 1.92997,9.09705 -0.0862,0.25875 -3.39952,-4.02008 -4.96204,-5.90733 z"
       id="path337"
       transform="scale(0.26458333)"
       sodipodi:nodetypes="sssscssssss" /><path
       style="fill:#672d3f;fill-opacity:1;stroke:#000000;stroke-width:0.505872"
       d="m 47.025281,591.23845 c -2.711724,-0.26034 -3.700901,-3.59493 -3.984759,-4.4424 -0.220595,-0.6586 -1.278259,-2.12965 1.957217,-4.80445 1.72868,-1.42912 2.402835,-3.4271 2.402835,-3.72821 0,-0.39165 12.07889,-0.17475 39.071458,0.0888 l 38.535738,0.10055 1.87967,1.94878 c 1.34771,1.39727 3.27105,3.71184 3.44388,4.33889 0.37491,1.36023 -1.11389,3.98509 -3.04327,5.24926 -1.26952,0.83182 -4.31402,1.42663 -41.045732,1.42663 H 48.877734 Z"
       id="path338"
       transform="scale(0.26458333)"
       sodipodi:nodetypes="ssssscsssscs" /><path
       style="fill:#8c3f57;fill-opacity:1;stroke:#000000;stroke-width:0.505872"
       d="m 70.70805,699.49971 c -3.882116,-0.1909 -13.284,-2.33411 -18.925876,-3.88834 -9.905119,-2.72869 -20.028109,-8.2541 -23.3945,-11.62049 -2.443636,-2.44364 -2.050422,-3.55211 1.735979,-7.58366 1.822403,-1.94039 4.67585,-5.74674 6.051615,-8.27061 3.328647,-6.10648 9.724841,-19.74944 10.42659,-22.53634 0.698904,-2.7756 1.364339,-3.52527 2.180304,0.47631 1.093199,5.36116 3.534718,15.93081 5.55594,19.95082 5.07571,10.09508 16.516571,23.30783 23.123135,28.76376 l 6.010892,4.964 -4.508354,0.0136 c -2.185338,0.007 -1.970174,0.0401 -2.809297,-0.001 z"
       id="path339"
       transform="scale(0.26458333)"
       sodipodi:nodetypes="ssssssssscsss" /><path
       style="fill:#8c3f57;fill-opacity:1;stroke:#000000;stroke-width:0.505872"
       d="m 125.73727,665.32171 c -16.38972,-3.80064 -30.550464,-12.31124 -47.98879,-26.19665 -7.494092,-5.96723 -12.241406,-10.86864 -16.41531,-16.74527 -4.116098,-5.79523 -7.00349,-10.42997 -8.357211,-15.27159 -0.154728,-0.55339 -0.639241,-3.19618 -1.188724,-4.40713 -0.549483,-1.21095 -1.133108,-2.96982 -0.731203,-3.49855 l 0.08929,-1.83254 12.949695,0.0224 10.271123,0.20097 8.007253,6.37981 c 11.359616,9.05082 46.168517,45.93468 46.168517,48.12312 0,0.32264 2.63232,4.10587 4.43094,7.75243 3.69642,7.49418 5.57572,8.44384 -1.07486,6.90162 z"
       id="path340"
       transform="scale(0.26458333)"
       sodipodi:nodetypes="sssssscccsssss" /><path
       style="fill:#8c3f57;fill-opacity:1;stroke:#000000;stroke-width:0.505872"
       d="m 60.387253,578.12376 c -16.021637,0.22577 -16.112693,-0.16552 -19.759251,-1.99902 -3.448839,-1.73408 -6.183757,-4.08664 -7.452353,-6.13927 -0.972476,-1.5735 -1.317973,-3.64123 -1.693301,-12.27483 -0.231997,-5.33659 -0.437262,-13.33129 -0.553551,-19.51226 L 30.68545,525.264 l 12.829647,-0.20089 12.383217,-0.067 0.08581,18.75748 c 0.09144,19.98721 0.290842,18.66187 2.016157,18.61723 2.751864,-0.0712 2.238419,0.25549 1.960429,-19.44544 l -0.246322,-17.45669 12.095704,0.0631 12.100849,-0.22321 -0.379464,21.03079 c -0.373778,20.71561 -0.430769,18.58837 2.764189,18.58837 0.900965,0 1.910855,-0.27274 2.244205,-0.60609 0.446271,-0.44627 0.606092,-4.88839 0.606092,-16.84597 0,-8.93193 -0.277812,-17.72917 -0.202579,-19.3744 l 0.154564,-3.38007 11.792162,-0.0559 11.79214,-0.0336 -0.0949,19.72084 c -0.0821,17.06767 0.11975,18.35126 0.91896,18.93567 1.0185,0.74476 1.75792,0.56446 2.80039,-0.0953 0.59491,-0.37651 0.44396,-3.34164 0.63869,-19.03592 l 0.23165,-18.66981 12.71868,-0.22322 12.04905,0.26786 -0.13476,7.56848 c -0.56544,31.75736 -1.20478,35.09458 -1.91749,36.80558 -1.57648,3.78465 -7.29212,6.94864 -14.41693,8.15599 -3.5481,0.60125 -35.212228,-0.35912 -52.409805,-0.11677 z"
       id="path341"
       transform="scale(0.26458333)"
       sodipodi:nodetypes="ssssscccssscccssssscccsssscccsssss" /><path
       style="fill:#e9e1e3;fill-opacity:1;stroke:#000000;stroke-width:0.505872"
       d="m 30.831653,520.09966 c 0.257462,-0.76559 0.772023,-1.65796 1.403943,-1.975 0.682488,-0.34241 7.661183,-0.3596 7.661186,-0.35961 0,0 7.890478,-0.12795 14.223686,0.22078 0.684423,0.0377 1.081844,0.70556 1.344618,1.261 0.779966,1.64867 0.526168,5.45377 0.362475,5.45956 l -0.691965,0.0244 -11.637424,0.17857 -12.820462,0.17857 c 0,0 -0.376323,-3.41153 0.153943,-4.98832 z"
       id="path342"
       transform="scale(0.26458333)"
       sodipodi:nodetypes="ascsasccca" /><path
       style="fill:#e9e1e3;fill-opacity:1;stroke:#000000;stroke-width:0.505872"
       d="m 59.658577,522.65831 c -0.234353,-4.49826 1.042912,-4.38952 1.567531,-4.87948 0.554814,-0.51815 21.289187,-0.25327 21.795339,0.16256 0.34724,0.28527 1.310398,3.31362 0.867171,4.29535 l 0.178572,2.9406 -12.91457,0.34724 -11.357871,-0.25254 z"
       id="path343"
       transform="scale(0.26458333)"
       sodipodi:nodetypes="sssscccs" /><path
       style="fill:#e9e1e3;fill-opacity:1;stroke:#000000;stroke-width:0.505872"
       d="m 89.081269,520.96319 0.06338,-3.32129 7.333665,-0.43687 c 5.546426,-0.3304 14.487146,-0.0341 15.452506,0.89962 0.55848,0.54017 0.8293,0.39705 0.76852,4.16588 l 0.009,2.59431 -11.82306,-0.13397 -11.867668,0.0893 z"
       id="path344"
       transform="scale(0.26458333)"
       sodipodi:nodetypes="ccssscccc" /><path
       style="fill:#e9e1e3;fill-opacity:1;stroke:#000000;stroke-width:0.505872"
       d="m 116.9609,520.91724 c 0.0311,-1.13078 0.2592,-1.98533 1.09725,-2.84102 0.50493,-0.51555 9.19731,-0.45117 11.31602,-0.46385 5.269,-0.0315 10.01392,-0.30056 11.59093,0.4597 0.58889,0.28389 1.41743,2.24566 1.36443,3.4293 l -0.17857,3.98847 -12.33104,-0.13392 -12.68818,0.13392 c 0,0 -0.21182,-3.08337 -0.17084,-4.5726 z"
       id="path345"
       transform="scale(0.26458333)"
       sodipodi:nodetypes="ssssscccs" /><path
       style="fill:#e7c9d2;fill-opacity:1;stroke:#000000;stroke-width:0.178853"
       d="m 83.600712,559.76875 c -0.90144,-0.16386 -0.02227,0.45408 -0.0417,-0.45589 -0.177122,-8.29344 -0.15663,-20.89391 -0.15663,-20.89391 l -0.145962,-17.895 0.02279,-1.71379 c 0.01156,-0.86935 -0.721751,-0.95843 -1.435771,-1.07163 -0.314491,-0.0499 -1.616763,-0.023 -4.155161,-0.023 -1.534602,0 -3.830338,-0.17937 -6.934291,-0.24418 l -6.670338,-0.11791 1.150146,-1.56963 c 1.96507,-2.68178 8.784843,-6.3626 14.632288,-7.6009 3.534212,-0.74843 10.980682,-0.78164 15.848214,0.35964 5.556183,1.30274 9.382483,3.45133 12.455263,7.12448 l 1.55045,1.64095 -10.681301,-0.0255 c -11.259546,-0.0269 -9.469243,-0.0363 -9.8106,1.84695 -0.258084,1.42382 0.133406,10.95621 -0.01914,25.76725 0,0 -0.0069,7.28097 -0.212073,14.64042 -0.0074,0.26561 0.330763,-0.0784 -1.003999,0.50263 -2.255564,0.98179 -0.853252,0.005 -1.279284,0.0252 -0.243203,0.0115 0.174507,0.37565 -0.72837,0.0548 -0.235163,-0.0836 0.0722,0.0875 -0.826787,-0.10049 -0.644,-0.13468 -0.329579,-0.0272 -1.066665,-0.1612 z"
       id="path346"
       transform="scale(0.26458333)"
       sodipodi:nodetypes="ssccsssscsssscsssssassss" /><path
       style="fill:#e7c9d2;fill-opacity:1;stroke:#000000;stroke-width:0.178853"
       d="m 58.440924,541.13839 c -1.485598,-5.30894 -0.538637,-13.57445 1.18399,-16.71875 0.41312,-0.75407 0.08741,15.69215 0.03359,17.61161 l 0.0067,3.48214 z"
       id="path347"
       transform="scale(0.26458333)"
       sodipodi:nodetypes="ssscs" /><path
       style="fill:#e7c9d2;fill-opacity:1;stroke:#000000;stroke-width:0.178853"
       d="m 112.58208,533.39286 0.17658,-12.09822 1.22699,3.62282 c 1.35528,4.0016 1.93412,14.45191 -0.27285,20.8025 l -1.08404,3.11932 z"
       id="path348"
       transform="scale(0.26458333)"
       sodipodi:nodetypes="ccsscc" /><path
       style="fill:#ef0034;fill-opacity:1;stroke:#000000;stroke-width:0.357705"
       d="m 94.06528,508.1315 c -0.423132,-0.42313 -8.183243,-0.84483 -11.297423,-0.43419 -2.843345,0.37492 -3.772321,0.49823 -3.59375,-1.12588 0.0822,-0.74761 0.658036,-3.23742 2.957279,-4.52594 3.687818,-2.06669 10.654607,-2.08149 12.404668,2.79001 0.459327,1.2786 1.295527,3.65458 0.03115,3.39492 -1.016238,-0.2087 -0.949133,-0.18901 -1.037634,-0.27701 z"
       id="path349"
       transform="scale(0.26458333)"
       sodipodi:nodetypes="cssssscc" /><path
       style="fill:#ef0034;fill-opacity:1;stroke:#000000;stroke-width:0.357705"
       d="M 120.27737,641.05516 C 117.4706,637.90608 109.72762,629.72365 102.79086,622.83827 91.201141,611.33439 88.494078,609.31589 80.525444,602.76786 l -5.976099,-4.91072 3.305685,-0.23254 c 1.037738,-0.073 4.462377,-0.0296 5.953377,0.17857 l 3.004836,0.14327 4.495163,3.25602 c 5.395802,3.90838 18.354294,18.15956 23.651424,24.33327 2.02246,2.35715 5.48198,6.35715 6.81481,8.125 2.16267,2.86855 2.66628,4.05163 3.94116,8.03572 0.78569,2.45535 3.51985,9.404 3.33395,10.69801 -0.18691,1.30095 -2.3049,-4.08308 -5.11166,-7.23214 z"
       id="path350"
       transform="scale(0.26458333)"
       sodipodi:nodetypes="ssscsscsssssss" /><path
       style="fill:#ef0034;fill-opacity:1;stroke:#000000;stroke-width:0.357705"
       d="m 79.464286,696.30128 c -4.726759,-3.64655 -7.005219,-5.10491 -9.630786,-8.17628 -6.106896,-7.14381 -10.792839,-13.96943 -14.248996,-20.45061 -2.887478,-5.41477 -4.251626,-10.48174 -6.567147,-20.96838 -1.001293,-4.5347 -1.002048,-5.97678 -0.368986,-8.03571 0.36908,-1.20038 0.984848,-3.62485 1.09981,-3.31316 0.108677,0.29464 1.12436,4.82812 1.929693,8.11012 3.350709,13.65522 6.683672,21.57559 15.446745,33.30687 6.489781,8.68799 12.737308,13.03949 20.241023,19.07006 l 5.84779,3.53081 -3.599399,0.28911 c -1.251996,0.003 -5.354791,0.11334 -5.730104,-0.0433 -1.417484,-0.59161 1.264672,1.06575 -1.294643,-0.90869 z"
       id="path351"
       transform="scale(0.26458333)"
       sodipodi:nodetypes="sssssssssccsss" /><path
       style="fill:#c399a3;fill-opacity:1;stroke:#000000;stroke-width:0.357705"
       d="m 51.358105,597.05338 c -0.976151,-0.11351 -2.469036,-4.76124 -2.04905,-5.18079 0.312585,-0.31225 73.623955,-0.30863 73.936425,0.004 0.37084,0.37083 0.0815,3.8659 -1.27698,4.46284 l -1.333,0.98215 -34.2115,-0.0893 c -29.52003,-0.077 -30.417518,0.36176 -31.226609,0.26767 z"
       id="path352"
       transform="scale(0.26458333)"
       sodipodi:nodetypes="sssscsss" /><path
       style="fill:#e7c9d2;fill-opacity:1;stroke:#000000;stroke-width:0.357705"
       d="m 77.053572,706.54423 c -2.546304,-0.16076 -12.288258,-0.86751 -16.69643,-1.4966 -4.440102,-0.63364 -16.029809,-3.88978 -20.601181,-5.45437 -9.965858,-3.41089 -15.810686,-9.97471 -15.402703,-15.5177 0.08497,-1.15445 0.546517,-2.46597 1.707676,-3.47316 l 0.676825,-0.58708 0.872606,2.66348 c 0.602152,1.83796 1.758111,2.22282 5.326002,4.68599 6.991387,4.82667 19.381661,8.55601 35.194978,11.56671 3.945096,0.75111 4.74572,0.68907 15.797226,1.06068 15.40593,-0.45194 22.863229,-1.15506 32.846319,-3.50149 8.57337,-2.01509 8.46591,-2.62413 23.76951,-9.9731 3.55756,-1.70838 4.22363,-3.07069 5.01944,-4.10343 l 0.46133,-1.62087 1.21844,1.09072 c 0.41935,0.37539 1.16057,2.10508 1.24418,3.11336 0.86598,10.44255 -20.71076,18.50901 -51.486579,21.19829 -5.915933,0.51695 -15.650997,0.61983 -19.947639,0.34857 z"
       id="path353"
       transform="scale(0.26458333)"
       sodipodi:nodetypes="ssssscssscssscssss" /><path
       style="fill:#e7c9d2;fill-opacity:1;stroke:#000000;stroke-width:0.357705"
       d="m 77.079722,715.5879 c -4.616072,-0.1535 -12.19389,-0.54306 -14.747461,-0.75659 -17.126777,-1.43209 -29.213758,-6.11356 -34.463231,-13.05467 -1.655958,-2.18959 -2.536694,-4.06225 -2.676425,-7.27611 l -0.215811,-4.96375 2.020058,2.33219 c 3.785458,4.37037 9.557374,7.22398 20.89335,10.16256 7.401996,1.91879 9.513207,2.43352 18.401268,3.47948 6.632943,0.78058 9.501894,1.47247 19.065673,1.47646 6.089285,0.003 12.690083,-0.86048 15.440077,-1.069 15.8409,-1.20117 30.47468,-5.68756 38.78065,-9.72619 1.2259,-0.59607 4.54139,-2.97067 5.81625,-4.34028 l 2.41072,-2.58988 0.50508,2.76806 c 0.46798,2.56475 -0.65035,5.5278 -1.82723,7.85188 -3.02422,5.97217 -11.995,10.99568 -24.02416,13.39483 -11.81161,2.35576 -22.814301,3.06134 -45.378808,2.31101 z"
       id="path354"
       transform="scale(0.26458333)"
       sodipodi:nodetypes="sssscssscssscssss" /><path
       style="fill:#e7c9d2;fill-opacity:1;stroke:#000000;stroke-width:0.264999"
       d="m 22.036245,148.16957 c 0,0 0.28076,0.0982 0.715073,0.0982 0.45937,0 0.832771,-0.0805 0.832771,-0.0805"
       id="path10"
       sodipodi:nodetypes="csc" /></g></svg>
