<?xml version="1.0" encoding="UTF-8" standalone="no"?>
<!-- Created with Inkscape (http://www.inkscape.org/) -->

<svg
   width="53.186634mm"
   height="60.135647mm"
   viewBox="0 0 53.186634 60.135647"
   version="1.1"
   id="svg1"
   xml:space="preserve"
   inkscape:version="1.4.3 (0d15f75, 2025-12-25)"
   sodipodi:docname="рисунок1.svg"
   xmlns:inkscape="http://www.inkscape.org/namespaces/inkscape"
   xmlns:sodipodi="http://sodipodi.sourceforge.net/DTD/sodipodi-0.dtd"
   xmlns="http://www.w3.org/2000/svg"
   xmlns:svg="http://www.w3.org/2000/svg"
   xmlns:rdf="http://www.w3.org/1999/02/22-rdf-syntax-ns#"
   xmlns:cc="http://creativecommons.org/ns#"
   xmlns:dc="http://purl.org/dc/elements/1.1/"><defs
     id="defs1" /><sodipodi:namedview
     id="base"
     pagecolor="#ffffff"
     bordercolor="#000000"
     borderopacity="0.3"
     inkscape:pageopacity="0.0"
     inkscape:pageshadow="2"
     inkscape:zoom="0.35"
     inkscape:cx="537.14285"
     inkscape:cy="-195.71428"
     inkscape:document-units="mm"
     inkscape:showpageshadow="2"
     inkscape:pagecheckerboard="0"
     inkscape:deskcolor="#d1d1d1"
     inkscape:window-width="1920"
     inkscape:window-height="1009"
     inkscape:window-x="-8"
     inkscape:window-y="-8"
     inkscape:window-maximized="1"
     inkscape:current-layer="svg1"><inkscape:page
       x="0"
       y="0"
       width="53.186634"
       height="60.135647"
       id="page20"
       margin="0"
       bleed="0" /></sodipodi:namedview><metadata
     id="metadata1"><rdf:RDF><cc:Work
         rdf:about=""><dc:format>image/svg+xml</dc:format><dc:type
           rdf:resource="http://purl.org/dc/dcmitype/StillImage" /></cc:Work></rdf:RDF></metadata><g
     id="g12"
     transform="translate(-158.82389,-65.481032)"><path
       style="fill:#f00033;fill-opacity:0;stroke:#000000;stroke-width:0.264999"
       d="m 197.10599,92.488473 c 0.33073,-0.141742 1.03998,-0.462828 1.37017,-0.897694 0.21988,-0.289578 0.0888,-0.768008 0.33073,-1.039434 0.22982,-0.257846 0.68755,-0.194892 0.94494,-0.425223 0.2999,-0.268372 0.54338,-0.64327 0.61421,-1.039436 0.062,-0.346661 0.0235,-0.758577 -0.18899,-1.039435 -0.51839,-0.685318 -1.66065,-0.577088 -2.31511,-1.133927 -0.35278,-0.300155 -0.66446,-0.692002 -0.80319,-1.133929 -0.59436,-1.893337 0.55176,-4.033904 0.0472,-5.953125 -0.33724,-1.28279 -0.99194,-2.569057 -1.98437,-3.449033 -1.11406,-0.987817 -1.31089,-1.331471 -4.11049,-1.748139 -0.47377,-0.07051 -0.99644,-0.0077 -1.41741,-0.236238 -1.33236,-0.72324 -2.42833,-1.981528 -3.07106,-3.354539 -0.24929,-0.532549 -0.21652,-1.160461 -0.23624,-1.74814 -0.0162,-0.482515 0.0973,-1.445087 0.0973,-1.445087 0,0 -1.672,0.757261 -2.26597,1.703267 -0.31999,0.509637 -0.60587,0.954248 -0.7607,1.48996 -0.1449,0.501341 -0.15511,1.037463 -0.14174,1.559152 0.02,0.77928 0.0632,1.582896 0.33073,2.315104 0.20392,0.558222 0.75595,1.322916 0.94494,1.511904"
       id="path47-7"
       sodipodi:nodetypes="caaaaaaaaasaaacsaaac" /><path
       style="fill:#f00033;fill-opacity:0;stroke:#000000;stroke-width:0.264999"
       d="m 183.30986,71.274559 c 0,0 -1.32292,1.133929 -1.46466,1.74814 -0.14174,0.614211 -0.28348,1.937128 0.0472,2.69308 0.33073,0.755953 0.99219,1.417411 0.99219,1.417411"
       id="path48-9" /><path
       style="fill:#f00033;fill-opacity:0;stroke:#000000;stroke-width:0.264999"
       d="m 183.82958,79.212059 c 0,0 -0.77725,1.91717 -0.8032,2.929316 -0.0376,1.466882 0.10012,3.099711 0.94494,4.299478 0.63147,0.896773 1.74848,1.39709 2.78757,1.748141 1.63317,0.551755 3.44693,0.205148 5.14993,0.472469 1.35511,0.212713 2.87989,0.129049 4.016,0.897694 0.55357,0.374521 0.93607,1.015244 1.13393,1.653646 0.11656,0.376077 0.10976,0.803059 0,1.181174 -0.11679,0.402301 -0.28793,0.896269 -0.67293,1.061381 -0.60897,0.261165 -1.40635,-0.0072 -1.94999,-0.386082 -0.65576,-0.45698 -0.72934,-1.440171 -1.25134,-2.045462 -0.73747,-0.855139 -1.60745,-1.63228 -2.59859,-2.173362 -0.28965,-0.158126 -0.94494,-0.295295 -0.94494,-0.295295"
       id="path49-3"
       sodipodi:nodetypes="caaaaaaaaaaac" /><path
       style="fill:#f00033;fill-opacity:0;stroke:#000000;stroke-width:0.264999"
       d="m 181.79796,75.810273 c -0.28348,0.188988 -3.25104,2.85269 -4.34673,4.677455 -1.16658,1.942829 -1.98279,4.171948 -2.22061,6.425596 -0.21648,2.051428 -0.0323,4.235831 0.75595,6.142112 0.7933,1.91852 2.49251,3.323359 3.82701,4.91369 0.84578,1.007923 1.9476,1.81409 2.64583,2.929314 0.42368,0.67671 0.97751,1.42621 0.8977,2.22061 -0.1227,1.22127 -1.06714,2.3119 -2.03162,3.07106 -1.52444,1.19991 -3.57248,1.58934 -5.47255,1.98102 -1.84142,0.37958 -3.62575,0.38433 -5.63051,0.33408 -0.37423,-0.009 -0.72704,-0.38738 -1.08668,-0.28348 -0.33183,0.0959 -0.58672,0.43281 -0.7087,0.75596 -0.35614,0.94344 -0.24763,2.07519 0.0945,3.0238 0.24369,0.67567 1.0116,1.0536 1.32292,1.7009 0.1755,0.36489 0.10291,0.81876 0.28348,1.18117 0.15467,0.31044 0.38578,0.59273 0.66146,0.8032 0.9469,0.72292 2.11476,1.1367 3.26004,1.46466 4.37026,1.25143 8.96737,1.918 13.51265,1.84263 3.65795,-0.0606 7.35239,-0.67519 10.81957,-1.84263 0.77441,-0.26075 1.5567,-0.5978 2.17336,-1.13393 1.19777,-1.04136 2.17317,-2.40278 2.76801,-3.87426 0.53709,-1.32861 0.64436,-2.8192 0.63378,-4.25223 -0.008,-1.06928 -0.0662,-2.19717 -0.51972,-3.16555 -0.78607,-1.67849 -2.2381,-2.9903 -3.63802,-4.20498 -1.62671,-1.411471 -3.75684,-2.144418 -5.43341,-3.496285 -1.61245,-1.300167 -3.12071,-2.760188 -4.39397,-4.393972 -0.92477,-1.186624 -1.91482,-2.424063 -2.3151,-3.874257 -0.0377,-0.136632 0,-0.425222 0,-0.425222"
       id="path50-1"
       sodipodi:nodetypes="caaaaaaaasaaaaaaaaaaaaaaaaac" /><path
       style="fill:#f00033;fill-opacity:0;stroke:#000000;stroke-width:0.264999"
       d="m 170.71735,115.68668 c 0,0 -0.40446,1.25412 0,1.60362 1.34508,1.16227 3.31759,1.65148 5.08287,2.1854 2.98949,0.9042 6.09587,1.55168 9.21605,1.69001 2.88272,0.12779 5.79365,-0.21759 8.61944,-0.80181 2.04165,-0.42211 3.79226,-1.0066 5.30892,-1.77234 0.67482,-0.34071 1.11735,-0.46994 1.32152,-0.97864 0.15849,-0.39487 -0.21597,-1.25807 -0.21597,-1.25807"
       id="path51-9"
       sodipodi:nodetypes="csaassac" /><path
       style="fill:#f00033;fill-opacity:0;stroke:#000000;stroke-width:0.264999"
       d="m 170.93114,117.52939 c 0,0 -0.17599,1.62932 0.23623,2.26786 0.712,1.1029 2.15385,1.58563 3.40179,1.98438 2.37274,0.75814 4.97781,1.14287 7.60677,1.37016 3.07603,0.26594 5.30464,-0.0394 9.49666,-0.33073 2.45265,-0.17047 4.76318,-0.52261 7.37053,-1.55915 0.54169,-0.21535 1.15518,-0.54485 1.37017,-1.08668 0.28175,-0.71009 -0.33073,-2.26786 -0.33073,-2.26786"
       id="path52-8"
       sodipodi:nodetypes="cassssac" /><path
       style="fill:#f00033;fill-opacity:0;stroke:#000000;stroke-width:0.264999"
       d="m 193.8932,83.747773 c 0.20682,0.15909 0.15026,-0.530998 0.0709,-0.779575 -0.15453,-0.484134 -0.73435,-0.719627 -0.99219,-1.157553 -0.29834,-0.506704 -0.20468,-1.2317 -0.61421,-1.653646 -0.40839,-0.420773 -1.06475,-0.505578 -1.63003,-0.661458 -0.49923,-0.137666 -1.01845,-0.264791 -1.53552,-0.236235 -0.10585,0.0058 -0.30711,0.08268 -0.30711,0.08268 0,0 0.92147,0.641838 1.29929,1.051247 0.49178,0.532897 0.69241,1.307011 1.22843,1.795386 0.4195,0.382213 1.01094,0.519876 1.48828,0.826823 0.34575,0.22233 0.76633,0.578101 0.99219,0.732329 1e-5,9e-6 -0.15359,-0.118105 -5e-5,0 z"
       id="path53-6"
       sodipodi:nodetypes="saaaaacaaass" /><path
       style="fill:#f00033;fill-opacity:0;stroke:#000000;stroke-width:0.264999"
       d="m 182.41217,76.707967 c 0,0 -2.30148,2.574516 -2.88207,4.157738 -0.95337,2.599755 -1.38797,5.56163 -0.8032,8.26823 0.50658,2.344716 1.86726,4.568126 3.59077,6.236605 1.92362,1.8622 4.62157,2.735982 7.08706,3.779763 1.27963,0.541738 2.75484,0.599393 3.96875,1.275667 1.46392,0.81557 3.09008,1.75501 3.82701,3.26005 0.76261,1.5575 0.73069,3.53498 0.23623,5.19717 -0.45363,1.52492 -1.6,2.81557 -2.78757,3.87426 -1.73673,1.54824 -3.94234,2.51866 -6.09487,3.40178 -2.29769,0.94268 -4.73473,1.55877 -7.18155,1.98438 -0.76919,0.13379 -2.33566,0.17515 -2.33566,0.17515"
       id="path54-5"
       sodipodi:nodetypes="caaaaaaaaaac" /><path
       style="fill:#f00033;fill-opacity:0;stroke:#000000;stroke-width:0.264999"
       d="m 180.99476,76.518978 c -0.14174,0.188989 -2.5041,3.165551 -3.16555,4.630209 -0.66146,1.464658 -1.34492,5.187149 -0.8977,7.748512 0.46883,2.685093 1.71738,5.389211 3.63802,7.323288 2.2631,2.278928 6.00038,3.638021 8.59896,4.346723 2.59859,0.70871 4.53542,1.19713 5.76414,2.97657 1.01788,1.47409 1.20739,3.6486 0.61421,5.33891 -0.88871,2.53244 -3.3848,4.34132 -5.71689,5.66964 -2.50268,1.42549 -5.52468,1.68254 -8.36272,2.17337 -2.25899,0.39068 -6.85082,0.6061 -6.85082,0.6061"
       id="path55-0"
       sodipodi:nodetypes="csaasaaaac" /><path
       style="fill:#f00033;fill-opacity:0;stroke:#000000;stroke-width:0.264999"
       d="m 196.82251,78.550601 c 0,0 1.98438,-2.22061 2.59859,-2.976563 0.61421,-0.755952 1.27567,-2.315104 1.37016,-2.740327 0.0945,-0.425223 -0.18899,-0.8032 -0.56697,-0.850447 -0.37797,-0.04725 -0.75595,0.141741 -1.08668,0 -0.33072,-0.141741 -0.85044,-0.94494 -1.79538,-1.464657 -0.94494,-0.519718 -1.32292,-0.661459 -1.6064,-0.566965 -0.28348,0.09449 -0.70871,0.283482 -1.08668,0.755953 -0.37798,0.47247 -0.66146,1.842634 -0.66146,1.842634 0,0 0.51972,-2.645834 0.51972,-2.834822 0,-0.188988 -1.18118,-0.850446 -1.74814,-0.94494 -0.56697,-0.09449 -2.03163,-0.755953 -2.22061,-0.425224 -0.18899,0.33073 -0.0945,0.472471 -0.51972,1.133929 -0.42522,0.661458 -0.56696,1.795387 -0.56696,1.795387 0,0 -0.18899,-2.504092 -0.0472,-2.882068 0.14174,-0.377977 -1.37017,-0.519718 -1.74814,-0.283483 -0.37798,0.236235 -0.66146,0.614212 -0.94494,0.661459 -0.28349,0.04725 -0.34695,0.06108 -0.34695,0.06108"
       id="path45-2"
       sodipodi:nodetypes="cssssssscssssccssc" /><path
       style="fill:#f00033;fill-opacity:0;stroke:#000000;stroke-width:0.264999"
       d="m 184.44379,69.006702 c 0,0 -2.97656,0.47247 -3.87426,0.850446 -0.89769,0.377976 -1.13393,0.519718 -1.13393,0.519718 0,0 0.37561,1.208852 0.61184,1.823064 0.23624,0.614211 0.19137,0.870016 0.19137,0.870016 0,0 -1.02798,-1.103877 -1.40595,-1.529101 -0.37798,-0.425223 -0.62568,-0.408027 -0.62568,-0.408027 0,0 -0.85175,0.354004 -1.22842,0.614211 -0.68774,0.475099 -1.80777,0.865736 -1.84263,1.700893 -0.0107,0.256151 0.35845,0.367662 0.51971,0.566964 0.71745,0.886675 1.98438,2.787575 1.98438,2.787575 0,0 -1.96302,-2.175859 -3.30729,-2.456845 -0.20567,-0.04299 -0.44441,0.01797 -0.61421,0.141741 -0.84468,0.615711 -1.41741,2.456845 -1.6064,2.69308 -0.18899,0.236235 -1.12771,1.752888 -1.2222,1.989123 -0.0945,0.236235 0.19422,0.595133 0.66669,0.736874 0.47247,0.141742 2.77612,1.195506 3.29583,1.573482 0.51972,0.377976 1.62459,0.725409 1.62459,0.725409 l -6.32498,-2.084601 2.67352,1.72333 c 0,0 -2.45873,-0.860927 -2.74221,-0.624692 -0.28348,0.236235 -0.53879,1.513788 -0.63329,1.844517 -0.0945,0.330729 0.2052,0.636647 0.67767,0.872882 0.47247,0.236235 1.46466,0.566965 1.46466,0.566965 0,0 -2.17336,-0.188989 -2.69308,0.04725 -0.51972,0.236236 -0.70871,1.039435 -0.56696,1.653646 0.14174,0.614212 4.86406,0.458633 4.86406,0.458633 l -5.00581,0.439061 c 0,0 -0.0472,0.330729 0,0.992186 0.0472,0.661458 0.33073,2.031624 0.61421,2.078871 0.28349,0.04725 1.18118,0.14174 1.93713,-0.04725 0.75595,-0.188989 3.07106,-0.94494 3.07106,-0.94494 0,0 -4.25223,1.889879 -4.58296,2.031621 -0.33073,0.14174 -0.70297,1.155874 -0.0888,1.34486 0.61421,0.18899 4.76621,-2.289801 4.76621,-2.289801 l -4.81919,3.071056 c 0,0 0.56696,3.118305 1.27567,3.401788 0.7087,0.283479 0.99218,0.09449 1.88988,-0.141743 0.89769,-0.236236 4.64503,-2.082226 4.64503,-2.082226 0,0 -4.69228,3.310649 -5.1175,3.688625 -0.42523,0.377976 -1.00603,0.316892 -0.0138,0.411385 0.99219,0.09449 1.95097,0.06108 2.37619,-0.222396 0.42522,-0.283482 3.55499,-2.812876 3.55499,-2.812876"
       id="path46-8"
       sodipodi:nodetypes="cscscscaaacaasssscccssscssccssscssccsscsssc" /><path
       style="fill:#8c3f57;fill-opacity:1;stroke:#000000;stroke-width:0.715411"
       d="m 687.23291,448.77865 c -22.15336,-1.31417 -1.52089,-1.12826 6.69566,-3.131 12.38687,-3.01923 34.9463,-13.32043 46.1756,-22.65811 3.57957,-2.97657 7.99658,-10.612 8.29463,-18.27251 0.17079,-4.38941 -1.31611,-12.92131 -4.94423,-17.15995 -3.82323,-4.4666 -12.11268,-9.21526 -20.21677,-11.58132 -8.75694,-2.55667 -20.86249,-7.58026 -26.4593,-10.98014 -12.82586,-7.7913 -22.20149,-24.96166 -22.20499,-39.86169 -0.002,-6.80869 1.08802,-15.795 4.22174,-20.72756 4.45501,-7.01231 11.09744,-14.34008 10.15664,-13.36306 -5.16761,5.36657 1.47049,0.17363 -0.20708,-2.49393 -2.04145,-3.24619 -2.3623,-5.02234 -2.55855,-8.62436 -0.21348,-3.9184 -0.33785,-5.58501 3.35984,-7.91121 l 2.77533,-1.74595 -0.0515,5.71617 c -0.0604,6.70413 1.7862,11.79642 5.16996,13.33885 0.50528,0.23033 -2.89219,-1.19241 -3.53257,-3.1783 -1.93919,-6.01365 -1.64408,-12.098 -0.94192,-16.74999 0.60488,-4.00756 4.14728,-8.59313 7.48105,-10.56619 l 3.83929,-2.27226 0.10498,4.80228 c 0.1057,4.83494 1.77927,9.27673 5.45757,13.7656 3.67449,4.48424 5.21397,4.16323 13.08577,6.30741 3.86251,1.05211 8.68724,3.05153 10.0379,3.88628 4.8371,2.98949 9.43491,8.89063 11.58561,15.53362 0.73681,2.27584 1.23047,3.77999 0.50457,10.29287 -0.49395,4.43169 -0.95195,10.40368 -0.6904,11.79787 0.68837,3.66935 6.03997,6.01504 9.5566,8.05249 5.57073,3.22756 3.21518,8.0108 -2.14961,11.17611 -1.36085,0.80291 -0.99082,2.29365 -1.25114,3.14905 -0.52011,1.7091 -4.46545,4.05528 -5.2909,4.05528 -0.28825,0 0.15643,-3.23008 -0.10309,-4.61348 -0.54657,-2.91345 -3.41709,-5.47794 -6.07149,-6.48877 -3.47393,-1.32292 -9.09894,-2.30679 -19.77635,-2.9284 -12.48619,-0.72691 -17.53699,-3.59563 -21.70629,-7.76493 -4.72828,-4.72828 -7.20586,-14.33345 -4.73905,-23.32504 0.84579,-3.08295 2.3452,-4.97008 2.09713,-5.04604 -0.64347,-0.19704 -3.55931,7.96541 -3.15418,15.68417 0.55173,10.51182 8.66032,17.68804 17.63444,19.08733 2.87888,0.44888 -1.27713,1.11956 0.23121,4.75869 2.18193,5.26431 9.05782,13.30048 16.52751,20.68658 6.11447,6.04604 11.42027,9.81668 20.60923,15.09434 9.0197,5.18044 17.9293,13.54577 21.48008,20.54189 2.68101,5.28243 3.32014,20.97679 0.49814,28.38454 -2.08766,5.4801 -7.83738,13.48568 -12.14798,16.37143 -5.7411,3.8434 -18.67645,8.30821 -33.58535,9.93222 -6.44363,0.70189 -17.12342,0.13692 -24.63852,-0.30889 z m 45.93805,-133.59101 c 0,-1.60192 -1.29997,-3.51442 -2.48844,-4.63094 -0.96931,-0.91062 -1.32562,-2.74997 -1.94927,-4.62759 -0.62364,-1.87763 -1.88709,-3.51044 -2.63097,-4.04775 -2.94584,-2.1278 -12.27414,-3.80962 -13.17395,-2.35369 -0.20365,0.32951 1.50694,1.1337 2.99108,2.25008 1.48415,1.11637 3.76436,3.05733 5.23625,4.83648 1.30581,1.57842 1.88251,2.11171 6.00257,4.15591 1.2199,0.60526 2.71216,2.55835 3.54601,3.73807 2.51787,3.56227 2.46672,3.55244 2.46672,0.67943 z"
       id="path161"
       transform="scale(0.26458333)"
       sodipodi:nodetypes="ssssssscssssscssssscssssssssssssssssssssssssssssssssssssss" /><path
       style="fill:#672d3f;fill-opacity:1;stroke:#000000;stroke-width:0.715411"
       d="m 654.6345,442.01345 c -8.27848,-2.94858 -12.04522,-7.0389 -12.04522,-10.54848 0,-0.90527 -2.16466,-3.20468 -3.71908,-5.00068 -3.10364,-3.58597 -3.53076,-6.75131 -2.95915,-11.82262 0.42339,-3.75635 2.88816,-6.60723 4.94423,-5.50685 3.08655,1.65187 20.28877,0.873 30.60921,-1.74386 11.26974,-2.85755 18.74561,-7.80122 20.76249,-14.53295 1.74104,-5.81106 0.6555,-7.81484 -12.58028,-22.07783 -4.8595,-5.23663 -10.55601,-10.76708 -11.77112,-12.44148 -7.51128,-10.35047 -7.78409,-29.47686 -3.34886,-42.47701 1.85789,-5.44569 13.52966,-21.61062 12.82876,-18.48674 -5.45087,24.29435 -8.82239,53.52761 5.1462,67.33715 6.35205,6.27973 18.27407,12.27949 32.39714,16.30387 15.42717,4.39599 19.53708,6.93879 22.69356,14.04048 5.8593,13.1827 -1.30647,28.58643 -20.53882,38.63404 -8.05912,4.21036 -23.28489,7.25972 -42.49999,8.89976 -10.77403,0.91957 -15.66363,0.93888 -19.91907,-0.5768 z"
       id="path162"
       transform="scale(0.26458333)"
       sodipodi:nodetypes="sssssssssssssssss" /><path
       style="fill:#ef0034;fill-opacity:1;stroke:#000000;stroke-width:0.715411"
       d="m 671.07142,445.99842 c -1.96428,-0.5049 -13.73941,-2.65262 -13.28996,-2.69929 0.44945,-0.0467 14.32444,0.29708 18.39285,-0.10913 10.93219,-1.09154 28.14984,-4.10004 33.67929,-6.07065 12.0986,-4.31175 23.46783,-15.98726 28.05884,-23.23551 0.84936,-1.34096 1.46947,-2.96505 1.55131,-6.56241 0.32244,-14.17403 -4.72756,-21.33509 -23.5709,-26.60378 -16.82173,-4.70344 -27.39637,-10.20574 -34.6406,-18.11154 -4.74261,-5.17573 -8.63354,-14.84165 -10.6429,-22.24897 -2.50874,-9.24824 -1.12854,-26.13586 2.77292,-33.92857 1.74888,-3.49317 10.90462,-17.81976 12.87106,-19.58441 1.27917,-1.14791 2.72266,2.14094 3.11438,3.16175 0.278,0.72446 -1.07508,1.3475 -3.32762,4.28639 -8.34798,10.89163 -11.12398,16.90298 -11.10889,32.13627 0.009,8.97732 1.83669,11.95783 3.26339,15.98214 3.52862,9.95317 11.71829,18.7134 20.101,23.42884 5.77919,3.25091 17.56442,8.12134 25.06994,10.29675 11.33236,3.28459 20.57591,10.23077 23.29858,16.74702 2.55872,6.12388 2.01561,16.58519 -1.5289,23.1656 -1.02494,1.90281 -5.45208,6.63115 -8.52858,9.5253 -4.55384,4.28393 -7.83972,6.41681 -14.93942,9.90989 -19.36108,9.52574 -39.49265,13.36828 -50.59579,10.51431 z"
       id="path163"
       transform="scale(0.26458333)"
       sodipodi:nodetypes="ssssssssssssssssssssss" /><path
       style="fill:#ef0034;fill-opacity:1;stroke:#000000;stroke-width:0.715411"
       d="m 730.80059,314.32536 c -0.24742,-0.40033 -2.39583,-2.37798 -4.2341,-3.31447 -2.0003,-1.01905 -3.53694,-2.18918 -4.34462,-3.62005 -0.74225,-1.31496 -2.34939,-3.47246 -3.57142,-4.79443 -1.80165,-1.94898 -4.60334,-2.83362 -3.44496,-2.51188 0.78571,0.21823 5.97116,0.49404 7.62642,0.92155 3.04246,0.78578 5.77294,4.20435 5.77294,6.40762 0,0.66114 0.74307,1.83732 2.05806,3.53146 1.59597,2.05613 1.56762,1.95049 2.05806,5.04963 0.11853,0.74903 -1.48737,-0.9688 -1.92038,-1.66943 z"
       id="path164"
       transform="scale(0.26458333)"
       sodipodi:nodetypes="ssssssssss" /><path
       style="fill:#e7c9d2;fill-opacity:1;stroke:#000000;stroke-width:0.715411"
       d="m 695,456.78363 c -8.42589,-0.74114 -13.94271,-1.74854 -23.92858,-4.3695 -17.56154,-4.60932 -26.6613,-7.73526 -26.6613,-11.21938 0,-1.16365 0.69048,-3.73386 1.27167,-3.47792 9.87597,4.34914 19.13597,8.61445 33.68872,10.42682 8.1053,1.00942 11.19646,1.80933 26.70091,1.80991 17.19479,6.4e-4 18.73403,-0.1101 27.5,-1.9786 5.10715,-1.08861 11.92561,-2.8531 14.25053,-3.83173 4.96513,-2.08998 7.38407,-3.39374 8.48773,-3.17827 1.26858,0.24767 0.70541,2.42785 0.57987,3.31177 -0.17367,1.22284 -3.19908,4.03059 -9.51954,6.62769 -8.93694,3.67222 -34.89849,7.41601 -52.37001,5.87921 z"
       id="path166"
       transform="scale(0.26458333)"
       sodipodi:nodetypes="ssssssssssss" /><path
       style="fill:#e7c9d2;fill-opacity:1;stroke:#000000;stroke-width:0.715411"
       d="m 680.31753,464.7533 c -8.70289,-1.01585 -21.58334,-4.89261 -26.35549,-6.94554 -4.81345,-2.0707 -7.93394,-6.26322 -7.93394,-9.57686 0,-1.36133 -1.08119,-5.23796 1.45417,-3.16962 1.30937,1.06817 1.23728,0.59648 3.1328,1.55701 7.15144,3.6239 28.48099,8.53399 41.8218,10.06768 17.70759,2.0357 43.80364,-1.04809 58.378,-7.74305 2.90354,-1.33378 4.62337,-2.64248 5.34645,-2.42151 0.55296,0.16899 1.80878,6.3154 1.36895,7.70119 -1.06464,3.35438 -14.88758,8.10236 -29.3556,9.59344 -13.32014,1.37279 -28.30542,3.21942 -47.85714,0.93726 z"
       id="path167"
       transform="scale(0.26458333)"
       sodipodi:nodetypes="sssssssssss" /><path
       style="fill:#e7c9d2;fill-opacity:1;stroke:#000000;stroke-width:0.715411"
       d="m 641.87863,362.15569 c -1.54651,-2.08444 -3.32665,-8.79078 -1.63614,-9.97366 1.9342,-1.3534 4.78638,-3.27044 9.62327,-6.34412 5.56908,-3.53898 8.18774,-4.49869 7.757,-4.92943 -0.43074,-0.43075 -3.27485,1.30603 -6.83005,3.34814 -6.18614,3.55332 -12.04794,6.04371 -12.40542,5.26162 -0.75172,-1.64457 -0.35637,-3.19793 0.0268,-3.85748 1.43411,-2.46855 4.32801,-2.7813 10.15451,-5.30239 5.26664,-2.27884 9.34904,-2.45184 8.93138,-3.45122 -0.23393,-0.55975 0.27918,-0.64303 -0.41199,-0.3778 -3.79211,1.45517 -14.08123,4.63136 -16.00511,4.63136 -1.91788,0 -3.65769,-1.25214 -4.3166,-3.1423 -0.43129,-1.2372 -1.78294,-6.28881 -0.87345,-7.67584 l 0.98215,-0.96211 7.76785,-0.76812 c 8.21135,-0.81197 10,-0.2645 10,-1.18978 0,-0.35026 -3.54464,-0.20894 -6.78571,-0.23158 -8.39444,-0.0586 -11.55981,-0.81077 -11.81268,-2.56293 -0.11304,-0.78327 0.70955,-3.58251 1.28234,-4.36537 0.88761,-1.21314 3.21697,-0.95895 7.52696,-0.85494 5.75327,0.13884 4.57818,0.24823 0.14624,-1.31638 -4.65462,-1.64323 -4.96085,-4.03701 -3.835,-7.77794 0.5333,-1.77203 0.61731,-2.21857 2.13977,-2.78487 1.7815,-0.66265 3.05602,-0.21577 5.68837,0.51415 4.92039,1.36439 -2.01833,-2.13335 -4.45734,-4.13068 -1.50162,-1.2297 -1.57227,-1.91931 6.97639,1.55391 l 15.35149,5.03454 -1.49095,3.63087 c -2.25508,5.49169 -4.30131,14.8248 -4.30131,20.24732 0,6.07562 1.82243,14.67935 4.03366,19.04301 0.97717,1.92835 1.67471,3.60699 1.55008,3.7303 -0.56808,0.56211 -10.1785,5.89879 -13.64199,7.11592 -5.26261,1.84937 -7.21398,3.17206 -9.08096,0.65566 z"
       id="path168"
       transform="scale(0.26458333)"
       sodipodi:nodetypes="ssssssssssssscsssssssssssscsssssss" /><path
       style="fill:#e7c9d2;fill-opacity:1;stroke:#000000;stroke-width:0.715411"
       d="m 660.22753,307.53789 c -3.00054,-1.27197 -7.10186,-3.34561 -9.26257,-4.24463 -2.16071,-0.89903 -4.20841,-1.87797 -4.55044,-2.17543 -0.34203,-0.29746 -0.65509,-2.1467 0.72295,-4.43681 1.37805,-2.29011 3.66779,-6.84241 4.65181,-8.8067 0.98402,-1.96428 3.65165,-5.27872 4.48842,-6.03488 1.4557,-1.31548 2.07777,-1.14385 4.5138,0.0178 1.40029,0.66775 5.00397,2.95251 7.13517,4.96811 6.35336,6.00874 4.16882,4.16274 -2.39158,-4.50475 -2.8243,-3.73142 -4.28298,-5.11527 -3.76569,-5.94943 0.3763,-0.60683 4.24696,-4.4578 7.03245,-5.29333 l 5.09827,-2.49358 4.83565,4.52479 3.13923,4.52479 -0.0893,-2.03327 c -0.0534,-1.21534 -1.91768,-5.09948 -2.58929,-6.47255 -1.83742,-3.75651 -2.6104,-3.32157 3.60171,-5.23535 3.15842,-0.97302 13.97986,-3.415 13.72099,-2.79022 -4.00191,9.6588 -4.7703,8.1814 -7.25121,10.80294 -2.4318,2.56966 -2.8448,3.09092 -3.08991,8.48839 l 0.99159,5.69012 -5.05625,5.50967 c -5.35685,5.83722 -8.25371,8.97037 -12.10773,14.60319 -1.21148,1.77063 -2.68131,3.9196 -2.83635,3.9196 -0.15504,0 -1.03699,-0.0754 -4.03754,-1.34735 z"
       id="path169"
       transform="scale(0.26458333)"
       sodipodi:nodetypes="ssssssssssscccsssssscsssss" /><path
       style="fill:#e7c9d2;fill-opacity:1;stroke:#000000;stroke-width:0.715411"
       d="m 742.49915,295.26518 c -0.6975,-2.19764 -6.46295,-8.86383 -9.74889,-10.5402 -1.61521,-0.82401 -5.73652,-2.64654 -9.04933,-3.17702 -3.34131,-0.53505 -7.09651,-1.62872 -8.43355,-2.45621 -5.03844,-3.11826 -9.89723,-9.45015 -10.73934,-14.40425 -0.99762,-5.86893 1.05956,-4.80116 2.60585,-5.86958 3.38262,-2.33723 4.23996,-2.19435 5.87701,-1.76626 1.21456,0.31761 2.90916,-1.4104 2.80052,4.59415 -0.0922,5.09875 -0.61105,8.04169 0.11664,8.04169 0.33397,0 0.32896,-1.91071 0.58908,-2.99107 0.5833,-2.42269 4.14692,-8.92857 4.75716,-8.92857 1.35114,0 9.90496,2.2135 12.54379,4.44975 1.20129,1.01801 0.99642,1.47539 0.20519,5.76956 -1.0262,5.5694 -1.98524,6.96819 -1.13426,6.96819 0.36128,0 0.51254,-3.0101 1.15457,-4.94308 1.15049,-3.46379 4.56291,-5.8605 6.8596,-5.8605 1.7539,0 5.22978,2.20345 8.86176,5.34691 2.45875,2.12804 3.84627,2.77809 5.63812,2.77809 1.32792,0 2.75343,-0.29314 3.67375,1.8089 0.66727,1.52407 -3.2387,9.42885 -8.12564,15.19917 -2.70842,3.198 -6.40855,7.862 -6.66198,7.95234 -0.93781,0.3343 -1.54021,-1.18482 -1.79005,-1.97201 z"
       id="path170"
       transform="scale(0.26458333)"
       sodipodi:nodetypes="ssssssssssssssssssssss" /><path
       style="fill:#e7c9d2;fill-opacity:1;stroke:#000000;stroke-width:0.715411"
       d="m 647.44643,372.4274 c 1.47,-1.31781 17.62864,-12.7853 19.18254,-13.92893 0.71905,-0.5292 3.23283,0.92897 3.68606,2.53191 0.40614,1.43641 0.30797,1.45302 -7.43938,7.32233 -3.53754,2.68 -6.11021,4.50443 -8.89286,4.50443 -1.86424,0 -6.92129,-0.0847 -6.53636,-0.42974 z"
       id="path171"
       transform="scale(0.26458333)"
       sodipodi:nodetypes="ssssss" /><path
       style="fill:#e7c9d2;fill-opacity:1;stroke:#000000;stroke-width:0.715411"
       d="m 735.4594,352.14984 c -1.05642,-0.83097 -2.59748,-2.80051 -3.20634,-4.3222 -0.61746,-1.54318 -3.12135,-5.04333 -5.49307,-7.23913 -4.07451,-3.77228 -7.60588,-5.00755 -5.68464,-4.99379 3.9895,0.0286 16.48932,2.25182 18.98507,3.43613 4.55585,2.16189 6.10062,7.98788 4.066,12.45339 -1.05912,2.32453 -5.91578,2.82973 -8.66702,0.6656 z"
       id="path172"
       transform="scale(0.26458333)"
       sodipodi:nodetypes="sssssss" /></g></svg>
