<?xml version="1.0" encoding="UTF-8" standalone="no"?>
<!-- Created with Inkscape (http://www.inkscape.org/) -->

<svg
   width="53.186634mm"
   height="60.135647mm"
   viewBox="0 0 53.186634 60.135647"
   version="1.1"
   id="svg1"
   xml:space="preserve"
   inkscape:version="1.4.3 (0d15f75, 2025-12-25)"
   sodipodi:docname="рисунок1.svg"
   xmlns:inkscape="http://www.inkscape.org/namespaces/inkscape"
   xmlns:sodipodi="http://sodipodi.sourceforge.net/DTD/sodipodi-0.dtd"
   xmlns="http://www.w3.org/2000/svg"
   xmlns:svg="http://www.w3.org/2000/svg"
   xmlns:rdf="http://www.w3.org/1999/02/22-rdf-syntax-ns#"
   xmlns:cc="http://creativecommons.org/ns#"
   xmlns:dc="http://purl.org/dc/elements/1.1/"><defs
     id="defs1" /><sodipodi:namedview
     id="base"
     pagecolor="#ffffff"
     bordercolor="#000000"
     borderopacity="0.3"
     inkscape:pageopacity="0.0"
     inkscape:pageshadow="2"
     inkscape:zoom="0.35"
     inkscape:cx="537.14285"
     inkscape:cy="-195.71428"
     inkscape:document-units="mm"
     inkscape:showpageshadow="2"
     inkscape:pagecheckerboard="0"
     inkscape:deskcolor="#d1d1d1"
     inkscape:window-width="1920"
     inkscape:window-height="1009"
     inkscape:window-x="-8"
     inkscape:window-y="-8"
     inkscape:window-maximized="1"
     inkscape:current-layer="svg1"><inkscape:page
       x="0"
       y="0"
       width="53.186634"
       height="60.135647"
       id="page19"
       margin="0"
       bleed="0" /></sodipodi:namedview><metadata
     id="metadata1"><rdf:RDF><cc:Work
         rdf:about=""><dc:format>image/svg+xml</dc:format><dc:type
           rdf:resource="http://purl.org/dc/dcmitype/StillImage" /></cc:Work></rdf:RDF></metadata><g
     id="g10"
     transform="translate(-53.943196,-65.481032)"><path
       style="fill:#ffefef;fill-opacity:0;stroke:#000000;stroke-width:0.264999;stroke-opacity:1"
       d="m 92.831812,96.409977 c 0.65104,-1.458406 1.79539,-4.630209 -0.99218,-6.803573 -2.78758,-2.173363 -3.82701,-2.362351 -3.82701,-2.362351 0,0 -5.48066,-2.126116 -8.59896,-2.551339 -3.11831,-0.425224 -9.6384,-1.27567 -12.23698,0.141741 -2.59859,1.41741 -4.53572,3.16555 -4.29948,6.661831 0.23623,3.496278 0.13131,7.34351 2.3151,8.882434 0.64191,0.45236 -0.0596,1.82784 0.89645,2.78913 1.4381,1.44604 2.27124,1.69003 3.68652,1.88833 1.64413,0.23037 5.15065,-4.17726 8.62726,-7.26863 3.82254,-3.398967 4.82785,-4.332044 7.86194,-4.77936 1.33588,-0.196947 2.7324,0.375996 3.92151,1.015812 1.04581,0.562713 2.16174,3.47042 2.64583,2.385975 z"
       id="path21-2"
       sodipodi:nodetypes="sscsssssssaas" /><path
       style="fill:#ffefef;fill-opacity:0;stroke:#000000;stroke-width:0.264999;stroke-opacity:1"
       d="m 89.170172,87.716522 c 0,0 0.35435,-0.401599 0.49609,-1.157551 0.14174,-0.755952 0.0945,-0.921317 0.0945,-0.921317 0,0 0.14174,0.330729 0.82682,0.590588 0.68509,0.259859 2.1025,0.118118 2.31511,0.141741 0.21261,0.02362 0.73233,0.09449 0.94494,0.165365 0.21261,0.07087 0.89516,0.403421 1.67727,1.488281 0.73233,1.01581 -1.03944,-1.27567 -0.21262,-0.259852 0.82682,1.015812 1.15755,1.771763 1.34654,2.362353 0.18899,0.590587 0.16537,1.81901 -0.11812,2.244233 -0.28348,0.425222 -0.61421,0.732329 -1.34654,1.842632 -0.54876,0.832 -0.89769,0.661459 -1.22842,0.614212 -0.33073,-0.04725 -0.51972,-0.283483 -0.51972,-0.283483"
       id="path23-2"
       sodipodi:nodetypes="cscsssssssssc" /><path
       style="fill:#ffefef;fill-opacity:0;stroke:#000000;stroke-width:0.264999;stroke-opacity:1"
       d="m 78.515962,84.550972 c 0,0 0.21261,-0.992187 0.61421,-1.34654 0.4016,-0.354352 1.03944,-1.181175 2.29149,-1.41741 1.25204,-0.236235 3.18917,-0.259859 3.99237,-0.141742 0.8032,0.118118 2.03162,0.425224 2.92932,1.370164 0.89769,0.944941 1.20479,1.464658 1.25204,1.937128 0.0472,0.472471 0.18899,1.086682 0.18899,1.086682 0.16537,-0.236235 0,0 0,0"
       id="path24-1" /><path
       style="fill:#ffefef;fill-opacity:0;stroke:#000000;stroke-width:0.264999;stroke-opacity:1"
       d="m 89.902502,85.876755 c 0,0 -0.25986,-0.711571 -0.30711,-0.947806"
       id="path25-6"
       sodipodi:nodetypes="cc" /><path
       style="fill:#ffefef;fill-opacity:0;stroke:#000000;stroke-width:0.264999;stroke-opacity:1"
       d="m 73.885762,84.054879 c 0,0 0.66145,-0.519717 1.81901,-1.063058 1.15755,-0.543341 2.55133,-0.850447 3.40178,-1.015811 0.85045,-0.165365 2.12612,-0.354353 2.85845,-0.377977 0.73233,-0.02362 1.27567,-0.141741 3.26004,-0.02362 0.92241,0.05491 0.63784,0.07087 2.24423,0.496093 1.6064,0.425223 2.12612,0.732329 3.16555,1.299294 0.80696,0.440158 1.72452,1.27567 2.03163,1.606399 0.3071,0.330729 0.61421,0.614211 0.66146,0.850446 0.0472,0.236235 -0.0236,0.590588 -0.0236,0.590588"
       id="path26-8"
       sodipodi:nodetypes="cssssssssc" /><path
       style="fill:#ffefef;fill-opacity:0;stroke:#000000;stroke-width:0.264999;stroke-opacity:1"
       d="m 70.767452,84.031255 c 0,0 0.79128,-0.86306 1.27567,-1.181176 1.33795,-0.878669 2.39488,-1.373653 4.39398,-1.937128 2.13257,-0.601096 4.43759,-0.719079 5.64601,-0.732328 0.8122,-0.0089 1.81346,0.0087 2.88207,0.09449 1.08691,0.08729 4.87758,1.152542 6.54372,2.196986 1.58277,0.992188 2.07886,1.535529 2.07886,1.535529 0,0 0.33073,0.307105 0.4961,0.566964 0.16536,0.259859 0.44884,1.063058 0.25986,1.322917 -0.18899,0.259859 -0.94495,0.165364 -0.94495,0.165364"
       id="path27-5"
       sodipodi:nodetypes="casssscssc" /><path
       style="fill:#f89c9c;fill-opacity:0;stroke:#000000;stroke-width:0.264999;stroke-opacity:1"
       d="m 79.460902,70.849336 c 0,0 0.37798,-1.228423 -0.33073,-1.653646 -0.7087,-0.425223 -1.65811,-0.376288 -2.45684,-0.661458 -0.32529,-0.11614 -0.6009,-0.394545 -0.94494,-0.425224 -0.38807,-0.0346 -0.82744,0.04294 -1.13393,0.283483 -1.30232,1.022109 -2.03162,1.984375 -2.3151,4.393973 -0.28349,2.409598 -0.0945,4.44122 0.37797,5.811384 0.47247,1.370163 0.85045,2.315104 1.13393,2.551339 0.28348,0.236235 0.51972,0.47247 0.51972,0.47247 0,0 2.64583,-0.897693 3.16555,-0.992187 0.51972,-0.09449 -0.73746,-1.822695 -0.85045,-2.787575 -0.20372,-1.739725 -0.15935,-3.562763 0.33073,-5.244419 0.29189,-1.00158 1.03944,-2.456845 1.51191,-2.740328 0.47247,-0.283482 0.9311,0.05298 0.9311,0.05298 z"
       id="path30-7"
       sodipodi:nodetypes="csaaassscsaascc" /><path
       style="fill:#f89c9c;fill-opacity:0;stroke:#000000;stroke-width:0.264999;stroke-opacity:1"
       d="m 73.507782,69.479172 c 0,0 -0.94494,0.519717 -1.65365,0.661459 -0.7087,0.141741 -1.10576,-0.01115 -1.6064,0.188987 -0.43871,0.175383 -0.86693,0.460652 -1.13392,0.850447 -0.82276,1.201147 -1.22843,1.889881 -1.18118,4.204985 0.0472,2.315104 0.56697,3.874256 1.08668,4.866443 0.51972,0.992188 1.88988,2.315104 2.36235,2.456846 0.47247,0.141741 0.37798,0.283482 0.37798,0.283482 0,0 1.42437,-0.651658 1.08668,-1.039435 -0.66465,-0.763252 -1.26951,-1.577654 -1.6064,-2.456845 -0.79435,-2.073022 -0.75595,-3.96875 -0.0945,-5.480655 0.89027,-2.034889 1.37017,-2.551339 1.37017,-2.551339"
       id="path31-6"
       sodipodi:nodetypes="csaassscsssc" /><path
       style="fill:#f89c9c;fill-opacity:0;stroke:#000000;stroke-width:0.264999;stroke-opacity:1"
       d="m 77.712762,70.896583 c 0,0 0.65109,-0.374691 1.06425,-0.308293 1.11164,0.17865 1.82618,1.046438 2.26786,1.937128 0.30501,0.615112 0.0974,1.370125 0.11693,2.056433 0.013,0.456537 -0.007,0.913494 0,1.370163 0.0157,1.039792 0.0142,2.081499 0.0945,3.118304 0.0294,0.379779 -0.0983,0.904199 0.14173,1.133928 1.17206,1.04e-4 2.7675,-0.04048 3.63802,0.04725 1.09298,-0.863856 0.63882,-2.722282 0.75596,-4.110491 0.098,-1.161405 0.72999,-2.627736 -0.0472,-3.496279 -0.33869,-0.378474 -1.0176,-0.305677 -1.51191,-0.188988 -0.22106,0.05218 -0.33983,0.377976 -0.56696,0.377976 -0.34071,0 -0.52135,-0.478789 -0.85045,-0.566965 -0.47257,-0.126616 -1.05484,-0.172704 -1.46466,0.0945 -0.13803,0.09 -0.22813,0.438569 -0.22813,0.438569"
       id="path32-1"
       sodipodi:nodetypes="csaaaaccaaaaaac" /><path
       style="fill:#f89c9c;fill-opacity:0;stroke:#000000;stroke-width:0.264999;stroke-opacity:1"
       d="m 85.650262,72.455735 c 0,0 0.61422,-1.086682 1.55916,-1.559152 0.94494,-0.472471 2.50409,-0.283482 2.69308,0.04725 0.18898,0.330729 -0.13986,-0.820682 0.37797,-0.755953 0.75595,0.09449 1.7009,0.33073 1.93713,0.944941 0.23623,0.614211 0.51972,0.755952 0.66146,1.370164 0.14174,0.614211 1.08668,2.315104 0.61421,3.921503 -0.47247,1.606398 -0.94494,3.543526 -1.6064,4.299479 -0.66146,0.755952 -1.22842,1.275669 -1.22842,1.275669 l -4.06324,-1.511905 c 0,0 1.60639,-2.551339 1.84263,-3.685267 0.23623,-1.133929 0.42522,-4.252232 0,-4.630209 -0.42522,-0.377976 -1.13393,-0.283482 -1.41741,-0.141741 -0.28348,0.141741 -1.08668,0.944941 -1.08668,0.944941"
       id="path33-8"
       sodipodi:nodetypes="csssssssccsssc" /><path
       style="fill:#f89c9c;fill-opacity:0;stroke:#000000;stroke-width:0.264999;stroke-opacity:1"
       d="m 92.359342,71.369053 c 0.42522,-0.04725 2.26786,0.188988 3.1183,1.417411 0.85045,1.228422 1.33551,2.402833 1.55916,3.732514 0.20938,1.244893 0.14174,3.02381 -0.23624,3.779763 -0.37798,0.755952 -1.32291,2.740327 -1.55915,2.929315 -0.23624,0.188988 -1.22842,0.992187 -1.22842,0.992187 l -1.70089,-1.275669 c 0,0 1.70422,-1.639233 2.17336,-2.693081 0.64864,-1.457074 0.96116,-3.143027 0.75595,-4.724702 -0.13517,-1.041857 -0.46864,-2.209431 -1.27567,-2.882068 -0.31104,-0.259239 -1.18118,-0.283482 -1.18118,-0.283482"
       id="path34-9"
       sodipodi:nodetypes="csassccaaac" /><path
       style="fill:#f89c9c;fill-opacity:0;stroke:#000000;stroke-width:0.264999;stroke-opacity:1"
       d="m 80.075122,71.180065 c 0,0 0.23623,-1.27567 1.27567,-1.889881 1.03943,-0.614211 3.19435,-0.610588 4.48846,0.141741 0.54934,0.31936 0.99505,1.625969 0.99505,1.625969"
       id="path35-2"
       sodipodi:nodetypes="csac" /><path
       style="fill:#cb9baf;fill-opacity:1;stroke:#000000;stroke-width:0.264999;stroke-opacity:1"
       d="m 91.939662,96.176003 c 0,0 0.43431,1.035669 0.0334,2.037932 -0.40091,1.00226 -1.80407,2.806325 -2.17157,3.541325 -0.36749,0.73499 -1.77066,3.37427 -2.3052,4.91107 -0.53454,1.5368 -0.96885,3.77519 -1.06908,4.57699 -0.10022,0.80181 -0.16704,3.74178 -0.0334,4.54359 0.13364,0.8018 0.10011,1.84345 0.735,1.77066 0.67298,-0.0772 0.23386,-1.46999 0.33408,-2.00453 0.10023,-0.53454 0,-0.70158 0.16705,-1.46998 0.16704,-0.7684 0.53453,-3.27405 1.06907,-4.6104 0.53454,-1.33634 3.90882,-6.01356 3.90882,-6.01356 0,0 1.33635,-2.70611 1.57021,-3.574733 0.23386,-0.868624 0.43431,-3.040188 0.4009,-3.608137 -0.0334,-0.567947 -0.10022,-1.436574 -0.10022,-1.436574 l -1.00226,-0.400903 c 0,0 -0.46773,1.302939 -0.53454,1.570208 -0.0668,0.267269 -0.0649,0.604478 -0.30068,0.668173 -0.27745,0.07495 -0.70158,-0.501131 -0.70158,-0.501131 z"
       id="path36-7"
       sodipodi:nodetypes="csssssassscssccsac" /><path
       style="fill:#ffffff;fill-opacity:0.027523;stroke:#000000;stroke-width:0.264999;stroke-opacity:1"
       d="m 95.480982,93.803987 c 0,0 0.86863,0.968851 0.70158,2.806329 -0.16704,1.837479 -1.20271,5.846524 -1.43657,6.447874 -0.23386,0.60136 -1.36976,2.50566 -1.10249,4.17609 0.26727,1.67044 0.42296,2.28638 1.03567,3.24064 0.54518,0.84909 1.40213,1.47327 2.23838,2.03793 0.57378,0.38743 1.46938,0.33802 1.87089,0.90204 0.27958,0.39273 0.27753,0.96732 0.16704,1.43657 -0.28952,1.22969 -0.96885,2.3052 -2.07134,3.17383 -0.9278,0.73099 -1.53679,1.00226 -2.47224,1.30294 -0.93544,0.30067 -2.77292,0.7684 -4.74403,1.20271 -1.97112,0.43431 -8.4524,0.50113 -8.92012,0.50113 -0.46772,0 -6.68174,-0.4009 -7.98468,-0.7684 -1.30294,-0.3675 -5.53443,-0.92048 -8.01809,-2.13816 -1.05593,-0.5177 -2.22361,-1.11665 -2.80633,-2.13815 -0.37781,-0.6623 -0.50543,-1.54746 -0.26727,-2.27179 0.22395,-0.6811 0.867354,-1.18178 1.46999,-1.57021 1.132469,-0.72993 2.531291,-0.93196 3.828163,-1.29721 1.806867,-0.5089 3.821714,-0.38685 5.492857,-1.24185 1.812125,-0.92713 3.46626,-2.33669 4.57699,-4.04245 0.52274,-0.80279 0.90785,-1.78234 0.86863,-2.73952 -0.0301,-0.73353 -0.30521,-1.52993 -0.83522,-2.03793 -0.30772,-0.29494 -0.77886,-0.47942 -1.20271,-0.43431 -0.10447,0.0111 -0.26727,0.16704 -0.26727,0.16704"
       id="path37-9"
       sodipodi:nodetypes="csssaaaasssssaaaaaaaaaac" /><path
       style="fill:#ffffff;fill-opacity:0.027523;stroke:#000000;stroke-width:0.264999;stroke-opacity:1"
       d="m 62.072292,113.01398 c 0,0 -0.80361,0.64201 -0.96886,1.10249 -0.35374,0.98579 -0.32824,2.18473 0.10023,3.14042 0.25136,0.56064 0.81708,0.94111 1.33635,1.26953 2.11841,1.33981 4.57324,2.1435 7.01583,2.7061 4.23662,0.97582 8.64843,1.10897 12.99598,1.10249 3.30901,-0.005 6.69298,-0.0112 9.88897,-0.86863 1.95845,-0.52543 3.91334,-1.32567 5.51243,-2.57247 0.66797,-0.52081 1.31486,-1.17484 1.60362,-1.97111 0.29615,-0.81666 0.33865,-1.79257 0.0334,-2.60588 -0.15241,-0.40608 -0.86863,-0.96885 -0.86863,-0.96885"
       id="path38-5"
       sodipodi:nodetypes="caaaaaaaaac" /><path
       style="fill:#ffffff;fill-opacity:0.027523;stroke:#000000;stroke-width:0.264999;stroke-opacity:1"
       d="m 61.036622,116.68894 c 0,0 -0.22454,1.62124 0.16704,2.27179 0.80025,1.32949 2.65688,2.13058 4.2095,2.77292 3.02516,1.25157 6.36411,1.64533 9.6217,1.97112 4.08889,0.40892 8.13859,0.1863 12.32781,-0.0334 3.75947,-0.19718 5.15236,-0.48121 7.55036,-1.43658 1.38397,-0.55137 3.05442,-1.20317 4.07586,-2.40542 0.27852,-0.32782 0.39311,-0.77908 0.46773,-1.20272 0.0869,-0.49365 -0.0334,-1.50339 -0.0334,-1.50339"
       id="path39-4"
       sodipodi:nodetypes="csaassaac" /><path
       style="fill:#e9e1e3;fill-opacity:1;stroke:#000000;stroke-width:0.252936"
       d="m 261.12443,395.98733 c -3.54571,-0.80936 -5.81467,-1.5469 -9.14071,-4.4477 -2.71192,-2.36519 -3.67336,-2.80391 -4.07425,-6.86807 -0.18641,-1.88982 -0.11088,-4.61144 -0.31856,-4.90607 -0.19584,-0.27784 -1.11877,-0.31493 -2.47754,-1.42171 -2.97457,-2.42292 -4.37,-5.37138 -5.46565,-10.84054 -0.7706,-3.84663 -0.87566,-7.37094 -1.35523,-15.12325 -0.49935,-8.072 -0.92483,-11.30122 -0.34352,-14.11795 1.38947,-6.73269 6.29183,-11.93561 14.82638,-16.82462 2.6829,-1.53689 5.22016,-2.59638 9.01741,-3.23439 3.78996,-0.63677 16.82484,-0.72734 23.30113,-0.0913 11.65091,1.14368 18.31253,2.26919 24.15438,3.81055 7.42938,1.96022 22.48632,7.88193 25.96833,9.62943 3.00132,1.50626 6.70286,3.95124 10.79753,7.13208 5.27768,4.09985 7.34542,8.28544 7.09643,14.36484 -0.10525,2.56995 0.13307,3.4612 -1.22991,7.49134 -0.8103,2.39596 -1.90591,4.80679 -2.0436,4.71344 -3.02891,-2.05358 -2.93002,-4.43475 -5.37657,-6.7065 -3.75667,-3.48825 -2.19483,-3.30466 -6.17151,-4.82566 -7.56427,-2.89317 -9.47537,-3.18287 -16.44204,-1.46474 -4.331,1.06811 -7.49739,2.59958 -11.39387,5.38757 -5.32613,3.81091 -13.31645,10.73658 -24.70362,21.97144 -10.00923,9.87536 -13.29839,13.31924 -16.43729,15.19904 -1.52529,0.91345 -3.03988,1.86077 -4.4807,1.90944 -0.91084,0.0308 -2.87364,-0.54613 -3.70702,-0.73635 z"
       id="path125"
       transform="scale(0.26458333)"
       sodipodi:nodetypes="cssssssssscssssssssssssscc" /><path
       style="fill:#e9e1e3;fill-opacity:1;stroke:#000000;stroke-width:0.715411"
       d="m 355.58035,357.65194 c -0.46616,-0.3698 -3.97473,2.06931 -2.14684,-3.06861 -0.008,-7.84321 -2.55668,-12.5308 -11.11606,-19.06468 l -5.85219,-3.64365 2.23444,-3.32924 c 1.17825,-1.75555 0.80765,-3.84144 1.65576,-3.4866 0.61477,0.25721 4.42132,1.2381 7.36775,1.41586 6.89869,0.4162 8.32539,0.19396 12.64254,5.03078 4.68853,5.2529 5.66422,9.33686 5.63627,13.19789 -0.0215,2.96385 -0.53806,4.79015 -3.62889,8.77845 -3.7621,4.85448 -3.46329,6.81106 -6.79278,4.1698 z"
       id="path126"
       transform="scale(0.26458333)"
       sodipodi:nodetypes="scscsssssss" /><path
       style="fill:#c399a3;fill-opacity:1;stroke:#000000;stroke-width:0.715411"
       d="m 280.05449,306.38009 c -1.26247,-2.07415 -5.42883,-11.33951 -6.13321,-17.51548 -0.72663,-6.371 -0.88112,-15.63981 0.85883,-20.87839 1.20408,-3.62514 6.66429,-9.60233 9.28342,-10.25969 0.8461,-0.21236 1.80706,0.0941 4.40033,1.15305 1.16511,0.47579 2.44304,1.31805 4.01447,1.58793 1.57143,0.26987 4.0066,0.35601 4.74353,0.64701 3.34062,1.31915 2.60135,2.01261 0.0699,2.59324 -3.00874,0.69013 -7.43998,9.32092 -8.43896,15.9351 -1.09596,7.25627 0.25077,15.27441 2.44789,20.01666 0.95872,2.06931 1.95864,4.50671 1.86736,4.59799 -0.0913,0.0913 -2.35773,0.9903 -5.33425,1.93553 -4.46392,1.41756 -6.24142,2.7137 -6.89547,1.63914 z"
       id="path127"
       transform="scale(0.26458333)"
       sodipodi:nodetypes="ssssssssssssss" /><path
       style="fill:#c399a3;fill-opacity:1;stroke:#000000;stroke-width:0.715411"
       d="m 267.71568,311.32662 c -4.9887,-2.59408 -10.24544,-13.06509 -11.04479,-24.32635 -0.55804,-7.86166 1.34999,-14.07947 5.13542,-18.30591 2.43002,-2.71313 3.89019,-3.00026 8.06235,-3.57869 2.53887,-0.35198 6.37089,-2.29446 6.31993,-0.6408 -0.006,0.19569 -1.23534,4.6003 -3.96497,8.97853 l -4.34296,9.54756 -0.58304,6.35666 c -0.76678,8.35985 1.33922,11.68066 5.30397,16.87477 2.37967,3.11754 3.70021,4.25884 1.25863,5.63596 -0.42062,0.23724 -1.71816,1.75994 -2.98775,1.09977 z"
       id="path128"
       transform="scale(0.26458333)"
       sodipodi:nodetypes="sssssscsssss" /><path
       style="fill:#c399a3;fill-opacity:1;stroke:#000000;stroke-width:0.715411"
       d="m 307.62146,295.78639 c -0.10455,-3.24962 -0.11436,-8.76853 0.01,-13.28639 l -0.59492,-8.40369 2.1192,-1.47739 c 1.36396,-0.95088 5.09537,0.36576 5.69003,1.08227 1.03681,1.24929 1.78587,1.71376 2.75898,0.89833 0.2428,-0.20345 1.15737,-1.02995 2.49536,-1.02995 3.19336,0 5.52099,3.03434 4.82964,7.49346 -0.28018,1.80719 -0.9838,7.43541 -1.25493,11.81264 -0.30438,4.91414 -0.97303,8.85206 -1.5616,9.56123 -0.7434,0.89575 -2.59811,0.0631 -7.49355,0.0631 h -6.78207 z"
       id="path129"
       transform="scale(0.26458333)"
       sodipodi:nodetypes="sscsssssssscs" /><path
       style="fill:#c399a3;fill-opacity:1;stroke:#000000;stroke-width:0.715411"
       d="m 335.22682,306.92724 c -3.4371,-1.32979 -7.7031,-2.91543 -7.84661,-3.05894 -0.14352,-0.14352 2.71978,-3.32629 4.47965,-6.86394 3.06365,-6.15848 2.8389,-6.33014 3.24262,-13.98288 0.35593,-6.74694 0.8039,-7.58206 -0.20319,-9.11908 -1.56797,-2.39302 -6.85577,-3.43585 -8.52032,-0.58341 -1.60373,2.74823 -2.59152,0.37204 -2.979,0.53574 -0.94702,0.40011 1.66722,-1.91914 3.01044,-3.09851 2.78167,-2.44234 7.6699,-4.82626 10.5891,-3.71638 2.79874,1.06407 3.08978,1.37352 3.08978,-0.30227 0,-1.1356 1.13355,-1.56166 2.23214,-1.24999 0.78571,0.2229 2.39055,0.3219 3.18437,0.54737 1.7722,0.50338 4.82247,5.27126 6.43829,12.36631 l 1.45774,6.40094 -1.46285,5.45604 c -2.46667,9.20008 -2.79444,12.4628 -5.32725,15.45939 l -3.57601,4.23083 z"
       id="path130"
       transform="scale(0.26458333)"
       sodipodi:nodetypes="ssssssssssssscsscs" /><path
       style="fill:#c399a3;fill-opacity:1;stroke:#000000;stroke-width:0.715411"
       d="m 352.41408,315.6136 -3.08668,-2.42212 2.40372,-2.57789 c 4.64778,-4.98455 6.30314,-8.43366 7.48841,-13.76123 2.55598,-11.48865 -1.1282,-22.68433 -7.38959,-24.05956 -2.23539,-0.49097 -3.62602,-3.33574 -1.60672,-3.31676 2.74833,0.0258 9.489,2.7927 11.80819,6.66004 3.23492,5.39437 5.20073,11.60238 5.20073,18.4204 0,5.41744 -0.52732,7.3725 -3.45421,13.38611 -1.99638,4.10178 -3.79052,6.92306 -5.1549,7.89459 -2.616,1.86275 -2.61575,2.93827 -5.09288,0.75851 z"
       id="path131"
       transform="scale(0.26458333)"
       sodipodi:nodetypes="ccsssssssssc" /><path
       style="fill:#ef0034;fill-opacity:1;stroke:#000000;stroke-width:0.715411"
       d="m 291.51725,299.39223 c -1.56146,-3.51801 -2.23218,-6.08667 -2.22492,-12.16453 0.0119,-9.97539 3.01103,-18.6506 6.24772,-19.67788 2.32011,-0.73638 7.53614,1.42573 9.4645,4.71624 1.70023,2.90122 1.06688,4.03161 1.06688,16.76676 l 0.63135,13.44556 -6.34757,0.86668 -6.73084,0.79458 z"
       id="path132"
       transform="scale(0.26458333)"
       sodipodi:nodetypes="ssssscccs" /><path
       style="fill:#ef0034;fill-opacity:1;stroke:#000000;stroke-width:0.715411"
       d="m 313.92857,272.75787 c -1.08487,-0.62461 -3.76622,-1.28991 -5.01367,-0.12834 -2.93001,2.7283 -3.42117,-0.54361 -4.46219,-1.79023 -1.773,-2.12316 -1.72624,-4.19715 0.40107,-6.72531 2.35289,-2.79625 6.98531,-4.4508 11.98377,-3.9874 5.24555,0.48631 8.53074,2.36345 10.06576,5.21381 1.23761,2.29811 0.66163,3.50864 -1.0367,5.60384 -1.23344,1.52168 -2.48034,3.43574 -4.83666,2.50019 -1.47268,-0.58471 -3.84435,0.84946 -4.43364,1.05008 -0.58928,0.20062 -1.6856,-1.17119 -2.66774,-1.73664 z"
       id="path133"
       transform="scale(0.26458333)"
       sodipodi:nodetypes="ssssssssss" /><path
       style="fill:#ef0034;fill-opacity:1;stroke:#000000;stroke-width:0.715411"
       d="m 322.84613,302.30789 c 0.69404,-1.29682 2.59434,-19.16411 2.6418,-26.22218 0.019,-2.82108 4.16598,-4.78537 6.78138,-4.12894 2.1993,0.55199 3.28481,4.88019 2.44114,13.02338 -0.54203,5.23176 -1.26013,7.60187 -3.85343,12.58481 -2.64024,5.07315 -3.81441,6.96687 -5.60545,6.15469 -1.70208,-0.77184 -3.15243,-0.016 -2.40544,-1.41176 z"
       id="path134"
       transform="scale(0.26458333)"
       sodipodi:nodetypes="sssssss" /><path
       style="fill:#ef0034;fill-opacity:1;stroke:#000000;stroke-width:0.715411"
       d="m 347.53263,312.38805 c -0.74321,-0.57304 -3.61978,-2.27424 -4.04615,-2.41637 -0.42637,-0.14212 0.52304,-1.00118 2.58104,-3.26318 2.09452,-2.30215 4.00329,-6.22794 5.16223,-12.29603 1.77202,-9.27807 1.45873,-14.20844 -0.23866,-19.19001 -1.32583,-3.89112 2.46389,-2.19478 4.61337,-0.24953 3.64623,3.29979 5.24356,11.52528 4.1515,19.23666 -0.86385,6.09982 -2.55628,11.57312 -6.55187,15.92055 -2.86159,3.11357 -4.43001,3.2151 -5.67146,2.25791 z"
       id="path135"
       transform="scale(0.26458333)"
       sodipodi:nodetypes="sssssssss" /><path
       style="fill:#ef0034;fill-opacity:1;stroke:#000000;stroke-width:0.715411"
       d="m 273.74705,307.3075 c -0.99927,-1.408 -2.83095,-3.01372 -3.88696,-5.26694 -1.68429,-3.59379 -2.36136,-6.23639 -2.35714,-12.50231 0.004,-5.88256 1.18267,-13.74455 2.82832,-14.98603 l 3.77051,-4.30764 -0.38634,14.96809 c -0.22346,8.6574 3.0734,16.75577 5.9641,20.75858 1.37128,1.89885 -0.96382,3.27861 -2.29307,3.99003 -1.1275,0.60342 -0.74058,1.43081 -2.25041,-0.69661 z"
       id="path136"
       transform="scale(0.26458333)"
       sodipodi:nodetypes="sssscsssss" /><path
       style="fill:#520415;fill-opacity:0.992157;stroke:#000000;stroke-width:0.715411"
       d="M 288.79388,318.19348 279.9092,317.5 l 4.44258,-3.1721 c 2.59482,-1.85276 19.24845,-5.17612 21.4088,-5.17612 0.78475,0 -2.02415,1.40936 -3.79691,3.25893 -1.41203,1.47322 -4.39179,4.33929 -4.65739,5.22322 -0.2656,0.88393 -0.11716,1.32348 -1.01513,1.27384 -1.38911,-0.0768 -3.79999,-0.42571 -7.49727,-0.71429 z"
       id="path137"
       transform="scale(0.26458333)"
       sodipodi:nodetypes="scssssss" /><path
       style="fill:#520415;fill-opacity:0.964706;stroke:#000000;stroke-width:0.715411"
       d="m 340.6464,325.08928 c -0.65402,-0.49107 -1.05082,-1.88643 -1.64566,-3.59188 -0.59484,-1.70545 -2.03616,-4.74582 -3.03924,-5.93791 -1.00308,-1.1921 -4.8391,-4.17182 -4.67921,-4.35667 2.15527,-2.49168 23.97319,9.19499 21.26235,15.07421 -0.4116,0.89267 -10.54483,-0.17155 -11.89824,-1.18775 z"
       id="path138"
       transform="scale(0.26458333)"
       sodipodi:nodetypes="ssssss" /><path
       style="fill:#92636e;fill-opacity:1;stroke:#000000;stroke-width:0.715411"
       d="m 325.96159,425.62501 c -1.04647,-12.10783 8.54535,-33.83946 16.36285,-45.37517 3.98384,-5.87866 5.48344,-9.13549 5.62199,-11.2095 0.29259,-4.38016 0.48744,-3.90764 2.29035,-3.1444 0.42213,0.1787 0.62637,-2.36804 1.43726,-4.38743 2.09942,-5.22828 3.31265,-4.36596 4.78864,-3.44693 1.25189,0.7795 0.47854,12.71937 -0.75327,18.4629 -1.16522,5.43322 -6.59689,16.3262 -12.91254,24.63623 -7.23699,9.52232 -9.69691,15.73072 -10.84172,23.24194 -0.84772,5.56202 0.0964,19.75434 -1.80799,19.34734 l -2.5959,0.26786 z"
       id="path139"
       transform="scale(0.26458333)"
       sodipodi:nodetypes="sssssssssscs" /><path
       style="fill:#7e1334;fill-opacity:1;stroke:#000000;stroke-width:0.357705"
       d="m 290.89286,456.15074 c -15.92639,-1.44786 -19.91168,-1.70857 -34.01787,-5.07734 -13.20248,-3.15295 -21.5963,-8.46119 -23.37925,-13.87386 -0.90229,-2.73915 -1.09186,-6.56876 0.18458,-8.49759 1.12695,-1.70294 4.14359,-4.27803 6.94468,-5.63125 2.35129,-1.13593 11.67651,-3.76472 19.375,-5.10827 3.04464,-0.53135 7.98215,-1.2249 9.55357,-1.75948 9.31724,-3.16958 20.45516,-12.79178 23.72799,-21.16334 1.28483,-3.28647 1.62128,-7.41925 0.43112,-10.45272 -0.9157,-2.33391 -3.72325,-5.33347 -5.44083,-5.62895 l -1.27736,-0.21975 2.79739,-2.29586 c 1.47752,-1.21263 6.00276,-6.30677 9.04741,-9.02644 13.74435,-12.27737 19.73271,-14.28794 25.45279,-15.51622 3.83889,-0.82432 4.48765,-0.85871 7.10678,-0.31713 6.18179,1.27825 10.53157,3.82086 13.32296,7.45428 2.9249,3.80722 3.36082,6.00354 3.33573,8.67071 -0.0268,2.85303 -0.92491,5.05763 -5.3244,11.82681 -5.00271,7.69732 -10.24345,18.10667 -12.55613,25.18872 -0.64308,1.96928 -2.31308,5.78587 -3.05637,9.02694 -1.30075,5.67191 -1.29104,7.36436 -0.77826,14.91071 0.65713,9.67085 0.44131,12.07172 1.47571,14.23934 0.41004,0.85927 -0.0637,0.77872 1.20076,0.8704 1.29807,0.0941 1.02594,0.52771 1.31583,-0.17857 0.18591,-0.45322 0.52208,-4.43116 0.74706,-7.96688 0.61598,-9.68083 2.80367,-19.38164 5.2526,-24.04196 1.51523,-2.8835 7.1965,-11.2317 11.33881,-17.02947 2.79033,-3.90548 6.31733,-11.39803 7.93577,-16.20231 0.99947,-2.96687 1.75031,-9.45953 2.03362,-14.37962 l -0.34986,-5.13549 1.93402,-0.99072 c 0.91974,-0.47114 1.30902,-1.5036 1.30902,-1.69395 0,-0.91856 1.67456,0.24401 2.26457,2.06707 0.97113,3.00069 0.99105,6.12548 -0.36073,12.76359 -1.88994,9.2809 -3.30693,15.9171 -5.37078,20.74251 -2.63285,6.1558 -4.29511,10.14995 -3.25628,14.34248 3.02422,12.20528 2.29014,9.68296 5.55297,13.5109 3.04756,3.57539 6.16742,5.82568 9.37972,6.90572 1.43453,0.48232 4.21977,2.60637 4.55253,2.97406 1.50153,1.65917 1.29629,4.60897 -0.55354,8.56197 -1.52358,3.25581 -3.91296,6.10436 -6.88614,8.36127 -4.49507,3.41215 -7.93596,4.10312 -19.31818,6.90704 -11.46022,2.82314 -14.01585,3.65147 -32.70057,3.85342 -9.27932,0.10029 -6.84162,0.4733 -11.16071,0.0806 z"
       id="path140"
       transform="scale(0.26458333)"
       sodipodi:nodetypes="sssssssssscsssssssssssssssssscsssssssssssssss" /><path
       style="fill:#e7c9d2;fill-opacity:1;stroke:#000000;stroke-width:0.357705"
       d="m 293.83929,462.01274 c -17.06437,-0.63989 -29.77798,-2.93871 -41.30756,-6.63129 -6.57679,-2.10635 -14.71682,-6.27991 -18.48513,-9.13261 -3.0706,-2.32453 -4.49792,-7.31355 -3.82564,-12.17189 0.41539,-3.00196 2.61046,-6.64235 2.62532,-4.40963 0.0254,3.81011 1.06224,10.569 4.36361,13.1774 2.90063,2.29178 9.88158,5.65553 14.75439,7.10936 7.17753,2.14145 24.05305,5.18523 30.71429,5.9183 12.21512,1.34427 20.03557,1.80936 30.80357,1.58228 17.69817,-0.37323 21.3197,-1.07402 31.51786,-3.54479 14.62605,-3.54354 18.67595,-4.64476 23.76007,-10.13622 2.89658,-3.12865 7.72494,-11.47925 4.78911,-14.04151 l -2.86448,-2.5 4.23541,2.23215 c 2.02419,1.06678 3.2927,8.17452 2.23814,10.91679 -2.665,6.93008 -13.95476,15.99978 -28.67611,19.22045 -8.35938,1.82883 -16.58064,2.72424 -36.07143,2.80895 -9.91964,0.0431 -10.24901,-0.0857 -11.42857,-0.12989 z"
       id="path141"
       transform="scale(0.26458333)"
       sodipodi:nodetypes="sssssssssssscssssss" /><path
       style="fill:#e7c9d2;fill-opacity:1;stroke:#000000;stroke-width:0.357705"
       d="m 290,468.15215 c -4.95736,-0.31081 -13.75909,-1.43767 -18.83928,-2.17225 -11.83751,-1.71167 -19.82249,-3.61317 -28.35331,-7.81702 -4.47044,-2.20296 -6.27747,-3.22098 -8.51661,-5.43694 -2.61046,-2.58343 -3.98496,-4.72276 -3.57651,-7.30735 l 0.35714,-2.25999 2.23214,2.25351 c 5.10515,5.15401 14.6181,9.6949 26.94753,12.83284 13.44844,3.42274 28.55539,4.77746 51.89176,4.78416 25.70589,0.007 37.33627,-1.85734 50.01123,-8.01839 4.89461,-2.37918 8.94859,-6.56925 11.68519,-8.52159 l 1.78572,-2.11619 0.17857,2.86053 c 0.35595,5.70191 -6.19381,10.5999 -18.1617,15.77054 -4.00086,1.72854 -13.98356,4.17051 -38.26687,5.29817 -6.98412,0.32433 -24.97504,0.12584 -29.375,-0.15003 z"
       id="path142"
       transform="scale(0.26458333)"
       sodipodi:nodetypes="ssssscsscsscssss" /><path
       style="fill:#c399a3;fill-opacity:1;stroke:#000000;stroke-width:0.357705"
       d="m 332.00892,329.80021 c -9.02217,-3.80525 -23.32343,-8.99861 -30.72059,-10.18894 -1.8796,-0.30245 -4.14154,-0.24723 -4.20809,-0.31378 -0.0666,-0.0666 -0.074,-0.6442 0.36541,-1.66562 0.92484,-2.14984 4.54339,-5.61452 8.53649,-8.02853 2.41491,-1.45992 6.86028,-1.4571 13.14219,-1.25296 5.7729,0.1876 8.61091,1.415 12.36013,3.45558 2.14411,1.16697 5.11742,4.65224 6.31717,7.01448 1.19212,2.34723 1.52759,6.99275 0.64418,9.4818 -0.35134,0.9899 -1.62932,3.43715 -1.92795,3.44769 -0.875,0.0309 -3.23216,-1.41122 -4.50894,-1.94972 z"
       id="path143"
       transform="scale(0.26458333)"
       sodipodi:nodetypes="sssssssssss" /><path
       style="fill:#c399a3;fill-opacity:1;stroke:#000000;stroke-width:0.357705"
       d="m 352.83757,324.16918 c -0.44012,-1.257 -5.1927,-6.0429 -8.32794,-8.12721 -6.30451,-4.19123 -15.68917,-6.30285 -23.39356,-7.48216 -9.36705,-1.43381 -25.04055,0.79564 -32.63051,3.78732 -2.38688,0.94082 -5.39911,2.62425 -7.50342,4.22169 l -1.11607,0.84724 -5.84571,-0.2259 -6.02429,-0.003 1.79005,-2.0806 c 3.03548,-3.52817 9.05714,-5.66997 15.54957,-7.83201 9.8073,-3.26591 17.74495,-4.60643 29.74452,-4.14431 8.92378,0.34368 12.18341,1.15757 22.59836,5.02382 5.60754,2.08164 8.32315,3.64203 12.19022,6.45181 4.33447,3.14939 6.20628,5.39716 6.80496,8.17229 0.26827,1.24353 -0.32176,2.02955 -1.94281,2.3769 -0.99994,0.21427 -1.2888,0.74076 -1.58087,-0.0934 z"
       id="path144"
       transform="scale(0.26458333)"
       sodipodi:nodetypes="ssssscccsssssssss" /><path
       style="fill:#92636e;fill-opacity:1;stroke:#000000;stroke-width:0.126468"
       d="m 298.12916,266.41028 c -0.51536,-0.12515 -0.95048,-0.15939 -1.81763,0.0693 -0.41373,0.10909 -1.4037,0.59869 -1.63842,0.46436 -0.45772,-0.26194 1.10041,-2.12159 1.62778,-2.50956 0.78624,-0.5784 1.38155,-0.81104 2.43642,-1.20683 0,0 0.94856,-0.94953 1.47602,-0.77475 0.5483,0.18169 0.74981,1.56225 0.74981,1.56225 0.24869,0.51816 -0.14461,3.03189 -0.39104,3.15539 -0.14752,0.0739 -1.60338,-0.55622 -1.89049,-0.62595 z"
       id="path145"
       transform="scale(0.26458333)"
       sodipodi:nodetypes="sssssassss" /><path
       style="fill:#e7c9d2;fill-opacity:1;stroke:#000000;stroke-width:0.178853"
       d="m 334.36558,330.60978 c -5.36344,-2.6287 -19.52133,-7.82064 -26.7763,-9.81933 -3.05903,-0.84274 -6.64006,-1.5934 -7.61172,-1.59558 -1.5298,-0.003 -2.56685,-0.21512 -2.56685,-0.52397 0,-2.12459 6.81371,-8.39461 10.28902,-9.46802 4.30458,-1.32955 15.95446,-0.64261 20.24109,1.19353 3.07575,1.31747 4.09828,1.97892 5.99631,3.8789 1.90336,1.90532 3.28856,3.81386 3.87208,5.33499 0.78189,2.03824 1.06916,5.40704 0.64232,7.53243 -0.21373,1.06423 -1.69281,4.20784 -2.03237,4.31955 -0.1034,0.034 -1.0275,-0.34961 -2.05358,-0.8525 z"
       id="path160"
       transform="scale(0.26458333)" /></g></svg>
