<?xml version="1.0" encoding="UTF-8" standalone="no"?>
<!-- Created with Inkscape (http://www.inkscape.org/) -->

<svg
   width="53.721172mm"
   height="59.601105mm"
   viewBox="0 0 53.721172 59.601105"
   version="1.1"
   id="svg1"
   xml:space="preserve"
   inkscape:version="1.4.3 (0d15f75, 2025-12-25)"
   sodipodi:docname="рисунок1.svg"
   xmlns:inkscape="http://www.inkscape.org/namespaces/inkscape"
   xmlns:sodipodi="http://sodipodi.sourceforge.net/DTD/sodipodi-0.dtd"
   xmlns="http://www.w3.org/2000/svg"
   xmlns:svg="http://www.w3.org/2000/svg"
   xmlns:rdf="http://www.w3.org/1999/02/22-rdf-syntax-ns#"
   xmlns:cc="http://creativecommons.org/ns#"
   xmlns:dc="http://purl.org/dc/elements/1.1/"><defs
     id="defs1" /><sodipodi:namedview
     id="base"
     pagecolor="#ffffff"
     bordercolor="#000000"
     borderopacity="0.3"
     inkscape:pageopacity="0.0"
     inkscape:pageshadow="2"
     inkscape:zoom="0.35"
     inkscape:cx="537.14285"
     inkscape:cy="-195.71428"
     inkscape:document-units="mm"
     inkscape:showpageshadow="2"
     inkscape:pagecheckerboard="0"
     inkscape:deskcolor="#d1d1d1"
     inkscape:window-width="1920"
     inkscape:window-height="1009"
     inkscape:window-x="-8"
     inkscape:window-y="-8"
     inkscape:window-maximized="1"
     inkscape:current-layer="svg1"><inkscape:page
       x="0"
       y="0"
       width="53.721172"
       height="59.601105"
       id="page3"
       margin="0"
       bleed="0" /></sodipodi:namedview><metadata
     id="metadata1"><rdf:RDF><cc:Work
         rdf:about=""><dc:format>image/svg+xml</dc:format><dc:type
           rdf:resource="http://purl.org/dc/dcmitype/StillImage" /></cc:Work></rdf:RDF></metadata><g
     id="g7"
     transform="translate(59.868375,63.610153)"><path
       style="fill:#ffefef;fill-opacity:0;stroke:#000000;stroke-width:0.264999;stroke-opacity:1"
       d="m -20.891371,-34.151187 c 0.65104,-1.458406 1.79539,-4.630209 -0.99218,-6.803573 -2.78758,-2.173363 -3.82701,-2.362351 -3.82701,-2.362351 0,0 -5.48066,-2.126116 -8.59896,-2.551339 -3.11831,-0.425224 -9.6384,-1.27567 -12.23698,0.141741 -2.59859,1.41741 -4.53572,3.16555 -4.29948,6.661831 0.23623,3.496278 0.13131,7.34351 2.3151,8.882434 0.64191,0.45236 -0.0596,1.82784 0.89645,2.78913 1.4381,1.44604 2.27124,1.69003 3.68652,1.88833 1.64413,0.23037 5.15065,-4.17726 8.62726,-7.26863 3.82254,-3.398967 4.82785,-4.332044 7.86194,-4.77936 1.33588,-0.196947 2.7324,0.375996 3.92151,1.015812 1.04581,0.562713 2.16174,3.47042 2.64583,2.385975 z"
       id="path248"
       sodipodi:nodetypes="sscsssssssaas" /><path
       style="fill:#ffefef;fill-opacity:0;stroke:#000000;stroke-width:0.264999;stroke-opacity:1"
       d="m -24.553011,-42.844642 c 0,0 0.35435,-0.401599 0.49609,-1.157551 0.14174,-0.755952 0.0945,-0.921317 0.0945,-0.921317 0,0 0.14174,0.330729 0.82682,0.590588 0.68509,0.259859 2.1025,0.118118 2.31511,0.141741 0.21261,0.02362 0.73233,0.09449 0.94494,0.165365 0.21261,0.07087 0.89516,0.403421 1.67727,1.488281 0.73233,1.01581 -1.03944,-1.27567 -0.21262,-0.259852 0.82682,1.015812 1.15755,1.771763 1.34654,2.362353 0.18899,0.590587 0.16537,1.81901 -0.11812,2.244233 -0.28348,0.425222 -0.61421,0.732329 -1.34654,1.842632 -0.54876,0.832 -0.89769,0.661459 -1.22842,0.614212 -0.33073,-0.04725 -0.51972,-0.283483 -0.51972,-0.283483"
       id="path249"
       sodipodi:nodetypes="cscsssssssssc" /><path
       style="fill:#9abfc3;fill-opacity:1;stroke:#000000;stroke-width:0.264999;stroke-opacity:1"
       d="m -35.207221,-46.010192 c 0,0 0.21261,-0.992187 0.61421,-1.34654 0.4016,-0.354352 1.03944,-1.181175 2.29149,-1.41741 1.25204,-0.236235 3.18917,-0.259859 3.99237,-0.141742 0.8032,0.118118 2.03162,0.425224 2.92932,1.370164 0.89769,0.944941 1.20479,1.464658 1.25204,1.937128 0.0472,0.472471 0.18899,1.086682 0.18899,1.086682 0.16537,-0.236235 0,0 0,0"
       id="path250" /><path
       style="fill:#9abfc3;fill-opacity:1;stroke:#000000;stroke-width:0.264999;stroke-opacity:1"
       d="m -23.820681,-44.684409 c 0,0 -0.25986,-0.711571 -0.30711,-0.947806"
       id="path251"
       sodipodi:nodetypes="cc" /><path
       style="fill:#9abfc3;fill-opacity:1;stroke:#000000;stroke-width:0.264999;stroke-opacity:1"
       d="m -39.837421,-46.506285 c 0,0 0.66145,-0.519717 1.81901,-1.063058 1.15755,-0.543341 2.55133,-0.850447 3.40178,-1.015811 0.85045,-0.165365 2.12612,-0.354353 2.85845,-0.377977 0.73233,-0.02362 1.27567,-0.141741 3.26004,-0.02362 0.92241,0.05491 0.63784,0.07087 2.24423,0.496093 1.6064,0.425223 2.12612,0.732329 3.16555,1.299294 0.80696,0.440158 1.72452,1.27567 2.03163,1.606399 0.3071,0.330729 0.61421,0.614211 0.66146,0.850446 0.0472,0.236235 -0.0236,0.590588 -0.0236,0.590588"
       id="path252"
       sodipodi:nodetypes="cssssssssc" /><path
       style="fill:#9abfc3;fill-opacity:1;stroke:#000000;stroke-width:0.264999;stroke-opacity:1"
       d="m -42.955731,-46.529909 c 0,0 0.79128,-0.86306 1.27567,-1.181176 1.33795,-0.878669 2.39488,-1.373653 4.39398,-1.937128 2.13257,-0.601096 4.43759,-0.719079 5.64601,-0.732328 0.8122,-0.0089 1.81346,0.0087 2.88207,0.09449 1.08691,0.08729 4.87758,1.152542 6.54372,2.196986 1.58277,0.992188 2.07886,1.535529 2.07886,1.535529 0,0 0.33073,0.307105 0.4961,0.566964 0.16536,0.259859 0.44884,1.063058 0.25986,1.322917 -0.18899,0.259859 -0.94495,0.165364 -0.94495,0.165364"
       id="path253"
       sodipodi:nodetypes="casssscssc" /><path
       style="fill:#9abfc3;fill-opacity:1;stroke:#000000;stroke-width:0.264999;stroke-opacity:1"
       d="m -34.262281,-59.711828 c 0,0 0.37798,-1.228423 -0.33073,-1.653646 -0.7087,-0.425223 -1.65811,-0.376288 -2.45684,-0.661458 -0.32529,-0.11614 -0.6009,-0.394545 -0.94494,-0.425224 -0.38807,-0.0346 -0.82744,0.04294 -1.13393,0.283483 -1.30232,1.022109 -2.03162,1.984375 -2.3151,4.393973 -0.28349,2.409598 -0.0945,4.44122 0.37797,5.811384 0.47247,1.370163 0.85045,2.315104 1.13393,2.551339 0.28348,0.236235 0.51972,0.47247 0.51972,0.47247 0,0 2.64583,-0.897693 3.16555,-0.992187 0.51972,-0.09449 -0.73746,-1.822695 -0.85045,-2.787575 -0.20372,-1.739725 -0.15935,-3.562763 0.33073,-5.244419 0.29189,-1.00158 1.03944,-2.456845 1.51191,-2.740328 0.47247,-0.283482 0.9311,0.05298 0.9311,0.05298 z"
       id="path254"
       sodipodi:nodetypes="csaaassscsaascc" /><path
       style="fill:#9abfc3;fill-opacity:1;stroke:#000000;stroke-width:0.264999;stroke-opacity:1"
       d="m -40.215401,-61.081992 c 0,0 -0.94494,0.519717 -1.65365,0.661459 -0.7087,0.141741 -1.10576,-0.01115 -1.6064,0.188987 -0.43871,0.175383 -0.86693,0.460652 -1.13392,0.850447 -0.82276,1.201147 -1.22843,1.889881 -1.18118,4.204985 0.0472,2.315104 0.56697,3.874256 1.08668,4.866443 0.51972,0.992188 1.88988,2.315104 2.36235,2.456846 0.47247,0.141741 0.37798,0.283482 0.37798,0.283482 0,0 1.42437,-0.651658 1.08668,-1.039435 -0.66465,-0.763252 -1.26951,-1.577654 -1.6064,-2.456845 -0.79435,-2.073022 -0.75595,-3.96875 -0.0945,-5.480655 0.89027,-2.034889 1.37017,-2.551339 1.37017,-2.551339"
       id="path255"
       sodipodi:nodetypes="csaassscsssc" /><path
       style="fill:#9abfc3;fill-opacity:1;stroke:#000000;stroke-width:0.264999;stroke-opacity:1"
       d="m -36.010421,-59.664581 c 0,0 0.65109,-0.374691 1.06425,-0.308293 1.11164,0.17865 1.82618,1.046438 2.26786,1.937128 0.30501,0.615112 0.0974,1.370125 0.11693,2.056433 0.013,0.456537 -0.007,0.913494 0,1.370163 0.0157,1.039792 0.0142,2.081499 0.0945,3.118304 0.0294,0.379779 -0.0983,0.904199 0.14173,1.133928 1.17206,1.04e-4 2.7675,-0.04048 3.63802,0.04725 1.09298,-0.863856 0.63882,-2.722282 0.75596,-4.110491 0.098,-1.161405 0.72999,-2.627736 -0.0472,-3.496279 -0.33869,-0.378474 -1.0176,-0.305677 -1.51191,-0.188988 -0.22106,0.05218 -0.33983,0.377976 -0.56696,0.377976 -0.34071,0 -0.52135,-0.478789 -0.85045,-0.566965 -0.47257,-0.126616 -1.05484,-0.172704 -1.46466,0.0945 -0.13803,0.09 -0.22813,0.438569 -0.22813,0.438569"
       id="path256"
       sodipodi:nodetypes="csaaaaccaaaaaac" /><path
       style="fill:#9abfc3;fill-opacity:1;stroke:#000000;stroke-width:0.264999;stroke-opacity:1"
       d="m -28.072921,-58.105429 c 0,0 0.61422,-1.086682 1.55916,-1.559152 0.94494,-0.472471 2.50409,-0.283482 2.69308,0.04725 0.18898,0.330729 -0.13986,-0.820682 0.37797,-0.755953 0.75595,0.09449 1.7009,0.33073 1.93713,0.944941 0.23623,0.614211 0.51972,0.755952 0.66146,1.370164 0.14174,0.614211 1.08668,2.315104 0.61421,3.921503 -0.47247,1.606398 -0.94494,3.543526 -1.6064,4.299479 -0.66146,0.755952 -1.22842,1.275669 -1.22842,1.275669 l -4.06324,-1.511905 c 0,0 1.60639,-2.551339 1.84263,-3.685267 0.23623,-1.133929 0.42522,-4.252232 0,-4.630209 -0.42522,-0.377976 -1.13393,-0.283482 -1.41741,-0.141741 -0.28348,0.141741 -1.08668,0.944941 -1.08668,0.944941"
       id="path257"
       sodipodi:nodetypes="csssssssccsssc" /><path
       style="fill:#9abfc3;fill-opacity:1;stroke:#000000;stroke-width:0.264999;stroke-opacity:1"
       d="m -21.363841,-59.192111 c 0.42522,-0.04725 2.26786,0.188988 3.1183,1.417411 0.85045,1.228422 1.33551,2.402833 1.55916,3.732514 0.20938,1.244893 0.14174,3.02381 -0.23624,3.779763 -0.37798,0.755952 -1.32291,2.740327 -1.55915,2.929315 -0.23624,0.188988 -1.22842,0.992187 -1.22842,0.992187 l -1.70089,-1.275669 c 0,0 1.70422,-1.639233 2.17336,-2.693081 0.64864,-1.457074 0.96116,-3.143027 0.75595,-4.724702 -0.13517,-1.041857 -0.46864,-2.209431 -1.27567,-2.882068 -0.31104,-0.259239 -1.18118,-0.283482 -1.18118,-0.283482"
       id="path258"
       sodipodi:nodetypes="csassccaaac" /><path
       style="fill:#9abfc3;fill-opacity:1;stroke:#000000;stroke-width:0.264999;stroke-opacity:1"
       d="m -33.648061,-59.381099 c 0,0 0.23623,-1.27567 1.27567,-1.889881 1.03943,-0.614211 3.19435,-0.610588 4.48846,0.141741 0.54934,0.31936 0.99505,1.625969 0.99505,1.625969"
       id="path259"
       sodipodi:nodetypes="csac" /><path
       style="fill:#cb9baf;fill-opacity:1;stroke:#000000;stroke-width:0.264999;stroke-opacity:1"
       d="m -21.783521,-34.385161 c 0,0 0.43431,1.035669 0.0334,2.037932 -0.40091,1.00226 -1.80407,2.806325 -2.17157,3.541325 -0.36749,0.73499 -1.77066,3.37427 -2.3052,4.91107 -0.53454,1.5368 -0.96885,3.77519 -1.06908,4.57699 -0.10022,0.80181 -0.16704,3.74178 -0.0334,4.54359 0.13364,0.8018 0.10011,1.84345 0.735,1.77066 0.67298,-0.0772 0.23386,-1.46999 0.33408,-2.00453 0.10023,-0.53454 0,-0.70158 0.16705,-1.46998 0.16704,-0.7684 0.53453,-3.27405 1.06907,-4.6104 0.53454,-1.33634 3.90882,-6.01356 3.90882,-6.01356 0,0 1.33635,-2.70611 1.57021,-3.574733 0.23386,-0.868624 0.43431,-3.040188 0.4009,-3.608137 -0.0334,-0.567947 -0.10022,-1.436574 -0.10022,-1.436574 l -1.00226,-0.400903 c 0,0 -0.46773,1.302939 -0.53454,1.570208 -0.0668,0.267269 -0.0649,0.604478 -0.30068,0.668173 -0.27745,0.07495 -0.70158,-0.501131 -0.70158,-0.501131 z"
       id="path260"
       sodipodi:nodetypes="csssssassscssccsac" /><path
       style="fill:#ffffff;fill-opacity:0.027523;stroke:#000000;stroke-width:0.264999;stroke-opacity:1"
       d="m -18.242201,-36.757177 c 0,0 0.86863,0.968851 0.70158,2.806329 -0.16704,1.837479 -1.20271,5.846524 -1.43657,6.447874 -0.23386,0.60136 -1.36976,2.50566 -1.10249,4.17609 0.26727,1.67044 0.42296,2.28638 1.03567,3.24064 0.54518,0.84909 1.40213,1.47327 2.23838,2.03793 0.57378,0.38743 1.46938,0.33802 1.87089,0.90204 0.27958,0.39273 0.27753,0.96732 0.16704,1.43657 -0.28952,1.22969 -0.96885,2.3052 -2.07134,3.17383 -0.9278,0.73099 -1.53679,1.00226 -2.47224,1.30294 -0.93544,0.30067 -2.77292,0.7684 -4.74403,1.20271 -1.97112,0.4343099 -8.4524,0.5011299 -8.92012,0.5011299 -0.46772,0 -6.68174,-0.4009 -7.98468,-0.7683999 -1.30294,-0.3675 -5.53443,-0.92048 -8.01809,-2.13816 -1.05593,-0.5177 -2.22361,-1.11665 -2.80633,-2.13815 -0.37781,-0.6623 -0.50543,-1.54746 -0.26727,-2.27179 0.22395,-0.6811 0.867354,-1.18178 1.46999,-1.57021 1.132469,-0.72993 2.531291,-0.93196 3.828163,-1.29721 1.806867,-0.5089 3.821714,-0.38685 5.492857,-1.24185 1.812125,-0.92713 3.46626,-2.33669 4.57699,-4.04245 0.52274,-0.80279 0.90785,-1.78234 0.86863,-2.73952 -0.0301,-0.73353 -0.30521,-1.52993 -0.83522,-2.03793 -0.30772,-0.29494 -0.77886,-0.47942 -1.20271,-0.43431 -0.10447,0.0111 -0.26727,0.16704 -0.26727,0.16704"
       id="path261"
       sodipodi:nodetypes="csssaaaasssssaaaaaaaaaac" /><path
       style="fill:#e6f4f5;fill-opacity:1;stroke:#000000;stroke-width:0.264999;stroke-opacity:1"
       d="m -51.650891,-17.547184 c 0,0 -0.80361,0.64201 -0.96886,1.10249 -0.35374,0.98579 -0.32824,2.18473 0.10023,3.14042 0.25136,0.56064 0.81708,0.94111 1.33635,1.26953 2.11841,1.33981 4.57324,2.1434999 7.01583,2.7060999 4.23662,0.97582 8.64843,1.10897 12.99598,1.10249 3.30901,-0.005 6.69298,-0.0112 9.88897,-0.86863 1.95845,-0.52543 3.91334,-1.3256699 5.51243,-2.5724699 0.66797,-0.52081 1.31486,-1.17484 1.60362,-1.97111 0.29615,-0.81666 0.33865,-1.79257 0.0334,-2.60588 -0.15241,-0.40608 -0.86863,-0.96885 -0.86863,-0.96885"
       id="path262"
       sodipodi:nodetypes="caaaaaaaaac" /><path
       style="fill:#e6f4f5;fill-opacity:1;stroke:#000000;stroke-width:0.264999;stroke-opacity:1"
       d="m -52.686561,-13.872224 c 0,0 -0.22454,1.62124 0.16704,2.27179 0.80025,1.32949 2.65688,2.1305799 4.2095,2.7729199 3.02516,1.25157 6.36411,1.64533 9.6217,1.97112 4.08889,0.40892 8.13859,0.1863 12.32781,-0.0334 3.75947,-0.19718 5.15236,-0.48121 7.55036,-1.43658 1.38397,-0.55137 3.05442,-1.20317 4.07586,-2.4054199 0.27852,-0.32782 0.39311,-0.77908 0.46773,-1.20272 0.0869,-0.49365 -0.0334,-1.50339 -0.0334,-1.50339"
       id="path263"
       sodipodi:nodetypes="csaassaac" /><path
       style="fill:#ffffff;fill-opacity:1;stroke:#000000;stroke-width:0.0669226"
       d="m -44.634012,-25.789517 c -0.938135,-0.214143 -1.538464,-0.409284 -2.418479,-1.176787 -0.717529,-0.62579 -0.97191,-0.741868 -1.077979,-1.817177 -0.04932,-0.500015 -0.02934,-1.22011 -0.08428,-1.298065 -0.05182,-0.07351 -0.296008,-0.08333 -0.655516,-0.37616 -0.787022,-0.641065 -1.156229,-1.421178 -1.44612,-2.868227 -0.203888,-1.017754 -0.231685,-1.950227 -0.358571,-4.001359 -0.13212,-2.135717 -0.244695,-2.990115 -0.09089,-3.735375 0.367631,-1.781357 1.664713,-3.157963 3.922813,-4.451514 0.709851,-0.406635 1.381167,-0.686958 2.385856,-0.855765 1.002761,-0.168479 4.451573,-0.192442 6.165091,-0.02416 3.082636,0.302599 4.84519,0.60039 6.390846,1.008208 1.96569,0.518642 5.949506,2.085428 6.870787,2.547787 0.7941,0.398531 1.773465,1.045432 2.856847,1.887029 1.396386,1.084752 1.943476,2.19219 1.877597,3.800698 -0.02785,0.679966 0.03521,0.915775 -0.325414,1.982083 -0.214392,0.633931 -0.504272,1.271797 -0.540702,1.247098 -0.801399,-0.543343 -0.775235,-1.173361 -1.422551,-1.774428 -0.993952,-0.922933 -0.580715,-0.874358 -1.632879,-1.276789 -2.001379,-0.765485 -2.507025,-0.842135 -4.350289,-0.387546 -1.145911,0.282604 -1.983685,0.687805 -3.014628,1.425461 -1.409206,1.008303 -3.523311,2.84072 -6.536166,5.813277 -2.648276,2.612855 -3.518533,3.524049 -4.349033,4.021412 -0.403567,0.241684 -0.804302,0.492329 -1.185519,0.505206 -0.240993,0.0082 -0.760317,-0.144496 -0.980816,-0.194825 z"
       id="path264"
       sodipodi:nodetypes="cssssssssscssssssssssssscc" /><path
       style="fill:#ffffff;fill-opacity:1;stroke:#000000;stroke-width:0.189286"
       d="m -19.64255,-35.932422 c -0.123338,-0.09784 -1.051647,0.547505 -0.568018,-0.811903 -0.0021,-2.075183 -0.676455,-3.315441 -2.941124,-5.044197 l -1.548392,-0.964049 0.591196,-0.880861 c 0.311745,-0.46449 0.21369,-1.016381 0.438086,-0.922497 0.162658,0.06805 1.169808,0.327581 1.949384,0.374613 1.825278,0.11012 2.202759,0.05132 3.345005,1.331061 1.240507,1.38983 1.498658,2.470377 1.491263,3.491942 -0.0057,0.784185 -0.142361,1.267393 -0.960143,2.322631 -0.995389,1.284415 -0.916329,1.802093 -1.797257,1.10326 z"
       id="path265"
       sodipodi:nodetypes="scscsssssss" /><path
       style="fill:#9abfc3;fill-opacity:1;stroke:#000000;stroke-width:0.189286"
       d="m -39.625433,-49.498099 c -0.334029,-0.548786 -1.436378,-3.000245 -1.622745,-4.634304 -0.192255,-1.685661 -0.23313,-4.138033 0.227232,-5.524074 0.318579,-0.959152 1.76326,-2.540617 2.456238,-2.714543 0.223864,-0.05619 0.478118,0.0249 1.164254,0.305078 0.308268,0.125886 0.646387,0.348734 1.062162,0.42014 0.415774,0.0714 1.060079,0.09419 1.255059,0.171188 0.883872,0.349025 0.688273,0.532503 0.01849,0.686128 -0.796062,0.182597 -1.968495,2.46616 -2.232808,4.216162 -0.289973,1.919888 0.06635,4.041354 0.647671,5.296074 0.253661,0.547505 0.518223,1.1924 0.494072,1.216552 -0.02416,0.02416 -0.623816,0.262016 -1.411354,0.512109 -1.181078,0.375062 -1.651375,0.717999 -1.824426,0.433689 z"
       id="path266"
       sodipodi:nodetypes="ssssssssssssss" /><path
       style="fill:#9abfc3;fill-opacity:1;stroke:#000000;stroke-width:0.189286"
       d="m -42.890077,-48.18933 c -1.319927,-0.68635 -2.710772,-3.456805 -2.922267,-6.436346 -0.147648,-2.080065 0.357185,-3.725194 1.358746,-4.843439 0.642943,-0.717849 1.02928,-0.793819 2.133164,-0.946862 0.671743,-0.09313 1.685631,-0.607076 1.672148,-0.169545 -0.0016,0.05178 -0.32685,1.217163 -1.049065,2.37557 l -1.149075,2.526125 -0.154262,1.681866 c -0.202878,2.211877 0.354335,3.090508 1.403342,4.464783 0.629621,0.824849 0.979013,1.126818 0.333012,1.491181 -0.111289,0.06277 -0.454596,0.465651 -0.790509,0.290981 z"
       id="path267"
       sodipodi:nodetypes="sssssscsssss" /><path
       style="fill:#9abfc3;fill-opacity:1;stroke:#000000;stroke-width:0.189286"
       d="m -32.331673,-52.301016 c -0.02766,-0.859795 -0.03026,-2.320006 0.0026,-3.515357 l -0.15736,-2.223476 0.560705,-0.390893 c 0.360881,-0.251587 1.34815,0.09677 1.505487,0.286351 0.274323,0.330541 0.472512,0.453432 0.729981,0.237683 0.06424,-0.05383 0.30622,-0.272508 0.66023,-0.272508 0.84491,0 1.460762,0.802836 1.277842,1.982645 -0.07413,0.478152 -0.260297,1.967285 -0.332033,3.125427 -0.08053,1.3002 -0.257448,2.342108 -0.413173,2.529743 -0.196692,0.237 -0.687417,0.01669 -1.982669,0.01669 h -1.794423 z"
       id="path268"
       sodipodi:nodetypes="sscsssssssscs" /><path
       style="fill:#9abfc3;fill-opacity:1;stroke:#000000;stroke-width:0.189286"
       d="m -25.027755,-49.353332 c -0.909399,-0.351841 -2.038111,-0.771375 -2.076082,-0.809345 -0.03797,-0.03797 0.719609,-0.880081 1.185241,-1.816084 0.810591,-1.629431 0.751126,-1.674849 0.857943,-3.699637 0.09417,-1.785128 0.212699,-2.006087 -0.05376,-2.412756 -0.414858,-0.633154 -2.026534,-0.625587 -2.466946,0.129121 -0.42432,0.727136 -0.473061,-0.185046 -0.575582,-0.141734 -0.250566,0.105862 0.441119,-0.507773 0.796512,-0.819814 0.735984,-0.646203 2.029328,-1.276948 2.8017,-0.983293 0.7405,0.281536 0.817504,0.363411 0.817504,-0.07998 0,-0.30046 0.299918,-0.413189 0.590587,-0.330726 0.207886,0.05898 0.6325,0.08517 0.842531,0.144825 0.468895,0.133186 1.275945,1.394687 1.703464,3.27192 l 0.385694,1.693582 -0.387046,1.443577 c -0.652639,2.434188 -0.739362,3.297449 -1.409501,4.090297 l -0.946153,1.119407 z"
       id="path269"
       sodipodi:nodetypes="ssssssssssssscsscs" /><path
       style="fill:#9abfc3;fill-opacity:1;stroke:#000000;stroke-width:0.189286"
       d="m -20.480292,-47.055066 -0.816684,-0.640853 0.635984,-0.682067 c 1.229725,-1.318828 1.667706,-2.231405 1.981309,-3.640992 0.676269,-3.039705 -0.298503,-6.001895 -1.955163,-6.365758 -0.591447,-0.129903 -0.959384,-0.882581 -0.425111,-0.87756 0.727162,0.0068 2.510631,0.738902 3.12425,1.762136 0.855906,1.42726 1.494145,2.951678 1.494145,4.755613 0,1.433364 -0.257638,2.068758 -1.032045,3.659859 -0.528209,1.085263 -1.144649,2.25695 -1.505641,2.514 -0.69215,0.492853 -0.550343,0.352195 -1.205751,-0.224534 z"
       id="path270"
       sodipodi:nodetypes="ccsssssssssc" /><path
       style="fill:#00d5ee;fill-opacity:1;stroke:#000000;stroke-width:0.189286"
       d="m -36.592578,-51.34697 c -0.413136,-0.930807 -0.590598,-1.610432 -0.588677,-3.218532 0.0031,-2.639322 0.796668,-4.934638 1.653043,-5.206439 0.613862,-0.194834 1.993937,0.377224 2.504149,1.247838 0.449852,0.767615 0.282278,1.066697 0.282278,4.436205 l 0.167045,3.557471 -1.679461,0.22931 -1.780868,0.210232 z"
       id="path271"
       sodipodi:nodetypes="ssssscccs" /><path
       style="fill:#00d5ee;fill-opacity:1;stroke:#000000;stroke-width:0.189286"
       d="m -30.662916,-58.393978 c -0.287039,-0.165261 -0.996479,-0.341289 -1.326534,-0.03396 -0.775232,0.721863 -0.905184,-0.14383 -1.180621,-0.473665 -0.469106,-0.561752 -0.456734,-1.110496 0.106116,-1.779405 0.622536,-0.739841 1.848197,-1.177607 3.170706,-1.054999 1.387885,0.128669 2.257092,0.625329 2.663232,1.379487 0.327451,0.608042 0.175057,0.928328 -0.274293,1.482683 -0.326348,0.402611 -0.656257,0.909039 -1.2797,0.661508 -0.389646,-0.154704 -1.017151,0.224753 -1.173067,0.277834 -0.155914,0.05308 -0.445982,-0.309877 -0.705839,-0.459486 z"
       id="path272"
       sodipodi:nodetypes="ssssssssss" /><path
       style="fill:#00d5ee;fill-opacity:1;stroke:#000000;stroke-width:0.189286"
       d="m -28.303479,-50.575535 c 0.183632,-0.343117 0.686419,-5.070504 0.698977,-6.937952 0.005,-0.746411 1.102248,-1.266129 1.79424,-1.092449 0.581898,0.146048 0.869106,1.291217 0.645885,3.44577 -0.143413,1.384236 -0.07355,1.916834 -0.759695,3.235236 -0.698563,1.342271 -0.992926,1.781411 -1.506732,1.699299 -0.686577,-0.109721 -1.070316,0.01942 -0.872675,-0.349904 z"
       id="path273"
       sodipodi:nodetypes="sssssss" /><path
       style="fill:#00d5ee;fill-opacity:1;stroke:#000000;stroke-width:0.189286"
       d="m -21.771842,-47.908493 c -0.196641,-0.151617 -0.957734,-0.601726 -1.070544,-0.639331 -0.112811,-0.0376 0.138387,-0.264896 0.6829,-0.863383 0.554175,-0.609111 1.059204,-1.647809 1.36584,-3.253325 0.468847,-2.454823 0.385956,-3.759316 -0.06314,-5.077357 -0.350793,-1.029525 0.651904,-0.580702 1.22062,-0.06602 0.964732,0.873069 1.387359,3.049397 1.098418,5.089699 -0.22856,1.613911 -0.676349,3.062055 -1.733516,4.212313 -0.757129,0.823798 -1.172106,0.850661 -1.500573,0.597405 z"
       id="path274"
       sodipodi:nodetypes="sssssssss" /><path
       style="fill:#00d5ee;fill-opacity:1;stroke:#000000;stroke-width:0.189286"
       d="m -41.294277,-49.252722 c -0.26439,-0.372533 -0.749022,-0.79738 -1.028425,-1.393544 -0.445635,-0.950857 -0.624776,-1.650045 -0.62366,-3.307903 0.0011,-1.556428 0.312915,-3.636579 0.748327,-3.965054 l 0.997614,-1.13973 -0.102219,3.960307 c -0.05912,2.290604 1.073029,4.504169 1.766989,5.823104 0.28856,0.548434 -0.443999,0.536736 -0.795696,0.724966 -0.298318,0.159655 -0.195945,0.378569 -0.595421,-0.184311 z"
       id="path275"
       sodipodi:nodetypes="sssscsssss" /><path
       style="fill:#002f5e;fill-opacity:1;stroke:#000000;stroke-width:0.189286"
       d="m -37.313136,-46.372473 -2.350739,-0.183483 1.175433,-0.839285 c 1.799612,-1.284963 5.70703,-1.60575 6.278623,-1.60575 0.207631,0 -1.267886,0.774493 -1.736929,1.263858 -0.373599,0.38979 -1.043876,0.982739 -1.114149,1.216612 -0.07027,0.233873 -0.031,0.350171 -0.268587,0.337037 -0.367535,-0.02032 -1.005414,-0.112636 -1.983652,-0.188989 z"
       id="path276"
       sodipodi:nodetypes="scssssss" /><path
       style="fill:#002f5e;fill-opacity:1;stroke:#000000;stroke-width:0.189286"
       d="m -23.9718,-44.500712 c -0.173043,-0.129929 0.09995,-0.546365 -0.05744,-0.997599 -0.157385,-0.451234 -0.639291,-1.31915 -0.945873,-1.594696 -1.139469,-1.024115 -1.965428,-1.410899 -1.923123,-1.459807 0.570248,-0.659257 7.169729,2.76357 6.452486,4.319114 -0.108903,0.236185 -3.167962,0.0019 -3.526052,-0.267012 z"
       id="path277"
       sodipodi:nodetypes="ssssss" /><path
       style="fill:#b3c2c6;fill-opacity:1;stroke:#000000;stroke-width:0.189286"
       d="m -27.47918,-17.947881 c -0.276878,-3.20353 2.260957,-8.953357 4.329337,-12.005514 1.054058,-1.555395 1.450827,-2.417098 1.487485,-2.965847 0.07741,-1.158917 0.128969,-1.033896 0.605989,-0.831955 0.111688,0.04728 0.165727,-0.626544 0.380275,-1.160841 0.555471,-1.383316 0.876472,-1.15516 1.266994,-0.912 0.331229,0.206242 0.126614,3.365333 -0.199303,4.884975 -0.308297,1.43754 -1.745427,4.319641 -3.416442,6.518336 -1.914787,2.519447 -2.565641,4.162086 -2.868539,6.14943 -0.224292,1.471618 -0.29365,4.670601 -0.286264,5.1858 0.03492,2.436124 -0.959018,0.281108 -0.878932,0.0041 z"
       id="path278"
       sodipodi:nodetypes="sssssssssscs" /><path
       style="fill:#97dfe7;fill-opacity:1;stroke:#000000;stroke-width:0.0946428"
       d="m -37.041263,-9.7531641 c -4.225475,-0.220713 -4.984817,-0.5701769 -8.71708,-1.4614969 -3.493156,-0.834218 -5.714021,-2.23869 -6.185759,-3.670792 -0.238731,-0.724734 -0.288888,-1.737985 0.04884,-2.248321 0.298173,-0.45057 1.096325,-1.131895 1.837447,-1.489935 0.622112,-0.300548 3.08941,-0.996082 5.126302,-1.351563 0.805561,-0.140586 2.111944,-0.324088 2.527715,-0.465529 2.465187,-0.838618 5.412095,-3.384492 6.278031,-5.599467 0.339945,-0.869545 0.428964,-1.96301 0.114067,-2.765616 -0.242279,-0.617513 -0.98511,-1.411147 -1.439553,-1.489326 l -0.337968,-0.05814 0.740143,-0.607446 c 0.390927,-0.320842 1.58823,-1.668667 2.393794,-2.388246 3.636526,-3.248387 5.220946,-3.780351 6.734384,-4.105333 1.015706,-0.218101 1.187357,-0.2272 1.880335,-0.08391 1.635599,0.338203 2.786478,1.010935 3.525033,1.972278 0.77388,1.007327 0.889217,1.588436 0.882579,2.294125 -0.0071,0.754864 -0.244716,1.338165 -1.408748,3.129177 -1.323633,2.036583 -2.710246,4.790723 -3.322142,6.664515 -0.170149,0.521039 -0.612003,1.530845 -0.808665,2.388378 -0.344157,1.500693 -0.341588,1.948487 -0.205915,3.945126 0.173866,2.558745 0.343139,3.946015 0.557492,4.544244 0.170871,0.476875 0.151042,0.494638 0.376167,0.505915 0.176923,0.0089 0.223679,-0.346381 0.222863,-0.54838 -9.23e-4,-0.228492 0.03791,-1.723655 0.09743,-2.659147 0.162978,-2.561387 0.741804,-5.128059 1.38975,-6.361102 0.400905,-0.762926 1.904074,-2.971721 3.000061,-4.505714 0.738274,-1.033325 1.67146,-3.015729 2.099672,-4.286861 0.264443,-0.784985 0.463103,-2.502834 0.538062,-3.804608 l -0.09257,-1.358765 0.511709,-0.262128 c 0.243348,-0.124656 0.346345,-0.397828 0.346345,-0.448191 0,-0.243036 0.443061,0.06456 0.599168,0.546912 0.256944,0.793933 0.262215,1.6207 -0.09544,3.377033 -0.500046,2.455572 -0.874958,4.2114 -1.421018,5.488123 -0.696609,1.628722 -1.136415,2.685507 -0.861558,3.794781 0.800158,3.229314 0.605933,2.56195 1.469224,3.574759 0.806333,0.945988 2.114752,1.423816 2.9017,1.853627 0.674499,0.368395 0.880246,0.713226 0.968289,0.810511 0.397279,0.438989 0.159228,1.169344 -0.330206,2.215241 -0.403114,0.861433 -1.024583,1.629506 -1.821958,2.212253 -0.976708,0.71381 -2.0162,1.117838 -5.027746,1.859709 -3.032183,0.7469559 -3.57927,0.9102739 -8.593807,1.0109529 -2.454802,0.04929 -2.185003,0.05756 -3.330914,-0.0023 z"
       id="path279"
       sodipodi:nodetypes="sssssssssscsssssssssssssssssscsssssssssssssss" /><path
       style="fill:#e6f4f5;fill-opacity:1;stroke:#000000;stroke-width:0.0946428"
       d="m -35.978205,-8.3202941 c -4.514948,-0.169305 -7.878757,-0.777534 -10.929292,-1.7545289 -1.740109,-0.557305 -3.893825,-1.66156 -4.890857,-2.416336 -0.81243,-0.615032 -1.190075,-1.935044 -1.012201,-3.22048 0.109906,-0.794268 0.690685,-1.757455 0.694616,-1.166714 0.0067,1.008091 0.281051,2.796381 1.154539,3.48652 0.767458,0.606367 2.614501,1.496359 3.903765,1.881018 1.899055,0.566592 6.364036,1.371926 8.126489,1.5658839 3.231918,0.355671 5.301078,0.478726 8.150112,0.418645 4.68264,-0.09875 5.640837,-0.284168 8.3391,-0.9378929 3.869809,-0.937561 4.941345,-1.228926 6.286518,-2.681874 0.766387,-0.827789 1.677136,-3.061437 1.320272,-3.762397 l -0.273612,-0.537435 0.724925,0.590589 c 0.763193,0.621766 0.729453,2.086066 0.450434,2.811625 -0.705115,1.833584 -3.692197,4.2332749 -7.587221,5.0854109 -2.211752,0.483878 -4.386961,0.720788 -9.543899,0.743201 -2.624571,0.0114 -2.711717,-0.02267 -3.023809,-0.03437 z"
       id="path280"
       sodipodi:nodetypes="sssssssssssscssssss" /><path
       style="fill:#e6f4f5;fill-opacity:1;stroke:#000000;stroke-width:0.0946428"
       d="m -36.994017,-6.6959091 c -1.311635,-0.08223 -3.640426,-0.380383 -4.98456,-0.574741 -3.132007,-0.452879 -5.2447,-0.955984 -7.501813,-2.068253 -1.182804,-0.582867 -1.660914,-0.8522179 -2.253353,-1.4385239 -0.690684,-0.683532 -1.054354,-1.249563 -0.946285,-1.933403 l 0.09449,-0.597955 0.590587,0.596241 c 1.350737,1.363665 3.914952,2.399744 7.177114,3.2299899 3.558233,0.9056 7.484409,1.311284 13.658823,1.313056 6.80135,-0.187088 9.935588,-0.506938 13.289171,-2.1370489 1.295032,-0.629491 2.282689,-1.476 2.857846,-2.154445 l 0.672923,-0.793769 0.04725,1.024118 c 0.06967,1.509962 -1.544285,2.8518039 -4.710789,4.2198689 -1.058561,0.457343 -3.794311,1.056201 -10.21927,1.354561 -1.847882,0.08581 -6.607979,0.0333 -7.772135,-0.0397 z"
       id="path281"
       sodipodi:nodetypes="ssssscsscsscsssss" /><path
       style="fill:#9abfc3;fill-opacity:1;stroke:#000000;stroke-width:0.0946428"
       d="m -25.879157,-43.301526 c -2.387116,-1.006805 -6.170991,-2.380882 -8.128156,-2.695823 -0.497311,-0.08002 -1.095783,-0.06541 -1.113391,-0.08302 -0.01762,-0.01762 -0.01958,-0.170445 0.09668,-0.440696 0.244697,-0.568812 1.202105,-1.485508 2.258613,-2.124215 0.638945,-0.38627 1.815115,-0.385524 3.477204,-0.331512 1.527413,0.04964 2.278303,0.374385 3.270284,0.914289 0.567296,0.30876 1.353984,1.230905 1.671418,1.855914 0.315415,0.621038 0.404175,1.850165 0.17044,2.508726 -0.09296,0.261911 -0.431091,0.909413 -0.510104,0.912202 -0.23151,0.0082 -0.855176,-0.373386 -1.19299,-0.515864 z"
       id="path282"
       sodipodi:nodetypes="sssssssssss" /><path
       style="fill:#9abfc3;fill-opacity:1;stroke:#000000;stroke-width:0.0946428"
       d="m -20.368244,-44.791402 c -0.116448,-0.332582 -1.373902,-1.598851 -2.203434,-2.150325 -1.668068,-1.108929 -4.151093,-1.667629 -6.189546,-1.979655 -2.478365,-0.379362 -6.625312,0.210514 -8.633489,1.002062 -0.631528,0.248925 -1.428514,0.694333 -1.98528,1.116989 l -0.295293,0.224166 -1.546678,-0.05977 -1.593926,-7.94e-4 0.473617,-0.550492 c 0.803138,-0.933495 2.396368,-1.500179 4.114157,-2.072219 2.594848,-0.864105 4.695018,-1.218784 7.869904,-1.096515 2.361084,0.09093 3.223527,0.306273 5.97915,1.329219 1.483661,0.550767 2.202166,0.96362 3.225329,1.707041 1.146828,0.833276 1.642078,1.427999 1.800479,2.162252 0.07098,0.329017 -0.08513,0.536985 -0.514036,0.628888 -0.264567,0.05669 -0.340995,0.195993 -0.418271,-0.02471 z"
       id="path283"
       sodipodi:nodetypes="ssssscccsssssssss" /><path
       style="fill:#648c91;fill-opacity:1;stroke:#000000;stroke-width:0.0334613"
       d="m -34.843177,-60.073445 c -0.136356,-0.03311 -0.251481,-0.04217 -0.480915,0.01834 -0.109466,0.02886 -0.371395,0.158404 -0.433498,0.122862 -0.121105,-0.0693 0.29115,-0.561337 0.430683,-0.663987 0.208026,-0.153035 0.365535,-0.214588 0.644636,-0.319307 0,0 0.250974,-0.25123 0.390531,-0.204986 0.145071,0.04807 0.198387,0.413345 0.198387,0.413345 0.0658,0.137096 -0.03826,0.802187 -0.103463,0.834863 -0.03903,0.01955 -0.424227,-0.147166 -0.500192,-0.165615 z"
       id="path284"
       sodipodi:nodetypes="sssssassss" /><path
       style="fill:#e6f4f5;fill-opacity:1;stroke:#000000;stroke-width:0.0473215"
       d="m -25.255624,-43.087327 c -1.419077,-0.69551 -5.165019,-2.069211 -7.084563,-2.598031 -0.809368,-0.222975 -1.756849,-0.421587 -2.013934,-0.422164 -0.40476,-7.94e-4 -0.679146,-0.05692 -0.679146,-0.138634 0,-0.562131 1.802794,-2.221074 2.722303,-2.50508 1.13892,-0.351777 4.221284,-0.170024 5.355455,0.315788 0.813793,0.348581 1.084337,0.523589 1.586524,1.026292 0.503597,0.504116 0.870098,1.009084 1.024488,1.41155 0.206875,0.539284 0.282882,1.430613 0.169947,1.992955 -0.05655,0.281578 -0.447889,1.113325 -0.537731,1.142881 -0.02736,0.009 -0.27186,-0.0925 -0.543343,-0.225557 z"
       id="path285" /></g></svg>
