<?xml version="1.0" encoding="UTF-8" standalone="no"?>
<!-- Created with Inkscape (http://www.inkscape.org/) -->

<svg
   width="44.63401mm"
   height="62.006531mm"
   viewBox="0 0 44.63401 62.006531"
   version="1.1"
   id="svg1"
   xml:space="preserve"
   inkscape:version="1.4.3 (0d15f75, 2025-12-25)"
   sodipodi:docname="рисунок1.svg"
   xmlns:inkscape="http://www.inkscape.org/namespaces/inkscape"
   xmlns:sodipodi="http://sodipodi.sourceforge.net/DTD/sodipodi-0.dtd"
   xmlns="http://www.w3.org/2000/svg"
   xmlns:svg="http://www.w3.org/2000/svg"
   xmlns:rdf="http://www.w3.org/1999/02/22-rdf-syntax-ns#"
   xmlns:cc="http://creativecommons.org/ns#"
   xmlns:dc="http://purl.org/dc/elements/1.1/"><defs
     id="defs1" /><sodipodi:namedview
     id="base"
     pagecolor="#ffffff"
     bordercolor="#000000"
     borderopacity="0.3"
     inkscape:pageopacity="0.0"
     inkscape:pageshadow="2"
     inkscape:zoom="0.35"
     inkscape:cx="537.14285"
     inkscape:cy="-195.71428"
     inkscape:document-units="mm"
     inkscape:showpageshadow="2"
     inkscape:pagecheckerboard="0"
     inkscape:deskcolor="#d1d1d1"
     inkscape:window-width="1920"
     inkscape:window-height="1009"
     inkscape:window-x="-8"
     inkscape:window-y="-8"
     inkscape:window-maximized="1"
     inkscape:current-layer="svg1"><inkscape:page
       x="0"
       y="0"
       width="44.63401"
       height="62.006531"
       id="page5"
       margin="0"
       bleed="0" /></sodipodi:namedview><metadata
     id="metadata1"><rdf:RDF><cc:Work
         rdf:about=""><dc:format>image/svg+xml</dc:format><dc:type
           rdf:resource="http://purl.org/dc/dcmitype/StillImage" /></cc:Work></rdf:RDF></metadata><g
     id="g5"
     transform="translate(-55.324782,64.411956)"><path
       style="fill:#36778f;fill-opacity:1;stroke:#000000;stroke-width:0.264999"
       d="m 88.377471,-35.822936 c 0.33073,-0.141742 1.03998,-0.462828 1.37017,-0.897694 0.21988,-0.289578 0.0888,-0.768008 0.33073,-1.039434 0.22982,-0.257846 0.68755,-0.194892 0.94494,-0.425223 0.2999,-0.268372 0.54338,-0.64327 0.61421,-1.039436 0.062,-0.346661 0.0235,-0.758577 -0.18899,-1.039435 -0.51839,-0.685318 -1.66065,-0.577088 -2.31511,-1.133927 -0.35278,-0.300155 -0.66446,-0.692002 -0.80319,-1.133929 -0.59436,-1.893337 0.55176,-4.033904 0.0472,-5.953125 -0.33724,-1.28279 -0.99194,-2.569057 -1.98437,-3.449033 -1.11406,-0.987817 -1.31089,-1.331471 -4.11049,-1.748139 -0.47377,-0.07051 -0.99644,-0.0077 -1.41741,-0.236238 -1.33236,-0.72324 -2.42833,-1.981528 -3.07106,-3.354539 -0.24929,-0.532549 -0.21652,-1.160461 -0.23624,-1.74814 -0.0162,-0.482515 0.0973,-1.445087 0.0973,-1.445087 0,0 -1.672,0.757261 -2.26597,1.703267 -0.31999,0.509637 -0.60587,0.954248 -0.7607,1.48996 -0.1449,0.501341 -0.15511,1.037463 -0.14174,1.559152 0.02,0.77928 0.0632,1.582896 0.33073,2.315104 0.20392,0.558222 0.75595,1.322916 0.94494,1.511904"
       id="path47-7-6"
       sodipodi:nodetypes="caaaaaaaaasaaacsaaac" /><path
       style="fill:#36778f;fill-opacity:1;stroke:#000000;stroke-width:0.264999"
       d="m 74.581341,-57.03685 c 0,0 -1.32292,1.133929 -1.46466,1.74814 -0.14174,0.614211 -0.28348,1.937128 0.0472,2.69308 0.33073,0.755953 0.99219,1.417411 0.99219,1.417411"
       id="path48-9-1" /><path
       style="fill:#36778f;fill-opacity:1;stroke:#000000;stroke-width:0.264999"
       d="m 75.101061,-49.09935 c 0,0 -0.77725,1.91717 -0.8032,2.929316 -0.0376,1.466882 0.10012,3.099711 0.94494,4.299478 0.63147,0.896773 1.74848,1.39709 2.78757,1.748141 1.63317,0.551755 3.44693,0.205148 5.14993,0.472469 1.35511,0.212713 2.87989,0.129049 4.016,0.897694 0.55357,0.374521 0.93607,1.015244 1.13393,1.653646 0.11656,0.376077 0.10976,0.803059 0,1.181174 -0.11679,0.402301 -0.28793,0.896269 -0.67293,1.061381 -0.60897,0.261165 -1.40635,-0.0072 -1.94999,-0.386082 -0.65576,-0.45698 -0.72934,-1.440171 -1.25134,-2.045462 -0.73747,-0.855139 -1.60745,-1.63228 -2.59859,-2.173362 -0.28965,-0.158126 -0.94494,-0.295295 -0.94494,-0.295295"
       id="path49-3-4"
       sodipodi:nodetypes="caaaaaaaaaaac" /><path
       style="fill:#f00033;fill-opacity:0;stroke:#000000;stroke-width:0.264999"
       d="m 73.069441,-52.501136 c -0.28348,0.188988 -3.25104,2.85269 -4.34673,4.677455 -1.16658,1.942829 -1.98279,4.171948 -2.22061,6.425596 -0.21648,2.051428 -0.0323,4.235831 0.75595,6.142112 0.7933,1.91852 2.49251,3.323359 3.82701,4.91369 0.84578,1.007923 1.9476,1.81409 2.64583,2.929314 0.42368,0.67671 0.97751,1.42621 0.8977,2.22061 -0.1227,1.22127 -1.06714,2.3119 -2.03162,3.07106 -1.52444,1.19991 -3.57248,1.58934 -5.47255,1.98102 -1.84142,0.37958 -3.62575,0.38433 -5.63051,0.33408 -0.37423,-0.009 -0.72704,-0.38738 -1.08668,-0.28348 -0.33183,0.0959 -0.58672,0.43281 -0.7087,0.75596 -0.35614,0.94344 -0.24763,2.07519 0.0945,3.0238 0.24369,0.67567 1.0116,1.0536 1.32292,1.7009 0.1755,0.36489 0.10291,0.81876 0.28348,1.18117 0.15467,0.31044 0.38578,0.59273 0.66146,0.8032 0.9469,0.72292 2.11476,1.1367 3.26004,1.46466 4.37026,1.2514296 8.96737,1.9179996 13.51265,1.8426296 3.65795,-0.0606 7.35239,-0.67519 10.81957,-1.8426296 0.77441,-0.26075 1.5567,-0.5978 2.17336,-1.13393 1.19777,-1.04136 2.17317,-2.40278 2.76801,-3.87426 0.53709,-1.32861 0.64436,-2.8192 0.63378,-4.25223 -0.008,-1.06928 -0.0662,-2.19717 -0.51972,-3.16555 -0.78607,-1.67849 -2.2381,-2.9903 -3.63802,-4.20498 -1.62671,-1.411471 -3.75684,-2.144418 -5.43341,-3.496285 -1.61245,-1.300167 -3.12071,-2.760188 -4.39397,-4.393972 -0.92477,-1.186624 -1.91482,-2.424063 -2.3151,-3.874257 -0.0377,-0.136632 0,-0.425222 0,-0.425222"
       id="path50-1-2"
       sodipodi:nodetypes="caaaaaaaasaaaaaaaaaaaaaaaaac" /><path
       style="fill:#e6f4f5;fill-opacity:1;stroke:#000000;stroke-width:0.264999"
       d="m 61.988831,-12.624729 c 0,0 -0.40446,1.25412 0,1.60362 1.34508,1.1622696 3.31759,1.6514796 5.08287,2.1853996 2.98949,0.9042 6.09587,1.55168 9.21605,1.69001 2.88272,0.12779 5.79365,-0.21759 8.61944,-0.80181 2.04165,-0.42211 3.79226,-1.0066 5.30892,-1.77234 0.67482,-0.3407096 1.11735,-0.4699396 1.32152,-0.9786396 0.15849,-0.39487 -0.21597,-1.25807 -0.21597,-1.25807"
       id="path51-9-3"
       sodipodi:nodetypes="csaassac" /><path
       style="fill:#e6f4f5;fill-opacity:1;stroke:#000000;stroke-width:0.264999"
       d="m 62.202621,-10.782019 c 0,0 -0.17599,1.6293196 0.23623,2.2678596 0.712,1.1029 2.15385,1.58563 3.40179,1.98438 2.37274,0.75814 4.97781,1.14287 7.60677,1.37016 3.07603,0.26594 5.30464,-0.0394 9.49666,-0.33073 2.45265,-0.17047 4.76318,-0.52261 7.37053,-1.55915 0.54169,-0.21535 1.15518,-0.54485 1.37017,-1.08668 0.28175,-0.71009 -0.33073,-2.2678596 -0.33073,-2.2678596"
       id="path52-8-2"
       sodipodi:nodetypes="cassssac" /><path
       style="fill:#36778f;fill-opacity:1;stroke:#000000;stroke-width:0.264999"
       d="m 85.164681,-44.563636 c 0.20682,0.15909 0.15026,-0.530998 0.0709,-0.779575 -0.15453,-0.484134 -0.73435,-0.719627 -0.99219,-1.157553 -0.29834,-0.506704 -0.20468,-1.2317 -0.61421,-1.653646 -0.40839,-0.420773 -1.06475,-0.505578 -1.63003,-0.661458 -0.49923,-0.137666 -1.01845,-0.264791 -1.53552,-0.236235 -0.10585,0.0058 -0.30711,0.08268 -0.30711,0.08268 0,0 0.92147,0.641838 1.29929,1.051247 0.49178,0.532897 0.69241,1.307011 1.22843,1.795386 0.4195,0.382213 1.01094,0.519876 1.48828,0.826823 0.34575,0.22233 0.76633,0.578101 0.99219,0.732329 1e-5,9e-6 -0.15359,-0.118105 -5e-5,0 z"
       id="path53-6-2"
       sodipodi:nodetypes="saaaaacaaass" /><path
       style="fill:#f00033;fill-opacity:0;stroke:#000000;stroke-width:0.264999"
       d="m 73.683651,-51.603442 c 0,0 -2.30148,2.574516 -2.88207,4.157738 -0.95337,2.599755 -1.38797,5.56163 -0.8032,8.26823 0.50658,2.344716 1.86726,4.568126 3.59077,6.236605 1.92362,1.8622 4.62157,2.735982 7.08706,3.779763 1.27963,0.541738 2.75484,0.599393 3.96875,1.275667 1.46392,0.81557 3.09008,1.75501 3.82701,3.26005 0.76261,1.5575 0.73069,3.53498 0.23623,5.19717 -0.45363,1.52492 -1.6,2.81557 -2.78757,3.87426 -1.73673,1.54824 -3.94234,2.51866 -6.09487,3.40178 -2.29769,0.94268 -4.73473,1.55877 -7.18155,1.98438 -0.76919,0.13379 -2.33566,0.1751496 -2.33566,0.1751496"
       id="path54-5-1"
       sodipodi:nodetypes="caaaaaaaaaac" /><path
       style="fill:#f00033;fill-opacity:0;stroke:#000000;stroke-width:0.264999"
       d="m 72.266241,-51.792431 c -0.14174,0.188989 -2.5041,3.165551 -3.16555,4.630209 -0.66146,1.464658 -1.34492,5.187149 -0.8977,7.748512 0.46883,2.685093 1.71738,5.389211 3.63802,7.323288 2.2631,2.278928 6.00038,3.638021 8.59896,4.346723 2.59859,0.70871 4.53542,1.19713 5.76414,2.97657 1.01788,1.47409 1.20739,3.6486 0.61421,5.33891 -0.88871,2.53244 -3.3848,4.34132 -5.71689,5.66964 -2.50268,1.42549 -5.52468,1.68254 -8.36272,2.17337 -2.25899,0.39068 -6.85082,0.6061 -6.85082,0.6061"
       id="path55-0-6"
       sodipodi:nodetypes="csaasaaaac" /><path
       style="fill:#36778f;fill-opacity:1;stroke:#000000;stroke-width:0.264999"
       d="m 88.093991,-49.760808 c 0,0 1.98438,-2.22061 2.59859,-2.976563 0.61421,-0.755952 1.27567,-2.315104 1.37016,-2.740327 0.0945,-0.425223 -0.18899,-0.8032 -0.56697,-0.850447 -0.37797,-0.04725 -0.75595,0.141741 -1.08668,0 -0.33072,-0.141741 -0.85044,-0.94494 -1.79538,-1.464657 -0.94494,-0.519718 -1.32292,-0.661459 -1.6064,-0.566965 -0.28348,0.09449 -0.70871,0.283482 -1.08668,0.755953 -0.37798,0.47247 -0.66146,1.842634 -0.66146,1.842634 0,0 0.51972,-2.645834 0.51972,-2.834822 0,-0.188988 -1.18118,-0.850446 -1.74814,-0.94494 -0.56697,-0.09449 -2.03163,-0.755953 -2.22061,-0.425224 -0.18899,0.33073 -0.0945,0.472471 -0.51972,1.133929 -0.42522,0.661458 -0.56696,1.795387 -0.56696,1.795387 0,0 -0.18899,-2.504092 -0.0472,-2.882068 0.14174,-0.377977 -1.37017,-0.519718 -1.74814,-0.283483 -0.37798,0.236235 -0.66146,0.614212 -0.94494,0.661459 -0.28349,0.04725 -0.34695,0.06108 -0.34695,0.06108"
       id="path45-2-8"
       sodipodi:nodetypes="cssssssscssssccssc" /><path
       style="fill:#36778f;fill-opacity:1;stroke:#000000;stroke-width:0.264999"
       d="m 75.715271,-59.304707 c 0,0 -2.97656,0.47247 -3.87426,0.850446 -0.89769,0.377976 -1.13393,0.519718 -1.13393,0.519718 0,0 0.37561,1.208852 0.61184,1.823064 0.23624,0.614211 0.19137,0.870016 0.19137,0.870016 0,0 -1.02798,-1.103877 -1.40595,-1.529101 -0.37798,-0.425223 -0.62568,-0.408027 -0.62568,-0.408027 0,0 -0.85175,0.354004 -1.22842,0.614211 -0.68774,0.475099 -1.80777,0.865736 -1.84263,1.700893 -0.0107,0.256151 0.35845,0.367662 0.51971,0.566964 0.71745,0.886675 1.98438,2.787575 1.98438,2.787575 0,0 -1.96302,-2.175859 -3.30729,-2.456845 -0.20567,-0.04299 -0.44441,0.01797 -0.61421,0.141741 -0.84468,0.615711 -1.41741,2.456845 -1.6064,2.69308 -0.18899,0.236235 -1.12771,1.752888 -1.2222,1.989123 -0.0945,0.236235 0.19422,0.595133 0.66669,0.736874 0.47247,0.141742 2.77612,1.195506 3.29583,1.573482 0.51972,0.377976 1.62459,0.725409 1.62459,0.725409 l -6.32498,-2.084601 2.67352,1.72333 c 0,0 -2.45873,-0.860927 -2.74221,-0.624692 -0.28348,0.236235 -0.53879,1.513788 -0.63329,1.844517 -0.0945,0.330729 0.2052,0.636647 0.67767,0.872882 0.47247,0.236235 1.46466,0.566965 1.46466,0.566965 0,0 -2.17336,-0.188989 -2.69308,0.04725 -0.51972,0.236236 -0.70871,1.039435 -0.56696,1.653646 0.14174,0.614212 4.86406,0.458633 4.86406,0.458633 l -5.00581,0.439061 c 0,0 -0.0472,0.330729 0,0.992186 0.0472,0.661458 0.33073,2.031624 0.61421,2.078871 0.28349,0.04725 1.18118,0.14174 1.93713,-0.04725 0.75595,-0.188989 3.07106,-0.94494 3.07106,-0.94494 0,0 -4.25223,1.889879 -4.58296,2.031621 -0.33073,0.14174 -0.70297,1.155874 -0.0888,1.34486 0.61421,0.18899 4.76621,-2.289801 4.76621,-2.289801 l -4.81919,3.071056 c 0,0 0.56696,3.118305 1.27567,3.401788 0.7087,0.283479 0.99218,0.09449 1.88988,-0.141743 0.89769,-0.236236 4.64503,-2.082226 4.64503,-2.082226 0,0 -4.69228,3.310649 -5.1175,3.688625 -0.42523,0.377976 -1.00603,0.316892 -0.0138,0.411385 0.99219,0.09449 1.95097,0.06108 2.37619,-0.222396 0.42522,-0.283482 3.55499,-2.812876 3.55499,-2.812876"
       id="path46-8-5"
       sodipodi:nodetypes="cscscscaaacaasssscccssscssccssscssccsscsssc" /><path
       style="fill:#b3c2c6;fill-opacity:1;stroke:#000000;stroke-width:0.189286"
       d="m 73.101851,-9.5720594 c -5.8614,-0.347708 -0.4024,-0.298519 1.77156,-0.8284106 3.27736,-0.798838 9.24621,-3.524363 12.2173,-5.994958 0.94709,-0.787551 2.11576,-2.807758 2.19462,-4.834601 0.0452,-1.161365 -0.34822,-3.418764 -1.30816,-4.540237 -1.01156,-1.181788 -3.20481,-2.438204 -5.34902,-3.064224 -2.31694,-0.676453 -5.51987,-2.005611 -7.00069,-2.905162 -3.39351,-2.061449 -5.87415,-6.60444 -5.87507,-10.546739 -5.3e-4,-1.801466 0.28787,-4.179094 1.117,-5.484167 1.17872,-1.85534 2.9362,-3.794146 2.68728,-3.535643 -1.36727,1.419905 0.38907,0.04594 -0.0548,-0.659852 -0.54014,-0.858888 -0.62503,-1.328828 -0.67695,-2.281862 -0.0565,-1.036743 -0.0894,-1.477701 0.88896,-2.093174 l 0.7343,-0.46195 -0.0136,1.512404 c -0.016,1.773801 0.4726,3.121136 1.36788,3.529237 0.13369,0.06094 -0.76522,-0.315492 -0.93466,-0.840925 -0.51307,-1.591112 -0.43499,-3.200929 -0.24921,-4.431768 0.16004,-1.060334 1.0973,-2.2736 1.97936,-2.795638 l 1.01581,-0.601202 0.0278,1.270603 c 0.028,1.279245 0.47076,2.454468 1.44398,3.642148 0.97221,1.186456 1.37953,1.101522 3.46227,1.668836 1.02196,0.278371 2.2985,0.807384 2.65586,1.028245 1.27982,0.790969 2.49632,2.352312 3.06536,4.109937 0.19495,0.602149 0.32557,1.000122 0.13351,2.723322 -0.1307,1.172551 -0.25188,2.75264 -0.18267,3.121519 0.18213,0.970849 1.59807,1.59148 2.52851,2.130555 1.47393,0.853958 0.85069,2.119524 -0.56875,2.957012 -0.36006,0.212437 -0.26215,0.606862 -0.33103,0.833186 -0.13761,0.4522 -1.18148,1.07296 -1.39988,1.07296 -0.0763,0 0.0414,-0.854625 -0.0273,-1.22065 -0.14461,-0.77085 -0.9041,-1.449372 -1.60641,-1.71682 -0.91915,-0.350023 -2.40743,-0.610339 -5.2325,-0.774806 -3.30363,-0.192328 -4.63999,-0.951344 -5.74312,-2.054471 -1.25102,-1.251024 -1.90655,-3.792392 -1.25387,-6.171417 0.22378,-0.815697 0.6205,-1.315 0.55486,-1.335098 -0.17025,-0.05213 -0.94173,2.107515 -0.83454,4.14977 0.14598,2.781252 2.29138,4.67996 4.66578,5.050189 0.7617,0.118766 -0.33791,0.296217 0.0612,1.25907 0.57731,1.392849 2.39655,3.519086 4.37291,5.473324 1.61778,1.599682 3.02161,2.59733 5.45286,3.993711 2.38646,1.370658 4.74379,3.583985 5.68327,5.435042 0.70935,1.397643 0.87845,5.550109 0.1318,7.510076 -0.55236,1.449943 -2.07364,3.568086 -3.21416,4.331607 -1.519,1.0169 -4.94147,2.1982136 -8.88612,2.6278996 -1.70488,0.185709 -4.53057,0.03623 -6.51894,-0.08173 z m 12.15445,-35.3459546 c 0,-0.423841 -0.34395,-0.929857 -0.6584,-1.225269 -0.25647,-0.240935 -0.35074,-0.727596 -0.51575,-1.224383 -0.165,-0.49679 -0.49929,-0.928804 -0.69611,-1.070968 -0.77942,-0.56298 -3.24753,-1.007961 -3.48561,-0.622747 -0.0539,0.08718 0.39872,0.299958 0.79139,0.595334 0.39269,0.295373 0.99599,0.808919 1.38543,1.279652 0.34549,0.417624 0.49808,0.558723 1.58818,1.099585 0.32276,0.160141 0.71759,0.676896 0.93821,0.989031 0.66619,0.942517 0.65266,0.939916 0.65266,0.179765 z"
       id="path161-3"
       sodipodi:nodetypes="ssssssscssssscssssscssssssssssssssssssssssssssssssssssssss" /><path
       style="fill:#66cae5;fill-opacity:1;stroke:#000000;stroke-width:0.189286"
       d="m 64.476861,-11.362018 c -2.19035,-0.780146 -3.18697,-1.862376 -3.18697,-2.790952 0,-0.23952 -0.57273,-0.847905 -0.984,-1.323097 -0.82117,-0.948788 -0.93418,-1.786284 -0.78294,-3.128068 0.11202,-0.993868 0.76416,-1.748163 1.30816,-1.457021 0.81665,0.437057 5.36807,0.230981 8.09868,-0.461396 2.98179,-0.75606 4.95978,-2.064073 5.49341,-3.845176 0.46065,-1.53751 0.17344,-2.067677 -3.32853,-5.841426 -1.28574,-1.385525 -2.79294,-2.84879 -3.11444,-3.291808 -1.98736,-2.738562 -2.05954,-7.799086 -0.88605,-11.238709 0.49156,-1.440839 3.57972,-5.71781 3.39427,-4.891283 -1.44221,6.42788 -2.33426,14.162513 1.3616,17.816287 1.68065,1.661512 4.83501,3.248948 8.57174,4.313732 4.08178,1.163106 5.16919,1.835888 6.00434,3.714877 1.55027,3.487923 -0.34567,7.563493 -5.43423,10.221923 -2.13231,1.113991 -6.16079,1.920801 -11.24479,2.354728 -2.85063,0.243303 -4.14433,0.248412 -5.27025,-0.152611 z"
       id="path162-4"
       sodipodi:nodetypes="sssssssssssssssss" /><path
       style="fill:#00d5ee;fill-opacity:1;stroke:#000000;stroke-width:0.189286"
       d="m 68.825791,-10.307662 c -0.51971,-0.133588 -3.63521,-0.701839 -3.5163,-0.714187 0.11892,-0.01236 3.79001,0.0786 4.86644,-0.02887 2.89248,-0.288803 7.44798,-1.084802 8.91098,-1.606193 3.20109,-1.140817 6.2092,-4.229962 7.4239,-6.147728 0.22473,-0.354796 0.3888,-0.784503 0.41045,-1.736305 0.0853,-3.750212 -1.25083,-5.644909 -6.23646,-7.038916 -4.45075,-1.244452 -7.24863,-2.700269 -9.16533,-4.792012 -1.25481,-1.369412 -2.28429,-3.926853 -2.81593,-5.886707 -0.66377,-2.44693 -0.29859,-6.915112 0.73367,-8.976934 0.46272,-0.924234 2.88518,-4.714811 3.40546,-5.181708 0.33845,-0.303718 0.72037,0.566457 0.82402,0.836546 0.0736,0.19168 -0.28445,0.356526 -0.88044,1.134108 -2.20873,2.881743 -2.94322,4.472246 -2.93922,8.502721 0.002,2.375249 0.48595,3.163843 0.86344,4.228608 0.93361,2.633443 3.10046,4.951254 5.31839,6.19888 1.52907,0.860137 4.64725,2.148772 6.63308,2.724349 2.99836,0.869048 5.44405,2.706891 6.16442,4.430982 0.67699,1.620277 0.5333,4.388165 -0.40452,6.129232 -0.27118,0.503452 -1.44253,1.754491 -2.25652,2.520235 -1.20487,1.133457 -2.07426,1.697781 -3.95272,2.621992 -5.12262,2.520352 -10.4491,3.5370236 -13.38681,2.781911 z"
       id="path163-1"
       sodipodi:nodetypes="ssssssssssssssssssssss" /><path
       style="fill:#00d5ee;fill-opacity:1;stroke:#000000;stroke-width:0.189286"
       d="m 84.629141,-45.146159 c -0.0655,-0.10592 -0.6339,-0.629173 -1.12028,-0.876953 -0.52924,-0.269624 -0.93581,-0.579221 -1.14951,-0.957805 -0.19639,-0.347916 -0.62161,-0.918755 -0.94494,-1.268526 -0.47668,-0.515668 -1.21796,-0.749729 -0.91148,-0.664602 0.20789,0.05774 1.57987,0.130715 2.01783,0.243827 0.80498,0.207904 1.52742,1.112401 1.52742,1.695349 0,0.174927 0.1966,0.486125 0.54453,0.934366 0.42227,0.544018 0.41476,0.516067 0.54453,1.336048 0.0314,0.198181 -0.39354,-0.256329 -0.5081,-0.441704 z"
       id="path164-1"
       sodipodi:nodetypes="ssssssssss" /><path
       style="fill:#e6f4f5;fill-opacity:1;stroke:#000000;stroke-width:0.189286"
       d="m 75.156901,-7.4540754 c -2.22935,-0.196093 -3.68901,-0.462635 -6.33111,-1.156097 -4.64649,-1.219549 -7.05413,-2.0466206 -7.05413,-2.9684606 0,-0.307882 0.18269,-0.987917 0.33646,-0.9202 2.61302,1.15071 5.06306,2.27924 8.91347,2.7587626 2.14453,0.267076 2.9624,0.478719 7.06462,0.478872 4.54946,1.7e-4 4.95671,-0.02913 7.27604,-0.523504 1.35127,-0.2880276 3.15532,-0.7548826 3.77045,-1.0138116 1.3137,-0.552974 1.95371,-0.897927 2.24572,-0.840917 0.33564,0.06553 0.18664,0.642368 0.15342,0.876239 -0.046,0.323543 -0.84642,1.0664266 -2.51871,1.7535756 -2.36457,0.971608 -9.23356,1.962153 -13.85623,1.555541 z"
       id="path166-3"
       sodipodi:nodetypes="ssssssssssss" /><path
       style="fill:#e6f4f5;fill-opacity:1;stroke:#000000;stroke-width:0.189286"
       d="m 71.272161,-5.3454334 c -2.30264,-0.268777 -5.71059,-1.294503 -6.97322,-1.837674 -1.27356,-0.547873 -2.09919,-1.657144 -2.09919,-2.533878 0,-0.3601846 -0.28607,-1.3858766 0.38475,-0.8386276 0.34644,0.282619 0.32736,0.157818 0.82888,0.411958 1.89216,0.9588236 7.5356,2.2579516 11.06536,2.6637406 4.68513,0.538612 11.58971,-0.277307 15.44584,-2.048682 0.76823,-0.352896 1.22327,-0.6991556 1.41458,-0.6406906 0.14631,0.04471 0.47858,1.6709486 0.3622,2.0376056 -0.28168,0.887513 -3.939,2.143749 -7.767,2.538264 -3.52428,0.363218 -7.48914,0.851805 -12.6622,0.247984 z"
       id="path167-8"
       sodipodi:nodetypes="sssssssssss" /><path
       style="fill:#36778f;fill-opacity:1;stroke:#000000;stroke-width:0.189286"
       d="m 61.101871,-32.491051 c -0.40918,-0.551508 -0.88018,-2.325893 -0.4329,-2.638864 0.51176,-0.358087 1.2664,-0.865304 2.54616,-1.678548 1.47349,-0.936355 2.16634,-1.190279 2.05237,-1.304245 -0.11396,-0.113969 -0.86647,0.345554 -1.80711,0.885862 -1.63675,0.940149 -3.18769,1.599065 -3.28227,1.392137 -0.19889,-0.435126 -0.0943,-0.846119 0.007,-1.020625 0.37944,-0.653137 1.14512,-0.735886 2.68671,-1.402924 1.39347,-0.602943 2.4736,-0.648716 2.3631,-0.913135 -0.0619,-0.148101 0.0739,-0.170135 -0.10901,-0.09996 -1.00333,0.385014 -3.72566,1.225381 -4.23468,1.225381 -0.50744,0 -0.96777,-0.331296 -1.1421,-0.8314 -0.11412,-0.327343 -0.47174,-1.663915 -0.2311,-2.0309 l 0.25986,-0.254558 2.05524,-0.203232 c 2.17259,-0.214834 2.64583,-0.06998 2.64583,-0.314796 0,-0.09267 -0.93785,-0.05528 -1.79538,-0.06127 -2.22103,-0.0155 -3.05854,-0.214516 -3.12544,-0.678109 -0.0299,-0.20724 0.18773,-0.947872 0.33928,-1.155004 0.23485,-0.320976 0.85116,-0.253722 1.99151,-0.226203 1.52222,0.03674 1.21131,0.06568 0.0387,-0.348292 -1.23154,-0.434771 -1.31256,-1.068125 -1.01468,-2.057913 0.1411,-0.46885 0.16333,-0.586997 0.56615,-0.73683 0.47135,-0.175326 0.80857,-0.05709 1.50504,0.136035 1.30186,0.360995 -0.53401,-0.564448 -1.17933,-1.092909 -0.39731,-0.325358 -0.416,-0.507817 1.84583,0.411139 l 4.06175,1.332055 -0.39448,0.960668 c -0.59666,1.45301 -1.13805,3.922395 -1.13805,5.357103 0,1.607508 0.48218,3.883912 1.06723,5.038463 0.25855,0.51021 0.4431,0.95435 0.41013,0.986976 -0.1503,0.148724 -2.69306,1.560721 -3.60944,1.882753 -1.3924,0.489313 -1.9087,0.839275 -2.40267,0.173477 z"
       id="path168-7"
       sodipodi:nodetypes="ssssssssssssscsssssssssssscsssssss" /><path
       style="fill:#36778f;fill-opacity:1;stroke:#000000;stroke-width:0.189286"
       d="m 65.956681,-46.94201 c -0.79389,-0.336542 -1.87903,-0.885193 -2.45072,-1.123058 -0.57169,-0.237869 -1.11348,-0.49688 -1.20397,-0.575583 -0.0905,-0.0787 -0.17333,-0.567981 0.19128,-1.173906 0.36461,-0.605925 0.97044,-1.810387 1.23079,-2.330106 0.26036,-0.519716 0.96617,-1.396661 1.18756,-1.596728 0.38516,-0.348055 0.54975,-0.302644 1.19428,0.0047 0.37049,0.176676 1.32397,0.781185 1.88785,1.314479 1.68099,1.589813 1.103,1.101392 -0.63278,-1.191882 -0.74726,-0.987271 -1.1332,-1.353415 -0.99634,-1.57412 0.0996,-0.160557 1.12368,-1.179459 1.86067,-1.400526 l 1.34892,-0.65976 1.27943,1.197184 0.83059,1.197184 -0.0236,-0.537969 c -0.0141,-0.321559 -0.50738,-1.349238 -0.68508,-1.712529 -0.48615,-0.99391 -0.69067,-0.878832 0.95295,-1.385187 0.83567,-0.257444 3.69884,-0.903552 3.63035,-0.738246 -1.05884,2.555558 -1.26214,2.164663 -1.91855,2.858279 -0.64341,0.679889 -0.75269,0.817805 -0.81754,2.245886 l 0.26236,1.505511 -1.3378,1.457767 c -1.41733,1.544431 -2.18379,2.37341 -3.2035,3.86376 -0.32054,0.46848 -0.70943,1.037061 -0.75046,1.037061 -0.041,0 -0.27437,-0.01995 -1.06826,-0.356486 z"
       id="path169-4"
       sodipodi:nodetypes="ssssssssssscccsssssscsssss" /><path
       style="fill:#36778f;fill-opacity:1;stroke:#000000;stroke-width:0.189286"
       d="m 87.724381,-50.189164 c -0.18455,-0.581459 -1.70999,-2.345222 -2.57939,-2.788762 -0.42736,-0.218019 -1.51779,-0.70023 -2.39431,-0.840586 -0.88405,-0.141565 -1.87761,-0.430932 -2.23137,-0.649872 -1.33309,-0.82504 -2.61864,-2.500353 -2.84145,-3.811125 -0.26396,-1.552821 0.28034,-1.270307 0.68946,-1.552993 0.89499,-0.618392 1.12183,-0.580589 1.55496,-0.467323 0.32135,0.08403 0.76972,-0.373168 0.74097,1.215536 -0.0244,1.349044 -0.16167,2.127697 0.0309,2.127697 0.0884,0 0.087,-0.505542 0.15586,-0.791387 0.15434,-0.641004 1.09721,-2.362352 1.25867,-2.362352 0.35749,0 2.62069,0.585656 3.31888,1.17733 0.31784,0.269349 0.26363,0.390364 0.0543,1.52653 -0.27152,1.47357 -0.52526,1.843667 -0.30011,1.843667 0.0956,0 0.13561,-0.796423 0.30548,-1.307857 0.3044,-0.916461 1.20727,-1.55059 1.81494,-1.55059 0.46405,0 1.38371,0.582996 2.34467,1.414703 0.65054,0.563044 1.01766,0.735036 1.49175,0.735036 0.35135,0 0.72851,-0.07756 0.97202,0.478605 0.17654,0.403243 -0.85691,2.494716 -2.14991,4.021447 -0.71661,0.846137 -1.6956,2.080154 -1.76265,2.104057 -0.24813,0.08845 -0.40752,-0.313484 -0.47362,-0.521761 z"
       id="path170-2"
       sodipodi:nodetypes="ssssssssssssssssssssss" /><path
       style="fill:#36778f;fill-opacity:1;stroke:#000000;stroke-width:0.189286"
       d="m 62.575021,-29.773327 c 0.38893,-0.348671 4.66424,-3.382778 5.07538,-3.685363 0.19024,-0.140018 0.85535,0.24579 0.97527,0.669901 0.10745,0.38005 0.0815,0.384445 -1.96834,1.937367 -0.93597,0.709083 -1.61666,1.191797 -2.3529,1.191797 -0.49325,0 -1.83126,-0.02241 -1.72941,-0.113702 z"
       id="path171-7"
       sodipodi:nodetypes="ssssss" /><path
       style="fill:#d4e4e9;fill-opacity:1;stroke:#000000;stroke-width:0.189286"
       d="m 85.861781,-35.138432 c -0.27951,-0.21986 -0.68725,-0.740968 -0.84834,-1.143582 -0.16337,-0.408299 -0.82586,-1.334381 -1.45338,-1.915353 -1.07805,-0.998082 -2.01239,-1.324914 -1.50406,-1.321273 1.05556,0.0076 4.3628,0.595794 5.02313,0.909142 1.20541,0.572 1.61413,2.11346 1.0758,3.29496 -0.28023,0.615032 -1.56522,0.748699 -2.29315,0.176106 z"
       id="path172-7"
       sodipodi:nodetypes="sssssss" /></g></svg>
