<?xml version="1.0" encoding="UTF-8" standalone="no"?>
<!-- Created with Inkscape (http://www.inkscape.org/) -->

<svg
   width="42.495853mm"
   height="61.739265mm"
   viewBox="0 0 42.495853 61.739266"
   version="1.1"
   id="svg1"
   xml:space="preserve"
   inkscape:version="1.4.3 (0d15f75, 2025-12-25)"
   sodipodi:docname="рисунок1.svg"
   xmlns:inkscape="http://www.inkscape.org/namespaces/inkscape"
   xmlns:sodipodi="http://sodipodi.sourceforge.net/DTD/sodipodi-0.dtd"
   xmlns="http://www.w3.org/2000/svg"
   xmlns:svg="http://www.w3.org/2000/svg"
   xmlns:rdf="http://www.w3.org/1999/02/22-rdf-syntax-ns#"
   xmlns:cc="http://creativecommons.org/ns#"
   xmlns:dc="http://purl.org/dc/elements/1.1/"><defs
     id="defs1" /><sodipodi:namedview
     id="base"
     pagecolor="#ffffff"
     bordercolor="#000000"
     borderopacity="0.3"
     inkscape:pageopacity="0.0"
     inkscape:pageshadow="2"
     inkscape:zoom="0.35"
     inkscape:cx="537.14285"
     inkscape:cy="-195.71428"
     inkscape:document-units="mm"
     inkscape:showpageshadow="2"
     inkscape:pagecheckerboard="0"
     inkscape:deskcolor="#d1d1d1"
     inkscape:window-width="1920"
     inkscape:window-height="1009"
     inkscape:window-x="-8"
     inkscape:window-y="-8"
     inkscape:window-maximized="1"
     inkscape:current-layer="svg1"><inkscape:page
       x="0"
       y="0"
       width="42.495853"
       height="61.739265"
       id="page4"
       margin="0"
       bleed="0" /></sodipodi:namedview><metadata
     id="metadata1"><rdf:RDF><cc:Work
         rdf:about=""><dc:format>image/svg+xml</dc:format><dc:type
           rdf:resource="http://purl.org/dc/dcmitype/StillImage" /></cc:Work></rdf:RDF></metadata><g
     id="g6"
     transform="translate(-1.8708847,65.481033)"><path
       style="fill:#9abec3;fill-opacity:1;stroke:#000000;stroke-width:0.264999"
       d="m 20.02751,-45.465473 c -0.59878,0.480918 -0.66103,1.437011 -0.66817,2.204974 -0.0107,1.145683 0.24088,2.39626 0.93544,3.30746 0.67846,0.890081 1.79254,1.445971 2.87315,1.737253 1.24747,0.33626 2.67128,0.201043 3.87541,-0.06682 0.8856,-0.197004 1.63307,-0.992173 2.03794,-1.80407 0.69294,-1.389583 0.88155,-3.178595 0.36749,-4.643807 -0.24779,-0.706246 -0.82398,-1.408859 -1.53681,-1.637027 -0.43264,-0.138486 -0.88964,0.18469 -1.33634,0.26727 -1.17739,0.217659 -2.34647,0.524175 -3.54132,0.601357 -0.5672,0.03664 -1.13556,-0.0775 -1.70385,-0.06682 -0.43552,0.0082 -0.96332,-0.172542 -1.30294,0.100228 z"
       id="path1-3-4"
       sodipodi:nodetypes="aaaasaaaaaaaa" /><path
       style="fill:#9abec3;fill-opacity:1;stroke:#000000;stroke-width:0.264999"
       d="m 21.86499,-55.855576 -0.23386,-3.107008 1.97111,-0.300678 0.40091,3.207234 2.47224,-0.26727 0.30068,2.372018 -2.3052,0.167043 0.46772,4.677217 -1.97111,0.200452 -0.56795,-4.576991 -2.90655,0.167044 -0.0668,-2.271792 z"
       id="path2-1-8"
       sodipodi:nodetypes="ccccccccccccc" /><path
       style="fill:#9abec3;fill-opacity:1;stroke:#000000;stroke-width:0.264999"
       d="m 27.61128,-46.467734 c 0.13364,-0.133634 3.522,-2.661152 4.10927,-4.643808 0.66268,-2.237266 0.57683,-5.388566 -0.73499,-7.550364 -1.16495,-1.919764 -3.48538,-3.298446 -5.64607,-3.674956 -2.26024,-0.393858 -4.43857,-0.164186 -6.68173,0.50113 -2.19267,0.65034 -4.21483,2.459142 -5.17835,4.543582 -0.91127,1.971396 -0.72973,4.436105 -0.10023,6.514695 0.4038,1.333338 1.15113,2.619677 2.37202,3.441095 1.70224,1.145262 4.71063,1.737252 4.71063,1.737252"
       id="path16-2-8"
       sodipodi:nodetypes="csassaasc" /><path
       style="fill:#9abec3;fill-opacity:1;stroke:#000000;stroke-width:0.264999"
       d="m 20.29478,-62.295101 c -0.22034,0.0235 -0.1361,-1.24976 0.26728,-1.678787 0.41364,-0.439942 1.29206,-0.677506 2.06298,-0.350791 0.53334,0.226027 0.92959,0.495154 0.95214,1.07743 0.0333,0.860116 -0.21764,0.697898 -0.47605,0.709935 -2.07618,0.09671 -2.44488,0.20366 -2.80635,0.242213 z"
       id="path17-3-2"
       sodipodi:nodetypes="ssssss" /><path
       style="fill:#9abec3;fill-opacity:1;stroke:#000000;stroke-width:0.264999"
       d="m 14.24376,-48.839751 c 0,0 -0.95501,2.039609 -2.8259,2.206652 -1.8708898,0.167043 -2.8161198,-0.268948 -2.8161198,-0.268948 0,0 -0.26727,-0.09617 -0.60135,-0.02935 -0.33409,0.06682 -1.28338,0.562216 -1.55064,1.230389 -0.26727,0.668174 -0.5207,1.972792 -0.15321,2.774601 0.3675,0.801807 0.96886,1.870887 1.83748,2.438834 0.86863,0.567947 2.5056498,0.835218 3.4745098,0.835218 0.96885,0 3.50791,-0.100227 4.47676,-0.367496 0.96885,-0.267271 3.30746,-2.004523 3.30746,-2.004523"
       id="path18-3-4"
       sodipodi:nodetypes="cscssssssc" /><path
       style="fill:#9abec3;fill-opacity:1;stroke:#000000;stroke-width:0.264999"
       d="m 31.55351,-50.810864 c 0,0 1.20272,0.734992 3.64155,0.634766 2.43884,-0.100227 2.50565,0.434312 2.60588,1.035669 0.10022,0.601356 -0.54981,2.675606 -1.10249,3.424391 -0.51784,0.701583 -1.00622,1.144697 -2.48894,1.637026 -0.83344,0.27674 -2.18827,0.451017 -3.30746,0.467721 -0.77483,0.01156 -1.25283,0.05011 -1.25283,0.05011"
       id="path19-4-5"
       sodipodi:nodetypes="csssssc" /><path
       style="fill:#ffffff;fill-opacity:0.027523;stroke:#000000;stroke-width:0.264999"
       d="m 7.2691602,-41.110431 c 0,0 -0.73467,0.502062 -0.8032,0.897694 -0.0784,0.452421 0.16419,0.985099 0.51972,1.275669 0.6577,0.537543 1.69997,0.198768 2.50409,0.47247 3.3271498,1.132474 6.3727598,2.990033 9.4021498,4.771948 1.96534,1.156034 3.4295,3.401895 5.66965,3.827015 0.85592,0.16242 1.78765,-0.14774 2.55134,-0.56697 1.1324,-0.621627 1.92133,-1.741322 2.74032,-2.740326 1.04401,-1.273488 1.64058,-2.884813 2.74033,-4.11049 0.91842,-1.02359 2.03538,-1.862282 3.16555,-2.645833 0.55063,-0.381757 1.3946,-0.423023 1.74814,-0.992188 0.29132,-0.469002 0.47247,-1.181177 0.0945,-1.653646 -0.37798,-0.472471 -0.94495,-0.944941 -1.74815,-1.27567 -0.80319,-0.33073 -1.13392,-0.472471 -1.13392,-0.472471"
       id="path20-1-5"
       sodipodi:nodetypes="caaaaaaaaaassc" /><path
       style="fill:#ffffff;fill-opacity:0.027523;stroke:#000000;stroke-width:0.264999"
       d="m 7.6471302,-38.606338 c 0,0 -0.0614,0.988212 0.14174,1.41741 1.0238,2.163533 4.1496198,3.698492 6.0003798,5.764136 0.68947,0.769517 1.88841,1.423637 1.88988,2.456847 4.8e-4,0.33705 -0.38185,0.55906 -0.61422,0.8032 -0.1849,0.19427 -0.49333,0.28031 -0.61421,0.51972 -0.21342,0.42269 0.0296,0.96043 -0.0945,1.41741 -0.47981,1.76725 -1.50151,3.35141 -2.45685,4.91369 -1.04021,1.70107 -2.7024798,3.01134 -3.5435198,4.81919 -0.19818,0.426 -0.48619,0.92679 -0.33073,1.37017 0.58683,1.67366 2.5776998,2.55472 4.2049798,3.26004 3.57057,1.5476 7.63829,1.9524999 11.52828,1.84264 3.69001,-0.10422 7.4661,-0.81919 10.81956,-2.36236 1.39923,-0.64388 2.99926,-1.40851 3.68527,-2.78757 0.17536,-0.35252 0.12076,-0.80643 0,-1.18117 -0.86869,-2.69573 -3.73348,-4.34563 -4.96093,-6.89807 -0.35439,-0.73695 -0.52387,-1.55627 -0.66146,-2.36235 -0.12216,-0.71564 -0.19468,-1.4493 -0.14174,-2.17337 0.0329,-0.44978 0.11845,-0.90321 0.28348,-1.32291 1.31549,-3.34562 4.21241,-5.914802 5.5279,-9.260419 0.16503,-0.419704 0.47247,-0.944941 0.28348,-1.322917 -0.18899,-0.377976 -1.41741,-0.992188 -1.41741,-0.992188"
       id="path22-1-1"
       sodipodi:nodetypes="csaaaaaaaaaaaaaaaaaasc" /><path
       style="fill:#ffffff;fill-opacity:0.027523;stroke:#000000;stroke-width:0.264999"
       d="m 21.72675,-31.377545 c 0,0 3.18133,2.5823 3.54352,4.44122 0.20108,1.03201 -0.23619,2.4096 -0.89769,3.02381 -0.66146,0.61421 -3.02381,1.70089 -3.82701,2.22061 -0.8032,0.51972 -6.14212,5.19717 -7.08705,6.61459 -0.66817,1.00226 -1.37017,2.36235 -1.37017,2.64583 0,0.28348 -0.0473,0.51971 -0.0473,0.51971"
       id="path29-3-7"
       sodipodi:nodetypes="cacsssc" /><path
       style="fill:#ffffff;fill-opacity:0.027523;stroke:#000000;stroke-width:0.264999"
       d="m 14.63969,-11.155815 c 0,0 1.55915,-3.68527 2.36235,-4.53572 0.8032,-0.85044 2.32659,-3.18915 3.82701,-4.44122 1.36044,-1.13525 3.26175,-1.51241 4.58296,-2.69308 0.58716,-0.5247 1.27567,-0.85044 1.41741,-1.88988 0.14174,-1.03943 -0.18899,-2.22061 -0.33073,-2.69308 -0.14174,-0.47247 -1.5119,-2.45684 -1.5119,-2.45684"
       id="path40-8-1"
       sodipodi:nodetypes="csaassc" /><path
       style="fill:#ffffff;fill-opacity:0.027523;stroke:#000000;stroke-width:0.264999"
       d="m 29.14453,-32.369733 c 0,0 -1.46466,4.960938 -0.75595,6.520088 0.7087,1.55916 2.59858,2.97657 3.0238,3.44904 0.42523,0.47247 3.16555,3.77976 4.016,5.29166 0.85045,1.51191 1.74814,3.2128 1.74814,3.2128"
       id="path41-7-1"
       sodipodi:nodetypes="csssc" /><path
       style="fill:#ffffff;fill-opacity:0.027523;stroke:#000000;stroke-width:0.264999"
       d="m 31.50687,-35.724271 c 0,0 -2.26785,6.850816 -1.65364,8.787946 0.61421,1.93713 2.17337,3.16555 2.55134,3.59078 0.37798,0.42522 4.29948,5.62239 4.67746,6.18935 0.37797,0.56697 1.13392,2.03163 1.13392,2.03163"
       id="path42-4-5"
       sodipodi:nodetypes="csssc" /><path
       style="fill:#e6f4f5;fill-opacity:1;stroke:#000000;stroke-width:0.264999"
       d="m 7.8833702,-15.597035 c 0,0 -0.7,0.26127 -0.85045,0.56696 -0.30671,0.62318 -0.21637,1.48374 0.14174,2.07887 0.83145,1.38177 2.58612,2.02513 4.1104898,2.55134 4.77745,1.6491499 10.02427,1.9108199 15.0718,1.6536499 3.37799,-0.17211 6.89932,-0.60804 9.92188,-2.1261199 1.3663,-0.68623 2.97124,-1.57143 3.44903,-3.02381 0.16121,-0.49005 0.0199,-1.13351 -0.33073,-1.5119 -0.22352,-0.24121 -0.94494,-0.28349 -0.94494,-0.28349"
       id="path43-2-2"
       sodipodi:nodetypes="caaaaaaac" /><path
       style="fill:#e6f4f5;fill-opacity:1;stroke:#000000;stroke-width:0.264999"
       d="m 7.3636502,-12.762215 c 0,0 0.15623,1.46505 0.61421,1.98437 1.5897,1.8026399 3.1182998,2.2206099 6.5673398,2.9765699 3.44903,0.75595 8.78794,1.08668 11.859,0.94494 3.07106,-0.14175 5.79351,-0.53937 8.45722,-1.6064 1.48013,-0.59291 2.95261,-1.41051 4.01599,-2.5985899 0.18789,-0.20992 0.32047,-0.48015 0.37798,-0.75595 0.0612,-0.29334 -0.0472,-0.89769 -0.0472,-0.89769 l 0.0945,-0.37798 -0.14174,0.42522"
       id="path44-7-7"
       sodipodi:nodetypes="cassaaaccc" /><path
       style="fill:#9abec3;fill-opacity:1;stroke:#000000;stroke-width:0.189286"
       d="m 19.20681,-46.012593 c -3.79631,-0.653124 -5.4203,-2.44566 -6.1263,-5.929892 -0.42679,-2.106314 -0.37825,-3.843062 0.47975,-5.558113 1.55737,-3.113003 5.1694,-5.21694 9.71343,-5.203814 3.64317,0.01053 6.79928,2.004105 8.07761,4.796348 1.01694,2.221288 1.19431,5.675913 0.16383,7.434329 -0.24956,0.425841 -1.22597,1.625869 -2.11205,2.464614 -1.5199,1.438717 -1.92506,1.68542 -3.22198,1.997022 -2.10738,0.506326 -3.1342,0.660165 -4.7773,0.377484 z m 5.80607,-2.970565 c 0.0876,-0.07959 0.0582,-1.100576 -0.0652,-2.268857 -0.25783,-2.439803 -1.00902,-1.992098 1.19325,-2.44928 l 0.77934,-0.120999 -0.10641,-0.779579 c -0.083,-0.608145 -0.0903,-0.992497 -0.12397,-1.288796 l -0.24198,-0.603713 -1.02519,0.05663 -1.19055,0.1275 -0.10941,-0.728586 c -0.0602,-0.400719 -0.16424,-1.135089 -0.23126,-1.631931 -0.0961,-0.712235 -0.18711,-0.885521 -0.43028,-0.819087 -0.16964,0.04635 -0.70793,0.138478 -1.19621,0.204738 l -0.88778,0.120475 0.11265,1.596305 0.11266,1.596306 h -0.57141 c -0.31428,0 -0.83718,0.05315 -1.162,0.118118 l -0.48428,0.08268 0.0236,1.110832 0.0236,1.465186 1.52372,-0.04355 1.42922,-0.138041 0.29042,2.412185 0.24316,2.152327 0.89076,-0.0072 c 0.58354,-0.0047 1.11597,-0.0841 1.20355,-0.163687 z"
       id="path146-7"
       sodipodi:nodetypes="ssssssssssssscsscccsssscccsscccccccsss" /><path
       style="fill:#648c91;fill-opacity:1;stroke:#000000;stroke-width:0.189286"
       d="m 9.7109702,-39.716984 c -1.80146,-0.465108 -2.5814,-1.166934 -3.26934,-2.524514 -0.79815,-1.57508 -0.40471,-4.02423 0.99359,-4.557551 0.49242,-0.187814 0.76304,-0.163203 1.6712,0.01918 2.1329498,0.428357 3.1580498,0.0076 4.4722898,-0.985819 l 0.63257,-0.892427 0.66735,0.64856 c 0.66291,0.644245 2.28703,1.602724 3.74783,2.027388 1.01081,0.293852 1.48835,0.124971 1.2846,0.50568 -0.11932,0.222967 -0.5234,1.449004 -0.62819,2.160397 l 0.0376,1.258909 -0.7894,0.918741 c -0.91478,1.064665 -2.83561,1.629445 -5.55018,1.695371 -1.35671,0.03295 -3.0620498,-0.220255 -3.2699398,-0.273918 z"
       id="path147-6"
       sodipodi:nodetypes="csssscsssscssc" /><path
       style="fill:#648c91;fill-opacity:1;stroke:#000000;stroke-width:0.189286"
       d="m 29.61777,-44.798619 c -0.11729,-0.420722 -0.76622,-1.167214 -1.11657,-1.321625 l -0.80164,-0.353317 1.65264,-1.573413 c 0.66951,-0.637411 1.46052,-1.622325 1.86406,-1.959804 l 0.54215,-0.693488 0.97096,0.328858 c 0.53526,0.18129 1.82277,0.187124 2.7195,0.187124 1.3395,0 1.89883,0.179784 2.1558,0.463727 0.41424,0.45774 0.27847,1.248921 -0.26251,2.739311 -0.83839,2.309738 -2.55981,3.200445 -5.73219,3.167901 l -1.63003,0.313764 z"
       id="path148-1"
       sodipodi:nodetypes="sscsscssssscs" /><path
       style="fill:#66cae5;fill-opacity:1;stroke:#000000;stroke-width:0.189286"
       d="m 10.24875,-12.859135 c -1.3292498,-0.783894 -2.1914298,-1.909234 -2.1914298,-2.614107 0,-0.628576 0.67673,-1.820691 2.2674698,-3.792517 2.24239,-2.77959 4.229,-5.954736 4.229,-7.363846 0,-0.587425 -0.10626,-0.998815 0.42522,-1.513943 0.72205,-0.699839 0.77806,-0.767239 0.37017,-1.544913 -0.26009,-0.495876 -2.87919,-2.885048 -5.29344,-4.858422 -1.4612498,-1.194398 -2.4000198,-2.698977 -2.4000198,-3.454466 0,-0.558392 0.29222,-0.444984 1.11718,-0.331909 1.6534298,0.226629 6.5014398,2.622923 10.0876798,4.986187 0.86156,0.567748 2.7036,1.801894 3.77583,2.858037 2.2413,2.207678 2.89413,3.568665 2.69051,4.773927 -0.2182,1.291468 -1.19957,2.017546 -3.37989,3.241201 -4.06597,2.281928 -9.0377,7.224088 -9.61907,9.543899 -0.0716,0.285846 -0.51748,0.614212 -0.58653,0.614212 -0.0691,0 -0.83171,-0.153553 -1.49268,-0.54334 z"
       id="path149-8"
       sodipodi:nodetypes="ssssssssssssssss" /><path
       style="fill:#66cae5;fill-opacity:1;stroke:#000000;stroke-width:0.189286"
       d="m 31.4595,-24.108605 c -0.56312,-0.62227 -0.65105,-0.764214 -1.30049,-1.756542 -0.47763,-0.729829 -0.52429,-1.515438 -0.43343,-2.869181 0.12137,-1.808446 0.51308,-4.854268 1.18967,-6.249567 0.58433,-1.205063 3.94395,-4.400931 5.4259,-5.176829 1.01303,-0.530389 0.90024,-0.538142 1.40668,-0.231836 0.28818,0.174294 0.88271,0.641972 0.91695,0.808291 0.11164,0.542248 -0.75184,2.557838 -2.60258,5.255797 -0.99779,1.454542 -2.16319,2.854876 -2.53205,3.631576 -0.65771,1.384951 -1.04677,1.920018 -0.95287,3.719092 0.0527,1.008943 -0.38403,2.450057 5.28455,9.41021 0.31065,0.381437 1.18271,2.71684 0.16502,2.417807 -0.89525,-0.263056 -6.00423,-8.336544 -6.56735,-8.958818 z"
       id="path150-9"
       sodipodi:nodetypes="sssssssssssss" /><path
       style="fill:#36778f;fill-opacity:1;stroke:#000000;stroke-width:0.189286"
       d="m 18.49892,-10.102846 c -1.22009,-0.02439 -3.50267,-0.884143 -3.7445,-1.0336 -0.43115,-0.266465 1.62605,-4.239557 3.64702,-6.442311 2.22702,-2.427332 2.63738,-3.038033 4.65277,-4.031853 1.79523,-0.885259 3.32426,-1.527535 3.70308,-2.260081 0.31087,-0.60116 0.35245,-2.219323 0.082,-3.192701 -0.10206,-0.36739 -0.44177,-1.071962 -0.7549,-1.565714 -0.31313,-0.493752 -0.56932,-0.927836 -0.56932,-0.964631 0,-0.03679 0.29571,-0.122373 0.65714,-0.190177 0.36142,-0.0678 1.04178,-0.416886 1.5119,-0.775738 0.47012,-0.358851 0.85309,-0.631756 0.85105,-0.606456 -0.002,0.02529 -0.12665,0.726355 -0.27689,1.557901 -0.35187,1.947492 -0.35497,3.155214 -0.0102,3.980331 0.15187,0.363495 1.10863,1.530167 2.12611,2.592607 2.29146,2.392695 4.2563,4.982173 5.517,7.27089 0.52976,0.961726 0.96319,1.790057 0.96319,1.840738 0,0.05068 -0.74415,0.463687 -1.65365,0.917789 -2.71549,1.355804 -5.06614,2.05845 -8.34828,2.495428 -1.80118,0.239805 -4.2665,0.489318 -5.99119,0.454824 z"
       id="path151-2"
       sodipodi:nodetypes="sssssssssscsssssssss" /><path
       style="fill:#00d5ee;fill-opacity:1;stroke:#000000;stroke-width:0.189286"
       d="m 12.91003,-11.642338 c -0.46088,-0.121285 -1.02701,-0.381796 -1.08166,-0.524224 -0.12924,-0.336799 1.73479,-2.709333 2.5454,-3.872558 2.97213,-4.264964 5.77916,-5.397717 7.44013,-6.293072 2.26216,-1.219433 2.82155,-1.766813 3.22298,-2.650731 0.64394,-1.417926 0.43047,-2.477145 -0.62707,-3.731247 -0.59376,-0.704111 -1.15914,-1.224766 -0.69577,-1.224766 0.44085,0 1.59916,-0.306004 2.37945,1.090424 0.53113,0.950516 1.26082,2.645823 0.967,3.731475 l -0.22248,0.822044 -0.33073,0.714716 c -0.29093,0.628709 -3.03326,1.982857 -3.96875,2.464501 -2.37243,1.22146 -3.18177,2.324902 -4.79509,4.213432 -1.34815,1.578118 -1.39772,2.058858 -2.00689,3.386854 -0.45167,0.984655 -1.09687,2.279663 -1.20279,2.271459 -0.10592,-0.0082 0.13602,0.06479 -0.72604,-0.162071 z"
       id="path152-7"
       sodipodi:nodetypes="ssssssssscsssssss" /><path
       style="fill:#00bbd7;fill-opacity:1;stroke:#000000;stroke-width:0.189286"
       d="m 36.63597,-14.496872 c -0.14938,-0.242623 -0.96748,-1.778449 -1.35603,-2.489006 -1.0014,-1.831261 -3.14957,-3.840012 -5.29084,-6.094807 -2.1549,-2.269133 -2.19451,-4.13711 -1.89636,-6.239327 0.31064,-2.190264 0.83187,-2.566625 1.46127,-3.443039 0.32123,-0.447302 0.95985,-0.88632 0.98607,-0.8601 0.0262,0.02622 -0.15326,0.878822 -0.39885,1.894671 -0.24558,1.015849 -0.50443,2.434767 -0.57522,3.153151 -0.11868,1.20443 -0.0841,1.399047 0.44415,2.498989 0.31506,0.656061 1.1122,1.791235 1.77141,2.522606 1.49279,1.65621 5.27204,6.717528 5.79918,7.766489 0.38371,0.763554 0.48159,1.0085 0.10764,1.291583 -0.71518,0.541403 -0.79486,0.417115 -1.05242,-0.0013 z"
       id="path153-9"
       sodipodi:nodetypes="sssssssssssss" /><path
       style="fill:#e6f4f5;fill-opacity:1;stroke:#000000;stroke-width:0.189286"
       d="M 18.49731,-8.8493031 C 13.25944,-9.4448751 8.4029602,-11.10127 7.2024902,-12.739311 c -0.42254,-0.576556 -0.32116,-2.236703 0.0337,-2.577002 0.19786,-0.189716 0.52468,-0.140708 0.69892,0.153289 1.19693,2.019562 4.1131898,3.540919 8.6266398,4.49281 2.50919,0.529196 10.00293,0.454047 12.59133,-0.11122 2.49351,-0.544541 3.77341,-1.135581 5.83832,-2.107589 1.85782,-0.874522 2.72549,-1.401717 3.15,-2.278223 0.25815,-0.533038 0.76824,-0.642599 1.15849,-0.369258 0.79052,0.553701 0.62956,2.166779 -0.62085,3.152542 -1.71363,1.350954 -4.21374,2.4664059 -7.49434,3.0768019 -4.09502,0.761929 -10.38884,0.71922 -12.68743,0.457857 z"
       id="path154-5"
       sodipodi:nodetypes="ssssssssssss" /><path
       style="fill:#e6f4f5;fill-opacity:1;stroke:#000000;stroke-width:0.189286"
       d="m 22.72752,-6.8988531 c -0.41577,-0.04104 -2.80174,-0.141664 -3.94512,-0.252468 -2.39265,-0.231876 -7.06695,-1.264701 -8.50375,-1.802279 -1.3307198,-0.497884 -2.6876198,-1.8157739 -2.8277098,-2.8666279 -0.11398,-0.855056 0.22933,-0.402164 0.95081,0.111578 1.31967,0.939689 5.2815498,2.3988529 8.8923698,2.8977959 2.95449,0.408252 11.19016,0.06236 13.75062,-0.419325 3.03039,-0.570087 5.87476,-1.8642219 7.54425,-3.1153469 0.74526,-0.558498 0.8266,-0.01826 0.5774,0.637212 -0.60642,1.594982 -3.74706,3.5968809 -7.86353,4.3137819 -1.63572,0.284864 -7.0099,0.650217 -8.57534,0.495679 z"
       id="path155-4"
       sodipodi:nodetypes="sssssssssss" /><path
       style="fill:#e6f4f5;fill-opacity:1;stroke:#000000;stroke-width:0.189286"
       d="m 23.07894,-38.046958 c -1.75091,-0.440758 -3.53378,-2.235753 -3.9072,-3.58045 -0.31218,-1.124143 0.40962,-3.272972 0.77173,-3.78995 0.28926,-0.412985 0.6392,-0.247716 1.88988,-0.155911 1.31655,0.09664 3.87422,-0.250978 5.3032,-0.677145 0.90245,-0.269137 1.87691,0.258739 2.38261,1.372529 0.93107,2.050677 -0.15155,5.786331 -1.91462,6.522984 -0.81729,0.34149 -3.62412,0.534874 -4.5256,0.307943 z"
       id="path156-3"
       sodipodi:nodetypes="ssssssss" /><path
       style="fill:#00d5ee;fill-opacity:1;stroke:#000000;stroke-width:0.189286"
       d="m 23.04749,-48.908614 c -0.0896,0.0016 -0.288,-1.246447 -0.35828,-2.435437 l -0.19528,-2.045647 -1.21203,0.07898 -1.82623,0.03173 v -1.112972 l 0.0236,-1.325581 1.3073,-0.144225 0.88207,-0.02609 -0.12618,-1.909519 -0.0789,-1.307115 1.05131,-0.146479 c 0.34124,-0.04755 0.86802,-0.217347 1.10072,0.01889 0.0555,0.05639 0.2338,0.699254 0.30035,1.192985 0.0666,0.493734 0.15447,1.050097 0.18778,1.430063 l 0.055,0.426058 0.98665,-0.09532 c 1.12516,-0.108701 1.34713,-0.214124 1.46112,0.211778 0.0661,0.246856 0.25122,1.355974 0.25264,1.641819 0.003,0.509834 -0.0777,0.538091 -1.1851,0.696897 l -1.03414,0.224422 0.0254,0.188987 c 0.0279,0.208068 0.61959,4.139213 0.21022,4.249179 -0.54793,0.147182 -0.92846,0.141607 -1.11919,0.144782 z"
       id="path157-1"
       sodipodi:nodetypes="sscccccccccsssscsscscssss" /><path
       style="fill:#00d5ee;fill-opacity:1;stroke:#000000;stroke-width:0.189286"
       d="m 20.188,-62.738009 c -0.41341,-1.699017 1.82666,-2.083067 2.82175,-1.56849 0.58324,0.301609 0.74476,1.389523 0.49173,1.6261 -0.0814,0.07608 -0.91028,-0.01283 -1.65984,0.09388 -1.35635,0.193122 -1.57632,0.166272 -1.65364,-0.151492 z"
       id="path158-2"
       sodipodi:nodetypes="sssss" /><path
       style="fill:#ffffff;fill-opacity:1;stroke:#000000;stroke-width:0.189286"
       d="m 23.40246,-30.035787 c -0.51413,-0.261154 -1.88477,-1.043093 -2.78598,-1.795386 -3.05212,-2.54776 -10.24673,-6.449756 -12.1103098,-6.587675 -1.80324,-0.133456 -2.64334,-1.333513 -1.88617,-2.061464 l 0.54234,-0.521414 0.61473,0.545825 c 0.90026,0.799351 2.18133,0.949007 4.5088598,0.941424 3.39777,-0.01106 4.33011,-0.248581 6.23661,-1.588757 l 0.66146,-0.464973 0.48494,0.971717 c 1.11793,2.240063 4.22445,3.323857 7.30436,2.548329 1.64788,-0.414941 2.79606,-2.120501 2.92989,-4.35219 l 0.0531,-0.885896 1.22842,-0.475123 c 0.72972,-0.282236 2.07415,-0.07016 2.64583,-0.210413 1.00084,-0.245538 1.54983,-0.188981 2.53328,0.297961 2.04743,1.013764 1.82618,2.414857 0.33793,3.31692 -2.11031,1.279104 -3.97355,2.975594 -5.39071,5.268042 -2.98483,4.828391 -5.42462,6.314807 -7.90861,5.053073 z"
       id="path159-3"
       sodipodi:nodetypes="sssscssscssscssssss" /></g></svg>
