<?xml version="1.0" encoding="UTF-8" standalone="no"?>
<!-- Created with Inkscape (http://www.inkscape.org/) -->

<svg
   width="53.186634mm"
   height="60.135647mm"
   viewBox="0 0 53.186634 60.135647"
   version="1.1"
   id="svg1"
   xml:space="preserve"
   inkscape:version="1.4.3 (0d15f75, 2025-12-25)"
   sodipodi:docname="рисунок1.svg"
   xmlns:inkscape="http://www.inkscape.org/namespaces/inkscape"
   xmlns:sodipodi="http://sodipodi.sourceforge.net/DTD/sodipodi-0.dtd"
   xmlns="http://www.w3.org/2000/svg"
   xmlns:svg="http://www.w3.org/2000/svg"
   xmlns:rdf="http://www.w3.org/1999/02/22-rdf-syntax-ns#"
   xmlns:cc="http://creativecommons.org/ns#"
   xmlns:dc="http://purl.org/dc/elements/1.1/"><defs
     id="defs1" /><sodipodi:namedview
     id="base"
     pagecolor="#ffffff"
     bordercolor="#000000"
     borderopacity="0.3"
     inkscape:pageopacity="0.0"
     inkscape:pageshadow="2"
     inkscape:zoom="0.35"
     inkscape:cx="537.14285"
     inkscape:cy="-195.71428"
     inkscape:document-units="mm"
     inkscape:showpageshadow="2"
     inkscape:pagecheckerboard="0"
     inkscape:deskcolor="#d1d1d1"
     inkscape:window-width="1920"
     inkscape:window-height="1009"
     inkscape:window-x="-8"
     inkscape:window-y="-8"
     inkscape:window-maximized="1"
     inkscape:current-layer="svg1"><inkscape:page
       x="0"
       y="0"
       width="53.186634"
       height="60.135647"
       id="page23"
       margin="0"
       bleed="0" /></sodipodi:namedview><metadata
     id="metadata1"><rdf:RDF><cc:Work
         rdf:about=""><dc:format>image/svg+xml</dc:format><dc:type
           rdf:resource="http://purl.org/dc/dcmitype/StillImage" /></cc:Work></rdf:RDF></metadata><g
     id="g13"
     transform="translate(-137.77542,-134.43657)"><path
       style="fill:#cc9eb1;fill-opacity:0;stroke:#000000;stroke-width:0.264999"
       id="path99-6"
       sodipodi:type="arc"
       sodipodi:cx="166.79721"
       sodipodi:cy="153.44093"
       sodipodi:rx="4.8108511"
       sodipodi:ry="4.6772165"
       sodipodi:start="0"
       sodipodi:end="6.2812028"
       sodipodi:open="true"
       sodipodi:arc-type="arc"
       d="m 171.60806,153.44093 a 4.8108511,4.6772165 0 0 1 -4.80846,4.67722 4.8108511,4.6772165 0 0 1 -4.81324,-4.67258 4.8108511,4.6772165 0 0 1 4.8037,-4.68185 4.8108511,4.6772165 0 0 1 4.81799,4.66794" /><path
       style="fill:#cc9eb1;fill-opacity:0;stroke:#000000;stroke-width:0.264999"
       d="m 169.85411,149.83278 c 0,0 0.77629,0.0505 1.11919,-0.10022 0.62063,-0.27279 1.16774,-0.78074 1.50339,-1.36976 0.32655,-0.57307 0.41956,-1.27838 0.4009,-1.9377 -0.0196,-0.69125 -0.16906,-1.41747 -0.53454,-2.00452 -0.24611,-0.39531 -0.61558,-0.75732 -1.05237,-0.91874 -0.49899,-0.18441 -1.0845,0.16215 -1.59586,0.0155 -0.60766,-0.17426 -0.97157,-0.66025 -1.59838,-1.02064 -1.28563,-0.7392 -2.9342,-0.79508 -4.40624,-0.61519 -1.45329,0.17759 -2.90002,0.76466 -4.07586,1.63702 -1.01475,0.75284 -1.83544,1.81274 -2.37202,2.95667 -0.37887,0.80773 -0.43022,1.73653 -0.53453,2.62258 -0.0391,0.33198 0.0512,0.67887 -0.0334,1.00227 -0.0857,0.32767 -0.40853,0.56855 -0.46773,0.90203 -0.0922,0.51953 -0.0419,1.10153 0.20046,1.57021 0.25706,0.49705 0.73272,0.8915 1.23612,1.13589 0.75102,0.36461 1.63787,0.42918 2.47224,0.40091 0.49135,-0.0166 1.02721,-0.0618 1.43657,-0.33409 0.20589,-0.13693 0.43432,-0.60136 0.43432,-0.60136"
       id="path100-0"
       sodipodi:nodetypes="caaaaaasaaaaaaaaaac" /><path
       style="fill:#cc9eb1;fill-opacity:0;stroke:#000000;stroke-width:0.264999"
       d="m 157.42684,153.51926 c 0,0 -0.89007,-0.0875 -1.27567,0.0945 -0.6699,0.31615 -1.26362,0.91736 -1.53553,1.60639 -0.26017,0.65927 -0.22557,1.46263 0.0236,2.12613 0.5027,1.33849 1.70255,2.32891 2.78757,3.26004 1.25863,1.08012 2.83366,1.72505 4.22861,2.6222 1.0507,0.67575 2.12339,1.32339 3.1183,2.07887 0.59588,0.45248 1.05879,1.0806 1.7009,1.46466 0.47063,0.2815 0.99348,0.50737 1.53553,0.59059 0.24955,0.0383 0.52014,0.0429 0.75595,-0.0473 0.53411,-0.20433 0.90796,-0.69607 1.34654,-1.06306 0.71016,-0.59424 1.3277,-1.30116 2.07887,-1.84263 0.66397,-0.47862 1.40539,-0.84049 2.12611,-1.22842 0.43413,-0.23367 0.93781,-0.35362 1.32292,-0.66146 0.4371,-0.3494 0.89938,-0.76418 1.06306,-1.29929 0.15035,-0.49154 0.0438,-1.05619 -0.14174,-1.53554 -0.34915,-0.90176 -1.09673,-1.60044 -1.74814,-2.31509 -0.73222,-0.8033 -1.52905,-1.55975 -2.4096,-2.19699 -0.28565,-0.20672 -0.92132,-0.51972 -0.92132,-0.51972"
       id="path101-6"
       sodipodi:nodetypes="caaaaaaaaaaaaaaaaac" /><path
       style="fill:#cc9eb1;fill-opacity:0;stroke:#000000;stroke-width:0.264999"
       d="m 158.01742,161.05516 c 0,0 1.3602,1.18257 1.70089,1.98438 0.38977,0.9173 0.43114,1.99088 0.28349,2.97656 -0.21968,1.46647 -0.93803,2.83894 -1.70089,4.11049 -1.47936,2.46579 -3.89729,4.26151 -5.48066,6.66183 -0.54689,0.82906 -1.24703,1.66031 -1.37016,2.64583 -0.1203,0.96284 0.0793,2.05856 0.66146,2.83483 0.77003,1.02675 2.17914,1.3745 3.35453,1.88988 1.63749,0.71799 3.34986,1.30079 5.10268,1.65365 1.65784,0.33373 3.3653,0.48225 5.05543,0.42522 2.81822,-0.0951 5.67519,-0.42215 8.36273,-1.27567 1.17473,-0.37308 2.34107,-0.88839 3.30729,-1.65365 0.48212,-0.38185 0.98046,-0.83607 1.18117,-1.41741 0.34453,-0.99785 0.1339,-2.1349 -0.0945,-3.16555 -0.31898,-1.43953 -1.11965,-2.72945 -1.74814,-4.06324 -0.83765,-1.77769 -1.86032,-3.46443 -2.69308,-5.24442 -0.42765,-0.91408 -0.84856,-1.8348 -1.18117,-2.78758 -0.19394,-0.55555 -0.43179,-1.11387 -0.47247,-1.70089 -0.0165,-0.23776 0.0945,-0.70871 0.0945,-0.70871"
       id="path102-6"
       sodipodi:nodetypes="caaaaaaaaaaaaaaaaac" /><path
       style="fill:#cc9eb1;fill-opacity:0;stroke:#000000;stroke-width:0.264999"
       d="m 168.33111,167.35859 c 0,0 -2.57328,2.75179 -3.04575,3.50774 -0.47247,0.75595 -2.53316,3.22606 -3.96065,5.96934 -0.51839,0.99624 -1.55449,3.62622 -1.7677,4.48273 -0.33647,1.35158 -0.16942,0.80893 -0.26392,1.18691 -0.0945,0.37798 -0.18362,0.86186 0.0472,1.18118 0.23652,0.32713 0.85045,0.42522 1.13393,0.42522 0.28348,0 0.47247,-0.0944 0.47247,-0.0944 0,0 0.14174,-1.93712 0.66146,-3.59077 0.51972,-1.65364 2.0991,-4.60139 2.83245,-5.85863 0.88385,-1.51526 2.41917,-3.41631 3.13116,-4.34337 0.84593,-1.10148 3.10782,-2.79093 3.3913,-3.07441 0.28348,-0.28348 1.6064,-1.13393 1.6064,-1.13393"
       id="path103-1"
       sodipodi:nodetypes="cssssascssssc" /><path
       style="fill:#cc9eb1;fill-opacity:0;stroke:#000000;stroke-width:0.264999"
       d="m 160.78365,184.04328 c 0,0 3.89083,0.53548 5.84652,0.50114 2.59089,-0.0455 5.25837,-0.11815 7.7174,-0.93545 1.31603,-0.4374 2.56382,-1.15886 3.60814,-2.07134 0.27509,-0.24035 0.66818,-0.86862 0.66818,-0.86862"
       id="path104-8"
       sodipodi:nodetypes="caaac" /><path
       style="fill:#cc9eb1;fill-opacity:0;stroke:#000000;stroke-width:0.264999"
       d="m 152.02652,182.13661 c 0,0 -0.0338,1.22407 0.21666,1.7592 0.13472,0.28789 0.39539,0.50824 0.65196,0.69586 1.05679,0.77276 2.31508,1.24238 3.54538,1.69 1.25389,0.45621 2.556,0.80339 3.8754,1.00226 2.1496,0.324 4.34374,0.41319 6.5147,0.30068 1.92043,-0.0995 3.83894,-0.39388 5.70453,-0.86028 1.06013,-0.26504 2.10092,-0.6302 3.09031,-1.09414 0.80364,-0.37683 1.59199,-0.81118 2.28849,-1.3614 0.20393,-0.1611 0.42648,-0.32723 0.54289,-0.55959 0.12629,-0.25208 0.13364,-0.56795 0.13364,-0.83522 0,-0.26727 -0.11002,-0.96144 -0.11002,-0.96144"
       id="path105-4"
       sodipodi:nodetypes="caaaaaaaaasc" /><path
       style="fill:#cc9eb1;fill-opacity:0;stroke:#000000;stroke-width:0.264999"
       d="m 152.4659,184.13533 c 0,0 -0.15185,1.10278 0.14174,1.65365 0.35385,0.66392 0.99105,1.00271 1.6064,1.32292 2.17444,1.13152 3.24007,1.38559 5.00818,1.74813 2.37142,0.48625 4.93889,0.63422 7.41779,0.56697 2.05623,-0.0558 4.13241,-0.26773 6.11848,-0.8032 1.26093,-0.33997 2.52229,-0.79579 3.6144,-1.5119 0.44711,-0.29317 0.88372,-0.6511 1.15755,-1.11031 0.12133,-0.20346 0.16412,-0.4495 0.18899,-0.68508 0.0282,-0.26671 -0.0472,-0.8032 -0.0472,-0.8032"
       id="path106-9"
       sodipodi:nodetypes="csssaaaaac" /><path
       style="fill:#cc9eb1;fill-opacity:0;stroke:#000000;stroke-width:0.264999"
       d="m 169.28584,157.44076 c 0,0 -0.70627,0.54418 -0.96857,0.89769 -0.20355,0.27435 -0.34488,0.59591 -0.44884,0.92132 -0.0292,0.0913 -0.0473,0.28349 -0.0473,0.28349"
       id="path107-6"
       sodipodi:nodetypes="caac" /><path
       style="fill:#cc9eb1;fill-opacity:0;stroke:#000000;stroke-width:0.264999"
       d="m 164.06504,157.29902 c 0,0 0.84331,0.63487 1.25205,0.96857 0.28979,0.23659 0.58572,0.46799 0.85044,0.73233 0.16198,0.16174 0.44885,0.51971 0.44885,0.51971"
       id="path108-3"
       sodipodi:nodetypes="caac" /><path
       style="fill:#96cbcf;fill-opacity:1;stroke:#000000;stroke-width:0.133845"
       d="m 158.50543,153.9531 c -0.9531,-0.20066 -1.78673,-0.73685 -2.11062,-1.36318 -0.27727,-0.53618 -0.27398,-1.43317 0.0433,-2.05555 0.17882,-0.35074 0.2443,-0.81493 0.24562,-1.35482 0.007,-2.76626 1.40087,-5.17352 4.1736,-6.54922 1.09975,-0.54564 2.51867,-0.81372 4.01703,-0.81603 1.60974,-0.002 2.5678,0.15761 3.72938,0.96754 0.87863,0.61264 0.90469,0.67644 1.77463,0.64631 0.79301,-0.0275 1.3432,0.19751 1.70934,0.50558 1.14695,0.9651 1.3141,3.44885 0.42333,4.77559 -0.4239,0.63136 -1.74415,1.16267 -2.21499,1.16683 -0.13674,0.001 -0.77612,-0.43592 -1.33422,-0.71154 -0.96888,-0.47849 -1.12261,-0.50113 -2.40449,-0.50113 -1.17791,0 -1.2239,0.044 -1.89642,0.35923 -0.817,0.38291 -1.94072,1.40453 -2.29194,2.08371 -0.11723,0.22669 -0.31893,0.81569 -0.44824,1.30888 -0.30672,1.16993 -0.18949,1.43641 -1.55279,1.84446 -0.48217,0.14433 -0.78192,-0.0791 -0.96486,-0.11767 z"
       id="path1-2"
       sodipodi:nodetypes="ssssscsssscssssssss" /><path
       style="fill:#b3c2c6;fill-opacity:1;stroke:#000000;stroke-width:0.133845"
       d="m 165.29382,184.66354 c -1.13221,0.0361 -3.97527,-0.30165 -4.27632,-0.37526 -0.38411,-0.0939 -0.0882,-1.14561 0.27218,-2.80882 0.38811,-1.79136 1.38612,-4.13509 3.04965,-7.02447 0.70558,-1.22552 2.90249,-3.5445 3.81224,-4.51964 0.70632,-0.75708 2.55785,-2.3499 3.58964,-3.08806 0.63217,-0.45227 0.73055,-1.32565 0.89416,-0.80886 0.33921,1.07144 1.63761,3.78832 3.2636,6.96209 2.09624,4.09167 2.43321,5.23267 2.68842,6.67823 0.16908,0.95771 -0.3925,1.24834 -0.75119,1.71861 -0.75372,0.98818 -2.76077,1.98699 -5.33673,2.71449 -1.74801,0.49368 -5.03304,0.48243 -7.20565,0.55169 z"
       id="path2-0"
       sodipodi:nodetypes="ssssssssssss" /><path
       style="fill:#00d5ee;fill-opacity:1;stroke:#000000;stroke-width:0.133845"
       d="m 159.31366,183.85954 c -0.33031,-0.33032 -0.38333,-0.99197 0.007,-2.53208 0.5933,-2.33886 1.9377,-4.92631 3.36292,-7.08963 1.96415,-2.98136 4.79928,-6.77533 5.26589,-6.80996 0.36552,-0.0271 1.24686,-0.49895 2.54656,-1.69881 0.99653,-0.91999 1.66481,-1.37969 1.75697,-1.23413 0.0655,0.10341 0.0782,0.22486 0.1336,0.59052 0.0386,0.44918 0.0891,0.51709 0.0957,0.76757 0.003,0.12895 -0.0365,0.59513 -0.4009,0.83547 -1.26466,0.8341 -2.82757,2.13993 -3.7966,3.12238 -2.36848,2.40127 -4.07287,4.59772 -5.46335,7.36459 -1.11342,2.21558 -1.67279,3.82951 -1.89647,5.47186 l -0.11725,1.5296 -0.47159,0.0334 c -0.25935,0.0184 -0.86424,-0.1922 -1.02283,-0.35079 z"
       id="path3-9"
       sodipodi:nodetypes="sssssscssssscsss" /><path
       style="fill:#36778f;fill-opacity:1;stroke:#000000;stroke-width:0.133845"
       d="m 161.53764,186.15147 c -2.68402,-0.13093 -6.33589,-1.80703 -8.54472,-2.93653 -1.41894,-0.7256 -1.95315,-2.65935 -1.5463,-4.17024 0.30024,-1.11502 1.7062,-3.08204 3.95835,-5.49693 0.67986,-0.72899 1.67448,-1.76709 2.10922,-2.3502 0.9716,-1.3032 2.01463,-3.37664 2.30617,-4.62703 0.27549,-1.18156 0.20605,-2.72446 -0.17728,-3.59106 -0.15046,-0.34014 -0.60441,-0.99641 -0.56123,-0.99641 0.12591,0 2.90215,1.68876 4.16922,2.53793 0.64046,0.42923 1.54239,1.11762 2.00429,1.52977 0.83756,0.74734 1.90735,1.38839 2.31694,1.38839 0.32296,0 0.22941,0.14443 -1.0152,1.56736 -1.1218,1.28253 -3.33665,4.26994 -4.3367,5.84937 -1.25278,1.9786 -2.64899,5.31219 -3.06118,7.30889 -0.34659,1.67888 -0.0487,2.03725 1.79147,2.15523 0.62474,0.0401 1.79739,0.14372 2.60588,0.23037 1.95768,0.20981 6.82725,-0.0209 8.43569,-0.31204 2.46604,-0.44642 5.18318,-2.26055 6.44959,-3.46139 0.34657,-0.67585 0.32554,0.96918 -0.0257,1.53758 -1.05949,1.71429 -4.70858,3.30774 -9.46341,3.77043 -1.71748,0.16712 -3.10037,0.27699 -4.50936,0.20826 z"
       id="path4-7"
       sodipodi:nodetypes="ssssssssssssssssscssss" /><path
       style="fill:#ffffff;fill-opacity:1;stroke:#000000;stroke-width:0.133845"
       d="m 166.46382,166.95251 c -0.39568,-0.18419 -1.21768,-0.84215 -1.65343,-1.24559 -0.90921,-0.84176 -2.54069,-1.94074 -4.9568,-3.33355 -1.9557,-1.12739 -2.6718,-1.61093 -3.88882,-2.84851 -1.87222,-1.90387 -2.12563,-4.18848 -0.69037,-5.48359 0.66151,-0.59692 1.60234,-0.70302 2.15686,-0.47357 0.61395,0.25404 1.67089,0.55671 2.28151,0.55986 0.29636,0.002 1.22474,0.0168 1.51746,-0.2484 0.71317,-0.6461 0.58581,-0.1478 0.70325,0.24781 0.0946,0.31849 0.24445,0.75733 0.45646,1.19833 0.38754,0.80609 1.31043,1.81391 2.45237,2.66109 0.33075,0.24537 0.78392,0.59286 1.15141,0.94544 0.48804,0.46824 0.5314,0.63233 0.64925,0.60374 0.17702,-0.0429 0.1217,-0.2129 -0.35366,-0.67749 l -1.33873,-0.95909 1.91345,0.30499 c 0.64311,-0.001 1.7717,-0.29867 1.7717,-0.28592 0,0.0128 -0.72601,0.73399 -0.83626,0.99785 -0.24978,0.59782 -0.27467,0.62913 -0.21357,0.60468 0.0566,-0.0226 0.0459,0.0376 0.12858,-0.21286 0.1421,-0.43056 0.73369,-1.12996 2.12107,-2.27881 0.36451,-0.30184 0.98005,-0.9813 1.27998,-1.41353 0.16176,-0.23312 0.21849,-0.76025 0.42622,-0.9474 l 0.82451,0.45729 c 1.39976,0.77634 3.71361,3.30871 4.1712,4.29138 0.67753,1.45496 0.32256,2.63994 -1.77603,3.71416 -1.8154,0.92927 -2.74987,1.31708 -4.12223,2.59643 -0.62474,0.5824 -1.48503,1.09388 -1.66676,1.2183 -0.45894,0.31421 -0.95759,0.71786 -1.79992,0.32575 z"
       id="path5-37"
       sodipodi:nodetypes="cssssscsssssssccsssssscssssscc" /><path
       style="fill:#e6f4f5;fill-opacity:1;stroke:#000000;stroke-width:0.133845"
       d="m 165.59184,158.05489 c -0.38733,-0.10864 -1.29769,-0.63383 -1.49835,-0.73896 -1.20278,-0.63011 -2.0594,-2.1189 -2.23306,-3.50881 -0.21198,-1.69659 0.90519,-3.8747 2.58591,-4.70006 0.67042,-0.32922 1.43034,-0.39703 2.54964,-0.39703 1.19254,0 1.58066,0.26403 2.37477,0.69458 0.92795,0.50312 1.45562,1.22113 1.9188,2.16106 0.24547,0.49812 0.32471,1.09423 0.32371,2.07403 -0.001,1.04365 -0.23717,1.33833 -0.54524,1.91813 -1.01794,1.91587 -3.50031,3.05126 -5.47618,2.49706 z"
       id="path6-2"
       sodipodi:nodetypes="ssssssssss" /><path
       style="fill:#e6f4f5;fill-opacity:1;stroke:#000000;stroke-width:0.133845"
       d="m 161.41274,189.28541 c -3.09154,-0.37406 -5.28577,-1.07653 -7.42705,-2.2265 -1.16094,-0.62348 -1.53751,-1.44499 -1.53751,-2.12066 0,-0.37223 0.0172,-0.53698 0.23386,-0.34587 0.84946,0.74944 4.99183,2.43993 7.19957,2.81199 5.94456,1.00182 13.30377,-0.19501 17.01734,-2.31387 l 0.68927,-0.39328 0.16651,0.39968 c 0.65318,1.56777 -4.00807,3.85146 -8.88094,4.37066 -1.73421,0.18478 -5.45905,0.0171 -7.24393,-0.19885 z"
       id="path7-6"
       sodipodi:nodetypes="cssssscsscc" /><path
       style="fill:#e6f4f5;fill-opacity:1;stroke:#000000;stroke-width:0.133845"
       d="m 162.60649,187.75991 c -3.06635,-0.2485 -6.23285,-1.14022 -8.57288,-2.31196 -1.36473,-0.68337 -2.0634,-1.52571 -2.02799,-2.23411 l 0.0352,-0.70412 0.94555,0.67781 c 1.25442,0.89922 5.14649,2.1157 7.49106,2.5911 1.28725,0.26102 2.14665,0.56932 4.68276,0.56594 3.72317,-0.005 5.76559,-0.30329 8.60274,-1.16742 1.63466,-0.49787 2.98849,-1.12299 3.81812,-1.95291 l 0.97603,-0.97638 0.0334,0.93398 c 0.0193,0.54004 -0.14936,0.851 -1.37199,1.73439 -3.18297,2.2998 -9.62283,3.24802 -14.612,2.84368 z"
       id="path8-0"
       sodipodi:nodetypes="ssscssssscsss" /></g></svg>
