<?xml version="1.0" encoding="UTF-8" standalone="no"?>
<!-- Created with Inkscape (http://www.inkscape.org/) -->

<svg
   width="53.186634mm"
   height="60.135647mm"
   viewBox="0 0 53.186634 60.135647"
   version="1.1"
   id="svg1"
   xml:space="preserve"
   inkscape:version="1.4.3 (0d15f75, 2025-12-25)"
   sodipodi:docname="рисунок1.svg"
   xmlns:inkscape="http://www.inkscape.org/namespaces/inkscape"
   xmlns:sodipodi="http://sodipodi.sourceforge.net/DTD/sodipodi-0.dtd"
   xmlns="http://www.w3.org/2000/svg"
   xmlns:svg="http://www.w3.org/2000/svg"
   xmlns:rdf="http://www.w3.org/1999/02/22-rdf-syntax-ns#"
   xmlns:cc="http://creativecommons.org/ns#"
   xmlns:dc="http://purl.org/dc/elements/1.1/"><defs
     id="defs1" /><sodipodi:namedview
     id="base"
     pagecolor="#ffffff"
     bordercolor="#000000"
     borderopacity="0.3"
     inkscape:pageopacity="0.0"
     inkscape:pageshadow="2"
     inkscape:zoom="0.35"
     inkscape:cx="537.14285"
     inkscape:cy="-195.71428"
     inkscape:document-units="mm"
     inkscape:showpageshadow="2"
     inkscape:pagecheckerboard="0"
     inkscape:deskcolor="#d1d1d1"
     inkscape:window-width="1920"
     inkscape:window-height="1009"
     inkscape:window-x="-8"
     inkscape:window-y="-8"
     inkscape:window-maximized="1"
     inkscape:current-layer="svg1"><inkscape:page
       x="0"
       y="0"
       width="53.186634"
       height="60.135647"
       id="page24"
       margin="0"
       bleed="0"
       inkscape:export-filename="Страница 12.svg"
       inkscape:export-xdpi="96"
       inkscape:export-ydpi="96" /></sodipodi:namedview><metadata
     id="metadata1"><rdf:RDF><cc:Work
         rdf:about=""><dc:format>image/svg+xml</dc:format><dc:type
           rdf:resource="http://purl.org/dc/dcmitype/StillImage" /></cc:Work></rdf:RDF></metadata><g
     id="g17"
     transform="translate(-88.754053,-131.76387)"><path
       style="fill:#cc9eb1;fill-opacity:0;stroke:#000000;stroke-width:0.264999"
       d="m 113.91125,134.96592 c 0,0 -0.0346,-0.34815 0.0334,-0.50113 0.20794,-0.46777 0.61347,-0.86911 1.06908,-1.10249 0.34062,-0.17448 0.75649,-0.2172 1.13589,-0.16704 0.36097,0.0477 0.70885,0.21872 1.00227,0.43431 0.26087,0.19168 0.46788,0.45761 0.63476,0.73499 0.11088,0.18429 0.1942,0.38997 0.23386,0.60136 0.0103,0.0547 0,0.16704 0,0.16704"
       id="path88-9"
       sodipodi:nodetypes="caaaaaac" /><path
       style="fill:#00d5ee;fill-opacity:1;stroke:#000000;stroke-width:0.0946428"
       d="m 117.75188,134.90565 c -0.11195,-0.11195 -2.16515,-0.22352 -2.98911,-0.11488 -0.7523,0.0992 -0.99809,0.13183 -0.95084,-0.29788 0.0217,-0.19781 0.1741,-0.85657 0.78244,-1.19749 0.97574,-0.54681 2.81903,-0.55073 3.28207,0.73819 0.12153,0.33829 0.34278,0.96694 0.008,0.89824 -0.26888,-0.0552 -0.25112,-0.05 -0.27454,-0.0733 z"
       id="path349-6"
       sodipodi:nodetypes="cssssscc" /><g
       id="g14"><path
         style="fill:#cc9eb1;fill-opacity:0;stroke:#000000;stroke-width:0.264999"
         d="m 101.7839,137.57179 c 0,0 -0.43432,-0.13363 -0.63477,0.40091 -0.20045,0.53454 0.0668,11.62622 0.26727,12.62848 0.20045,1.00226 2.07134,2.40543 3.14042,2.53907 1.06908,0.13363 21.11429,0.20045 21.11429,0.20045 0,0 1.9377,-0.20045 2.80633,-0.73499 0.86863,-0.53454 1.33635,-1.26953 1.46998,-2.00453 0.13364,-0.73499 0.53454,-11.82667 0.46772,-12.36121 -0.0668,-0.53454 -0.33408,-0.80181 -0.80181,-0.80181 -0.46772,0 -5.4122,0.13364 -5.4122,0.13364 0,0 -0.33409,0.33408 -0.33409,0.8018 0,0.46773 0.006,6.84703 -0.0904,10.86257 -0.008,0.33987 -0.29544,0.39955 -0.51091,0.39616 -0.26681,-0.004 -0.60444,-0.11387 -0.61687,-0.51022 -0.13303,-4.24032 -0.0513,-11.01578 -0.0513,-11.01578 0,0 0,-0.53453 -0.46773,-0.60135 -0.46772,-0.0668 -5.54584,0 -5.54584,0 0,0 -0.13363,-0.13364 -0.20045,0.73499 -0.0668,0.86862 0.0833,7.49172 0.0731,11.46763 -7.4e-4,0.28551 -0.68293,0.35422 -1.14505,0.32059 -0.61957,-0.0451 -0.43406,-1.50498 -0.44357,-3.27289 -0.0232,-4.30829 0.31284,-8.31488 0.1792,-8.64897 -0.13363,-0.33408 -0.26727,-0.53453 -0.66817,-0.53453 -0.40091,0 -4.40995,-0.0668 -4.74404,-0.0668 -0.33408,0 -0.83521,-0.0334 -0.90203,0.3675 -0.0668,0.4009 -0.0193,5.25637 -1e-5,7.88444 0.006,0.75733 0.071,1.32124 0.0334,2.27179 -0.0184,0.4647 0.0641,1.32713 -0.4009,1.33635 -0.75351,0.0149 -0.78033,-0.11659 -0.73499,-2.13816 0.0878,-3.91596 0.0668,-8.78648 -0.13364,-9.05375 -0.20045,-0.26727 0.0668,-0.46772 -0.66817,-0.60135 -0.73499,-0.13364 -4.10927,-2e-5 -4.10927,-2e-5 z"
         id="path79-8"
         sodipodi:nodetypes="cssscsssscssascscssssssssasassscc" /><path
         style="fill:#cc9eb1;fill-opacity:0;stroke:#000000;stroke-width:0.264999"
         d="m 100.98209,139.27564 c 0.16704,0.0334 6.61492,0.0334 6.61492,0.0334"
         id="path80-6" /><path
         style="fill:#cc9eb1;fill-opacity:0;stroke:#000000;stroke-width:0.264999"
         d="m 108.6995,139.27564 6.44787,0.0668"
         id="path81-0" /><path
         style="fill:#cc9eb1;fill-opacity:0;stroke:#000000;stroke-width:0.264999"
         d="m 116.38349,139.24223 6.28084,0.10023"
         id="path82-2" /><path
         style="fill:#cc9eb1;fill-opacity:0;stroke:#000000;stroke-width:0.264999"
         d="m 123.86704,139.34246 6.5481,-0.0668"
         id="path83-4" /><path
         style="fill:#cc9eb1;fill-opacity:0;stroke:#000000;stroke-width:0.264999"
         d="m 108.6995,145.38943 c -0.16705,-0.23386 -0.53051,-2.2727 -0.50113,-3.70837 0.0281,-1.37109 0.50113,-2.93995 0.50113,-2.93995"
         id="path84-8"
         sodipodi:nodetypes="csc" /><path
         style="fill:#cc9eb1;fill-opacity:0;stroke:#000000;stroke-width:0.264999"
         d="m 114.98033,148.16235 c 0,0 0.46772,0.23386 0.80181,0.23386 0.33408,0 0.50113,-0.13363 0.50113,-0.13363"
         id="path85-6" /><path
         style="fill:#cc9eb1;fill-opacity:0;stroke:#000000;stroke-width:0.264999"
         d="m 122.58367,146.2719 c 0,0 0.49596,-2.05501 0.6152,-3.22108 0.15354,-1.50149 0.0347,-2.54873 -0.0668,-3.24064 -0.11781,-0.80277 -0.50113,-1.46998 -0.50113,-1.46998"
         id="path86-5"
         sodipodi:nodetypes="cssc" /><path
         style="fill:#cc9eb1;fill-opacity:0;stroke:#000000;stroke-width:0.264999"
         d="m 121.97456,137.46381 c 0,0 -1.10573,-1.47804 -2.75133,-2.03017 -1.37515,-0.4614 -2.86252,-0.69907 -4.30972,-0.60136 -0.94626,0.0639 -1.87597,0.37626 -2.73951,0.7684 -0.62997,0.28608 -1.21077,0.68699 -1.73725,1.13589 -0.25196,0.21483 -0.66818,0.735 -0.66818,0.735"
         id="path87-0"
         sodipodi:nodetypes="csaaac" /><path
         style="fill:#cc9eb1;fill-opacity:0;stroke:#000000;stroke-width:0.264999"
         d="m 105.66772,153.16491 c 0,0 -0.25539,0.68484 -0.50791,0.93313 -0.46681,0.45899 -0.86419,0.5509 -0.98037,1.004 -0.0985,0.38401 0.0782,0.83072 0.31892,1.14573 0.27548,0.36057 0.61286,0.71545 1.16936,0.6969 7.44707,-0.24826 12.57185,-0.1142 19.84375,0 0.3381,0.005 0.72184,-0.0938 0.99792,-0.30543 0.42088,-0.32265 0.87075,-0.81853 0.84471,-1.34822 -0.0238,-0.48435 -0.59455,-0.76626 -0.88958,-1.15112 -0.22433,-0.29263 -0.66957,-0.8805 -0.66957,-0.8805"
         id="path89-0"
         sodipodi:nodetypes="csaassaaac" /><path
         style="fill:#cc9eb1;fill-opacity:0;stroke:#000000;stroke-width:0.264999"
         d="m 105.95998,156.98224 c 0,0 -0.0334,0.30068 0.16705,0.83522 0.20045,0.53454 0.26727,0.63477 0.63476,0.73499 0.3675,0.10023 11.41759,-0.0774 17.74002,0.0334 0.17308,0.003 0.26863,-0.0187 0.37357,-0.0925 0.21056,-0.14803 0.32801,-0.37525 0.42824,-0.64252 0.10022,-0.26727 0.16704,-0.86863 0.16704,-0.86863"
         id="path90-0"
         sodipodi:nodetypes="csssasc" /><path
         style="fill:#cc9eb1;fill-opacity:0;stroke:#000000;stroke-width:0.264999"
         d="m 124.89726,158.50382 c 0,0 0.37447,0.6178 0.0945,1.27567 -0.57334,1.34717 -0.70871,2.59859 -0.47247,4.53572 0.23623,1.93713 2.26786,8.26823 3.07105,9.87463 0.8032,1.6064 1.59172,3.27553 2.55135,4.81919 0.36923,0.59395 1.28428,1.00376 1.22842,1.70089 -0.0463,0.57724 -0.74225,0.91383 -1.22843,1.22843 -2.41883,1.5652 -5.23852,2.59048 -8.07924,3.07105 -3.96666,0.67106 -8.79941,0.67529 -10.57858,0.37797 -1.52649,-0.25509 -6.85426,-1.18593 -9.73764,-2.97655 -0.64358,-0.39968 -1.50628,-0.89791 -1.55915,-1.65365 -0.0647,-0.92413 0.66146,-1.18117 1.6064,-2.26786 0.49019,-0.56372 3.02381,-5.71689 3.26004,-6.75632 0.23624,-1.03943 1.88989,-6.28385 1.93713,-7.46503 0.0472,-1.18118 -0.0473,-3.59078 -0.23623,-4.016 -0.18899,-0.42522 -0.37798,-0.47247 -0.42523,-0.89769 -0.0473,-0.42522 0,-0.89769 0,-0.89769 l 0.42523,0.0472"
         id="path91-6"
         sodipodi:nodetypes="csssaaassaassssscc" /><path
         style="fill:#cc9eb1;fill-opacity:0;stroke:#000000;stroke-width:0.264999"
         d="m 100.4233,179.90672 c 0,0 -0.769799,0.63976 -0.944939,1.08669 -0.18397,0.46945 -0.20515,1.03305 -0.0473,1.5119 0.23878,0.72413 0.799889,1.34811 1.417409,1.79539 1.77949,1.28893 4.05855,1.73158 6.18936,2.26786 1.61992,0.4077 4.11049,0.56696 4.96094,0.7087 0.85044,0.14174 6.26124,0.20728 9.35491,-0.18899 2.55375,-0.32711 5.13152,-0.81526 7.51228,-1.79538 0.74812,-0.30799 1.47219,-0.72021 2.07363,-1.26134 0.41865,-0.37668 0.83279,-0.81367 1.0251,-1.34299 0.17514,-0.48209 0.23525,-1.05189 0.0692,-1.5372 -0.13568,-0.39659 -0.81417,-0.95829 -0.81417,-0.95829"
         id="path92-1"
         sodipodi:nodetypes="caaaasaaaaac" /><path
         style="fill:#cc9eb1;fill-opacity:0;stroke:#000000;stroke-width:0.264999"
         d="m 99.470341,182.54825 c 0,0 -0.11244,1.73561 0.1754,2.5307 0.25251,0.69749 0.739539,1.32153 1.302939,1.80407 1.00619,0.86177 2.27694,1.40859 3.54132,1.80408 2.44558,0.76496 5.05574,0.96484 7.61718,1.03566 3.93386,0.10876 6.88257,0.2947 10.28988,-0.10023 2.01817,-0.23393 4.07784,-0.53953 5.94675,-1.33635 0.94611,-0.40339 1.85409,-0.96778 2.57247,-1.70384 0.39493,-0.40465 0.70325,-0.90724 0.90203,-1.43658 0.21803,-0.58061 0.33427,-1.14095 0.29233,-1.83748 -0.0353,-0.58676 -0.15869,-0.62641 -0.15869,-0.62641"
         id="path93-3"
         sodipodi:nodetypes="caaasaaaasc" /><path
         style="fill:#cc9eb1;fill-opacity:0;stroke:#000000;stroke-width:0.264999"
         d="m 105.50235,170.07934 c 0,0 0.71279,3.92343 1.53553,5.7169 1.20758,2.63234 2.90134,4.84237 4.89007,7.18154 0.86925,1.02243 3.23642,2.55134 3.23642,2.55134"
         id="path94-8"
         sodipodi:nodetypes="casc" /><path
         style="fill:#cc9eb1;fill-opacity:0;stroke:#000000;stroke-width:0.264999"
         d="m 106.0457,168.14221 c 0,0 0.89443,4.31508 1.74814,6.33111 0.72673,1.71618 1.74049,3.31059 2.83482,4.81919 0.94997,1.30959 2.00165,2.56536 3.21279,3.63802 1.14459,1.01372 3.77977,2.59859 3.77977,2.59859"
         id="path95-9"
         sodipodi:nodetypes="caaac" /><path
         style="fill:#cc9eb1;fill-opacity:0;stroke:#000000;stroke-width:0.264999"
         d="m 106.89543,161.12492 c 0,0 2.4102,4.89051 5.17834,7.3165 2.80375,2.4572 5.89359,4.66682 9.25421,6.28084 2.11155,1.01412 4.39886,1.72222 6.71515,2.07134 0.30833,0.0465 0.93544,0 0.93544,0"
         id="path96-3"
         sodipodi:nodetypes="csaac" /><path
         style="fill:#cc9eb1;fill-opacity:0;stroke:#000000;stroke-width:0.264999"
         d="m 112.47468,158.61927 c 0,0 2.95292,2.31654 4.34313,3.57473 2.03761,1.84413 3.91678,3.85638 5.84652,5.81311 0.98988,1.00373 1.99364,1.99529 2.93996,3.04019 0.45084,0.49779 1.30294,1.5368 1.30294,1.5368"
         id="path97-4"
         sodipodi:nodetypes="caaac" /><path
         style="fill:#cc9eb1;fill-opacity:0;stroke:#000000;stroke-width:0.264999"
         d="m 115.54828,158.51904 c 0,0 1.81964,1.44927 2.67269,2.23839 1.67066,1.54545 3.25608,3.18505 4.77745,4.87767 0.87786,0.97668 1.70592,1.99856 2.50565,3.04019 0.0583,0.076 0.16704,0.23386 0.16704,0.23386"
         id="path98-4"
         sodipodi:nodetypes="caaac" /><path
         style="fill:#36778f;fill-opacity:1;stroke:#000000;stroke-width:0.133845"
         d="m 115.98852,184.52513 c -2.52127,-1.67185 -4.03681,-3.12042 -6.11317,-6.20895 -1.70079,-2.52987 -2.93635,-4.54286 -3.42744,-8.2463 l -0.29295,-2.20921 0.4059,-1.44687 c 0.30083,-1.07234 0.33464,-2.15515 0.35496,-3.02243 l 0.0435,-1.85904 0.57651,1.25027 c 0.86893,1.88442 2.62885,3.96569 3.44567,4.84034 2.09611,2.24449 6.47066,5.38513 9.79441,7.03176 2.2352,1.10735 4.22221,1.77894 6.44278,2.17762 l 1.78476,0.29075 0.50166,0.7847 c 0.287,0.44892 0.58115,1.02155 0.96702,1.4554 0.38587,0.43385 1.00868,0.92509 0.93781,1.44075 -0.0471,0.34239 -0.56117,0.82932 -2.08501,1.68257 -2.52592,1.41437 -5.17713,2.3861 -8.37359,2.76909 -3.09628,0.37098 -3.20672,0.43405 -4.96287,-0.73045 z"
         id="path336-7"
         sodipodi:nodetypes="ssscsscsssscssssss" /><path
         style="fill:#36778f;fill-opacity:1;stroke:#000000;stroke-width:0.133845"
         d="m 124.03882,166.70023 c -1.73561,-2.09628 -5.07078,-5.54868 -7.05229,-7.22152 -0.45937,-0.38781 -1.14311,-0.68601 -1.00058,-0.79814 0.2697,-0.21217 2.37379,-0.0756 4.72516,-0.0222 l 4.01645,-0.0945 0.44885,0.67924 c 0.11283,0.17075 -0.29823,0.89622 -0.46062,1.33467 -0.24995,0.67485 -0.24723,0.73302 -0.24294,2.2037 0.004,1.45047 0.065,1.9186 0.3682,3.07477 0.19973,0.76162 0.53346,2.33846 0.51064,2.40692 -0.0228,0.0685 -0.89946,-1.06364 -1.31287,-1.56298 z"
         id="path337-8"
         sodipodi:nodetypes="sssscssssss" /><path
         style="fill:#36778f;fill-opacity:1;stroke:#000000;stroke-width:0.133845"
         d="m 105.30588,156.89437 c -0.71748,-0.0689 -0.97919,-0.95116 -1.0543,-1.17539 -0.0584,-0.17425 -0.3382,-0.56347 0.51785,-1.27117 0.45738,-0.37813 0.63575,-0.90676 0.63575,-0.98643 0,-0.10362 3.19587,-0.0462 10.33765,0.0235 l 10.19592,0.0266 0.49733,0.51562 c 0.35658,0.36969 0.86546,0.98209 0.91119,1.14799 0.0992,0.3599 -0.29472,1.05439 -0.8052,1.38887 -0.33589,0.22009 -1.14142,0.37746 -10.86001,0.37746 h -9.88605 z"
         id="path338-8"
         sodipodi:nodetypes="ssssscsssscs" /><path
         style="fill:#b3c2c6;fill-opacity:1;stroke:#000000;stroke-width:0.133845"
         d="m 111.57195,185.53849 c -1.02715,-0.0505 -3.51473,-0.61756 -5.00747,-1.02879 -2.62073,-0.72196 -5.29911,-2.18389 -6.1898,-3.07459 -0.646539,-0.64654 -0.542509,-0.93982 0.45931,-2.00651 0.48218,-0.51339 1.23715,-1.52049 1.60116,-2.18826 0.8807,-1.61567 2.57303,-5.22537 2.7587,-5.96274 0.18492,-0.73438 0.36098,-0.93273 0.57687,0.12602 0.28925,1.41848 0.93523,4.21503 1.47001,5.27866 1.34295,2.67099 4.37001,6.16686 6.118,7.61041 l 1.59038,1.31339 -1.19283,0.004 c -0.57821,0.002 -0.52128,0.0106 -0.7433,-2.7e-4 z"
         id="path339-2"
         sodipodi:nodetypes="ssssssssscsss" /><path
         style="fill:#b3c2c6;fill-opacity:1;stroke:#000000;stroke-width:0.133845"
         d="m 126.13176,176.49556 c -4.33644,-1.00558 -8.08314,-3.25735 -12.69703,-6.93119 -1.98281,-1.57883 -3.23887,-2.87566 -4.34322,-4.43052 -1.08905,-1.53332 -1.85301,-2.7596 -2.21118,-4.04061 -0.0409,-0.14642 -0.16913,-0.84566 -0.31451,-1.16605 -0.14539,-0.3204 -0.29981,-0.78577 -0.19347,-0.92566 l 0.0236,-0.48486 3.42627,0.006 2.71757,0.0532 2.11859,1.68799 c 3.00556,2.3947 12.21542,12.15355 12.21542,12.73258 0,0.0854 0.69647,1.08634 1.17235,2.05116 0.97801,1.98283 1.47524,2.2341 -0.28439,1.82605 z"
         id="path340-9"
         sodipodi:nodetypes="sssssscccsssss" /><path
         style="fill:#b3c2c6;fill-opacity:1;stroke:#000000;stroke-width:0.133845"
         d="m 108.84124,153.42444 c -4.23906,0.0597 -4.26315,-0.0438 -5.22797,-0.52891 -0.91251,-0.45881 -1.63612,-1.08125 -1.97177,-1.62435 -0.2573,-0.41632 -0.34871,-0.96341 -0.44802,-3.24771 -0.0614,-1.41197 -0.11569,-3.52724 -0.14646,-5.16262 l -0.0644,-3.42222 3.39451,-0.0532 3.27639,-0.0177 0.0227,4.96292 c 0.0242,5.28828 0.0769,4.93762 0.53344,4.9258 0.7281,-0.0188 0.59225,0.0676 0.5187,-5.14494 l -0.0652,-4.61874 3.20032,0.0167 3.20169,-0.0591 -0.1004,5.5644 c -0.0989,5.481 -0.11398,4.91817 0.73135,4.91817 0.23838,0 0.50558,-0.0722 0.59378,-0.16036 0.11808,-0.11807 0.16037,-1.29339 0.16037,-4.45716 0,-2.36324 -0.0735,-4.69084 -0.0536,-5.12614 l 0.0409,-0.89431 3.12,-0.0148 3.12001,-0.009 -0.0251,5.21781 c -0.0217,4.51582 0.0317,4.85544 0.24314,5.01006 0.26948,0.19705 0.46512,0.14935 0.74094,-0.0252 0.1574,-0.0996 0.11746,-0.88414 0.16898,-5.03659 l 0.0613,-4.93972 3.36515,-0.0591 3.18798,0.0709 -0.0357,2.0025 c -0.1496,8.40246 -0.31876,9.28544 -0.50733,9.73814 -0.41711,1.00135 -1.92938,1.83849 -3.81448,2.15794 -0.93877,0.15908 -9.31657,-0.095 -13.86676,-0.0309 z"
         id="path341-1"
         sodipodi:nodetypes="ssssscccssscccssssscccsssscccsssss" /><path
         style="fill:#96cbcf;fill-opacity:1;stroke:#000000;stroke-width:0.133845"
         d="m 101.02132,138.07223 c 0.0681,-0.20256 0.20426,-0.43867 0.37146,-0.52255 0.18057,-0.0906 2.02702,-0.0951 2.02702,-0.0951 0,0 2.08769,-0.0339 3.76335,0.0584 0.18109,0.01 0.28624,0.18668 0.35576,0.33364 0.20637,0.43621 0.13922,1.44297 0.0959,1.4445 l -0.18308,0.006 -3.07907,0.0473 -3.39208,0.0472 c 0,0 -0.0996,-0.90263 0.0407,-1.31982 z"
         id="path342-3"
         sodipodi:nodetypes="ascsasccca" /><path
         style="fill:#96cbcf;fill-opacity:1;stroke:#000000;stroke-width:0.133845"
         d="m 108.64844,138.74921 c -0.062,-1.19017 0.27594,-1.1614 0.41474,-1.29103 0.1468,-0.1371 5.63277,-0.067 5.76669,0.043 0.0919,0.0755 0.34671,0.87673 0.22944,1.13648 l 0.0472,0.77803 -3.41698,0.0919 -3.00511,-0.0668 z"
         id="path343-5"
         sodipodi:nodetypes="sssscccs" /><path
         style="fill:#96cbcf;fill-opacity:1;stroke:#000000;stroke-width:0.133845"
         d="m 116.4332,138.30071 0.0168,-0.87876 1.94036,-0.11559 c 1.46749,-0.0874 3.83306,-0.009 4.08848,0.23802 0.14776,0.14292 0.21942,0.10506 0.20333,1.10223 l 0.002,0.68641 -3.12818,-0.0354 -3.13999,0.0236 z"
         id="path344-9"
         sodipodi:nodetypes="ccssscccc" /><path
         style="fill:#96cbcf;fill-opacity:1;stroke:#000000;stroke-width:0.133845"
         d="m 123.80968,138.28855 c 0.008,-0.29919 0.0686,-0.52529 0.29031,-0.75169 0.1336,-0.1364 2.43346,-0.11937 2.99404,-0.12273 1.39408,-0.008 2.64951,-0.0795 3.06676,0.12163 0.15581,0.0751 0.37503,0.59417 0.36101,0.90734 l -0.0473,1.05528 -3.26259,-0.0354 -3.35708,0.0354 c 0,0 -0.056,-0.81581 -0.0452,-1.20983 z"
         id="path345-8"
         sodipodi:nodetypes="ssssscccs" /><path
         style="fill:#e6f4f5;fill-opacity:1;stroke:#000000;stroke-width:0.0473215"
         d="m 114.98313,148.56801 c -0.2385,-0.0434 -0.006,0.12014 -0.011,-0.12062 -0.0469,-2.19431 -0.0414,-5.52818 -0.0414,-5.52818 l -0.0386,-4.73472 0.006,-0.45344 c 0.003,-0.23002 -0.19096,-0.25358 -0.37988,-0.28354 -0.0832,-0.0132 -0.42777,-0.006 -1.09939,-0.006 -0.40603,0 -1.01344,-0.0475 -1.83469,-0.0646 l -1.76486,-0.0312 0.30431,-0.4153 c 0.51992,-0.70956 2.32432,-1.68344 3.87145,-2.01107 0.9351,-0.19803 2.90531,-0.20681 4.19318,0.0951 1.47007,0.34468 2.48245,0.91317 3.29545,1.88502 l 0.41023,0.43417 -2.8261,-0.007 c -2.97909,-0.007 -2.5054,-0.01 -2.59572,0.48867 -0.0683,0.37672 0.0353,2.89883 -0.005,6.81759 0,0 -0.002,1.92642 -0.0561,3.87361 -0.002,0.0703 0.0875,-0.0207 -0.26564,0.13299 -0.59679,0.25976 -0.22576,0.001 -0.33848,0.007 -0.0644,0.003 0.0462,0.0994 -0.19271,0.0145 -0.0622,-0.0221 0.0191,0.0231 -0.21876,-0.0266 -0.17039,-0.0356 -0.0872,-0.007 -0.28222,-0.0427 z"
         id="path346-4"
         sodipodi:nodetypes="ssccsssscsssscsssssassss" /><path
         style="fill:#e6f4f5;fill-opacity:1;stroke:#000000;stroke-width:0.0473215"
         d="m 108.32627,143.63873 c -0.39306,-1.40466 -0.14251,-3.59158 0.31326,-4.42351 0.10931,-0.19951 0.0231,4.15189 0.009,4.65974 l 0.002,0.92132 z"
         id="path347-0"
         sodipodi:nodetypes="ssscs" /><path
         style="fill:#e6f4f5;fill-opacity:1;stroke:#000000;stroke-width:0.0473215"
         d="m 122.65112,141.58939 0.0467,-3.20099 0.32464,0.95854 c 0.35858,1.05876 0.51174,3.82373 -0.0722,5.50399 l -0.28682,0.82532 z"
         id="path348-7"
         sodipodi:nodetypes="ccsscc" /><path
         style="fill:#00d5ee;fill-opacity:1;stroke:#000000;stroke-width:0.0946428"
         d="m 124.68716,170.07504 c -0.74262,-0.8332 -2.79128,-2.99813 -4.62664,-4.81989 -3.06644,-3.04373 -3.78269,-3.57779 -5.89105,-5.31029 l -1.58118,-1.2993 0.87463,-0.0615 c 0.27457,-0.0193 1.18067,-0.008 1.57516,0.0472 l 0.79503,0.0379 1.18935,0.86149 c 1.42764,1.03409 4.85624,4.80472 6.25777,6.43818 0.53511,0.62366 1.45044,1.68199 1.80309,2.14974 0.5722,0.75897 0.70545,1.07199 1.04276,2.12611 0.20788,0.64965 0.9313,2.48815 0.88211,2.83052 -0.0495,0.34421 -0.60984,-1.08032 -1.35246,-1.9135 z"
         id="path350-3"
         sodipodi:nodetypes="ssscsscsssssss" /><path
         style="fill:#00d5ee;fill-opacity:1;stroke:#000000;stroke-width:0.0946428"
         d="m 113.8887,184.69224 c -1.25062,-0.96481 -1.85346,-1.35067 -2.54814,-2.16331 -1.61579,-1.89013 -2.85561,-3.69607 -3.77005,-5.41089 -0.76398,-1.43265 -1.12491,-2.77329 -1.73756,-5.54788 -0.26492,-1.19981 -0.26512,-1.58136 -0.0976,-2.12612 0.0977,-0.3176 0.26058,-0.95907 0.29099,-0.8766 0.0288,0.078 0.29749,1.27744 0.51057,2.1458 0.88654,3.61294 1.76839,5.70854 4.08695,8.81244 1.71709,2.2987 3.37008,3.45003 5.35544,5.04562 l 1.54722,0.9342 -0.95234,0.0765 c -0.33125,7.9e-4 -1.41678,0.03 -1.51609,-0.0115 -0.37504,-0.15653 0.33461,0.28198 -0.34254,-0.24042 z"
         id="path351-6"
         sodipodi:nodetypes="sssssssssccsss" /><path
         style="fill:#96cbcf;fill-opacity:1;stroke:#000000;stroke-width:0.0946428"
         d="m 106.45227,158.4329 c -0.25827,-0.03 -0.65326,-1.25974 -0.54214,-1.37075 0.0827,-0.0826 19.47967,-0.0817 19.56235,0.001 0.0981,0.0981 0.0216,1.02285 -0.33787,1.18079 l -0.35269,0.25986 -9.05179,-0.0236 c -7.81051,-0.0204 -8.04797,0.0957 -8.26204,0.0708 z"
         id="path352-1"
         sodipodi:nodetypes="sssscsss" /><path
         style="fill:#e6f4f5;fill-opacity:1;stroke:#000000;stroke-width:0.0946428"
         d="m 113.25087,187.40236 c -0.67371,-0.0425 -3.25127,-0.22953 -4.4176,-0.39598 -1.17478,-0.16765 -4.24122,-1.02917 -5.45073,-1.44314 -2.6368,-0.90246 -4.183239,-2.63914 -4.075299,-4.10572 0.0225,-0.30545 0.1446,-0.65245 0.45183,-0.91894 l 0.17907,-0.15533 0.230879,0.70471 c 0.15932,0.48629 0.46517,0.58812 1.40917,1.23984 1.8498,1.27705 5.12806,2.26377 9.312,3.06035 1.04381,0.19873 1.25564,0.18232 4.17969,0.28064 4.07615,-0.11957 6.04923,-0.30561 8.69059,-0.92643 2.26837,-0.53316 2.23993,-0.6943 6.28901,-2.63872 0.94127,-0.45201 1.1175,-0.81245 1.32806,-1.0857 l 0.12206,-0.42885 0.32238,0.28858 c 0.11095,0.0993 0.30707,0.55697 0.32919,0.82375 0.22912,2.76292 -5.47972,4.89717 -13.62249,5.60871 -1.56526,0.13678 -4.14099,0.164 -5.27781,0.0922 z"
         id="path353-5"
         sodipodi:nodetypes="ssssscssscssscssss" /><path
         style="fill:#e6f4f5;fill-opacity:1;stroke:#000000;stroke-width:0.0946428"
         d="m 113.25779,189.79516 c -1.22134,-0.0406 -3.2263,-0.14369 -3.90194,-0.20018 -4.53146,-0.37891 -7.72947,-1.61755 -9.11839,-3.45405 -0.438139,-0.57933 -0.671169,-1.0748 -0.708139,-1.92514 l -0.0571,-1.31332 0.534469,0.61706 c 1.00157,1.15632 2.52873,1.91134 5.52804,2.68884 1.95844,0.50768 2.51703,0.64387 4.86866,0.92061 1.75497,0.20653 2.51405,0.38959 5.04446,0.39065 1.61113,7.9e-4 3.35759,-0.22767 4.08519,-0.28284 4.19124,-0.31781 8.06309,-1.50483 10.26071,-2.57339 0.32436,-0.15771 1.20158,-0.78599 1.53889,-1.14836 l 0.63783,-0.68524 0.13364,0.73238 c 0.12382,0.67859 -0.17207,1.46256 -0.48346,2.07748 -0.80015,1.58013 -3.17367,2.90927 -6.35639,3.54404 -3.12515,0.6233 -6.03628,0.80998 -12.00647,0.61146 z"
         id="path354-4"
         sodipodi:nodetypes="sssscssscssscssss" /><path
         style="fill:#e7c9d2;fill-opacity:1;stroke:#000000;stroke-width:0.264999"
         d="m 114.90002,148.6321 c 0,0 0.28076,0.0982 0.71507,0.0982 0.45937,0 0.83278,-0.0805 0.83278,-0.0805"
         id="path10-1"
         sodipodi:nodetypes="csc" /></g></g></svg>
