<?xml version="1.0" encoding="UTF-8" standalone="no"?>
<!-- Created with Inkscape (http://www.inkscape.org/) -->

<svg
   width="53.186634mm"
   height="57.730221mm"
   viewBox="0 0 53.186634 57.730221"
   version="1.1"
   id="svg1"
   xml:space="preserve"
   inkscape:version="1.4.3 (0d15f75, 2025-12-25)"
   sodipodi:docname="рисунок1.svg"
   xmlns:inkscape="http://www.inkscape.org/namespaces/inkscape"
   xmlns:sodipodi="http://sodipodi.sourceforge.net/DTD/sodipodi-0.dtd"
   xmlns="http://www.w3.org/2000/svg"
   xmlns:svg="http://www.w3.org/2000/svg"
   xmlns:rdf="http://www.w3.org/1999/02/22-rdf-syntax-ns#"
   xmlns:cc="http://creativecommons.org/ns#"
   xmlns:dc="http://purl.org/dc/elements/1.1/"><defs
     id="defs1" /><sodipodi:namedview
     id="base"
     pagecolor="#ffffff"
     bordercolor="#000000"
     borderopacity="0.3"
     inkscape:pageopacity="0.0"
     inkscape:pageshadow="2"
     inkscape:zoom="0.35"
     inkscape:cx="537.14285"
     inkscape:cy="-195.71428"
     inkscape:document-units="mm"
     inkscape:showpageshadow="2"
     inkscape:pagecheckerboard="0"
     inkscape:deskcolor="#d1d1d1"
     inkscape:window-width="1920"
     inkscape:window-height="1009"
     inkscape:window-x="-8"
     inkscape:window-y="-8"
     inkscape:window-maximized="1"
     inkscape:current-layer="svg1"><inkscape:page
       x="0"
       y="0"
       width="53.186634"
       height="57.730221"
       id="page2"
       margin="0"
       bleed="0" /></sodipodi:namedview><metadata
     id="metadata1"><rdf:RDF><cc:Work
         rdf:about=""><dc:format>image/svg+xml</dc:format><dc:type
           rdf:resource="http://purl.org/dc/dcmitype/StillImage" /></cc:Work></rdf:RDF></metadata><g
     id="g8"
     transform="translate(59.868375,-1.0690781)"><path
       style="fill:#00d5ee;fill-opacity:1;stroke:#000000;stroke-width:0.264999"
       id="path286"
       sodipodi:type="arc"
       sodipodi:cx="-39.43885"
       sodipodi:cy="4.5398192"
       sodipodi:rx="1.9794649"
       sodipodi:ry="1.9627606"
       sodipodi:start="0"
       sodipodi:end="6.2812028"
       sodipodi:open="true"
       sodipodi:arc-type="arc"
       d="m -37.459386,4.5398192 a 1.9794649,1.9627606 0 0 1 -1.978483,1.9627604 1.9794649,1.9627606 0 0 1 -1.980445,-1.9608148 1.9794649,1.9627606 0 0 1 1.97652,-1.964704 1.9794649,1.9627606 0 0 1 1.982405,1.9588673" /><path
       style="fill:#00d5ee;fill-opacity:1;stroke:#000000;stroke-width:0.264999"
       id="path287"
       sodipodi:type="arc"
       sodipodi:cx="-45.27639"
       sodipodi:cy="6.5610523"
       sodipodi:rx="2.0462823"
       sodipodi:ry="1.9627606"
       sodipodi:start="0"
       sodipodi:end="6.2812028"
       sodipodi:open="true"
       sodipodi:arc-type="arc"
       d="m -43.230108,6.5610523 a 2.0462823,1.9627606 0 0 1 -2.045268,1.9627603 2.0462823,1.9627606 0 0 1 -2.047295,-1.9608147 2.0462823,1.9627606 0 0 1 2.043238,-1.964704 2.0462823,1.9627606 0 0 1 2.049321,1.9588672" /><path
       style="fill:#b27c89;fill-opacity:1;stroke:#000000;stroke-width:0.264999;stroke-opacity:1"
       d="M -53.989498,23.311649 Z"
       id="path288" /><path
       style="fill:#00d5ee;fill-opacity:1;stroke:#000000;stroke-width:0.264999"
       id="path289"
       sodipodi:type="arc"
       sodipodi:cx="-20.255083"
       sodipodi:cy="3.6756911"
       sodipodi:rx="2.0462823"
       sodipodi:ry="1.9627606"
       sodipodi:start="0"
       sodipodi:end="6.2812028"
       sodipodi:open="true"
       sodipodi:arc-type="arc"
       d="m -18.208801,3.6756911 a 2.0462823,1.9627606 0 0 1 -2.045268,1.9627604 2.0462823,1.9627606 0 0 1 -2.047295,-1.9608148 2.0462823,1.9627606 0 0 1 2.043238,-1.964704 2.0462823,1.9627606 0 0 1 2.049321,1.9588672" /><path
       style="fill:#00d5ee;fill-opacity:1;stroke:#000000;stroke-width:0.264999"
       id="path290"
       sodipodi:type="arc"
       sodipodi:cx="-26.382097"
       sodipodi:cy="3.0352569"
       sodipodi:rx="2.0462823"
       sodipodi:ry="1.9126475"
       sodipodi:start="0"
       sodipodi:end="6.2812028"
       sodipodi:open="true"
       sodipodi:arc-type="arc"
       d="m -24.335815,3.0352569 a 2.0462823,1.9126475 0 0 1 -2.045268,1.9126472 2.0462823,1.9126475 0 0 1 -2.047296,-1.9107513 2.0462823,1.9126475 0 0 1 2.043239,-1.9145413 2.0462823,1.9126475 0 0 1 2.049321,1.9088535" /><path
       style="fill:#00d5ee;fill-opacity:1;stroke:#000000;stroke-width:0.264999"
       id="path291"
       sodipodi:type="arc"
       sodipodi:cx="-33.010117"
       sodipodi:cy="3.6264586"
       sodipodi:rx="2.0462823"
       sodipodi:ry="1.9627606"
       sodipodi:start="0"
       sodipodi:end="6.2812028"
       sodipodi:open="true"
       sodipodi:arc-type="arc"
       d="m -30.963834,3.6264586 a 2.0462823,1.9627606 0 0 1 -2.045268,1.9627604 2.0462823,1.9627606 0 0 1 -2.047296,-1.9608148 2.0462823,1.9627606 0 0 1 2.043239,-1.964704 2.0462823,1.9627606 0 0 1 2.049321,1.9588673" /><path
       style="fill:#f00033;fill-opacity:0;stroke:#000000;stroke-width:0.264999"
       id="path292"
       sodipodi:type="arc"
       sodipodi:cx="-50.807327"
       sodipodi:cy="9.2716465"
       sodipodi:rx="1.8625345"
       sodipodi:ry="1.8458302"
       sodipodi:start="0"
       sodipodi:end="6.2812028"
       sodipodi:open="true"
       sodipodi:arc-type="arc"
       d="m -48.944793,9.2716465 a 1.8625345,1.8458302 0 0 1 -1.861611,1.8458295 1.8625345,1.8458302 0 0 1 -1.863457,-1.8439998 1.8625345,1.8458302 0 0 1 1.859764,-1.8476579 1.8625345,1.8458302 0 0 1 1.865301,1.8421688" /><path
       style="fill:#f00033;fill-opacity:0;stroke:#000000;stroke-width:0.264999"
       d="m -21.638607,5.1077472 c 0,0 -0.0945,1.299294 -0.35435,2.2442335 -0.25986,0.944941 -0.94494,4.0159973 -1.13392,4.3231033 -0.18899,0.307105 -0.25229,0.508336 -0.4961,0.354352 -0.44885,-0.283482 -0.83364,-2.8620703 -0.94494,-3.5907733 -0.11766,-0.770284 -0.42522,-3.9451265 -0.42522,-3.9451265"
       id="path293"
       sodipodi:nodetypes="cssssc" /><path
       style="fill:#f00033;fill-opacity:0;stroke:#000000;stroke-width:0.264999"
       d="m -19.016387,5.2022422 c 0,0 -0.23624,11.8590018 -0.23624,12.0243668 0,0.165365 0.27577,0.590812 0.23623,0.897694 -0.0451,0.349707 -0.19293,0.788886 -0.51971,0.921316 -1.13383,0.459483 -2.31482,-0.828605 -3.51991,-1.039434 -1.83379,-0.320822 -4.6302,-0.425223 -5.57515,-0.330729 -0.94494,0.09449 -5.22079,0.09449 -8.15011,1.771763 -2.92931,1.677269 -6.26023,4.937315 -6.42559,5.05543 -0.16537,0.118118 -0.97822,0.331076 -1.37016,0.0945 -0.56746,-0.342517 -0.7336,-1.159859 -0.8032,-1.81901 -0.0203,-0.191979 0.11811,-0.566965 0.11811,-0.566965 0,0 -2.29148,-2.976563 -3.40178,-5.598772 -1.110311,-2.622214 -2.149741,-5.433412 -2.149741,-5.433412"
       id="path294"
       sodipodi:nodetypes="csaaasssaacsc" /><path
       style="fill:#f00033;fill-opacity:0;stroke:#000000;stroke-width:0.264999"
       d="m -48.971007,9.7852027 c 0,0 2.78758,3.4726563 3.5199,4.4648433 0.73233,0.992188 1.51191,1.771764 1.72452,1.960752 0.21261,0.188988 0.47247,0.212611 0.54334,0.04725 0.0709,-0.165365 -1.9135,-7.6776413 -1.9135,-7.6776413"
       id="path295" /><path
       style="fill:#f00033;fill-opacity:0;stroke:#000000;stroke-width:0.264999"
       d="m -43.490347,7.5645927 c 0,0 3.73251,6.1421133 4.20498,6.2838543 0.47247,0.141741 0.37798,-0.897694 0.37798,-0.897694 l -0.51972,-6.3547238"
       id="path296"
       sodipodi:nodetypes="cscc" /><path
       style="fill:#f00033;fill-opacity:0;stroke:#000000;stroke-width:0.264999"
       d="m -37.844327,5.7219592 c 0,0 2.78757,6.0239948 3.23642,6.4728418 0.44884,0.448847 0.54334,-0.307109 0.56696,-0.448847 0.0236,-0.141741 0.16537,-6.3783478 0.16537,-6.3783478"
       id="path297"
       sodipodi:nodetypes="cssc" /><path
       style="fill:#f00033;fill-opacity:0;stroke:#000000;stroke-width:0.264999"
       d="m -31.536857,5.1549942 c 0,0 1.84264,6.5437128 2.19699,6.7090778 0.35435,0.165364 0.44885,-0.377972 0.49609,-0.496094 0.0472,-0.118117 1.37017,-6.6854538 1.37017,-6.6854538"
       id="path298"
       sodipodi:nodetypes="cssc" /><path
       style="fill:#f00033;fill-opacity:0;stroke:#000000;stroke-width:0.264999"
       d="m -45.262117,22.28204 c 0.16537,-0.259858 3.40375,-2.488876 4.77195,-3.260044 1.2993,-0.732329 4.11601,-2.503547 8.66983,-3.189174 4.06802,-0.612484 6.44922,-0.4016 8.90607,3e-6 2.4564,0.401531 3.66164,1.464657 3.66164,1.464657"
       id="path299"
       sodipodi:nodetypes="csssc" /><path
       style="fill:#f00033;fill-opacity:0;stroke:#000000;stroke-width:0.264999"
       d="m -39.332607,21.266229 c 0,0 0.28348,2.031622 0.94494,2.882069 0.66145,0.850445 1.18117,0.803198 1.18117,0.803198 0,0 2.08652,-1.404032 3.2128,-1.889879 1.2048,-0.519717 2.8997,-1.130855 5.62239,-1.819011 2.14974,-0.543341 2.26079,-0.40575 2.17337,-1.204799 -0.0648,-0.592001 -0.28349,-1.181176 -0.66146,-1.653646 -0.37798,-0.47247 -0.75595,-0.708705 -0.75595,-0.708705"
       id="path300"
       sodipodi:nodetypes="cscssssc" /><path
       style="fill:#f00033;fill-opacity:0;stroke:#000000;stroke-width:0.264999"
       d="m -37.230117,24.951496 c 0,0 -2.26786,1.441035 -2.71671,2.126118 l -0.42522,0.496094"
       id="path301"
       sodipodi:nodetypes="ccc" /><path
       style="fill:#f00033;fill-opacity:0;stroke:#000000;stroke-width:0.264999"
       d="m -26.410557,20.770136 c 0.0433,-0.183688 0.0727,-0.01812 2.43323,-0.87407 0.42924,-0.155652 0.82682,-0.188992 0.82682,-0.188992"
       id="path302"
       sodipodi:nodetypes="csc" /><path
       style="fill:#f00033;fill-opacity:0;stroke:#000000;stroke-width:0.264999"
       d="m -46.088937,20.9355 c 0,0 -0.91527,1.494888 -0.99219,2.456846 -0.17621,2.203944 0.53812,3.207813 0.75596,4.819197 0.0934,0.691129 -0.0204,1.430395 0.23623,2.078867 0.39759,1.004567 1.01209,2.040433 1.93713,2.598586 0.69612,0.420026 1.65365,0.66146 2.4096,0.377978 0.75595,-0.283483 2.97577,-1.574156 4.58296,-2.031623 1.88083,-0.535357 3.86739,-0.59099 5.81138,-0.803199 2.15178,-0.23489 4.38209,0.04069 6.47284,-0.519718 1.7011,-0.455964 3.42707,-1.130793 4.77196,-2.267858 1.46803,-1.241184 2.57856,-2.945763 3.30729,-4.724701 0.57513,-1.403994 0.66146,-3.779762 0.75595,-4.488467 0.0945,-0.708705 -0.23624,-3.827009 -1.18118,-5.008185 -0.94494,-1.181175 -1.70089,-1.795386 -1.70089,-1.795386 l -0.28348,-0.09449"
       id="path303"
       sodipodi:nodetypes="csaaasaaaaasscc" /><path
       style="fill:#f00033;fill-opacity:0;stroke:#000000;stroke-width:0.264999"
       d="m -17.173757,23.817569 c 0,0 -0.58366,5.773141 -0.33073,8.646205 0.27984,3.178696 1.04968,6.318756 2.03162,9.354906 0.83555,2.58353 2.45023,4.87333 3.26004,7.46504 0.26807,0.85789 0.70498,1.76633 0.51972,2.64583 -0.17019,0.808 -0.81125,1.47089 -1.41741,2.03162 -0.71953,0.66561 -1.64355,1.0827 -2.53512,1.48996 -1.22989,0.5618 -2.53499,0.95591 -3.84323,1.29761 -1.48832,0.38874 -3.0124,0.63653 -4.53571,0.85045 -2.33404,0.32777 -4.6834,0.61166 -7.03981,0.66146 -2.14422,0.0453 -4.3044,-0.014 -6.42559,-0.33073 -2.31203,-0.34518 -4.67239,-0.74034 -6.80357,-1.70089 -2.00324,-0.90289 -4.23454,-1.89108 -5.43341,-3.73252 -0.279761,-0.4297 -0.322911,-1.00067 -0.283481,-1.5119 0.0437,-0.56616 0.26117,-1.12793 0.566961,-1.6064 0.47381,-0.74136 1.41326,-1.10309 1.88988,-1.84263 1.17937,-1.82995 1.67612,-4.03424 2.22061,-6.14212 0.49862,-1.9303 0.88297,-3.91317 0.94494,-5.90588 0.0305,-0.980523 -0.28348,-2.929313 -0.28348,-2.929313"
       id="path304"
       sodipodi:nodetypes="caaaaaaaaaaaaaaaaac" /><path
       style="fill:#f00033;fill-opacity:0;stroke:#000000;stroke-width:0.264999"
       d="m -41.978447,33.361468 c 0,0 0.18899,2.409602 -0.23623,4.441222 -0.42523,2.03162 -1.88988,6.23661 -2.45685,7.41778 -0.56696,1.18118 -2.22061,4.58296 -2.4096,4.77195 -0.18898,0.18899 -0.7373,-0.0689 -0.94494,0.8032 -0.11811,0.49609 -0.0914,0.75123 0.14174,1.2048 0.2641,0.51387 0.47247,0.54334 1.06306,0.99219 0.27385,0.20812 1.98438,1.22842 4.44122,2.36235 2.37496,1.09613 7.55953,1.86625 11.43378,1.63002 3.87426,-0.23624 10.60696,-1.32292 12.92206,-2.4096 2.31511,-1.08668 3.68527,-2.29148 3.77976,-2.66946 0.0945,-0.37797 0.23624,-1.03943 -0.0945,-1.27567 -0.33073,-0.23623 -0.51804,-0.73568 -0.75428,-0.3577 -0.23624,0.37797 -0.44636,1.16037 -0.923,1.63338 -1.26745,1.25781 -2.05524,1.29929 -3.33091,1.81901 -1.27567,0.51971 -2.74033,0.85045 -5.05543,1.27567 -2.31511,0.42522 -8.40984,1.22755 -11.00856,0.85045 -2.5963,-0.37675 -5.50158,-0.79023 -8.6462,-2.55134 -0.59452,-0.33296 -2.91311,-1.8541 -3.0076,-2.37382 -0.0945,-0.51972 -0.11071,-0.98072 -0.11071,-0.98072"
       id="path305"
       sodipodi:nodetypes="cssssssssssssssssssc" /><path
       style="fill:#f00033;fill-opacity:0;stroke:#000000;stroke-width:0.264999"
       d="m -47.775487,52.3438 c 0,0 -0.20045,0.66817 -0.16704,1.16931 0.0334,0.50112 0.70158,1.1693 0.80181,1.30293"
       id="path306"
       sodipodi:nodetypes="csc" /><path
       style="fill:#f00033;fill-opacity:0;stroke:#000000;stroke-width:0.264999"
       d="m -14.233157,51.90949 c 0,0 0.0334,0.73499 -0.26727,1.67043 -0.30068,0.93545 -0.60136,1.43658 -0.73499,1.57021 -0.13364,0.13364 -0.53454,0.33409 -0.53454,0.33409"
       id="path307"
       sodipodi:nodetypes="cssc" /><path
       style="fill:#f00033;fill-opacity:0;stroke:#000000;stroke-width:0.264999"
       d="m -29.467527,30.360881 c 0,0 0.16705,2.171565 0.56795,3.942226 0.40091,1.770663 2.73951,6.481283 4.10927,7.917863 1.36976,1.43657 3.64155,3.14042 5.21176,4.40994 0.6654,0.53799 3.04019,1.97112 3.87541,2.63929 0.83521,0.66818 1.36975,1.33635 1.36975,1.33635"
       id="path308"
       sodipodi:nodetypes="cssssc" /><path
       style="fill:#f00033;fill-opacity:0;stroke:#000000;stroke-width:0.264999"
       d="m -43.198497,41.31893 c 0,0 2.23083,-3.15944 3.47451,-4.6104 1.40316,-1.63702 6.28083,-6.147195 6.28083,-6.147195"
       id="path309"
       sodipodi:nodetypes="csc" /><path
       style="fill:#f00033;fill-opacity:0;stroke:#000000;stroke-width:0.264999"
       d="m -44.100527,43.95822 c 0,0 4.81085,-5.34539 5.74629,-6.34765 0.93545,-1.00226 5.47903,-4.777445 6.5147,-5.445618 0.49027,-0.316308 2.40542,-1.202712 2.40542,-1.202712"
       id="path310"
       sodipodi:nodetypes="cssc" /><path
       style="fill:#f00033;fill-opacity:0;stroke:#000000;stroke-width:0.264999"
       d="m -43.868327,24.715264 c 0,0 1.13393,0.02362 1.58278,-0.04725 0.44884,-0.07087 1.39441,-0.43351 1.84263,-0.732326 0.63783,-0.425223 1.44103,-0.92132 1.44103,-0.92132"
       id="path311"
       sodipodi:nodetypes="cssc" /><path
       style="fill:#f00033;fill-opacity:0;stroke:#000000;stroke-width:0.264999"
       d="m -26.316057,19.281854 c 0.56696,-0.02362 1.27567,-0.212611 2.43322,-0.212611 1.15755,0 2.36235,-0.09449 2.69308,-0.04725 0.33073,0.04725 1.13393,0.141744 1.13393,0.141744"
       id="path312"
       sodipodi:nodetypes="cssc" /><path
       style="fill:#e6f4f5;fill-opacity:1;stroke:#000000;stroke-width:0.0334613"
       d="m -34.344134,58.07877 c -1.558412,-0.0794 -2.615515,-0.201853 -4.593695,-0.53212 -1.750171,-0.2922 -3.007437,-0.598342 -4.205612,-1.024051 -1.241267,-0.441021 -3.705307,-1.628412 -3.971806,-1.913967 -0.209793,-0.224792 -0.453203,-0.411443 -0.552657,-0.62167 -0.07932,-0.167672 -0.123181,-0.4445 -0.123202,-0.621242 -2.3e-5,-0.198839 0.01362,-0.947951 0.04901,-0.983482 0.0077,-0.0077 0.118632,0.204917 0.159903,0.241572 0.147757,0.131218 0.782216,0.574604 1.082488,0.756489 1.193543,0.722971 3.51832,1.907879 4.521688,2.304648 1.755887,0.694338 4.417664,1.192956 7.65059,1.433142 0.719894,0.05349 3.008176,0.0537 3.674955,2.64e-4 4.579263,-0.366432 9.828056,-1.306218 12.110651,-2.168384 1.266045,-0.4782 3.13704,-1.679194 4.04196,-2.489094 0.287166,-0.257011 0.119124,-0.07156 0.0167,0.42968 -0.132336,0.647642 -0.431072,1.464953 -0.702852,1.922936 -0.118758,0.200126 -0.283027,0.385377 -0.554895,0.553548 -0.622525,0.38508 -1.970275,0.75977 -3.769767,1.227977 -1.159928,0.301799 -2.293739,0.522695 -3.925522,0.764786 -2.604085,0.386347 -4.905614,0.633055 -6.716697,0.719986 -0.806926,0.03873 -3.42297,0.03805 -4.19124,-0.0011 z"
       id="path313"
       sodipodi:nodetypes="csssssssssscsssssssscc" /><path
       style="fill:#e6f4f5;fill-opacity:1;stroke:#000000;stroke-width:0.0334613"
       d="m -33.55903,56.855993 c -3.222372,-0.139886 -6.482887,-0.717648 -8.402286,-1.48888 -0.45961,-0.184676 -2.415362,-0.934357 -3.179931,-1.352018 -1.222251,-0.667681 -2.080398,-1.345411 -2.379357,-1.669745 -0.16619,-0.180295 -0.355899,-0.655471 -0.402313,-0.901804 -0.03275,-0.173791 -0.01237,-0.387858 0.065,-0.68304 0.05795,-0.221086 0.185449,-0.393348 0.344618,-0.465611 0.203061,-0.09219 0.223132,-0.0853 0.224465,0.07706 0.0016,0.192908 0.08233,0.632754 0.134105,0.730539 0.183439,0.346432 1.02753,1.041511 2.203337,1.814372 0.670256,0.440563 0.874993,0.558943 1.557,0.900271 1.560991,0.781243 3.060673,1.287312 5.0046,1.688809 1.394939,0.28811 3.052468,0.528074 3.944477,0.57105 2.976094,0.143383 9.485389,-0.640202 13.214093,-1.590704 0.966465,-0.246367 3.153188,-1.027181 3.825296,-1.365898 0.465812,-0.234754 0.906687,-0.550042 1.324446,-0.947171 0.370888,-0.352574 0.532286,-0.565468 0.813109,-1.167935 0.248103,-0.53227 0.329819,-0.710223 0.35822,-0.700167 0.01299,0.0046 0.268385,0.227209 0.423164,0.379191 0.353282,0.346898 0.284067,0.465415 0.175559,1.037431 -0.06556,0.34557 -0.194387,0.381063 -0.619001,0.751186 -0.667186,0.581562 -1.672283,1.223148 -2.759472,1.761461 -0.898485,0.444876 -1.440569,0.63659 -2.756217,0.974757 -2.906218,0.747003 -7.517651,1.453176 -10.674075,1.63458 -0.524708,0.03015 -1.870821,0.03693 -2.438835,0.01228 z"
       id="path314"
       sodipodi:nodetypes="ssssssssssssssssssssssssss" /><path
       style="fill:#36778f;fill-opacity:1;stroke:#000000;stroke-width:0.0473215"
       d="m -34.599323,55.848758 c -0.640972,-0.05551 -2.703682,-0.437576 -3.685268,-0.637524 -1.951626,-0.397542 -3.472407,-0.756957 -5.031808,-1.56746 -1.045343,-0.543319 -2.675954,-1.632135 -3.295839,-2.228755 -0.33337,-0.320858 -0.469195,-0.523457 -0.531921,-1.012246 -0.02867,-0.223451 0.147712,-0.247755 0.274033,-0.448844 0.365968,-0.582589 2.281047,-4.466476 2.629539,-5.332852 l 0.499719,-1.400169 2.031245,-2.284886 c 2.880653,-3.240358 3.292165,-3.353729 5.149618,-4.94945 1.654535,-1.421394 4.035756,-3.156783 4.701009,-3.608215 0.155916,-0.105802 1.168932,-0.936861 1.700895,-1.261639 l 0.590584,-0.360566 0.176581,0.651798 c 0.363796,1.342866 0.308398,2.923606 0.571029,3.699232 0.704326,2.08008 2.513353,5.51235 3.642161,6.910274 0.55521,0.687575 1.729751,1.729226 3.94933,3.502496 1.854414,1.481529 1.936927,1.427141 3.609043,2.529385 1.512369,0.996942 1.719123,1.159356 2.17872,1.575929 0.246509,0.223433 0.562938,0.334558 0.488643,0.418248 -0.04308,0.04852 -0.334426,0.541211 -0.503079,0.892755 -0.344649,0.718391 -0.583845,0.98561 -1.183076,1.465053 -0.626314,0.501116 -1.470229,0.875411 -3.527193,1.583415 -1.923346,0.662009 -5.59803,1.175546 -9.543899,1.577361 -1.775711,0.180824 -3.969354,0.366406 -4.890066,0.28666 z"
       id="path315"
       sodipodi:nodetypes="ssssssscsssscssssssssssss" /><path
       style="fill:#96cbcf;fill-opacity:1;stroke:#000000;stroke-width:0.133845"
       d="m -46.793956,19.81131 c -1.400978,-2.101474 -1.411033,-2.106932 -2.649259,-5.307375 l -1.271402,-3.286191 0.665385,-0.189706 c 0.288795,-0.08234 0.487706,-0.497851 0.729239,-0.613624 l 0.297715,-0.5241453 2.143006,2.6804013 c 2.346486,2.934901 3.046637,3.933222 3.47251,3.933222 0.174866,0 0.182107,-0.148151 0.220253,-0.24756 0.03815,-0.09941 -0.471552,-2.04922 -0.98975,-4.087913 -0.518198,-2.038694 -0.892065,-3.4473893 -0.892065,-3.4775093 0,-0.03012 0.315673,-0.07147 0.415665,-0.07147 0.09999,0 0.397706,-0.146516 0.661587,-0.325589 l 0.496488,-0.526042 0.900336,1.311146 c 1.510979,2.2004153 2.972088,4.8574903 3.173196,4.9346643 0.303225,0.116359 0.410302,-0.04476 0.493194,-0.375026 0.04096,-0.163216 0.0026,-1.75955 -0.146505,-3.547411 -0.149105,-1.7878613 -0.323249,-3.3849394 -0.284905,-3.4469816 0.03834,-0.062042 0.24515,-0.1301564 0.444712,-0.1796203 0.193225,-0.047892 0.392289,-0.1199859 0.578118,-0.2648929 l 0.553913,-0.4319376 0.811065,1.7014671 c 1.271001,2.6663333 2.096391,4.7983243 2.32769,4.9442233 0.169052,0.106635 0.296869,0.106683 0.466679,1.75e-4 0.298515,-0.18724 0.114799,-1.303129 0.300784,-4.4496333 l -1.04e-4,-2.3091853 0.639544,0.1179671 c 0.306499,0.056536 0.707187,-0.016245 1.022779,-0.1481032 0.284279,-0.1187794 0.709081,-0.2836598 0.719423,-0.2643214 0.01035,0.019341 0.401437,1.3217922 0.828262,2.7514228 0.945917,3.1682853 1.165146,3.9153653 1.538674,3.9153653 0.148458,0 0.04352,0.04277 0.197398,-0.289144 0.06272,-0.135282 0.319593,-1.673278 0.655931,-3.3241643 0.336338,-1.6508865 0.64253,-3.169063 0.680426,-3.3328904 0.06219,-0.2688748 0.360096,-0.1730798 0.891792,-0.100203 0.323966,0.044405 0.80061,0.029509 1.038791,-0.053525 0.238178,-0.083031 0.492397,-0.2419667 0.524086,-0.2102749 0.03169,0.031692 0.30352,1.1762131 0.440728,2.3392123 0.436173,3.6970343 0.611952,5.0378053 1.195723,5.0378053 0.20851,0 0.277029,-0.262994 0.413975,-0.52782 0.230119,-0.444998 1.339821,-5.1311998 1.339821,-5.5962447 0,-0.5714815 0.05843,-0.6711765 0.420976,-0.5333392 0.432403,0.1643989 1.585185,0.2949866 1.897065,0.1280795 0.234878,-0.1257035 0.427138,-0.2048854 0.374684,1.8040661 -0.0302,1.156476 0.04011,3.8861343 -0.118509,5.8280733 l -0.04691,3.808918 -1.13837,-0.593601 c -1.36716,-0.712901 -3.162948,-0.98175 -6.032743,-1.068353 -6.690228,-0.201896 -11.387288,1.309584 -17.479967,5.624928 -0.683838,0.484348 -1.26849,1.081069 -1.319643,1.081045 -0.05115,-2.4e-5 -0.440068,-0.496258 -0.966717,-1.286232 z"
       id="path316"
       sodipodi:nodetypes="sscsscssssssscssssssscsssscssssssssssssssssssscssssss" /><path
       style="fill:#00d5ee;fill-opacity:1;stroke:#000000;stroke-width:0.133845"
       d="m -40.049993,6.414985 c -0.534811,-0.156554 -1.265926,-1.029343 -1.379346,-1.6339212 -0.247278,-1.3181065 1.65987,-2.6775436 2.859596,-2.0813315 0.693186,0.3444848 1.098702,1.2033567 1.098702,1.9039363 0,1.2115007 -1.411835,2.1529702 -2.578952,1.8113164 z"
       id="path317"
       sodipodi:nodetypes="sssss" /><path
       style="fill:#00d5ee;fill-opacity:1;stroke:#000000;stroke-width:0.133845"
       d="m -46.251669,8.2517387 c -0.609637,-0.215173 -1.071903,-1.192012 -1.071242,-1.7401015 6.09e-4,-0.5049599 0.488491,-1.4000294 0.989213,-1.665687 0.466746,-0.2476314 0.82542,-0.2633927 1.164096,-0.2633927 1.883342,0 2.569761,2.9587642 0.87752,3.7270692 -0.696662,0.316293 -1.048235,0.263773 -1.391639,0.142568 z"
       id="path318"
       sodipodi:nodetypes="sssssss" /><path
       style="fill:#00d5ee;fill-opacity:1;stroke:#000000;stroke-width:0.133845"
       d="m -51.583018,11.014306 c -0.938225,-0.361939 -1.403351,-1.8906013 -0.966477,-2.6301703 0.746169,-1.263166 2.963364,-1.481648 3.583009,0.418621 0.40055,1.2283713 -0.958134,2.8513123 -2.616532,2.2115493 z"
       id="path319"
       sodipodi:nodetypes="ssss" /><path
       style="fill:#00d5ee;fill-opacity:1;stroke:#000000;stroke-width:0.133845"
       d="m -34.181445,5.3289894 c -0.885205,-0.6194636 -1.279147,-2.2519348 -0.45116,-3.0339823 1.489345,-1.40671021 3.674285,-0.405503 3.646027,1.1459104 -0.01029,0.5657876 -0.0031,1.0222786 -0.33016,1.41088 -0.377158,0.448228 -0.3673,0.7123563 -1.569826,0.7941628 -0.772288,0.052538 -0.773469,0.047911 -1.294881,-0.3169709 z"
       id="path320"
       sodipodi:nodetypes="ssssss" /><path
       style="fill:#00d5ee;fill-opacity:1;stroke:#000000;stroke-width:0.133845"
       d="m -27.20601,4.8714667 c -0.533416,-0.1185969 -0.969417,-0.8563928 -1.192876,-1.5541361 -0.356323,-1.1126099 0.871606,-2.2426427 1.922499,-2.267995 2.077421,-0.050112 2.67834,2.206707 1.742543,3.2087237 -0.642167,0.6876098 -1.353187,0.8621951 -2.472166,0.6134074 z"
       id="path321"
       sodipodi:nodetypes="sssss" /><path
       style="fill:#00d5ee;fill-opacity:1;stroke:#000000;stroke-width:0.133845"
       d="m -21.115513,5.4630432 c -0.514506,-0.3136979 -1.123098,-0.7918344 -1.183788,-1.9217243 -0.04791,-0.8920241 0.584467,-1.4975178 1.150379,-1.7045648 1.622287,-0.5935345 3.001928,0.5750374 3.001928,1.8883127 0,1.3132752 -1.830658,2.4317377 -2.968519,1.7379764 z"
       id="path322"
       sodipodi:nodetypes="sssss" /><path
       style="fill:#00d5ee;fill-opacity:1;stroke:#000000;stroke-width:0.133845"
       d="m -44.618391,24.36725 c -0.587523,-0.467688 -0.885965,-1.779259 -0.56947,-2.160614 0.26374,-0.317786 4.203292,-3.133569 5.531745,-3.874894 3.88351,-2.167139 7.792111,-3.013858 12.624287,-3.013858 3.055387,0 5.784503,0.618484 7.347114,1.465312 0.744548,0.403495 0.739626,1.366629 0.472836,1.92617 -0.264406,0.554542 -1.15425,0.376965 -2.527223,-0.255487 -1.768909,-0.81484 -4.545758,-1.178327 -8.087937,-0.895692 -5.150775,0.410986 -7.260918,1.330751 -11.530926,5.026086 -2.0369,1.762768 -1.875126,1.932747 -2.335029,2.007378 -0.326822,0.05304 -0.671378,-0.0222 -0.925397,-0.224401 z"
       id="path323"
       sodipodi:nodetypes="sssssssssss" /><path
       style="fill:#00d5ee;fill-opacity:1;stroke:#000000;stroke-width:0.133845"
       d="m -43.691933,43.063803 c 0.229053,-0.82999 0.500567,-1.850813 1.988612,-4.087865 1.237258,-1.860034 2.060593,-3.045121 4.845345,-5.3429 l 3.362092,-2.98264 0.998956,-0.12954 c 2.350897,-0.304853 3.014946,-0.115377 3.014946,0.03339 0,0.0834 -0.527246,0.465256 -1.173358,0.941871 -2.683237,1.979327 -6.461973,4.442423 -9.545319,7.817729 -3.06151,3.351405 -3.601357,4.148846 -3.491274,3.749952 z"
       id="path324"
       sodipodi:nodetypes="ssscsssss" /><path
       style="fill:#000000;fill-opacity:0;stroke:#000000;stroke-width:0.133845"
       d="m -43.46348,32.986507 c -0.716704,-0.253725 -1.59272,-1.106802 -2.091524,-2.03676 -0.295293,-0.550534 -0.415101,-1.00748 -0.507893,-1.937104 -0.06679,-0.669137 -0.273483,-1.817529 -0.459314,-2.551981 -0.523717,-2.069867 -0.425636,-3.717562 0.284264,-4.775432 0.14167,-0.211114 0.177943,-0.199676 0.42383,0.133633 0.170548,0.231185 0.272137,0.584459 0.277747,0.965864 0.01244,0.845629 0.386667,1.705581 0.845469,1.942838 0.561471,0.290346 2.234477,0.254259 3.151294,-0.06798 0.412015,-0.144812 1.139639,-0.508148 1.616942,-0.807418 0.477303,-0.299268 0.880014,-0.526563 0.894914,-0.505106 0.0149,0.02146 0.105014,0.234736 0.200256,0.473946 0.09524,0.23921 0.374068,0.611322 0.619615,0.826915 l 0.446449,0.391988 -0.830412,0.597419 c -1.195553,0.86011 -2.062955,1.781418 -1.864258,1.980112 0.119724,0.119727 0.322867,-0.01474 0.862498,-0.570888 0.766683,-0.79016 3.266387,-2.501043 4.978295,-3.40732 1.289903,-0.682869 3.561071,-1.478167 6.205825,-2.173103 2.579775,-0.677859 5.268857,-1.555943 5.330399,-1.740564 0.08378,-0.251351 -0.540036,-0.165288 -1.738649,0.239869 l -1.147696,0.387948 -0.06425,-0.421357 c -0.03533,-0.231746 -0.04752,-0.440193 -0.02708,-0.463217 0.105392,-0.118729 4.180882,-0.277524 5.288344,-0.206052 1.203645,0.07768 1.297934,0.06486 1.555355,-0.211447 0.342805,-0.367959 0.470668,-0.972471 0.300411,-1.420283 -0.148122,-0.389586 -0.173527,-3.114561 -0.04339,-4.654045 l 0.08691,-1.028173 0.392448,0.373245 c 1.571797,1.494882 2.165721,3.086161 2.159344,5.785453 -0.0091,3.845573 -0.960202,6.346431 -3.332535,8.76255 -0.92238,0.939403 -1.273104,1.191411 -2.475381,1.77864 -2.146782,1.048555 -3.483092,1.335048 -6.940309,1.48794 -6.375998,0.281969 -8.013642,0.613085 -11.478953,2.320925 -1.621215,0.798997 -1.975035,0.863111 -2.918965,0.528942 z"
       id="path325" /><path
       style="fill:#97dfe7;fill-opacity:1;stroke:#000000;stroke-width:0.133845"
       d="m -15.117433,55.194497 c 0,-0.04322 0.465468,-0.957011 0.605629,-1.377313 0.14016,-0.420301 0.403677,-1.095729 0.41199,-1.736492 l 0.01492,-1.149834 -0.678207,-0.802539 c -0.369315,-0.437023 -1.544124,-1.22351 -2.654421,-1.970083 -2.08675,-1.403151 -3.809561,-2.793243 -6.037318,-4.717137 -1.506326,-1.300866 -2.541384,-2.764242 -3.806079,-5.287153 -1.41143,-2.815624 -1.868191,-4.146928 -2.026195,-6.623235 l -0.07506,-1.176395 2.019194,-0.272632 c 1.268648,-0.171292 3.205779,-0.457928 5.009274,-1.335059 1.839394,-0.894588 3.40223,-1.96869 4.514477,-3.673403 0.35724,-0.547534 0.501867,-0.882857 0.426365,-0.517835 -0.04561,0.220499 -0.218696,2.562447 -0.262141,4.510172 -0.09156,4.104971 0.08007,5.704472 1.003755,9.354434 0.764778,3.022031 1.398318,4.190603 2.785759,7.099347 1.244615,2.609319 1.965399,4.43805 2.131922,5.487721 0.120772,0.761251 -0.188378,1.865122 -1.102548,2.6929 -0.686877,0.621964 -2.281311,1.652971 -2.281311,1.494536 z"
       id="path326"
       sodipodi:nodetypes="ssscssssscssssssssss" /><path
       style="fill:#75a1b2;fill-opacity:1;stroke:#000000;stroke-width:0.133845"
       d="m -48.917468,53.527148 c -0.863216,-0.888386 -1.097716,-1.313437 -1.097716,-2.175939 0,-0.992711 0.389736,-1.840888 1.461743,-2.791295 1.396236,-1.237856 2.00612,-2.4588 3.041875,-6.542882 0.28624,-1.128675 0.602197,-2.724359 0.730999,-3.45935 0.246782,-1.408218 0.353944,-4.264353 0.254539,-5.103069 l -0.08031,-0.677603 0.804525,0.348094 c 0.281836,0.121941 0.783805,0.186301 1.115979,0.315163 l 0.665807,0.01431 0.07087,1.561489 c 0.07497,1.651831 -0.280554,3.082367 -0.945602,5.188418 -1.004911,3.182324 -1.465944,4.24605 -2.817964,6.988162 -1.169913,2.372773 -1.549588,2.932819 -1.856544,3.00986 -0.475406,0.11932 -0.403552,1.59293 -0.263822,2.252269 0.07162,0.337973 -0.01811,1.531109 0.09807,1.84482 0.13951,0.376709 -0.807514,-0.386583 -1.182452,-0.772454 z"
       id="path327"
       sodipodi:nodetypes="sssssscsscsssssss" /><path
       style="fill:#b3c2c6;fill-opacity:1;stroke:#000000;stroke-width:0.133845"
       d="m -42.956166,41.046244 c 0,-0.08354 0.147715,-0.777443 0.68592,-2.674818 0.204466,-0.720815 0.420996,-1.740755 0.47017,-2.978047 l -0.0919,-1.890718 1.685879,-0.978273 c 0.426989,-0.247769 2.07104,-1.032409 2.500961,-1.180248 0.744936,-0.256164 3.356318,-0.541329 3.799973,-0.541329 0.114947,0 -1.620833,1.411517 -3.203963,2.973374 -1.869617,1.844492 -3.267202,3.354925 -3.987739,4.309721 -1.33465,1.76857 -1.859299,3.15399 -1.859299,2.960338 z"
       id="path328"
       sodipodi:nodetypes="ssscssssss" /><path
       style="fill:#ffffff;fill-opacity:1;stroke:#000000;stroke-width:0.133845"
       d="m -43.212265,33.28048 c -1.953362,-0.489958 -2.773256,-2.036715 -3.050511,-3.964683 -0.08453,-0.587814 -0.258627,-2.097889 -0.448129,-3.008646 -0.400534,-1.924984 -0.552739,-3.921122 0.235952,-4.407757 l 0.322569,-0.684877 0.73413,0.814221 c 0.199574,0.221345 0.150799,0.911368 0.152413,1.152602 0.005,0.740055 0.835403,1.517777 1.40836,1.562825 1.301649,0.102338 2.17604,-0.166801 3.716939,-1.054944 0.851614,-0.490853 1.097758,-0.651949 1.219417,-0.44009 0.0735,0.127993 0.572817,0.906317 0.700881,1.244275 l 0.801109,0.527135 -1.270983,0.885713 c -1.068793,0.744816 -1.801215,1.287841 -1.801215,1.659838 0,0.386487 0.328913,-0.394894 1.08107,-1.10095 2.14864,-2.016945 7.332142,-3.93106 10.812423,-5.066874 3.956386,-1.291193 5.617583,-1.430584 5.594099,-1.723157 -0.02127,-0.265245 0.182406,-0.06045 2.107901,-0.49085 0.981233,-0.219334 1.252781,-0.0024 1.514094,-0.214032 0.3771,-0.305356 0.372022,-1.012635 0.235106,-1.731346 -0.123338,-0.647438 -0.02413,-3.787164 0.09864,-4.701469 l 0.05511,-0.759245 1.192046,0.978987 c 0.846963,0.695584 1.153928,1.652193 1.457169,2.839699 0.287872,1.127315 0.25436,4.855506 -0.09056,6.168906 -0.371687,1.415322 -1.441276,3.301912 -2.400406,4.424375 -1.066027,1.247559 -2.103377,1.761935 -3.230099,2.326516 -2.271702,1.138312 -3.360841,1.435963 -8.009784,1.718056 -5.846207,0.35474 -6.692941,0.768511 -10.328064,2.397858 -1.758211,0.788069 -2.287319,0.82265 -2.843136,0.647914 z"
       id="path329"
       sodipodi:nodetypes="cssscsssssscsssssscsccssssssscc" /><path
       style="fill:#e6f4f5;fill-opacity:1;stroke:#000000;stroke-width:0.133845"
       d="m -38.141374,24.597363 c -0.311435,-0.269846 -1.10066,-1.625803 -1.294447,-2.807978 -0.08317,-0.507359 0.307526,-0.768133 1.110983,-1.340228 2.466303,-1.756108 4.615802,-2.457799 8.891783,-2.733953 1.256546,-0.08115 1.910535,0.04878 2.271828,0.334561 0.442257,0.349826 0.948886,1.541134 0.950804,2.075238 0.0013,0.405093 0.0118,0.655637 -3.055622,1.458259 -3.092934,0.809299 -4.682935,1.735666 -6.943034,2.707526 l -1.367553,0.795896 z"
       id="path330"
       sodipodi:nodetypes="ssssscsscs" /><path
       style="fill:#002f5e;fill-opacity:1;stroke:#000000;stroke-width:0.0473215"
       d="m -42.62549,24.003927 c 0.757614,-0.696167 1.793835,-1.701589 2.528808,-2.203157 l 0.630916,-0.430556 0.06279,0.418671 c 0.02514,0.16764 0.109896,0.484183 0.167464,0.707165 l 0.104669,0.405422 -0.664745,0.515194 c -0.843234,0.653531 -1.539288,0.842809 -2.112208,1.044879 -0.351282,0.123899 -1.143897,0.193072 -1.44236,0.193072 -0.05213,0 0.409926,-0.361482 0.724662,-0.65069 z"
       id="path331"
       sodipodi:nodetypes="sscsscssss" /><path
       style="fill:#002f5e;fill-opacity:1;stroke:#000000;stroke-width:0.0473215"
       d="m -26.484909,18.883012 c -0.09788,-0.190135 -0.242631,-0.589426 -0.403342,-0.76481 l -0.693102,-0.45252 1.046009,0.03329 c 1.630484,0.05189 3.265307,0.223996 4.065757,0.4915 0.33909,0.113321 1.287835,0.67591 1.321935,0.695384 0.308335,0.176093 -1.126784,0.07122 -2.03467,0.09728 -1.40898,0.04046 -1.996339,-0.0029 -2.914303,0.125307 -0.136335,0.01905 -0.219218,0.103005 -0.388284,-0.225433 z"
       id="path332"
       sodipodi:nodetypes="sscssssss" /><path
       style="fill:#ffffff;fill-opacity:1;stroke:#000000;stroke-width:0.0882058"
       d="m -25.978391,20.646476 c -0.09738,-2.9e-5 -0.134907,-0.409345 -0.164697,-0.699936 l -0.10425,-0.645273 1.031768,-0.128058 c 1.038217,-0.128857 2.908252,-0.06191 3.709064,-0.06278 0.701364,-5.27e-4 1.279799,0.330133 1.1356,0.454797 -0.09492,0.08206 -0.914588,0.156161 -1.187416,0.157943 -0.608833,0.0042 -2.259714,0.42739 -4.039188,0.834121 -0.105143,0.02403 -0.17919,0.08925 -0.297366,0.08921 z"
       id="path333"
       sodipodi:nodetypes="sccscscsss" /></g></svg>
